<?xml version="1.0" standalone="no"?>
<!DOCTYPE svg PUBLIC "-//W3C//DTD SVG 1.1//EN" "http://www.w3.org/Graphics/SVG/1.1/DTD/svg11.dtd" >
<svg>
<metadata>
Created by FontForge 20090622 at Fri Mar 16 12:53:10 2018
 By deploy user
Copyright &#194;&#169; 2015 by Reto Moser. All rights reserved.
</metadata>
<defs>
<font id="GTEestiText-Book" horiz-adv-x="600" >
  <font-face 
    font-family="GT Eesti Text Book"
    font-weight="375"
    font-stretch="normal"
    units-per-em="1000"
    panose-1="0 0 4 0 0 0 0 0 0 0"
    ascent="750"
    descent="-250"
    x-height="462"
    cap-height="700"
    bbox="-404 -252 1117 900"
    underline-thickness="50"
    underline-position="-50"
    unicode-range="U+0020-U+FB02"
  />
<missing-glyph horiz-adv-x="770" 
d="M197.5 32q-83.5 47 -130.5 130.5t-47 187.5q0 105 47 188t130.5 130t187.5 47q105 0 188 -47t130 -130t47 -188q0 -104 -47 -187.5t-130 -130.5t-188 -47q-104 0 -187.5 47zM560 54.5q78 44.5 122.5 123.5t44.5 177l-51 65l-70 -30l-68 90l-79 -44l-74 118l-74 -118
l-79 44l-68 -90l-70 30l-51 -65q0 -98 44.5 -177t122.5 -123.5t175 -44.5t175 44.5zM257 328q-10 10 -10 25t10 25t25 10t25 -10t10 -25t-10 -25t-25 -10t-25 10zM462 328q-10 10 -10 25t10 25t25 10t25 -10t10 -25t-10 -25t-25 -10t-25 10zM379 356q1 4 4 5.5t7 -0.5
q3 -1 4.5 -4t0.5 -7l-28 -78h34q4 0 6.5 -2.5t2.5 -6.5q0 -3 -2.5 -5.5t-6.5 -2.5h-58zM138.5 190.5q-19.5 19.5 -19.5 49.5t19.5 49.5t49.5 19.5t49.5 -19.5t19.5 -49.5t-19.5 -49.5t-49.5 -19.5t-49.5 19.5zM531.5 190.5q-19.5 19.5 -19.5 49.5t19.5 49.5t49.5 19.5
t49.5 -19.5t19.5 -49.5t-19.5 -49.5t-49.5 -19.5t-49.5 19.5zM346.5 185q-16.5 -8 -23.5 -22q-3 -6 -9 -6q-8 0 -8 9q0 17 24.5 31t54.5 14t54.5 -14t24.5 -31q0 -9 -8 -9q-6 0 -9 6q-7 14 -23.5 22t-38.5 8t-38.5 -8z" />
    <glyph glyph-name="fi" unicode="fi" horiz-adv-x="544" 
d="M296 630h-8q-45 0 -68.5 -24t-23.5 -80v-38q0 -4 -1 -14.5t-3 -16.5l2 -2q11 7 39 7h62v-80h-62q-17 0 -25 1.5t-14 5.5l-2 -2q4 -15 4 -48v-339h-84v339q0 33 4 48l-2 2q-6 -4 -14 -5.5t-25 -1.5h-50v80h50q28 0 39 -7l2 2q-4 11 -4 30v32q0 100 49.5 145t120.5 45h14
v-79zM476 0h-85v462h85v-462zM481.5 685q19.5 -19 19.5 -48q0 -28 -19.5 -47.5t-47.5 -19.5q-29 0 -48 19.5t-19 47.5q0 29 19 48t48 19q28 0 47.5 -19z" />
    <glyph glyph-name="fl" unicode="fl" horiz-adv-x="544" 
d="M296 630h-8q-45 0 -68.5 -24t-23.5 -80v-38q0 -4 -1 -14.5t-3 -16.5l2 -2q11 7 39 7h62v-80h-62q-17 0 -25 1.5t-14 5.5l-2 -2q4 -15 4 -48v-339h-84v339q0 33 4 48l-2 2q-6 -4 -14 -5.5t-25 -1.5h-50v80h50q28 0 39 -7l2 2q-4 11 -4 30v32q0 100 49.5 145t120.5 45h14
v-79zM476 0h-85v715h85v-715z" />
    <glyph glyph-name="f_f" unicode="ff" horiz-adv-x="646" 
d="M296 630h-8q-45 0 -68.5 -24t-23.5 -80v-38q0 -4 -1 -14.5t-3 -16.5l2 -2q11 7 39 7h62v-80h-62q-17 0 -25 1.5t-14 5.5l-2 -2q4 -15 4 -48v-339h-84v339q0 33 4 48l-2 2q-6 -4 -14 -5.5t-25 -1.5h-50v80h50q28 0 39 -7l2 2q-4 11 -4 30v32q0 100 49.5 145t120.5 45h14
v-79zM619 630h-8q-45 0 -68.5 -24t-23.5 -80v-38q0 -4 -1 -14.5t-3 -16.5l2 -2q11 7 39 7h62v-80h-62q-17 0 -25 1.5t-14 5.5l-2 -2q4 -15 4 -48v-339h-84v339q0 33 4 48l-2 2q-6 -4 -14 -5.5t-25 -1.5h-50v80h50q28 0 39 -7l2 2q-4 11 -4 30v32q0 100 49.5 145t120.5 45h14
v-79z" />
    <glyph glyph-name="f_f_i" unicode="ffi" horiz-adv-x="867" 
d="M296 630h-8q-45 0 -68.5 -24t-23.5 -80v-38q0 -4 -1 -14.5t-3 -16.5l2 -2q11 7 39 7h62v-80h-62q-17 0 -25 1.5t-14 5.5l-2 -2q4 -15 4 -48v-339h-84v339q0 33 4 48l-2 2q-6 -4 -14 -5.5t-25 -1.5h-50v80h50q28 0 39 -7l2 2q-4 11 -4 30v32q0 100 49.5 145t120.5 45h14
v-79zM619 630h-8q-45 0 -68.5 -24t-23.5 -80v-38q0 -4 -1 -14.5t-3 -16.5l2 -2q11 7 39 7h62v-80h-62q-17 0 -25 1.5t-14 5.5l-2 -2q4 -15 4 -48v-339h-84v339q0 33 4 48l-2 2q-6 -4 -14 -5.5t-25 -1.5h-50v80h50q28 0 39 -7l2 2q-4 11 -4 30v32q0 100 49.5 145t120.5 45h14
v-79zM799 0h-85v462h85v-462zM804.5 685q19.5 -19 19.5 -48q0 -28 -19.5 -47.5t-47.5 -19.5q-29 0 -48 19.5t-19 47.5q0 29 19 48t48 19q28 0 47.5 -19z" />
    <glyph glyph-name="f_f_l" unicode="ffl" horiz-adv-x="867" 
d="M296 630h-8q-45 0 -68.5 -24t-23.5 -80v-38q0 -4 -1 -14.5t-3 -16.5l2 -2q11 7 39 7h62v-80h-62q-17 0 -25 1.5t-14 5.5l-2 -2q4 -15 4 -48v-339h-84v339q0 33 4 48l-2 2q-6 -4 -14 -5.5t-25 -1.5h-50v80h50q28 0 39 -7l2 2q-4 11 -4 30v32q0 100 49.5 145t120.5 45h14
v-79zM619 630h-8q-45 0 -68.5 -24t-23.5 -80v-38q0 -4 -1 -14.5t-3 -16.5l2 -2q11 7 39 7h62v-80h-62q-17 0 -25 1.5t-14 5.5l-2 -2q4 -15 4 -48v-339h-84v339q0 33 4 48l-2 2q-6 -4 -14 -5.5t-25 -1.5h-50v80h50q28 0 39 -7l2 2q-4 11 -4 30v32q0 100 49.5 145t120.5 45h14
v-79zM799 0h-85v715h85v-715z" />
    <glyph glyph-name=".notdef" horiz-adv-x="770" 
d="M197.5 32q-83.5 47 -130.5 130.5t-47 187.5q0 105 47 188t130.5 130t187.5 47q105 0 188 -47t130 -130t47 -188q0 -104 -47 -187.5t-130 -130.5t-188 -47q-104 0 -187.5 47zM560 54.5q78 44.5 122.5 123.5t44.5 177l-51 65l-70 -30l-68 90l-79 -44l-74 118l-74 -118
l-79 44l-68 -90l-70 30l-51 -65q0 -98 44.5 -177t122.5 -123.5t175 -44.5t175 44.5zM257 328q-10 10 -10 25t10 25t25 10t25 -10t10 -25t-10 -25t-25 -10t-25 10zM462 328q-10 10 -10 25t10 25t25 10t25 -10t10 -25t-10 -25t-25 -10t-25 10zM379 356q1 4 4 5.5t7 -0.5
q3 -1 4.5 -4t0.5 -7l-28 -78h34q4 0 6.5 -2.5t2.5 -6.5q0 -3 -2.5 -5.5t-6.5 -2.5h-58zM138.5 190.5q-19.5 19.5 -19.5 49.5t19.5 49.5t49.5 19.5t49.5 -19.5t19.5 -49.5t-19.5 -49.5t-49.5 -19.5t-49.5 19.5zM531.5 190.5q-19.5 19.5 -19.5 49.5t19.5 49.5t49.5 19.5
t49.5 -19.5t19.5 -49.5t-19.5 -49.5t-49.5 -19.5t-49.5 19.5zM346.5 185q-16.5 -8 -23.5 -22q-3 -6 -9 -6q-8 0 -8 9q0 17 24.5 31t54.5 14t54.5 -14t24.5 -31q0 -9 -8 -9q-6 0 -9 6q-7 14 -23.5 22t-38.5 8t-38.5 -8z" />
    <glyph glyph-name=".null" horiz-adv-x="4" 
 />
    <glyph glyph-name="nonmarkingreturn" horiz-adv-x="4" 
 />
    <glyph glyph-name="space" unicode=" " horiz-adv-x="305" 
 />
    <glyph glyph-name="A" unicode="A" horiz-adv-x="686" 
d="M338 715h10l327 -715h-101l-87 196h-288l-87 -196h-101zM280 273h126q38 0 56 -2l1 1q-15 19 -31 57l-62 146q-22 57 -25 82h-4q-3 -25 -25 -82l-62 -146q-16 -38 -31 -57l1 -1q18 2 56 2z" />
    <glyph glyph-name="B" unicode="B" horiz-adv-x="619" 
d="M77 700h255q90 0 143 -47t53 -127q0 -50 -23 -86t-65 -53q-24 -11 -54 -12v-4q33 -1 55 -7q62 -15 96 -59.5t34 -111.5q0 -89 -59.5 -141t-159.5 -52h-275v700zM191 404h113q62 0 96.5 29t34.5 81q0 49 -30.5 75t-87.5 26h-126q-17 0 -25 4l-2 -2q3 -7 3 -26v-164
q0 -16 -3 -25l2 -1q11 3 25 3zM191 85h147q138 0 138 115q0 60 -38.5 90.5t-113.5 30.5h-133q-16 0 -25 4l-2 -2q3 -7 3 -25v-189q0 -18 -3 -26l2 -2q8 4 25 4z" />
    <glyph glyph-name="C" unicode="C" horiz-adv-x="687" 
d="M216 31q-85 46 -132 129t-47 190t47 190t132 129t195 46q140 0 246 -78l-55 -78q-90 64 -194 64q-80 0 -142 -34.5t-96.5 -96.5t-34.5 -142t34.5 -142t96.5 -96.5t142 -34.5q104 0 194 64l55 -78q-106 -78 -246 -78q-110 0 -195 46z" />
    <glyph glyph-name="D" unicode="D" horiz-adv-x="690" 
d="M482.5 657q81.5 -43 125.5 -122.5t44 -184.5t-44 -184.5t-125.5 -122.5t-188.5 -43h-217v700h217q107 0 188.5 -43zM164 617q3 -7 3 -25v-484q0 -17 -3 -25l2 -2q8 4 25 4h104q121 0 190 70.5t69 194.5t-69.5 194.5t-189.5 70.5h-104q-17 0 -25 4z" />
    <glyph glyph-name="E" unicode="E" horiz-adv-x="515" 
d="M470 615h-279q-16 0 -25 4l-2 -2q3 -7 3 -26v-143q0 -17 -3 -25l2 -2q9 4 25 4h247v-85h-247q-16 0 -25 4l-2 -2q3 -7 3 -26v-207q0 -18 -3 -26l2 -2q9 4 25 4h284v-85h-398v700h393v-85z" />
    <glyph glyph-name="F" unicode="F" horiz-adv-x="499" 
d="M475 615h-284q-16 0 -25 4l-2 -2q3 -7 3 -26v-157q0 -17 -3 -25l2 -2q9 4 25 4h259v-85h-259q-16 0 -25 4l-2 -2q3 -7 3 -25v-303h-90v700h398v-85z" />
    <glyph glyph-name="G" unicode="G" horiz-adv-x="788" 
d="M675 621l-60 -75q-91 77 -210 77q-80 0 -141 -35.5t-95 -98t-34 -141.5q0 -78 34.5 -140t97 -96.5t143.5 -34.5q82 0 138.5 34.5t85 86.5t29.5 103l-1 2q-16 -9 -68 -9h-184v85h350v-33q0 -93 -39.5 -176t-119.5 -134t-194 -51q-106 0 -190 45t-132 127.5t-48 189.5
t47 190.5t131.5 130.5t193.5 47q153 0 266 -94z" />
    <glyph glyph-name="H" unicode="H" horiz-adv-x="707" 
d="M630 0h-90v305q0 18 3 25l-2 2q-9 -4 -25 -4h-325q-16 0 -25 4l-2 -2q3 -7 3 -25v-305h-90v700h90v-262q0 -17 -3 -25l2 -2q9 4 25 4h325q16 0 25 -4l2 2q-3 8 -3 25v262h90v-700z" />
    <glyph glyph-name="I" unicode="I" horiz-adv-x="244" 
d="M167 0h-90v700h90v-700z" />
    <glyph glyph-name="J" unicode="J" horiz-adv-x="293" 
d="M216 164q0 -88 -35.5 -128.5t-110.5 -40.5q-19 0 -45 3v85q15 -1 36 -1q33 0 49 17.5t16 61.5v539h90v-536z" />
    <glyph glyph-name="K" unicode="K" horiz-adv-x="606" 
d="M321 429q-22 -24 -34 -34.5t-26 -19.5v-4q13 -7 23.5 -16.5t19 -19.5t13.5 -15l284 -320h-123l-316 359l-2 -1q7 -42 7 -117v-241h-90v700h90v-199q0 -75 -7 -116l2 -2l282 317h123z" />
    <glyph glyph-name="L" unicode="L" horiz-adv-x="490" 
d="M167 109q0 -16 -3 -24l2 -2q7 3 25 3h288v-86h-402v700h90v-591z" />
    <glyph glyph-name="M" unicode="M" horiz-adv-x="873" 
d="M266 389q-17 40 -23 63.5t-9 48.5h-4q-3 -66 -16 -113l-108 -388h-94l202 711h13l189 -460q13 -34 19 -85h4q5 50 19 85l189 460h12l202 -711h-93l-108 388q-16 57 -16 113h-4q-4 -27 -10 -50.5t-23 -61.5l-166 -398h-9z" />
    <glyph glyph-name="N" unicode="N" horiz-adv-x="729" 
d="M512 257q18 -18 33 -39.5t22 -38.5l4 1q-10 45 -10 126v394h90v-710h-8l-427 453q-17 18 -32 39.5t-23 38.5l-3 -1q9 -40 9 -125v-395h-90v710h9z" />
    <glyph glyph-name="O" unicode="O" horiz-adv-x="804" 
d="M590 668q83 -47 130 -130t47 -188t-47 -188t-130 -130t-188 -47t-188 47t-130 130t-47 188t47 188t130 130t188 47t188 -47zM264 588q-61 -35 -95 -97t-34 -141t34 -141t95 -97t138 -35t138 35t95 97t34 141t-34 141t-95 97t-138 35t-138 -35z" />
    <glyph glyph-name="P" unicode="P" horiz-adv-x="540" 
d="M457.5 647.5q58.5 -52.5 58.5 -143.5q0 -90 -57 -142.5t-153 -52.5h-115q-16 0 -25 4l-2 -2q3 -7 3 -25v-286h-90v700h222q100 0 158.5 -52.5zM164 617q3 -7 3 -26v-173q0 -17 -3 -26l2 -1q11 3 25 3h109q57 0 88 29.5t31 80.5q0 52 -31 81.5t-88 29.5h-109q-17 0 -25 4z
" />
    <glyph glyph-name="Q" unicode="Q" horiz-adv-x="801" 
d="M218 41.5q-84 46.5 -132.5 128.5t-48.5 185q0 104 46.5 186t129.5 128t188 46q107 0 189.5 -45.5t128 -126.5t45.5 -184q0 -140 -110 -233q-57 -48 -133 -69l1 -4q59 13 89.5 18t65.5 5h80v-81h-353q-102 0 -186 46.5zM538 124.5q60 34.5 94 95.5t34 138q0 78 -32 138
t-92 93.5t-141 33.5q-79 0 -139.5 -33.5t-93.5 -94.5t-33 -140q0 -76 35 -136.5t96 -94.5t138 -34q74 0 134 34.5z" />
    <glyph glyph-name="R" unicode="R" horiz-adv-x="593" 
d="M457.5 649q56.5 -51 56.5 -140q0 -54 -25.5 -95.5t-67 -64t-85.5 -22.5q-17 0 -34 5v-4q32 -12 64 -52l218 -276h-117l-251 321h-26q-18 0 -24 3l-2 -2q3 -9 3 -26v-296h-90v700h228q96 0 152.5 -51zM164 617q3 -7 3 -26v-161q0 -16 -3 -25l2 -1q11 3 25 3h114
q54 0 83.5 27t29.5 76q0 48 -29 76.5t-84 28.5h-114q-17 0 -25 4z" />
    <glyph glyph-name="S" unicode="S" horiz-adv-x="493" 
d="M439 669l-41 -86q-74 41 -142 41q-46 0 -69.5 -18.5t-23.5 -51.5q0 -27 15 -48.5t50 -48.5l119 -90q59 -44 86.5 -88t27.5 -102q0 -91 -59.5 -141.5t-161.5 -50.5q-62 0 -120 18t-103 47l42 84q96 -57 182 -57q59 0 91 26t32 69q0 32 -19 59t-62 60l-117 90
q-52 40 -76.5 79t-24.5 90q0 76 51.5 120.5t141.5 44.5q89 0 181 -46z" />
    <glyph glyph-name="T" unicode="T" horiz-adv-x="517" 
d="M507 614h-179q-19 0 -26 3l-1 -2q3 -7 3 -24v-591h-90v591q0 17 3 24l-2 2q-7 -3 -25 -3h-180v86h497v-86z" />
    <glyph glyph-name="U" unicode="U" horiz-adv-x="681" 
d="M613 261q0 -84 -33.5 -146t-95 -95.5t-143.5 -33.5q-83 0 -144.5 33.5t-95 95.5t-33.5 146v439h94v-435q0 -88 48 -137.5t131 -49.5q82 0 130 49.5t48 137.5v435h94v-439z" />
    <glyph glyph-name="V" unicode="V" horiz-adv-x="630" 
d="M320 -10h-10l-308 710h106l170 -419q15 -36 21.5 -62.5t13.5 -64.5h4q5 34 12.5 61.5t22.5 65.5l170 419h105z" />
    <glyph glyph-name="W" unicode="W" horiz-adv-x="949" 
d="M626 310q20 -55 26 -77.5t10 -53.5h4q4 31 10.5 56.5t23.5 73.5l134 391h103l-268 -711h-10l-163 436q-10 26 -13.5 45t-5.5 43h-4q-3 -25 -6.5 -44t-12.5 -44l-164 -436h-10l-268 711h104l133 -391q17 -48 23.5 -73.5t10.5 -56.5h4q4 32 11 55.5t25 75.5l146 401h12z
" />
    <glyph glyph-name="X" unicode="X" horiz-adv-x="617" 
d="M407 434q-26 -40 -44 -61v-2q17 -22 43 -61q6 -7 12 -18l188 -292h-107l-147 232q-22 34 -30.5 51t-10.5 29h-4q-6 -23 -42 -80l-147 -232h-107l188 292q40 60 55 79v2q-21 23 -44 61l-170 266h106l117 -185q38 -60 44 -83h4q2 12 11.5 30t31.5 53l117 185h106z" />
    <glyph glyph-name="Y" unicode="Y" horiz-adv-x="555" 
d="M322 277v-277h-90v277l-225 423h108l117 -238q24 -51 31.5 -69.5t12.5 -44.5h2q5 25 12 42.5t33 71.5l117 238h108z" />
    <glyph glyph-name="Z" unicode="Z" horiz-adv-x="583" 
d="M564 696l-401 -620l1 -3q11 8 26.5 11.5t44.5 3.5h330l-46 -88h-504l-3 4l404 620l-2 3q-12 -8 -30 -11.5t-52 -3.5h-278l44 88h465z" />
    <glyph glyph-name="Aacute" unicode="&#xc1;" horiz-adv-x="686" 
d="M338 715h10l327 -715h-101l-87 196h-288l-87 -196h-101zM280 273h126q38 0 56 -2l1 1q-15 19 -31 57l-62 146q-22 57 -25 82h-4q-3 -25 -25 -82l-62 -146q-16 -38 -31 -57l1 -1q18 2 56 2zM499 850l-126 -107h-59l-1 2l88 108h97z" />
    <glyph glyph-name="Abreve" unicode="&#x102;" horiz-adv-x="686" 
d="M338 715h10l327 -715h-101l-87 196h-288l-87 -196h-101zM280 273h126q38 0 56 -2l1 1q-15 19 -31 57l-62 146q-22 57 -25 82h-4q-3 -25 -25 -82l-62 -146q-16 -38 -31 -57l1 -1q18 2 56 2zM440.5 772.5q-37.5 -29.5 -97.5 -29.5q-61 0 -98.5 29.5t-39.5 80.5h62
q3 -25 22.5 -38t53.5 -13q33 0 52.5 13t22.5 38h62q-2 -51 -39.5 -80.5z" />
    <glyph glyph-name="Acircumflex" unicode="&#xc2;" horiz-adv-x="686" 
d="M338 715h10l327 -715h-101l-87 196h-288l-87 -196h-101zM280 273h126q38 0 56 -2l1 1q-15 19 -31 57l-62 146q-22 57 -25 82h-4q-3 -25 -25 -82l-62 -146q-16 -38 -31 -57l1 -1q18 2 56 2zM182 747l114 116h93l114 -116v-4h-79l-32 32q-25 24 -34.5 36t-13.5 26h-3
q-3 -14 -12.5 -25.5t-34.5 -36.5l-33 -32h-79v4z" />
    <glyph glyph-name="Adieresis" unicode="&#xc4;" horiz-adv-x="686" 
d="M338 715h10l327 -715h-101l-87 196h-288l-87 -196h-101zM280 273h126q38 0 56 -2l1 1q-15 19 -31 57l-62 146q-22 57 -25 82h-4q-3 -25 -25 -82l-62 -146q-16 -38 -31 -57l1 -1q18 2 56 2zM291 845q17 -17 17 -43t-17.5 -43.5t-42.5 -17.5q-26 0 -43.5 17.5t-17.5 43.5
t17.5 43t43.5 17t43 -17zM483 845q17 -17 17 -43t-17.5 -43.5t-42.5 -17.5q-26 0 -43.5 17.5t-17.5 43.5t17.5 43t43.5 17t43 -17z" />
    <glyph glyph-name="AE" unicode="&#xc6;" horiz-adv-x="911" 
d="M871 86v-86h-364v172q0 17 3 26l-1 1q-10 -3 -26 -3h-237l-127 -196h-108l462 700h394v-86h-250q-17 0 -26 4l-1 -2q3 -7 3 -25v-143q0 -17 -3 -25l1 -2q9 4 26 4h225v-86h-225q-17 0 -26 4l-1 -2q3 -7 3 -25v-207q0 -17 -3 -25l1 -2q9 4 26 4h254zM507 296v261
q0 33 6 73h-1q-14 -38 -35 -72l-157 -245q-12 -18 -19 -27t-19 -17l1 -1q12 4 23 4.5t27 0.5h150q17 0 26 -3l1 1q-3 9 -3 25z" />
    <glyph glyph-name="AEacute" unicode="&#x1fc;" horiz-adv-x="911" 
d="M871 86v-86h-364v172q0 17 3 26l-1 1q-10 -3 -26 -3h-237l-127 -196h-108l462 700h394v-86h-250q-17 0 -26 4l-1 -2q3 -7 3 -25v-143q0 -17 -3 -25l1 -2q9 4 26 4h225v-86h-225q-17 0 -26 4l-1 -2q3 -7 3 -25v-207q0 -17 -3 -25l1 -2q9 4 26 4h254zM507 296v261
q0 33 6 73h-1q-14 -38 -35 -72l-157 -245q-12 -18 -19 -27t-19 -17l1 -1q12 4 23 4.5t27 0.5h150q17 0 26 -3l1 1q-3 9 -3 25zM831 850l-126 -107h-59l-1 2l88 108h97z" />
    <glyph glyph-name="Agrave" unicode="&#xc0;" horiz-adv-x="686" 
d="M338 715h10l327 -715h-101l-87 196h-288l-87 -196h-101zM280 273h126q38 0 56 -2l1 1q-15 19 -31 57l-62 146q-22 57 -25 82h-4q-3 -25 -25 -82l-62 -146q-16 -38 -31 -57l1 -1q18 2 56 2zM373 745l-1 -2h-58l-127 107l1 3h97z" />
    <glyph glyph-name="Amacron" unicode="&#x100;" horiz-adv-x="686" 
d="M338 715h10l327 -715h-101l-87 196h-288l-87 -196h-101zM280 273h126q38 0 56 -2l1 1q-15 19 -31 57l-62 146q-22 57 -25 82h-4q-3 -25 -25 -82l-62 -146q-16 -38 -31 -57l1 -1q18 2 56 2zM486 822v-59h-288v59h288z" />
    <glyph glyph-name="Aogonek" unicode="&#x104;" horiz-adv-x="686" 
d="M338 715h10l327 -715h-101l-87 196h-288l-87 -196h-101zM280 273h126q38 0 56 -2l1 1q-15 19 -31 57l-62 146q-22 57 -25 82h-4q-3 -25 -25 -82l-62 -146q-16 -38 -31 -57l1 -1q18 2 56 2zM619 9q-48 -37 -70.5 -63.5t-22.5 -47.5q0 -15 10.5 -23t29.5 -8q22 0 43 6
l13 -49q-35 -13 -68 -13q-38 0 -63 19t-25 52q0 36 29 69.5t90 75.5z" />
    <glyph glyph-name="Aring" unicode="&#xc5;" horiz-adv-x="686" 
d="M338 715h10l327 -715h-101l-87 196h-288l-87 -196h-101zM280 273h126q38 0 56 -2l1 1q-15 19 -31 57l-62 146q-22 57 -25 82h-4q-3 -25 -25 -82l-62 -146q-16 -38 -31 -57l1 -1q18 2 56 2zM261 708q-32 31 -32 80t32 80.5t82 31.5t82 -31.5t32 -80.5t-32 -80t-82 -31
t-82 31zM391.5 740q18.5 19 18.5 48q0 30 -18.5 49t-48.5 19t-48.5 -19t-18.5 -49q0 -29 18.5 -48t48.5 -19t48.5 19z" />
    <glyph glyph-name="Atilde" unicode="&#xc3;" horiz-adv-x="686" 
d="M338 715h10l327 -715h-101l-87 196h-288l-87 -196h-101zM280 273h126q38 0 56 -2l1 1q-15 19 -31 57l-62 146q-22 57 -25 82h-4q-3 -25 -25 -82l-62 -146q-16 -38 -31 -57l1 -1q18 2 56 2zM175 758q27 95 102 95q29 0 87 -20q53 -19 78 -19q18 0 29.5 9t21.5 28l36 -11
q-27 -95 -101 -95q-18 0 -37 5t-52 16q-21 7 -41 12.5t-35 5.5q-18 0 -29 -8.5t-22 -28.5z" />
    <glyph glyph-name="Cacute" unicode="&#x106;" horiz-adv-x="687" 
d="M216 31q-85 46 -132 129t-47 190t47 190t132 129t195 46q140 0 246 -78l-55 -78q-90 64 -194 64q-80 0 -142 -34.5t-96.5 -96.5t-34.5 -142t34.5 -142t96.5 -96.5t142 -34.5q104 0 194 64l55 -78q-106 -78 -246 -78q-110 0 -195 46zM553 850l-126 -107h-59l-1 2l88 108
h97z" />
    <glyph glyph-name="Ccaron" unicode="&#x10c;" horiz-adv-x="687" 
d="M216 31q-85 46 -132 129t-47 190t47 190t132 129t195 46q140 0 246 -78l-55 -78q-90 64 -194 64q-80 0 -142 -34.5t-96.5 -96.5t-34.5 -142t34.5 -142t96.5 -96.5t142 -34.5q104 0 194 64l55 -78q-106 -78 -246 -78q-110 0 -195 46zM557 859l-114 -116h-93l-114 116v4h79
l33 -32q25 -25 34.5 -36.5t12.5 -25.5h3q4 14 13.5 25.5t34.5 36.5l32 32h79v-4z" />
    <glyph glyph-name="Ccedilla" unicode="&#xc7;" horiz-adv-x="687" 
d="M216 31q-85 46 -132 129t-47 190t47 190t132 129t195 46q140 0 246 -78l-55 -78q-90 64 -194 64q-80 0 -142 -34.5t-96.5 -96.5t-34.5 -142t34.5 -142t96.5 -96.5t142 -34.5q104 0 194 64l55 -78q-106 -78 -246 -78q-110 0 -195 46zM420 -36q39 -11 63 -27.5t24 -45.5
q0 -36 -35 -61t-98 -54l-14 29q43 25 60 37.5t17 27.5t-18.5 25t-54.5 18l41 111h37z" />
    <glyph glyph-name="Ccircumflex" unicode="&#x108;" horiz-adv-x="687" 
d="M216 31q-85 46 -132 129t-47 190t47 190t132 129t195 46q140 0 246 -78l-55 -78q-90 64 -194 64q-80 0 -142 -34.5t-96.5 -96.5t-34.5 -142t34.5 -142t96.5 -96.5t142 -34.5q104 0 194 64l55 -78q-106 -78 -246 -78q-110 0 -195 46zM236 747l114 116h93l114 -116v-4h-79
l-32 32q-25 24 -34.5 36t-13.5 26h-3q-3 -14 -12.5 -25.5t-34.5 -36.5l-33 -32h-79v4z" />
    <glyph glyph-name="Cdotaccent" unicode="&#x10a;" horiz-adv-x="687" 
d="M216 31q-85 46 -132 129t-47 190t47 190t132 129t195 46q140 0 246 -78l-55 -78q-90 64 -194 64q-80 0 -142 -34.5t-96.5 -96.5t-34.5 -142t34.5 -142t96.5 -96.5t142 -34.5q104 0 194 64l55 -78q-106 -78 -246 -78q-110 0 -195 46zM441 845q17 -17 17 -43t-17.5 -43.5
t-42.5 -17.5q-26 0 -43.5 17.5t-17.5 43.5t17.5 43t43.5 17t43 -17z" />
    <glyph glyph-name="Dcaron" unicode="&#x10e;" horiz-adv-x="690" 
d="M482.5 657q81.5 -43 125.5 -122.5t44 -184.5t-44 -184.5t-125.5 -122.5t-188.5 -43h-217v700h217q107 0 188.5 -43zM164 617q3 -7 3 -25v-484q0 -17 -3 -25l2 -2q8 4 25 4h104q121 0 190 70.5t69 194.5t-69.5 194.5t-189.5 70.5h-104q-17 0 -25 4zM447 859l-114 -116h-93
l-114 116v4h79l33 -32q25 -25 34.5 -36.5t12.5 -25.5h3q4 14 13.5 25.5t34.5 36.5l32 32h79v-4z" />
    <glyph glyph-name="Dcroat" unicode="&#x110;" horiz-adv-x="709" 
d="M503 657.5q79 -42.5 124 -121.5t45 -186t-45 -186t-124 -121.5t-180 -42.5h-219v295q0 16 3 25l-1 1q-11 -3 -26 -3h-78v75h78q19 0 26 -3l1 2q-3 8 -3 24v284h219q101 0 180 -42.5zM452 115.5q57 30.5 89.5 90t32.5 144.5q0 84 -32.5 144t-90 90.5t-130.5 30.5h-103
q-16 0 -25 4l-2 -2q3 -7 3 -25v-176q0 -16 -3 -24l2 -2q7 3 25 3h168v-75h-168q-15 0 -25 3l-2 -1q3 -9 3 -25v-187q0 -17 -3 -25l2 -2q9 4 25 4h103q74 0 131 30.5z" />
    <glyph glyph-name="Eacute" unicode="&#xc9;" horiz-adv-x="515" 
d="M470 615h-279q-16 0 -25 4l-2 -2q3 -7 3 -26v-143q0 -17 -3 -25l2 -2q9 4 25 4h247v-85h-247q-16 0 -25 4l-2 -2q3 -7 3 -26v-207q0 -18 -3 -26l2 -2q9 4 25 4h284v-85h-398v700h393v-85zM443 850l-126 -107h-59l-1 2l88 108h97z" />
    <glyph glyph-name="Ebreve" unicode="&#x114;" horiz-adv-x="515" 
d="M470 615h-279q-16 0 -25 4l-2 -2q3 -7 3 -26v-143q0 -17 -3 -25l2 -2q9 4 25 4h247v-85h-247q-16 0 -25 4l-2 -2q3 -7 3 -26v-207q0 -18 -3 -26l2 -2q9 4 25 4h284v-85h-398v700h393v-85zM384.5 772.5q-37.5 -29.5 -97.5 -29.5q-61 0 -98.5 29.5t-39.5 80.5h62
q3 -25 22.5 -38t53.5 -13q33 0 52.5 13t22.5 38h62q-2 -51 -39.5 -80.5z" />
    <glyph glyph-name="Ecaron" unicode="&#x11a;" horiz-adv-x="515" 
d="M470 615h-279q-16 0 -25 4l-2 -2q3 -7 3 -26v-143q0 -17 -3 -25l2 -2q9 4 25 4h247v-85h-247q-16 0 -25 4l-2 -2q3 -7 3 -26v-207q0 -18 -3 -26l2 -2q9 4 25 4h284v-85h-398v700h393v-85zM447 859l-114 -116h-93l-114 116v4h79l33 -32q25 -25 34.5 -36.5t12.5 -25.5h3
q4 14 13.5 25.5t34.5 36.5l32 32h79v-4z" />
    <glyph glyph-name="Ecircumflex" unicode="&#xca;" horiz-adv-x="515" 
d="M470 615h-279q-16 0 -25 4l-2 -2q3 -7 3 -26v-143q0 -17 -3 -25l2 -2q9 4 25 4h247v-85h-247q-16 0 -25 4l-2 -2q3 -7 3 -26v-207q0 -18 -3 -26l2 -2q9 4 25 4h284v-85h-398v700h393v-85zM126 747l114 116h93l114 -116v-4h-79l-32 32q-25 24 -34.5 36t-13.5 26h-3
q-3 -14 -12.5 -25.5t-34.5 -36.5l-33 -32h-79v4z" />
    <glyph glyph-name="Edieresis" unicode="&#xcb;" horiz-adv-x="515" 
d="M470 615h-279q-16 0 -25 4l-2 -2q3 -7 3 -26v-143q0 -17 -3 -25l2 -2q9 4 25 4h247v-85h-247q-16 0 -25 4l-2 -2q3 -7 3 -26v-207q0 -18 -3 -26l2 -2q9 4 25 4h284v-85h-398v700h393v-85zM235 845q17 -17 17 -43t-17.5 -43.5t-42.5 -17.5q-26 0 -43.5 17.5t-17.5 43.5
t17.5 43t43.5 17t43 -17zM427 845q17 -17 17 -43t-17.5 -43.5t-42.5 -17.5q-26 0 -43.5 17.5t-17.5 43.5t17.5 43t43.5 17t43 -17z" />
    <glyph glyph-name="Edotaccent" unicode="&#x116;" horiz-adv-x="515" 
d="M470 615h-279q-16 0 -25 4l-2 -2q3 -7 3 -26v-143q0 -17 -3 -25l2 -2q9 4 25 4h247v-85h-247q-16 0 -25 4l-2 -2q3 -7 3 -26v-207q0 -18 -3 -26l2 -2q9 4 25 4h284v-85h-398v700h393v-85zM331 845q17 -17 17 -43t-17.5 -43.5t-42.5 -17.5q-26 0 -43.5 17.5t-17.5 43.5
t17.5 43t43.5 17t43 -17z" />
    <glyph glyph-name="Egrave" unicode="&#xc8;" horiz-adv-x="515" 
d="M470 615h-279q-16 0 -25 4l-2 -2q3 -7 3 -26v-143q0 -17 -3 -25l2 -2q9 4 25 4h247v-85h-247q-16 0 -25 4l-2 -2q3 -7 3 -26v-207q0 -18 -3 -26l2 -2q9 4 25 4h284v-85h-398v700h393v-85zM317 745l-1 -2h-58l-127 107l1 3h97z" />
    <glyph glyph-name="Emacron" unicode="&#x112;" horiz-adv-x="515" 
d="M470 615h-279q-16 0 -25 4l-2 -2q3 -7 3 -26v-143q0 -17 -3 -25l2 -2q9 4 25 4h247v-85h-247q-16 0 -25 4l-2 -2q3 -7 3 -26v-207q0 -18 -3 -26l2 -2q9 4 25 4h284v-85h-398v700h393v-85zM430 822v-59h-288v59h288z" />
    <glyph glyph-name="Eogonek" unicode="&#x118;" horiz-adv-x="515" 
d="M470 615h-279q-16 0 -25 4l-2 -2q3 -7 3 -26v-143q0 -17 -3 -25l2 -2q9 4 25 4h247v-85h-247q-16 0 -25 4l-2 -2q3 -7 3 -26v-207q0 -18 -3 -26l2 -2q9 4 25 4h284v-85h-398v700h393v-85zM470 9q-48 -37 -70.5 -63.5t-22.5 -47.5q0 -15 10.5 -23t29.5 -8q22 0 43 6
l13 -49q-35 -13 -68 -13q-38 0 -63 19t-25 52q0 36 29 69.5t90 75.5z" />
    <glyph glyph-name="Eth" unicode="&#xd0;" horiz-adv-x="709" 
d="M503 657.5q79 -42.5 124 -121.5t45 -186t-45 -186t-124 -121.5t-180 -42.5h-219v295q0 16 3 25l-1 1q-11 -3 -26 -3h-78v75h78q19 0 26 -3l1 2q-3 8 -3 24v284h219q101 0 180 -42.5zM452 115.5q57 30.5 89.5 90t32.5 144.5q0 84 -32.5 144t-90 90.5t-130.5 30.5h-103
q-16 0 -25 4l-2 -2q3 -7 3 -25v-176q0 -16 -3 -24l2 -2q7 3 25 3h168v-75h-168q-15 0 -25 3l-2 -1q3 -9 3 -25v-187q0 -17 -3 -25l2 -2q9 4 25 4h103q74 0 131 30.5z" />
    <glyph glyph-name="Gbreve" unicode="&#x11e;" horiz-adv-x="788" 
d="M675 621l-60 -75q-91 77 -210 77q-80 0 -141 -35.5t-95 -98t-34 -141.5q0 -78 34.5 -140t97 -96.5t143.5 -34.5q82 0 138.5 34.5t85 86.5t29.5 103l-1 2q-16 -9 -68 -9h-184v85h350v-33q0 -93 -39.5 -176t-119.5 -134t-194 -51q-106 0 -190 45t-132 127.5t-48 189.5
t47 190.5t131.5 130.5t193.5 47q153 0 266 -94zM502.5 772.5q-37.5 -29.5 -97.5 -29.5q-61 0 -98.5 29.5t-39.5 80.5h62q3 -25 22.5 -38t53.5 -13q33 0 52.5 13t22.5 38h62q-2 -51 -39.5 -80.5z" />
    <glyph glyph-name="Gcircumflex" unicode="&#x11c;" horiz-adv-x="788" 
d="M675 621l-60 -75q-91 77 -210 77q-80 0 -141 -35.5t-95 -98t-34 -141.5q0 -78 34.5 -140t97 -96.5t143.5 -34.5q82 0 138.5 34.5t85 86.5t29.5 103l-1 2q-16 -9 -68 -9h-184v85h350v-33q0 -93 -39.5 -176t-119.5 -134t-194 -51q-106 0 -190 45t-132 127.5t-48 189.5
t47 190.5t131.5 130.5t193.5 47q153 0 266 -94zM244 747l114 116h93l114 -116v-4h-79l-32 32q-25 24 -34.5 36t-13.5 26h-3q-3 -14 -12.5 -25.5t-34.5 -36.5l-33 -32h-79v4z" />
    <glyph glyph-name="Gcommaaccent" unicode="&#x122;" horiz-adv-x="788" 
d="M675 621l-60 -75q-91 77 -210 77q-80 0 -141 -35.5t-95 -98t-34 -141.5q0 -78 34.5 -140t97 -96.5t143.5 -34.5q82 0 138.5 34.5t85 86.5t29.5 103l-1 2q-16 -9 -68 -9h-184v85h350v-33q0 -93 -39.5 -176t-119.5 -134t-194 -51q-106 0 -190 45t-132 127.5t-48 189.5
t47 190.5t131.5 130.5t193.5 47q153 0 266 -94zM383 -215h-47l34 164h88z" />
    <glyph glyph-name="Gdotaccent" unicode="&#x120;" horiz-adv-x="788" 
d="M675 621l-60 -75q-91 77 -210 77q-80 0 -141 -35.5t-95 -98t-34 -141.5q0 -78 34.5 -140t97 -96.5t143.5 -34.5q82 0 138.5 34.5t85 86.5t29.5 103l-1 2q-16 -9 -68 -9h-184v85h350v-33q0 -93 -39.5 -176t-119.5 -134t-194 -51q-106 0 -190 45t-132 127.5t-48 189.5
t47 190.5t131.5 130.5t193.5 47q153 0 266 -94zM449 845q17 -17 17 -43t-17.5 -43.5t-42.5 -17.5q-26 0 -43.5 17.5t-17.5 43.5t17.5 43t43.5 17t43 -17z" />
    <glyph glyph-name="Hbar" unicode="&#x126;" horiz-adv-x="697" 
d="M72 492q0 18 2 24l-1 1q-10 -2 -21 -2h-52v75h52q14 0 21 -3l1 2q-2 5 -2 23v88h89v-88q0 -15 -3 -23l2 -2q8 3 21 3h335q15 0 21 -3l2 2q-2 5 -2 23v88h88v-88q0 -18 -2 -23l2 -2q6 3 19 3h53v-75h-53q-11 0 -19 2l-2 -1q2 -6 2 -24v-492h-88v307q0 18 2 24l-2 1
q-4 -2 -21 -2h-334q-17 0 -22 2l-2 -1q3 -9 3 -24v-307h-89v492zM182 414h334q15 0 21 -3l2 2q-2 4 -2 23v56q0 18 2 24l-2 1q-8 -2 -21 -2h-335q-11 0 -21 2l-2 -1q3 -9 3 -24v-56q0 -17 -3 -23l2 -2q8 3 22 3z" />
    <glyph glyph-name="Hcircumflex" unicode="&#x124;" horiz-adv-x="707" 
d="M630 0h-90v305q0 18 3 25l-2 2q-9 -4 -25 -4h-325q-16 0 -25 4l-2 -2q3 -7 3 -25v-305h-90v700h90v-262q0 -17 -3 -25l2 -2q9 4 25 4h325q16 0 25 -4l2 2q-3 8 -3 25v262h90v-700zM193 747l114 116h93l114 -116v-4h-79l-32 32q-25 24 -34.5 36t-13.5 26h-3
q-3 -14 -12.5 -25.5t-34.5 -36.5l-33 -32h-79v4z" />
    <glyph glyph-name="Iacute" unicode="&#xcd;" horiz-adv-x="244" 
d="M167 0h-90v700h90v-700zM278 850l-126 -107h-59l-1 2l88 108h97z" />
    <glyph glyph-name="Ibreve" unicode="&#x12c;" horiz-adv-x="244" 
d="M167 0h-90v700h90v-700zM219.5 772.5q-37.5 -29.5 -97.5 -29.5q-61 0 -98.5 29.5t-39.5 80.5h62q3 -25 22.5 -38t53.5 -13q33 0 52.5 13t22.5 38h62q-2 -51 -39.5 -80.5z" />
    <glyph glyph-name="Icircumflex" unicode="&#xce;" horiz-adv-x="244" 
d="M167 0h-90v700h90v-700zM-39 747l114 116h93l114 -116v-4h-79l-32 32q-25 24 -34.5 36t-13.5 26h-3q-3 -14 -12.5 -25.5t-34.5 -36.5l-33 -32h-79v4z" />
    <glyph glyph-name="Idieresis" unicode="&#xcf;" horiz-adv-x="244" 
d="M167 0h-90v700h90v-700zM70 845q17 -17 17 -43t-17.5 -43.5t-42.5 -17.5q-26 0 -43.5 17.5t-17.5 43.5t17.5 43t43.5 17t43 -17zM262 845q17 -17 17 -43t-17.5 -43.5t-42.5 -17.5q-26 0 -43.5 17.5t-17.5 43.5t17.5 43t43.5 17t43 -17z" />
    <glyph glyph-name="Idotaccent" unicode="&#x130;" horiz-adv-x="244" 
d="M167 0h-90v700h90v-700zM166 845q17 -17 17 -43t-17.5 -43.5t-42.5 -17.5q-26 0 -43.5 17.5t-17.5 43.5t17.5 43t43.5 17t43 -17z" />
    <glyph glyph-name="Igrave" unicode="&#xcc;" horiz-adv-x="244" 
d="M167 0h-90v700h90v-700zM152 745l-1 -2h-58l-127 107l1 3h97z" />
    <glyph glyph-name="IJ" unicode="&#x132;" horiz-adv-x="537" 
d="M167 0h-90v700h90v-700zM460 164q0 -88 -35.5 -128.5t-110.5 -40.5q-19 0 -45 3v85q15 -1 36 -1q33 0 49 17.5t16 61.5v539h90v-536z" />
    <glyph glyph-name="uni00A40301" horiz-adv-x="293" 
d="M216 164q0 -88 -35.5 -128.5t-110.5 -40.5q-19 0 -45 3v85q15 -1 36 -1q33 0 49 17.5t16 61.5v539h90v-536zM327 850l-126 -107h-59l-1 2l88 108h97z" />
    <glyph glyph-name="Imacron" unicode="&#x12a;" horiz-adv-x="244" 
d="M167 0h-90v700h90v-700zM265 822v-59h-288v59h288z" />
    <glyph glyph-name="Iogonek" unicode="&#x12e;" horiz-adv-x="244" 
d="M167 0h-90v700h90v-700zM137 9q-48 -37 -70.5 -63.5t-22.5 -47.5q0 -15 10.5 -23t29.5 -8q22 0 43 6l13 -49q-35 -13 -68 -13q-38 0 -63 19t-25 52q0 36 29 69.5t90 75.5z" />
    <glyph glyph-name="Itilde" unicode="&#x128;" horiz-adv-x="244" 
d="M167 0h-90v700h90v-700zM-46 758q27 95 102 95q29 0 87 -20q53 -19 78 -19q18 0 29.5 9t21.5 28l36 -11q-27 -95 -101 -95q-18 0 -37 5t-52 16q-21 7 -41 12.5t-35 5.5q-18 0 -29 -8.5t-22 -28.5z" />
    <glyph glyph-name="Jcircumflex" unicode="&#x134;" horiz-adv-x="293" 
d="M216 164q0 -88 -35.5 -128.5t-110.5 -40.5q-19 0 -45 3v85q15 -1 36 -1q33 0 49 17.5t16 61.5v539h90v-536zM10 747l114 116h93l114 -116v-4h-79l-32 32q-25 24 -34.5 36t-13.5 26h-3q-3 -14 -12.5 -25.5t-34.5 -36.5l-33 -32h-79v4z" />
    <glyph glyph-name="Kcommaaccent" unicode="&#x136;" horiz-adv-x="606" 
d="M321 429q-22 -24 -34 -34.5t-26 -19.5v-4q13 -7 23.5 -16.5t19 -19.5t13.5 -15l284 -320h-123l-316 359l-2 -1q7 -42 7 -117v-241h-90v700h90v-199q0 -75 -7 -116l2 -2l282 317h123zM292 -215h-47l34 164h88z" />
    <glyph glyph-name="Lacute" unicode="&#x139;" horiz-adv-x="490" 
d="M167 109q0 -16 -3 -24l2 -2q7 3 25 3h288v-86h-402v700h90v-591zM278 850l-126 -107h-59l-1 2l88 108h97z" />
    <glyph glyph-name="Lcaron" unicode="&#x13d;" horiz-adv-x="490" 
d="M167 109q0 -16 -3 -24l2 -2q7 3 25 3h288v-86h-402v700h90v-591zM399 730l-71 -238h-47l29 238h89z" />
    <glyph glyph-name="Lcommaaccent" unicode="&#x13b;" horiz-adv-x="490" 
d="M167 109q0 -16 -3 -24l2 -2q7 3 25 3h288v-86h-402v700h90v-591zM253 -215h-47l34 164h88z" />
    <glyph glyph-name="Ldot" unicode="&#x13f;" horiz-adv-x="490" 
d="M167 109q0 -16 -3 -24l2 -2q7 3 25 3h288v-86h-402v700h90v-591zM430 462q20 -20 20 -49t-20 -49.5t-49 -20.5q-30 0 -50 20.5t-20 49.5t20 49t50 20q29 0 49 -20z" />
    <glyph glyph-name="Lslash" unicode="&#x141;" horiz-adv-x="489" 
d="M77 251q0 18 0.5 30t4.5 20l-2 1q-13 -15 -43 -29l-45 -24v65l85 44v342h90v-257q0 -16 -2.5 -26t-7.5 -21l2 -1q7 8 15.5 13.5t27.5 14.5l140 73v-66l-175 -90v-231q0 -16 -3 -24l1 -2q7 3 26 3h287v-86h-401v251z" />
    <glyph glyph-name="Nacute" unicode="&#x143;" horiz-adv-x="729" 
d="M512 257q18 -18 33 -39.5t22 -38.5l4 1q-10 45 -10 126v394h90v-710h-8l-427 453q-17 18 -32 39.5t-23 38.5l-3 -1q9 -40 9 -125v-395h-90v710h9zM527 850l-126 -107h-59l-1 2l88 108h97z" />
    <glyph glyph-name="Ncaron" unicode="&#x147;" horiz-adv-x="729" 
d="M512 257q18 -18 33 -39.5t22 -38.5l4 1q-10 45 -10 126v394h90v-710h-8l-427 453q-17 18 -32 39.5t-23 38.5l-3 -1q9 -40 9 -125v-395h-90v710h9zM531 859l-114 -116h-93l-114 116v4h79l33 -32q25 -25 34.5 -36.5t12.5 -25.5h3q4 14 13.5 25.5t34.5 36.5l32 32h79v-4z
" />
    <glyph glyph-name="Ncommaaccent" unicode="&#x145;" horiz-adv-x="729" 
d="M512 257q18 -18 33 -39.5t22 -38.5l4 1q-10 45 -10 126v394h90v-710h-8l-427 453q-17 18 -32 39.5t-23 38.5l-3 -1q9 -40 9 -125v-395h-90v710h9zM351 -215h-47l34 164h88z" />
    <glyph glyph-name="Ntilde" unicode="&#xd1;" horiz-adv-x="729" 
d="M512 257q18 -18 33 -39.5t22 -38.5l4 1q-10 45 -10 126v394h90v-710h-8l-427 453q-17 18 -32 39.5t-23 38.5l-3 -1q9 -40 9 -125v-395h-90v710h9zM203 758q27 95 102 95q29 0 87 -20q53 -19 78 -19q18 0 29.5 9t21.5 28l36 -11q-27 -95 -101 -95q-18 0 -37 5t-52 16
q-21 7 -41 12.5t-35 5.5q-18 0 -29 -8.5t-22 -28.5z" />
    <glyph glyph-name="Eng" unicode="&#x14a;" horiz-adv-x="729" 
d="M651 700v-728q0 -90 -42.5 -131t-121.5 -41h-53v86h53q38 0 56 20t18 66v105l-345 366q-17 18 -32 39.5t-23 38.5l-3 -1q9 -40 9 -125v-395h-90v710h9l426 -453q18 -18 33 -39.5t22 -38.5l4 1q-10 45 -10 126v394h90z" />
    <glyph glyph-name="Oacute" unicode="&#xd3;" horiz-adv-x="804" 
d="M590 668q83 -47 130 -130t47 -188t-47 -188t-130 -130t-188 -47t-188 47t-130 130t-47 188t47 188t130 130t188 47t188 -47zM264 588q-61 -35 -95 -97t-34 -141t34 -141t95 -97t138 -35t138 35t95 97t34 141t-34 141t-95 97t-138 35t-138 -35zM558 850l-126 -107h-59
l-1 2l88 108h97z" />
    <glyph glyph-name="Obreve" unicode="&#x14e;" horiz-adv-x="804" 
d="M590 668q83 -47 130 -130t47 -188t-47 -188t-130 -130t-188 -47t-188 47t-130 130t-47 188t47 188t130 130t188 47t188 -47zM264 588q-61 -35 -95 -97t-34 -141t34 -141t95 -97t138 -35t138 35t95 97t34 141t-34 141t-95 97t-138 35t-138 -35zM499.5 772.5
q-37.5 -29.5 -97.5 -29.5q-61 0 -98.5 29.5t-39.5 80.5h62q3 -25 22.5 -38t53.5 -13q33 0 52.5 13t22.5 38h62q-2 -51 -39.5 -80.5z" />
    <glyph glyph-name="Ocircumflex" unicode="&#xd4;" horiz-adv-x="804" 
d="M590 668q83 -47 130 -130t47 -188t-47 -188t-130 -130t-188 -47t-188 47t-130 130t-47 188t47 188t130 130t188 47t188 -47zM264 588q-61 -35 -95 -97t-34 -141t34 -141t95 -97t138 -35t138 35t95 97t34 141t-34 141t-95 97t-138 35t-138 -35zM241 747l114 116h93
l114 -116v-4h-79l-32 32q-25 24 -34.5 36t-13.5 26h-3q-3 -14 -12.5 -25.5t-34.5 -36.5l-33 -32h-79v4z" />
    <glyph glyph-name="Odieresis" unicode="&#xd6;" horiz-adv-x="804" 
d="M590 668q83 -47 130 -130t47 -188t-47 -188t-130 -130t-188 -47t-188 47t-130 130t-47 188t47 188t130 130t188 47t188 -47zM264 588q-61 -35 -95 -97t-34 -141t34 -141t95 -97t138 -35t138 35t95 97t34 141t-34 141t-95 97t-138 35t-138 -35zM350 845q17 -17 17 -43
t-17.5 -43.5t-42.5 -17.5q-26 0 -43.5 17.5t-17.5 43.5t17.5 43t43.5 17t43 -17zM542 845q17 -17 17 -43t-17.5 -43.5t-42.5 -17.5q-26 0 -43.5 17.5t-17.5 43.5t17.5 43t43.5 17t43 -17z" />
    <glyph glyph-name="OE" unicode="&#x152;" horiz-adv-x="1108" 
d="M211.5 31.5q-81.5 46.5 -128 129.5t-46.5 189t46.5 189t128 129.5t182.5 46.5q93 0 161.5 -32.5t116.5 -98.5l2 1q-3 16 -3 49v66h393v-85h-279q-17 0 -26 4l-1 -2q3 -7 3 -26v-143q0 -17 -3 -25l1 -2q9 4 26 4h246v-85h-246q-15 0 -26 3l-1 -1q3 -9 3 -26v-207
q0 -18 -3 -26l1 -2q9 4 26 4h283v-85h-397v66q0 35 3 52l-1 1q-49 -67 -117.5 -100.5t-161.5 -33.5q-101 0 -182.5 46.5zM541 112.5q61 35.5 95.5 97.5t34.5 140q0 79 -34.5 141t-95.5 97t-139 35q-77 0 -138 -35t-95 -97t-34 -141t34 -141t95 -97t138 -35q78 0 139 35.5z
" />
    <glyph glyph-name="Ograve" unicode="&#xd2;" horiz-adv-x="804" 
d="M590 668q83 -47 130 -130t47 -188t-47 -188t-130 -130t-188 -47t-188 47t-130 130t-47 188t47 188t130 130t188 47t188 -47zM264 588q-61 -35 -95 -97t-34 -141t34 -141t95 -97t138 -35t138 35t95 97t34 141t-34 141t-95 97t-138 35t-138 -35zM432 745l-1 -2h-58
l-127 107l1 3h97z" />
    <glyph glyph-name="Ohungarumlaut" unicode="&#x150;" horiz-adv-x="804" 
d="M590 668q83 -47 130 -130t47 -188t-47 -188t-130 -130t-188 -47t-188 47t-130 130t-47 188t47 188t130 130t188 47t188 -47zM264 588q-61 -35 -95 -97t-34 -141t34 -141t95 -97t138 -35t138 35t95 97t34 141t-34 141t-95 97t-138 35t-138 -35zM481 850l-101 -107h-60v2
l94 108h66zM527 853h65l1 -3l-100 -107h-60l-1 2z" />
    <glyph glyph-name="Omacron" unicode="&#x14c;" horiz-adv-x="804" 
d="M590 668q83 -47 130 -130t47 -188t-47 -188t-130 -130t-188 -47t-188 47t-130 130t-47 188t47 188t130 130t188 47t188 -47zM264 588q-61 -35 -95 -97t-34 -141t34 -141t95 -97t138 -35t138 35t95 97t34 141t-34 141t-95 97t-138 35t-138 -35zM545 822v-59h-288v59h288z
" />
    <glyph glyph-name="Oslash" unicode="&#xd8;" horiz-adv-x="804" 
d="M731 517q36 -76 36 -167q0 -105 -47 -188t-130 -130t-188 -47q-112 0 -200 54l-37 -53l-28 19l37 53q-65 50 -101 125t-36 167q0 105 47 188t130 130t188 47q112 0 200 -54l37 53l28 -20l-37 -52q65 -49 101 -125zM159.5 227.5q24.5 -55.5 69.5 -91.5l318 448
q-64 39 -145 39q-77 0 -138 -35t-95 -97t-34 -141q0 -67 24.5 -122.5zM540 112q61 35 95 97t34 141q0 67 -24.5 122.5t-69.5 91.5l-318 -448q64 -39 145 -39q77 0 138 35z" />
    <glyph glyph-name="Oslashacute" unicode="&#x1fe;" horiz-adv-x="804" 
d="M731 517q36 -76 36 -167q0 -105 -47 -188t-130 -130t-188 -47q-112 0 -200 54l-37 -53l-28 19l37 53q-65 50 -101 125t-36 167q0 105 47 188t130 130t188 47q112 0 200 -54l37 53l28 -20l-37 -52q65 -49 101 -125zM159.5 227.5q24.5 -55.5 69.5 -91.5l318 448
q-64 39 -145 39q-77 0 -138 -35t-95 -97t-34 -141q0 -67 24.5 -122.5zM540 112q61 35 95 97t34 141q0 67 -24.5 122.5t-69.5 91.5l-318 -448q64 -39 145 -39q77 0 138 35zM558 850l-126 -107h-59l-1 2l88 108h97z" />
    <glyph glyph-name="Otilde" unicode="&#xd5;" horiz-adv-x="804" 
d="M590 668q83 -47 130 -130t47 -188t-47 -188t-130 -130t-188 -47t-188 47t-130 130t-47 188t47 188t130 130t188 47t188 -47zM264 588q-61 -35 -95 -97t-34 -141t34 -141t95 -97t138 -35t138 35t95 97t34 141t-34 141t-95 97t-138 35t-138 -35zM234 758q27 95 102 95
q29 0 87 -20q53 -19 78 -19q18 0 29.5 9t21.5 28l36 -11q-27 -95 -101 -95q-18 0 -37 5t-52 16q-21 7 -41 12.5t-35 5.5q-18 0 -29 -8.5t-22 -28.5z" />
    <glyph glyph-name="Racute" unicode="&#x154;" horiz-adv-x="593" 
d="M457.5 649q56.5 -51 56.5 -140q0 -54 -25.5 -95.5t-67 -64t-85.5 -22.5q-17 0 -34 5v-4q32 -12 64 -52l218 -276h-117l-251 321h-26q-18 0 -24 3l-2 -2q3 -9 3 -26v-296h-90v700h228q96 0 152.5 -51zM164 617q3 -7 3 -26v-161q0 -16 -3 -25l2 -1q11 3 25 3h114
q54 0 83.5 27t29.5 76q0 48 -29 76.5t-84 28.5h-114q-17 0 -25 4zM424 850l-126 -107h-59l-1 2l88 108h97z" />
    <glyph glyph-name="Rcaron" unicode="&#x158;" horiz-adv-x="593" 
d="M457.5 649q56.5 -51 56.5 -140q0 -54 -25.5 -95.5t-67 -64t-85.5 -22.5q-17 0 -34 5v-4q32 -12 64 -52l218 -276h-117l-251 321h-26q-18 0 -24 3l-2 -2q3 -9 3 -26v-296h-90v700h228q96 0 152.5 -51zM164 617q3 -7 3 -26v-161q0 -16 -3 -25l2 -1q11 3 25 3h114
q54 0 83.5 27t29.5 76q0 48 -29 76.5t-84 28.5h-114q-17 0 -25 4zM428 859l-114 -116h-93l-114 116v4h79l33 -32q25 -25 34.5 -36.5t12.5 -25.5h3q4 14 13.5 25.5t34.5 36.5l32 32h79v-4z" />
    <glyph glyph-name="Rcommaaccent" unicode="&#x156;" horiz-adv-x="593" 
d="M457.5 649q56.5 -51 56.5 -140q0 -54 -25.5 -95.5t-67 -64t-85.5 -22.5q-17 0 -34 5v-4q32 -12 64 -52l218 -276h-117l-251 321h-26q-18 0 -24 3l-2 -2q3 -9 3 -26v-296h-90v700h228q96 0 152.5 -51zM164 617q3 -7 3 -26v-161q0 -16 -3 -25l2 -1q11 3 25 3h114
q54 0 83.5 27t29.5 76q0 48 -29 76.5t-84 28.5h-114q-17 0 -25 4zM290 -215h-47l34 164h88z" />
    <glyph glyph-name="Sacute" unicode="&#x15a;" horiz-adv-x="493" 
d="M439 669l-41 -86q-74 41 -142 41q-46 0 -69.5 -18.5t-23.5 -51.5q0 -27 15 -48.5t50 -48.5l119 -90q59 -44 86.5 -88t27.5 -102q0 -91 -59.5 -141.5t-161.5 -50.5q-62 0 -120 18t-103 47l42 84q96 -57 182 -57q59 0 91 26t32 69q0 32 -19 59t-62 60l-117 90
q-52 40 -76.5 79t-24.5 90q0 76 51.5 120.5t141.5 44.5q89 0 181 -46zM420 850l-126 -107h-59l-1 2l88 108h97z" />
    <glyph glyph-name="Scaron" unicode="&#x160;" horiz-adv-x="493" 
d="M439 669l-41 -86q-74 41 -142 41q-46 0 -69.5 -18.5t-23.5 -51.5q0 -27 15 -48.5t50 -48.5l119 -90q59 -44 86.5 -88t27.5 -102q0 -91 -59.5 -141.5t-161.5 -50.5q-62 0 -120 18t-103 47l42 84q96 -57 182 -57q59 0 91 26t32 69q0 32 -19 59t-62 60l-117 90
q-52 40 -76.5 79t-24.5 90q0 76 51.5 120.5t141.5 44.5q89 0 181 -46zM424 859l-114 -116h-93l-114 116v4h79l33 -32q25 -25 34.5 -36.5t12.5 -25.5h3q4 14 13.5 25.5t34.5 36.5l32 32h79v-4z" />
    <glyph glyph-name="Scedilla" unicode="&#x15e;" horiz-adv-x="493" 
d="M439 669l-41 -86q-74 41 -142 41q-46 0 -69.5 -18.5t-23.5 -51.5q0 -27 15 -48.5t50 -48.5l119 -90q59 -44 86.5 -88t27.5 -102q0 -91 -59.5 -141.5t-161.5 -50.5q-62 0 -120 18t-103 47l42 84q96 -57 182 -57q59 0 91 26t32 69q0 32 -19 59t-62 60l-117 90
q-52 40 -76.5 79t-24.5 90q0 76 51.5 120.5t141.5 44.5q89 0 181 -46zM256 -36q39 -11 63 -27.5t24 -45.5q0 -36 -35 -61t-98 -54l-14 29q43 25 60 37.5t17 27.5t-18.5 25t-54.5 18l41 111h37z" />
    <glyph glyph-name="Scircumflex" unicode="&#x15c;" horiz-adv-x="493" 
d="M439 669l-41 -86q-74 41 -142 41q-46 0 -69.5 -18.5t-23.5 -51.5q0 -27 15 -48.5t50 -48.5l119 -90q59 -44 86.5 -88t27.5 -102q0 -91 -59.5 -141.5t-161.5 -50.5q-62 0 -120 18t-103 47l42 84q96 -57 182 -57q59 0 91 26t32 69q0 32 -19 59t-62 60l-117 90
q-52 40 -76.5 79t-24.5 90q0 76 51.5 120.5t141.5 44.5q89 0 181 -46zM103 747l114 116h93l114 -116v-4h-79l-32 32q-25 24 -34.5 36t-13.5 26h-3q-3 -14 -12.5 -25.5t-34.5 -36.5l-33 -32h-79v4z" />
    <glyph glyph-name="Scommaaccent" unicode="&#x218;" horiz-adv-x="493" 
d="M439 669l-41 -86q-74 41 -142 41q-46 0 -69.5 -18.5t-23.5 -51.5q0 -27 15 -48.5t50 -48.5l119 -90q59 -44 86.5 -88t27.5 -102q0 -91 -59.5 -141.5t-161.5 -50.5q-62 0 -120 18t-103 47l42 84q96 -57 182 -57q59 0 91 26t32 69q0 32 -19 59t-62 60l-117 90
q-52 40 -76.5 79t-24.5 90q0 76 51.5 120.5t141.5 44.5q89 0 181 -46zM219 -215h-47l34 164h88z" />
    <glyph glyph-name="Tbar" unicode="&#x166;" horiz-adv-x="517" 
d="M302 619l-2 -2q3 -7 3 -25v-108q0 -18 -2 -23l1 -2q8 3 21 3h121v-75h-121q-16 0 -21 2l-1 -1q2 -6 2 -24v-364h-89v364q0 15 3 24l-2 1q-5 -2 -21 -2h-119v75h119q14 0 21 -3l2 2q-3 8 -3 23v108q0 18 3 25l-1 2q-9 -4 -26 -4h-180v85h497v-85h-180q-17 0 -25 4z" />
    <glyph glyph-name="Tcaron" unicode="&#x164;" horiz-adv-x="517" 
d="M507 614h-179q-19 0 -26 3l-1 -2q3 -7 3 -24v-591h-90v591q0 17 3 24l-2 2q-7 -3 -25 -3h-180v86h497v-86zM419 859l-114 -116h-93l-114 116v4h79l33 -32q25 -25 34.5 -36.5t12.5 -25.5h3q4 14 13.5 25.5t34.5 36.5l32 32h79v-4z" />
    <glyph glyph-name="uni0162" unicode="&#x162;" horiz-adv-x="517" 
d="M507 614h-179q-19 0 -26 3l-1 -2q3 -7 3 -24v-591h-90v591q0 17 3 24l-2 2q-7 -3 -25 -3h-180v86h497v-86zM265 -36q39 -11 63 -27.5t24 -45.5q0 -36 -35 -61t-98 -54l-14 29q43 25 60 37.5t17 27.5t-18.5 25t-54.5 18l41 111h37z" />
    <glyph glyph-name="uni021A" unicode="&#x21a;" horiz-adv-x="517" 
d="M507 614h-179q-19 0 -26 3l-1 -2q3 -7 3 -24v-591h-90v591q0 17 3 24l-2 2q-7 -3 -25 -3h-180v86h497v-86zM228 -215h-47l34 164h88z" />
    <glyph glyph-name="Thorn" unicode="&#xde;" horiz-adv-x="539" 
d="M167 578q0 -19 -2 -24l2 -2q6 3 20 3h109q101 0 160 -52t59 -143q0 -90 -59 -142.5t-160 -52.5h-109q-14 0 -20 3l-2 -2q2 -5 2 -24v-142h-90v700h90v-122zM165 471q2 -5 2 -23v-176q0 -18 -2 -23l2 -2q6 3 20 3h107q59 0 92 29t33 81t-33 81t-92 29h-107q-14 0 -20 3z
" />
    <glyph glyph-name="Uacute" unicode="&#xda;" horiz-adv-x="681" 
d="M613 261q0 -84 -33.5 -146t-95 -95.5t-143.5 -33.5q-83 0 -144.5 33.5t-95 95.5t-33.5 146v439h94v-435q0 -88 48 -137.5t131 -49.5q82 0 130 49.5t48 137.5v435h94v-439zM497 850l-126 -107h-59l-1 2l88 108h97z" />
    <glyph glyph-name="Ubreve" unicode="&#x16c;" horiz-adv-x="681" 
d="M613 261q0 -84 -33.5 -146t-95 -95.5t-143.5 -33.5q-83 0 -144.5 33.5t-95 95.5t-33.5 146v439h94v-435q0 -88 48 -137.5t131 -49.5q82 0 130 49.5t48 137.5v435h94v-439zM438.5 772.5q-37.5 -29.5 -97.5 -29.5q-61 0 -98.5 29.5t-39.5 80.5h62q3 -25 22.5 -38t53.5 -13
q33 0 52.5 13t22.5 38h62q-2 -51 -39.5 -80.5z" />
    <glyph glyph-name="Ucircumflex" unicode="&#xdb;" horiz-adv-x="681" 
d="M613 261q0 -84 -33.5 -146t-95 -95.5t-143.5 -33.5q-83 0 -144.5 33.5t-95 95.5t-33.5 146v439h94v-435q0 -88 48 -137.5t131 -49.5q82 0 130 49.5t48 137.5v435h94v-439zM180 747l114 116h93l114 -116v-4h-79l-32 32q-25 24 -34.5 36t-13.5 26h-3q-3 -14 -12.5 -25.5
t-34.5 -36.5l-33 -32h-79v4z" />
    <glyph glyph-name="Udieresis" unicode="&#xdc;" horiz-adv-x="681" 
d="M613 261q0 -84 -33.5 -146t-95 -95.5t-143.5 -33.5q-83 0 -144.5 33.5t-95 95.5t-33.5 146v439h94v-435q0 -88 48 -137.5t131 -49.5q82 0 130 49.5t48 137.5v435h94v-439zM289 845q17 -17 17 -43t-17.5 -43.5t-42.5 -17.5q-26 0 -43.5 17.5t-17.5 43.5t17.5 43t43.5 17
t43 -17zM481 845q17 -17 17 -43t-17.5 -43.5t-42.5 -17.5q-26 0 -43.5 17.5t-17.5 43.5t17.5 43t43.5 17t43 -17z" />
    <glyph glyph-name="Ugrave" unicode="&#xd9;" horiz-adv-x="681" 
d="M613 261q0 -84 -33.5 -146t-95 -95.5t-143.5 -33.5q-83 0 -144.5 33.5t-95 95.5t-33.5 146v439h94v-435q0 -88 48 -137.5t131 -49.5q82 0 130 49.5t48 137.5v435h94v-439zM371 745l-1 -2h-58l-127 107l1 3h97z" />
    <glyph glyph-name="Uhungarumlaut" unicode="&#x170;" horiz-adv-x="681" 
d="M613 261q0 -84 -33.5 -146t-95 -95.5t-143.5 -33.5q-83 0 -144.5 33.5t-95 95.5t-33.5 146v439h94v-435q0 -88 48 -137.5t131 -49.5q82 0 130 49.5t48 137.5v435h94v-439zM420 850l-101 -107h-60v2l94 108h66zM466 853h65l1 -3l-100 -107h-60l-1 2z" />
    <glyph glyph-name="Umacron" unicode="&#x16a;" horiz-adv-x="681" 
d="M613 261q0 -84 -33.5 -146t-95 -95.5t-143.5 -33.5q-83 0 -144.5 33.5t-95 95.5t-33.5 146v439h94v-435q0 -88 48 -137.5t131 -49.5q82 0 130 49.5t48 137.5v435h94v-439zM484 822v-59h-288v59h288z" />
    <glyph glyph-name="Uogonek" unicode="&#x172;" horiz-adv-x="681" 
d="M613 261q0 -84 -33.5 -146t-95 -95.5t-143.5 -33.5q-83 0 -144.5 33.5t-95 95.5t-33.5 146v439h94v-435q0 -88 48 -137.5t131 -49.5q82 0 130 49.5t48 137.5v435h94v-439zM462 9q-48 -37 -70.5 -63.5t-22.5 -47.5q0 -15 10.5 -23t29.5 -8q22 0 43 6l13 -49
q-35 -13 -68 -13q-38 0 -63 19t-25 52q0 36 29 69.5t90 75.5z" />
    <glyph glyph-name="Uring" unicode="&#x16e;" horiz-adv-x="681" 
d="M613 261q0 -84 -33.5 -146t-95 -95.5t-143.5 -33.5q-83 0 -144.5 33.5t-95 95.5t-33.5 146v439h94v-435q0 -88 48 -137.5t131 -49.5q82 0 130 49.5t48 137.5v435h94v-439zM259 708q-32 31 -32 80t32 80.5t82 31.5t82 -31.5t32 -80.5t-32 -80t-82 -31t-82 31zM389.5 740
q18.5 19 18.5 48q0 30 -18.5 49t-48.5 19t-48.5 -19t-18.5 -49q0 -29 18.5 -48t48.5 -19t48.5 19z" />
    <glyph glyph-name="Utilde" unicode="&#x168;" horiz-adv-x="681" 
d="M613 261q0 -84 -33.5 -146t-95 -95.5t-143.5 -33.5q-83 0 -144.5 33.5t-95 95.5t-33.5 146v439h94v-435q0 -88 48 -137.5t131 -49.5q82 0 130 49.5t48 137.5v435h94v-439zM173 758q27 95 102 95q29 0 87 -20q53 -19 78 -19q18 0 29.5 9t21.5 28l36 -11q-27 -95 -101 -95
q-18 0 -37 5t-52 16q-21 7 -41 12.5t-35 5.5q-18 0 -29 -8.5t-22 -28.5z" />
    <glyph glyph-name="Wacute" unicode="&#x1e82;" horiz-adv-x="949" 
d="M626 310q20 -55 26 -77.5t10 -53.5h4q4 31 10.5 56.5t23.5 73.5l134 391h103l-268 -711h-10l-163 436q-10 26 -13.5 45t-5.5 43h-4q-3 -25 -6.5 -44t-12.5 -44l-164 -436h-10l-268 711h104l133 -391q17 -48 23.5 -73.5t10.5 -56.5h4q4 32 11 55.5t25 75.5l146 401h12z
M631 850l-126 -107h-59l-1 2l88 108h97z" />
    <glyph glyph-name="Wcircumflex" unicode="&#x174;" horiz-adv-x="949" 
d="M626 310q20 -55 26 -77.5t10 -53.5h4q4 31 10.5 56.5t23.5 73.5l134 391h103l-268 -711h-10l-163 436q-10 26 -13.5 45t-5.5 43h-4q-3 -25 -6.5 -44t-12.5 -44l-164 -436h-10l-268 711h104l133 -391q17 -48 23.5 -73.5t10.5 -56.5h4q4 32 11 55.5t25 75.5l146 401h12z
M314 747l114 116h93l114 -116v-4h-79l-32 32q-25 24 -34.5 36t-13.5 26h-3q-3 -14 -12.5 -25.5t-34.5 -36.5l-33 -32h-79v4z" />
    <glyph glyph-name="Wdieresis" unicode="&#x1e84;" horiz-adv-x="949" 
d="M626 310q20 -55 26 -77.5t10 -53.5h4q4 31 10.5 56.5t23.5 73.5l134 391h103l-268 -711h-10l-163 436q-10 26 -13.5 45t-5.5 43h-4q-3 -25 -6.5 -44t-12.5 -44l-164 -436h-10l-268 711h104l133 -391q17 -48 23.5 -73.5t10.5 -56.5h4q4 32 11 55.5t25 75.5l146 401h12z
M423 845q17 -17 17 -43t-17.5 -43.5t-42.5 -17.5q-26 0 -43.5 17.5t-17.5 43.5t17.5 43t43.5 17t43 -17zM615 845q17 -17 17 -43t-17.5 -43.5t-42.5 -17.5q-26 0 -43.5 17.5t-17.5 43.5t17.5 43t43.5 17t43 -17z" />
    <glyph glyph-name="Wgrave" unicode="&#x1e80;" horiz-adv-x="949" 
d="M626 310q20 -55 26 -77.5t10 -53.5h4q4 31 10.5 56.5t23.5 73.5l134 391h103l-268 -711h-10l-163 436q-10 26 -13.5 45t-5.5 43h-4q-3 -25 -6.5 -44t-12.5 -44l-164 -436h-10l-268 711h104l133 -391q17 -48 23.5 -73.5t10.5 -56.5h4q4 32 11 55.5t25 75.5l146 401h12z
M505 745l-1 -2h-58l-127 107l1 3h97z" />
    <glyph glyph-name="Yacute" unicode="&#xdd;" horiz-adv-x="555" 
d="M322 277v-277h-90v277l-225 423h108l117 -238q24 -51 31.5 -69.5t12.5 -44.5h2q5 25 12 42.5t33 71.5l117 238h108zM433 850l-126 -107h-59l-1 2l88 108h97z" />
    <glyph glyph-name="Ycircumflex" unicode="&#x176;" horiz-adv-x="555" 
d="M322 277v-277h-90v277l-225 423h108l117 -238q24 -51 31.5 -69.5t12.5 -44.5h2q5 25 12 42.5t33 71.5l117 238h108zM116 747l114 116h93l114 -116v-4h-79l-32 32q-25 24 -34.5 36t-13.5 26h-3q-3 -14 -12.5 -25.5t-34.5 -36.5l-33 -32h-79v4z" />
    <glyph glyph-name="Ydieresis" unicode="&#x178;" horiz-adv-x="555" 
d="M322 277v-277h-90v277l-225 423h108l117 -238q24 -51 31.5 -69.5t12.5 -44.5h2q5 25 12 42.5t33 71.5l117 238h108zM225 845q17 -17 17 -43t-17.5 -43.5t-42.5 -17.5q-26 0 -43.5 17.5t-17.5 43.5t17.5 43t43.5 17t43 -17zM417 845q17 -17 17 -43t-17.5 -43.5
t-42.5 -17.5q-26 0 -43.5 17.5t-17.5 43.5t17.5 43t43.5 17t43 -17z" />
    <glyph glyph-name="Ygrave" unicode="&#x1ef2;" horiz-adv-x="555" 
d="M322 277v-277h-90v277l-225 423h108l117 -238q24 -51 31.5 -69.5t12.5 -44.5h2q5 25 12 42.5t33 71.5l117 238h108zM307 745l-1 -2h-58l-127 107l1 3h97z" />
    <glyph glyph-name="Zacute" unicode="&#x179;" horiz-adv-x="583" 
d="M564 696l-401 -620l1 -3q11 8 26.5 11.5t44.5 3.5h330l-46 -88h-504l-3 4l404 620l-2 3q-12 -8 -30 -11.5t-52 -3.5h-278l44 88h465zM471 850l-126 -107h-59l-1 2l88 108h97z" />
    <glyph glyph-name="Zcaron" unicode="&#x17d;" horiz-adv-x="583" 
d="M564 696l-401 -620l1 -3q11 8 26.5 11.5t44.5 3.5h330l-46 -88h-504l-3 4l404 620l-2 3q-12 -8 -30 -11.5t-52 -3.5h-278l44 88h465zM475 859l-114 -116h-93l-114 116v4h79l33 -32q25 -25 34.5 -36.5t12.5 -25.5h3q4 14 13.5 25.5t34.5 36.5l32 32h79v-4z" />
    <glyph glyph-name="Zdotaccent" unicode="&#x17b;" horiz-adv-x="583" 
d="M564 696l-401 -620l1 -3q11 8 26.5 11.5t44.5 3.5h330l-46 -88h-504l-3 4l404 620l-2 3q-12 -8 -30 -11.5t-52 -3.5h-278l44 88h465zM359 845q17 -17 17 -43t-17.5 -43.5t-42.5 -17.5q-26 0 -43.5 17.5t-17.5 43.5t17.5 43t43.5 17t43 -17z" />
    <glyph glyph-name="a" unicode="a" horiz-adv-x="503" 
d="M394.5 432q46.5 -45 46.5 -141v-291h-86q0 24 2.5 40t9.5 38l-3 2q-25 -46 -67 -70.5t-95 -24.5q-77 0 -124 45t-47 118q0 75 47 119t125 44q54 0 95.5 -22t64.5 -62l3 2q-6 20 -8 69q-4 100 -115 100q-58 0 -139 -26l-24 77q87 28 169 28q99 0 145.5 -45zM151.5 214
q-30.5 -26 -30.5 -67q0 -42 30 -66.5t80 -24.5q51 0 85 26t34 66t-34 66t-85 26q-49 0 -79.5 -26z" />
    <glyph glyph-name="b" unicode="b" horiz-adv-x="587" 
d="M218.5 14.5q-46.5 29.5 -71.5 85.5l-4 -1q7 -31 7 -99h-82v715h85v-245q0 -72 -9 -107l4 -1q24 56 70.5 85.5t109.5 29.5q66 0 117.5 -31.5t80 -87.5t28.5 -127t-28.5 -127t-80 -87.5t-117.5 -31.5q-63 0 -109.5 29.5zM424 109.5q41 44.5 41 121.5t-41 121.5t-112 44.5
q-72 0 -117.5 -46.5t-45.5 -119.5q0 -74 45.5 -120t118.5 -46q70 0 111 44.5z" />
    <glyph glyph-name="c" unicode="c" horiz-adv-x="471" 
d="M154.5 16q-57.5 31 -89.5 87t-32 128t32 128t89.5 87t131.5 31q86 0 158 -47l-41 -72q-56 37 -120 37q-70 0 -115 -46t-45 -118t45 -118t115 -46q64 0 120 37l41 -72q-72 -47 -158 -47q-74 0 -131.5 31z" />
    <glyph glyph-name="d" unicode="d" horiz-adv-x="587" 
d="M368.5 14.5q46.5 29.5 71.5 85.5l4 -1q-7 -31 -7 -99h82v715h-85v-245q0 -72 9 -107l-4 -1q-24 56 -70.5 85.5t-109.5 29.5q-66 0 -117.5 -31.5t-80 -87.5t-28.5 -127t28.5 -127t80 -87.5t117.5 -31.5q63 0 109.5 29.5zM163 109.5q-41 44.5 -41 121.5t41 121.5t112 44.5
q72 0 117.5 -46.5t45.5 -119.5q0 -74 -45.5 -120t-118.5 -46q-70 0 -111 44.5z" />
    <glyph glyph-name="e" unicode="e" horiz-adv-x="523" 
d="M430 411.5q59 -65.5 59 -178.5v-17h-316q-41 0 -55 7l-2 -2l4 -11q6 -68 47 -106t108 -38q44 0 79 17t70 57l53 -55q-79 -100 -203 -100q-72 0 -126.5 30.5t-84.5 85.5t-30 128q0 74 29 130.5t82.5 87t124.5 30.5q102 0 161 -65.5zM166.5 366q-38.5 -34 -45.5 -93l1 -1
q20 9 52 9h159q30 0 44 -1.5t22 -6.5l1 1q-4 60 -39.5 93t-94.5 33q-61 0 -99.5 -34z" />
    <glyph glyph-name="f" unicode="f" horiz-adv-x="323" 
d="M296 630h-8q-45 0 -68.5 -24t-23.5 -80v-38q0 -4 -1 -14.5t-3 -16.5l2 -2q11 7 39 7h62v-80h-62q-17 0 -25 1.5t-14 5.5l-2 -2q4 -15 4 -48v-339h-84v339q0 33 4 48l-2 2q-6 -4 -14 -5.5t-25 -1.5h-50v80h50q28 0 39 -7l2 2q-4 11 -4 30v32q0 100 49.5 145t120.5 45h14
v-79z" />
    <glyph glyph-name="g" unicode="g" horiz-adv-x="581" 
d="M368 447.5q46 -29.5 71 -85.5l4 1q-9 27 -9 99h84v-446q0 -115 -63 -173t-187 -58q-118 0 -203 55l41 76q43 -26 82 -38t82 -12q76 0 121 37.5t45 99.5v22q0 42 7 74l-4 1q-26 -56 -72 -85t-108 -29q-66 0 -117.5 31t-80 86.5t-28.5 127.5t28.5 128t80 87t117.5 31
q63 0 109 -29.5zM164 352.5q-41 -44.5 -41 -121.5t40.5 -121.5t110.5 -44.5q73 0 119 46.5t46 119.5t-46 119.5t-118 46.5q-70 0 -111 -44.5z" />
    <glyph glyph-name="h" unicode="h" horiz-adv-x="551" 
d="M153 458q0 -60 -10 -106l4 -1q48 126 175 126q79 0 122.5 -47t43.5 -133v-297h-84v275q0 59 -28.5 90t-81.5 31q-67 0 -104 -46.5t-37 -131.5v-218h-85v715h85v-257z" />
    <glyph glyph-name="i" unicode="i" horiz-adv-x="221" 
d="M153 0h-85v462h85v-462zM158.5 685q19.5 -19 19.5 -48q0 -28 -19.5 -47.5t-47.5 -19.5q-29 0 -48 19.5t-19 47.5q0 29 19 48t48 19q28 0 47.5 -19z" />
    <glyph glyph-name="j" unicode="j" horiz-adv-x="221" 
d="M153 -34q0 -92 -44 -136.5t-126 -44.5h-7v83h7q44 0 64.5 25t20.5 73v496h85v-496zM158.5 685q19.5 -19 19.5 -48q0 -28 -19.5 -47.5t-47.5 -19.5q-29 0 -48 19.5t-19 47.5q0 29 19 48t48 19q28 0 47.5 -19z" />
    <glyph glyph-name="k" unicode="k" horiz-adv-x="479" 
d="M153 355q0 -63 -8 -96l3 -1l188 204h113l-170 -172q-30 -30 -47 -38l1 -4q15 -6 45 -35l199 -213h-114l-215 237l-3 -2q8 -32 8 -95v-140h-85v715h85v-360z" />
    <glyph glyph-name="l" unicode="l" horiz-adv-x="221" 
d="M153 0h-85v715h85v-715z" />
    <glyph glyph-name="m" unicode="m" horiz-adv-x="812" 
d="M67 462h85q0 -60 -11 -106l4 -2q19 63 57 93t97 30q115 0 141 -117h4q13 55 53.5 86t99.5 31q73 0 112.5 -46t39.5 -132v-299h-84v274q0 62 -25 92t-76 30q-115 0 -115 -162v-234h-82v274q0 62 -24.5 92t-76.5 30q-114 0 -114 -162v-234h-85v462z" />
    <glyph glyph-name="n" unicode="n" horiz-adv-x="550" 
d="M443.5 430q43.5 -47 43.5 -133v-297h-84v275q0 59 -28.5 90t-81.5 31q-67 0 -104 -46.5t-37 -131.5v-218h-85v462h85q0 -71 -10 -118l4 -1q47 134 173 134q81 0 124.5 -47z" />
    <glyph glyph-name="o" unicode="o" horiz-adv-x="570" 
d="M414 445q57 -32 89.5 -88t32.5 -126t-32.5 -126t-89.5 -88t-129 -32t-129.5 32t-90 88t-32.5 126t32.5 126t90 88t129.5 32t129 -32zM168 349q-45 -45 -45 -118t45 -118t117 -45t117 45t45 118t-45 118t-117 45t-117 -45z" />
    <glyph glyph-name="p" unicode="p" horiz-adv-x="586" 
d="M444.5 445.5q51.5 -31.5 80 -87.5t28.5 -127t-28.5 -127t-80 -87.5t-117.5 -31.5q-62 0 -108.5 29.5t-72.5 85.5l-4 -1q10 -34 10 -98v-201h-85v662h82q0 -70 -6 -100l4 -1q26 56 72 86t108 30q66 0 117.5 -31.5zM193.5 350.5q-45.5 -46.5 -45.5 -119.5q0 -74 45.5 -120
t118.5 -46q70 0 111 44.5t41 121.5q0 76 -41 121t-112 45q-72 0 -117.5 -46.5z" />
    <glyph glyph-name="q" unicode="q" horiz-adv-x="586" 
d="M141.5 445.5q-51.5 -31.5 -80 -87.5t-28.5 -127t28.5 -127t80 -87.5t117.5 -31.5q62 0 108.5 29.5t72.5 85.5l4 -1q-10 -34 -10 -98v-201h85v662h-82q0 -70 6 -100l-4 -1q-26 56 -72 86t-108 30q-66 0 -117.5 -31.5zM392.5 350.5q45.5 -46.5 45.5 -119.5
q0 -74 -45.5 -120t-118.5 -46q-70 0 -111 44.5t-41 121.5q0 76 41 121t112 45q72 0 117.5 -46.5z" />
    <glyph glyph-name="r" unicode="r" horiz-adv-x="343" 
d="M328 475v-97q-17 2 -34 2q-69 0 -105.5 -47t-36.5 -136v-197h-85v462h85q0 -31 -3.5 -68t-8.5 -64l5 -2q34 148 161 148q13 0 22 -1z" />
    <glyph glyph-name="s" unicode="s" horiz-adv-x="414" 
d="M111 -1.5q-50 13.5 -90 38.5l39 75q76 -47 153 -47q83 0 83 53q0 18 -13 32.5t-43 27.5l-84 41q-51 24 -75.5 56.5t-24.5 75.5q0 59 42.5 92.5t118.5 33.5q78 0 158 -36l-35 -74q-69 31 -125 31q-69 0 -69 -45q0 -19 13.5 -33.5t45.5 -29.5l85 -40q51 -24 73.5 -54.5
t22.5 -74.5q0 -65 -46 -100.5t-129 -35.5q-50 0 -100 13.5z" />
    <glyph glyph-name="t" unicode="t" horiz-adv-x="311" 
d="M195 504q0 -32 -4 -47l3 -2q11 7 38 7h53v-80h-53q-17 0 -24.5 1.5t-13.5 5.5l-3 -2q4 -15 4 -48v-339h-84v339q0 33 4 48l-2 2q-6 -4 -14 -5.5t-25 -1.5h-48v80h48q28 0 39 -7l2 2q-4 15 -4 47v145l79 60h5v-205z" />
    <glyph glyph-name="u" unicode="u" horiz-adv-x="524" 
d="M462 0h-83q0 69 10 109l-4 1q-23 -63 -63 -94t-102 -31q-77 0 -120 50.5t-43 141.5v285h87v-271q0 -61 28 -93t80 -32q60 0 93 46.5t33 131.5v218h84v-462z" />
    <glyph glyph-name="v" unicode="v" horiz-adv-x="483" 
d="M254 -6h-24l-220 468h99l95 -225q20 -47 26 -65t11 -46h2q4 28 10.5 46t26.5 65l94 225h99z" />
    <glyph glyph-name="w" unicode="w" horiz-adv-x="706" 
d="M10 462h96l84 -231q11 -31 15 -47t5 -37h4q3 20 8 35t20 50l101 238h21l100 -238q15 -35 20 -50t8 -35h4q1 20 5 35.5t16 48.5l84 231h95l-188 -468h-22l-110 253q-11 27 -15.5 41t-5.5 31h-4q-2 -18 -6 -32.5t-15 -39.5l-110 -253h-21z" />
    <glyph glyph-name="x" unicode="x" horiz-adv-x="490" 
d="M164 210l11.5 15t15.5 15v3q-8 5 -16 15.5t-10 13.5l-136 190h101l76 -107q19 -27 26.5 -42t10.5 -31h4q3 16 10.5 31t26.5 42l76 107h100l-135 -190q-2 -3 -10 -13.5t-17 -15.5v-3q8 -4 16.5 -15l11.5 -15l154 -210h-101l-96 130q-18 24 -25.5 38.5t-10.5 30.5h-4
q-4 -17 -11.5 -31.5t-24.5 -37.5l-97 -130h-100z" />
    <glyph glyph-name="y" unicode="y" horiz-adv-x="487" 
d="M194 -201h-88l100 232l-196 431h97l113 -266q12 -29 18 -48.5t7 -44.5h4q1 21 5.5 38.5t14.5 42.5l116 278h92z" />
    <glyph glyph-name="z" unicode="z" horiz-adv-x="453" 
d="M7 5l297 390l-2 2q-20 -10 -38 -13t-57 -3h-173l51 81h358l2 -4l-293 -390l2 -3q17 10 37 13t65 3h188l-51 -81h-383z" />
    <glyph glyph-name="aacute" unicode="&#xe1;" horiz-adv-x="503" 
d="M394.5 432q46.5 -45 46.5 -141v-291h-86q0 24 2.5 40t9.5 38l-3 2q-25 -46 -67 -70.5t-95 -24.5q-77 0 -124 45t-47 118q0 75 47 119t125 44q54 0 95.5 -22t64.5 -62l3 2q-6 20 -8 69q-4 100 -115 100q-58 0 -139 -26l-24 77q87 28 169 28q99 0 145.5 -45zM151.5 214
q-30.5 -26 -30.5 -67q0 -42 30 -66.5t80 -24.5q51 0 85 26t34 66t-34 66t-85 26q-49 0 -79.5 -26zM416 704l-132 -151h-59l-1 3l93 151h98z" />
    <glyph glyph-name="abreve" unicode="&#x103;" horiz-adv-x="503" 
d="M394.5 432q46.5 -45 46.5 -141v-291h-86q0 24 2.5 40t9.5 38l-3 2q-25 -46 -67 -70.5t-95 -24.5q-77 0 -124 45t-47 118q0 75 47 119t125 44q54 0 95.5 -22t64.5 -62l3 2q-6 20 -8 69q-4 100 -115 100q-58 0 -139 -26l-24 77q87 28 169 28q99 0 145.5 -45zM151.5 214
q-30.5 -26 -30.5 -67q0 -42 30 -66.5t80 -24.5q51 0 85 26t34 66t-34 66t-85 26q-49 0 -79.5 -26zM353 598.5q-38 -38.5 -99 -38.5q-62 0 -100 38.5t-38 106.5h61q1 -43 21.5 -64.5t55.5 -21.5t55.5 21.5t21.5 64.5h60q0 -68 -38 -106.5z" />
    <glyph glyph-name="acircumflex" unicode="&#xe2;" horiz-adv-x="503" 
d="M394.5 432q46.5 -45 46.5 -141v-291h-86q0 24 2.5 40t9.5 38l-3 2q-25 -46 -67 -70.5t-95 -24.5q-77 0 -124 45t-47 118q0 75 47 119t125 44q54 0 95.5 -22t64.5 -62l3 2q-6 20 -8 69q-4 100 -115 100q-58 0 -139 -26l-24 77q87 28 169 28q99 0 145.5 -45zM151.5 214
q-30.5 -26 -30.5 -67q0 -42 30 -66.5t80 -24.5q51 0 85 26t34 66t-34 66t-85 26q-49 0 -79.5 -26zM409 555v-2h-74l-42 59q-20 29 -26.5 41t-11.5 26h-2q-4 -14 -10.5 -26t-26.5 -41l-42 -59h-74v2l111 152h87z" />
    <glyph glyph-name="adieresis" unicode="&#xe4;" horiz-adv-x="503" 
d="M394.5 432q46.5 -45 46.5 -141v-291h-86q0 24 2.5 40t9.5 38l-3 2q-25 -46 -67 -70.5t-95 -24.5q-77 0 -124 45t-47 118q0 75 47 119t125 44q54 0 95.5 -22t64.5 -62l3 2q-6 20 -8 69q-4 100 -115 100q-58 0 -139 -26l-24 77q87 28 169 28q99 0 145.5 -45zM151.5 214
q-30.5 -26 -30.5 -67q0 -42 30 -66.5t80 -24.5q51 0 85 26t34 66t-34 66t-85 26q-49 0 -79.5 -26zM199 682.5q17 -17.5 17 -43.5t-17 -43.5t-44 -17.5t-44 17.5t-17 43.5t17 43.5t44 17.5t44 -17.5zM395 682.5q17 -17.5 17 -43.5t-17 -43.5t-44 -17.5t-44 17.5t-17 43.5
t17 43.5t44 17.5t44 -17.5z" />
    <glyph glyph-name="ae" unicode="&#xe6;" horiz-adv-x="844" 
d="M81 30.5q-50 45.5 -50 120.5q0 72 47.5 116t124.5 44q52 0 94 -22t65 -62l3 2q-7 23 -7 69q-4 100 -115 100q-57 0 -140 -26l-24 77q93 28 170 28q71 0 109 -25t51 -77h2q25 48 71.5 75t108.5 27q104 0 161.5 -66.5t57.5 -177.5v-17h-315q-37 0 -55 5l-1 -2l1 -6
q8 -71 48.5 -109t107.5 -38q46 0 80 18t69 56l53 -55q-78 -100 -201 -100q-75 0 -128 36t-72 96h-3q-16 -61 -65.5 -96.5t-118.5 -35.5q-79 0 -129 45.5zM495 281h159q45 0 66 -8l2 1q-5 60 -40.5 93t-95.5 33q-59 0 -98 -33.5t-46 -93.5l1 -1q20 9 52 9zM315.5 82
q33.5 26 33.5 66t-33.5 66t-84.5 26q-50 0 -80.5 -26t-30.5 -67t30 -66t81 -25t84.5 26z" />
    <glyph glyph-name="aeacute" unicode="&#x1fd;" horiz-adv-x="844" 
d="M81 30.5q-50 45.5 -50 120.5q0 72 47.5 116t124.5 44q52 0 94 -22t65 -62l3 2q-7 23 -7 69q-4 100 -115 100q-57 0 -140 -26l-24 77q93 28 170 28q71 0 109 -25t51 -77h2q25 48 71.5 75t108.5 27q104 0 161.5 -66.5t57.5 -177.5v-17h-315q-37 0 -55 5l-1 -2l1 -6
q8 -71 48.5 -109t107.5 -38q46 0 80 18t69 56l53 -55q-78 -100 -201 -100q-75 0 -128 36t-72 96h-3q-16 -61 -65.5 -96.5t-118.5 -35.5q-79 0 -129 45.5zM495 281h159q45 0 66 -8l2 1q-5 60 -40.5 93t-95.5 33q-59 0 -98 -33.5t-46 -93.5l1 -1q20 9 52 9zM315.5 82
q33.5 26 33.5 66t-33.5 66t-84.5 26q-50 0 -80.5 -26t-30.5 -67t30 -66t81 -25t84.5 26zM588 704l-132 -151h-59l-1 3l93 151h98z" />
    <glyph glyph-name="agrave" unicode="&#xe0;" horiz-adv-x="503" 
d="M394.5 432q46.5 -45 46.5 -141v-291h-86q0 24 2.5 40t9.5 38l-3 2q-25 -46 -67 -70.5t-95 -24.5q-77 0 -124 45t-47 118q0 75 47 119t125 44q54 0 95.5 -22t64.5 -62l3 2q-6 20 -8 69q-4 100 -115 100q-58 0 -139 -26l-24 77q87 28 169 28q99 0 145.5 -45zM151.5 214
q-30.5 -26 -30.5 -67q0 -42 30 -66.5t80 -24.5q51 0 85 26t34 66t-34 66t-85 26q-49 0 -79.5 -26zM91 704l1 3h96l95 -151l-1 -3h-59z" />
    <glyph glyph-name="amacron" unicode="&#x101;" horiz-adv-x="503" 
d="M394.5 432q46.5 -45 46.5 -141v-291h-86q0 24 2.5 40t9.5 38l-3 2q-25 -46 -67 -70.5t-95 -24.5q-77 0 -124 45t-47 118q0 75 47 119t125 44q54 0 95.5 -22t64.5 -62l3 2q-6 20 -8 69q-4 100 -115 100q-58 0 -139 -26l-24 77q87 28 169 28q99 0 145.5 -45zM151.5 214
q-30.5 -26 -30.5 -67q0 -42 30 -66.5t80 -24.5q51 0 85 26t34 66t-34 66t-85 26q-49 0 -79.5 -26zM397 606h-286v62h286v-62z" />
    <glyph glyph-name="aogonek" unicode="&#x105;" horiz-adv-x="503" 
d="M394.5 432q46.5 -45 46.5 -141v-291h-86q0 24 2.5 40t9.5 38l-3 2q-25 -46 -67 -70.5t-95 -24.5q-77 0 -124 45t-47 118q0 75 47 119t125 44q54 0 95.5 -22t64.5 -62l3 2q-6 20 -8 69q-4 100 -115 100q-58 0 -139 -26l-24 77q87 28 169 28q99 0 145.5 -45zM151.5 214
q-30.5 -26 -30.5 -67q0 -42 30 -66.5t80 -24.5q51 0 85 26t34 66t-34 66t-85 26q-49 0 -79.5 -26zM397 9q-48 -37 -70.5 -63.5t-22.5 -47.5q0 -15 10.5 -23t29.5 -8q22 0 43 6l13 -49q-35 -13 -68 -13q-38 0 -63 19t-25 52q0 36 29 69.5t90 75.5z" />
    <glyph glyph-name="aring" unicode="&#xe5;" horiz-adv-x="503" 
d="M394.5 432q46.5 -45 46.5 -141v-291h-86q0 24 2.5 40t9.5 38l-3 2q-25 -46 -67 -70.5t-95 -24.5q-77 0 -124 45t-47 118q0 75 47 119t125 44q54 0 95.5 -22t64.5 -62l3 2q-6 20 -8 69q-4 100 -115 100q-58 0 -139 -26l-24 77q87 28 169 28q99 0 145.5 -45zM151.5 214
q-30.5 -26 -30.5 -67q0 -42 30 -66.5t80 -24.5q51 0 85 26t34 66t-34 66t-85 26q-49 0 -79.5 -26zM339.5 714q33.5 -33 33.5 -84t-33.5 -84t-85.5 -33t-85.5 33t-33.5 84t33.5 84t85.5 33t85.5 -33zM200.5 683.5q-20.5 -20.5 -20.5 -53.5t20.5 -53.5t53.5 -20.5t53.5 20.5
t20.5 53.5t-20.5 53.5t-53.5 20.5t-53.5 -20.5z" />
    <glyph glyph-name="atilde" unicode="&#xe3;" horiz-adv-x="503" 
d="M394.5 432q46.5 -45 46.5 -141v-291h-86q0 24 2.5 40t9.5 38l-3 2q-25 -46 -67 -70.5t-95 -24.5q-77 0 -124 45t-47 118q0 75 47 119t125 44q54 0 95.5 -22t64.5 -62l3 2q-6 20 -8 69q-4 100 -115 100q-58 0 -139 -26l-24 77q87 28 169 28q99 0 145.5 -45zM151.5 214
q-30.5 -26 -30.5 -67q0 -42 30 -66.5t80 -24.5q51 0 85 26t34 66t-34 66t-85 26q-49 0 -79.5 -26zM225.5 689q19.5 -7 51.5 -21q42 -22 63 -22q34 0 53 50l39 -14q-10 -44 -34 -72t-64 -28q-21 0 -42.5 7.5t-50.5 21.5q-22 10 -36.5 15.5t-26.5 5.5q-34 0 -53 -49l-39 13
q10 44 34 72t65 28q21 0 40.5 -7z" />
    <glyph glyph-name="cacute" unicode="&#x107;" horiz-adv-x="471" 
d="M154.5 16q-57.5 31 -89.5 87t-32 128t32 128t89.5 87t131.5 31q86 0 158 -47l-41 -72q-56 37 -120 37q-70 0 -115 -46t-45 -118t45 -118t115 -46q64 0 120 37l41 -72q-72 -47 -158 -47q-74 0 -131.5 31zM432 704l-132 -151h-59l-1 3l93 151h98z" />
    <glyph glyph-name="ccaron" unicode="&#x10d;" horiz-adv-x="471" 
d="M154.5 16q-57.5 31 -89.5 87t-32 128t32 128t89.5 87t131.5 31q86 0 158 -47l-41 -72q-56 37 -120 37q-70 0 -115 -46t-45 -118t45 -118t115 -46q64 0 120 37l41 -72q-72 -47 -158 -47q-74 0 -131.5 31zM110 705v2h78l44 -59l15.5 -22t15 -23t6.5 -17h3q3 11 9.5 22
t14.5 22l13 18l43 59h79v-2l-117 -152h-87z" />
    <glyph glyph-name="ccedilla" unicode="&#xe7;" horiz-adv-x="471" 
d="M154.5 16q-57.5 31 -89.5 87t-32 128t32 128t89.5 87t131.5 31q86 0 158 -47l-41 -72q-56 37 -120 37q-70 0 -115 -46t-45 -118t45 -118t115 -46q64 0 120 37l41 -72q-72 -47 -158 -47q-74 0 -131.5 31zM292 -36q39 -11 63 -27.5t24 -45.5q0 -36 -35 -61t-98 -54l-14 29
q43 25 60 37.5t17 27.5t-18.5 25t-54.5 18l41 111h37z" />
    <glyph glyph-name="ccircumflex" unicode="&#x109;" horiz-adv-x="471" 
d="M154.5 16q-57.5 31 -89.5 87t-32 128t32 128t89.5 87t131.5 31q86 0 158 -47l-41 -72q-56 37 -120 37q-70 0 -115 -46t-45 -118t45 -118t115 -46q64 0 120 37l41 -72q-72 -47 -158 -47q-74 0 -131.5 31zM425 555v-2h-74l-42 59q-20 29 -26.5 41t-11.5 26h-2
q-4 -14 -10.5 -26t-26.5 -41l-42 -59h-74v2l111 152h87z" />
    <glyph glyph-name="cdotaccent" unicode="&#x10b;" horiz-adv-x="471" 
d="M154.5 16q-57.5 31 -89.5 87t-32 128t32 128t89.5 87t131.5 31q86 0 158 -47l-41 -72q-56 37 -120 37q-70 0 -115 -46t-45 -118t45 -118t115 -46q64 0 120 37l41 -72q-72 -47 -158 -47q-74 0 -131.5 31zM317.5 685q19.5 -19 19.5 -48q0 -28 -19.5 -47.5t-47.5 -19.5
q-29 0 -48 19.5t-19 47.5q0 29 19 48t48 19q28 0 47.5 -19z" />
    <glyph glyph-name="dcaron" unicode="&#x10f;" horiz-adv-x="685" 
d="M688 730l-71 -198h-46l29 198h88zM141.5 16.5q-51.5 31.5 -80 87.5t-28.5 127t28.5 127t80 87.5t117.5 31.5q63 0 109.5 -29.5t70.5 -85.5l4 1q-9 35 -9 107v245h85v-715h-82q0 68 7 99l-4 1q-25 -56 -71.5 -85.5t-109.5 -29.5q-66 0 -117.5 31.5zM392.5 111
q45.5 46 45.5 120q0 73 -45.5 119.5t-117.5 46.5q-71 0 -112 -44.5t-41 -121.5t41 -121.5t111 -44.5q73 0 118.5 46z" />
    <glyph glyph-name="dcroat" unicode="&#x111;" horiz-adv-x="587" 
d="M583 623v-53h-42q-19 0 -27 4l-1 -1q5 -10 5 -27v-546h-82q0 68 7 99l-4 1q-26 -58 -73.5 -86.5t-107.5 -28.5q-62 0 -113.5 30t-81.5 86t-30 130t30 130t81.5 86t113.5 30t109 -29.5t71 -85.5l4 1q-9 39 -9 107v76q0 17 5 27l-1 1q-8 -4 -28 -4h-133v53h133q20 0 28 -4
l1 1q-5 10 -5 26v69h85v-69q0 -16 -5 -26l1 -1q8 4 27 4h42zM392 112q45 47 45 119t-44.5 119t-118.5 47q-69 0 -111 -44t-42 -122t41.5 -122t110.5 -44q74 0 119 47z" />
    <glyph glyph-name="eacute" unicode="&#xe9;" horiz-adv-x="523" 
d="M430 411.5q59 -65.5 59 -178.5v-17h-316q-41 0 -55 7l-2 -2l4 -11q6 -68 47 -106t108 -38q44 0 79 17t70 57l53 -55q-79 -100 -203 -100q-72 0 -126.5 30.5t-84.5 85.5t-30 128q0 74 29 130.5t82.5 87t124.5 30.5q102 0 161 -65.5zM166.5 366q-38.5 -34 -45.5 -93l1 -1
q20 9 52 9h159q30 0 44 -1.5t22 -6.5l1 1q-4 60 -39.5 93t-94.5 33q-61 0 -99.5 -34zM432 704l-132 -151h-59l-1 3l93 151h98z" />
    <glyph glyph-name="ebreve" unicode="&#x115;" horiz-adv-x="523" 
d="M430 411.5q59 -65.5 59 -178.5v-17h-316q-41 0 -55 7l-2 -2l4 -11q6 -68 47 -106t108 -38q44 0 79 17t70 57l53 -55q-79 -100 -203 -100q-72 0 -126.5 30.5t-84.5 85.5t-30 128q0 74 29 130.5t82.5 87t124.5 30.5q102 0 161 -65.5zM166.5 366q-38.5 -34 -45.5 -93l1 -1
q20 9 52 9h159q30 0 44 -1.5t22 -6.5l1 1q-4 60 -39.5 93t-94.5 33q-61 0 -99.5 -34zM369 598.5q-38 -38.5 -99 -38.5q-62 0 -100 38.5t-38 106.5h61q1 -43 21.5 -64.5t55.5 -21.5t55.5 21.5t21.5 64.5h60q0 -68 -38 -106.5z" />
    <glyph glyph-name="ecaron" unicode="&#x11b;" horiz-adv-x="523" 
d="M430 411.5q59 -65.5 59 -178.5v-17h-316q-41 0 -55 7l-2 -2l4 -11q6 -68 47 -106t108 -38q44 0 79 17t70 57l53 -55q-79 -100 -203 -100q-72 0 -126.5 30.5t-84.5 85.5t-30 128q0 74 29 130.5t82.5 87t124.5 30.5q102 0 161 -65.5zM166.5 366q-38.5 -34 -45.5 -93l1 -1
q20 9 52 9h159q30 0 44 -1.5t22 -6.5l1 1q-4 60 -39.5 93t-94.5 33q-61 0 -99.5 -34zM110 705v2h78l44 -59l15.5 -22t15 -23t6.5 -17h3q3 11 9.5 22t14.5 22l13 18l43 59h79v-2l-117 -152h-87z" />
    <glyph glyph-name="ecircumflex" unicode="&#xea;" horiz-adv-x="523" 
d="M430 411.5q59 -65.5 59 -178.5v-17h-316q-41 0 -55 7l-2 -2l4 -11q6 -68 47 -106t108 -38q44 0 79 17t70 57l53 -55q-79 -100 -203 -100q-72 0 -126.5 30.5t-84.5 85.5t-30 128q0 74 29 130.5t82.5 87t124.5 30.5q102 0 161 -65.5zM166.5 366q-38.5 -34 -45.5 -93l1 -1
q20 9 52 9h159q30 0 44 -1.5t22 -6.5l1 1q-4 60 -39.5 93t-94.5 33q-61 0 -99.5 -34zM425 555v-2h-74l-42 59q-20 29 -26.5 41t-11.5 26h-2q-4 -14 -10.5 -26t-26.5 -41l-42 -59h-74v2l111 152h87z" />
    <glyph glyph-name="edieresis" unicode="&#xeb;" horiz-adv-x="523" 
d="M430 411.5q59 -65.5 59 -178.5v-17h-316q-41 0 -55 7l-2 -2l4 -11q6 -68 47 -106t108 -38q44 0 79 17t70 57l53 -55q-79 -100 -203 -100q-72 0 -126.5 30.5t-84.5 85.5t-30 128q0 74 29 130.5t82.5 87t124.5 30.5q102 0 161 -65.5zM166.5 366q-38.5 -34 -45.5 -93l1 -1
q20 9 52 9h159q30 0 44 -1.5t22 -6.5l1 1q-4 60 -39.5 93t-94.5 33q-61 0 -99.5 -34zM215 682.5q17 -17.5 17 -43.5t-17 -43.5t-44 -17.5t-44 17.5t-17 43.5t17 43.5t44 17.5t44 -17.5zM411 682.5q17 -17.5 17 -43.5t-17 -43.5t-44 -17.5t-44 17.5t-17 43.5t17 43.5t44 17.5
t44 -17.5z" />
    <glyph glyph-name="edotaccent" unicode="&#x117;" horiz-adv-x="523" 
d="M430 411.5q59 -65.5 59 -178.5v-17h-316q-41 0 -55 7l-2 -2l4 -11q6 -68 47 -106t108 -38q44 0 79 17t70 57l53 -55q-79 -100 -203 -100q-72 0 -126.5 30.5t-84.5 85.5t-30 128q0 74 29 130.5t82.5 87t124.5 30.5q102 0 161 -65.5zM166.5 366q-38.5 -34 -45.5 -93l1 -1
q20 9 52 9h159q30 0 44 -1.5t22 -6.5l1 1q-4 60 -39.5 93t-94.5 33q-61 0 -99.5 -34zM317.5 685q19.5 -19 19.5 -48q0 -28 -19.5 -47.5t-47.5 -19.5q-29 0 -48 19.5t-19 47.5q0 29 19 48t48 19q28 0 47.5 -19z" />
    <glyph glyph-name="egrave" unicode="&#xe8;" horiz-adv-x="523" 
d="M430 411.5q59 -65.5 59 -178.5v-17h-316q-41 0 -55 7l-2 -2l4 -11q6 -68 47 -106t108 -38q44 0 79 17t70 57l53 -55q-79 -100 -203 -100q-72 0 -126.5 30.5t-84.5 85.5t-30 128q0 74 29 130.5t82.5 87t124.5 30.5q102 0 161 -65.5zM166.5 366q-38.5 -34 -45.5 -93l1 -1
q20 9 52 9h159q30 0 44 -1.5t22 -6.5l1 1q-4 60 -39.5 93t-94.5 33q-61 0 -99.5 -34zM107 704l1 3h96l95 -151l-1 -3h-59z" />
    <glyph glyph-name="emacron" unicode="&#x113;" horiz-adv-x="523" 
d="M430 411.5q59 -65.5 59 -178.5v-17h-316q-41 0 -55 7l-2 -2l4 -11q6 -68 47 -106t108 -38q44 0 79 17t70 57l53 -55q-79 -100 -203 -100q-72 0 -126.5 30.5t-84.5 85.5t-30 128q0 74 29 130.5t82.5 87t124.5 30.5q102 0 161 -65.5zM166.5 366q-38.5 -34 -45.5 -93l1 -1
q20 9 52 9h159q30 0 44 -1.5t22 -6.5l1 1q-4 60 -39.5 93t-94.5 33q-61 0 -99.5 -34zM413 606h-286v62h286v-62z" />
    <glyph glyph-name="eogonek" unicode="&#x119;" horiz-adv-x="523" 
d="M430 411.5q59 -65.5 59 -178.5v-17h-316q-41 0 -55 7l-2 -2l4 -11q6 -68 47 -106t108 -38q44 0 79 17t70 57l53 -55q-79 -100 -203 -100q-72 0 -126.5 30.5t-84.5 85.5t-30 128q0 74 29 130.5t82.5 87t124.5 30.5q102 0 161 -65.5zM166.5 366q-38.5 -34 -45.5 -93l1 -1
q20 9 52 9h159q30 0 44 -1.5t22 -6.5l1 1q-4 60 -39.5 93t-94.5 33q-61 0 -99.5 -34zM386 9q-48 -37 -70.5 -63.5t-22.5 -47.5q0 -15 10.5 -23t29.5 -8q22 0 43 6l13 -49q-35 -13 -68 -13q-38 0 -63 19t-25 52q0 36 29 69.5t90 75.5z" />
    <glyph glyph-name="gbreve" unicode="&#x11f;" horiz-adv-x="581" 
d="M368 447.5q46 -29.5 71 -85.5l4 1q-9 27 -9 99h84v-446q0 -115 -63 -173t-187 -58q-118 0 -203 55l41 76q43 -26 82 -38t82 -12q76 0 121 37.5t45 99.5v22q0 42 7 74l-4 1q-26 -56 -72 -85t-108 -29q-66 0 -117.5 31t-80 86.5t-28.5 127.5t28.5 128t80 87t117.5 31
q63 0 109 -29.5zM164 352.5q-41 -44.5 -41 -121.5t40.5 -121.5t110.5 -44.5q73 0 119 46.5t46 119.5t-46 119.5t-118 46.5q-70 0 -111 -44.5zM373 598.5q-38 -38.5 -99 -38.5q-62 0 -100 38.5t-38 106.5h61q1 -43 21.5 -64.5t55.5 -21.5t55.5 21.5t21.5 64.5h60
q0 -68 -38 -106.5z" />
    <glyph glyph-name="gcircumflex" unicode="&#x11d;" horiz-adv-x="581" 
d="M368 447.5q46 -29.5 71 -85.5l4 1q-9 27 -9 99h84v-446q0 -115 -63 -173t-187 -58q-118 0 -203 55l41 76q43 -26 82 -38t82 -12q76 0 121 37.5t45 99.5v22q0 42 7 74l-4 1q-26 -56 -72 -85t-108 -29q-66 0 -117.5 31t-80 86.5t-28.5 127.5t28.5 128t80 87t117.5 31
q63 0 109 -29.5zM164 352.5q-41 -44.5 -41 -121.5t40.5 -121.5t110.5 -44.5q73 0 119 46.5t46 119.5t-46 119.5t-118 46.5q-70 0 -111 -44.5zM429 555v-2h-74l-42 59q-20 29 -26.5 41t-11.5 26h-2q-4 -14 -10.5 -26t-26.5 -41l-42 -59h-74v2l111 152h87z" />
    <glyph glyph-name="gcommaaccent" unicode="&#x123;" horiz-adv-x="581" 
d="M368 447.5q46 -29.5 71 -85.5l4 1q-9 27 -9 99h84v-446q0 -115 -63 -173t-187 -58q-118 0 -203 55l41 76q43 -26 82 -38t82 -12q76 0 121 37.5t45 99.5v22q0 42 7 74l-4 1q-26 -56 -72 -85t-108 -29q-66 0 -117.5 31t-80 86.5t-28.5 127.5t28.5 128t80 87t117.5 31
q63 0 109 -29.5zM164 352.5q-41 -44.5 -41 -121.5t40.5 -121.5t110.5 -44.5q73 0 119 46.5t46 119.5t-46 119.5t-118 46.5q-70 0 -111 -44.5zM229 553l81 159h47l-37 -159h-91z" />
    <glyph glyph-name="gdotaccent" unicode="&#x121;" horiz-adv-x="581" 
d="M368 447.5q46 -29.5 71 -85.5l4 1q-9 27 -9 99h84v-446q0 -115 -63 -173t-187 -58q-118 0 -203 55l41 76q43 -26 82 -38t82 -12q76 0 121 37.5t45 99.5v22q0 42 7 74l-4 1q-26 -56 -72 -85t-108 -29q-66 0 -117.5 31t-80 86.5t-28.5 127.5t28.5 128t80 87t117.5 31
q63 0 109 -29.5zM164 352.5q-41 -44.5 -41 -121.5t40.5 -121.5t110.5 -44.5q73 0 119 46.5t46 119.5t-46 119.5t-118 46.5q-70 0 -111 -44.5zM321.5 685q19.5 -19 19.5 -48q0 -28 -19.5 -47.5t-47.5 -19.5q-29 0 -48 19.5t-19 47.5q0 29 19 48t48 19q28 0 47.5 -19z" />
    <glyph glyph-name="hbar" unicode="&#x127;" horiz-adv-x="553" 
d="M446 432q45 -45 45 -135v-297h-84v273q0 63 -29.5 93t-80.5 30q-63 0 -102 -44t-39 -134v-218h-85v546q0 17 5 27l-1 1q-8 -4 -28 -4h-43v53h43q20 0 28 -4l1 1q-5 10 -5 26v69h85v-69q0 -16 -5 -26l1 -1q8 4 27 4h131v-53h-131q-19 0 -27 4l-1 -1q5 -10 5 -27v-88
q0 -56 -10 -106l4 -1q23 61 67 93.5t108 32.5q76 0 121 -45z" />
    <glyph glyph-name="hcircumflex" unicode="&#x125;" horiz-adv-x="551" 
d="M153 458q0 -60 -10 -106l4 -1q48 126 175 126q79 0 122.5 -47t43.5 -133v-297h-84v275q0 59 -28.5 90t-81.5 31q-67 0 -104 -46.5t-37 -131.5v-218h-85v715h85v-257zM-50 747l114 116h93l114 -116v-4h-79l-32 32q-25 24 -34.5 36t-13.5 26h-3q-3 -14 -12.5 -25.5
t-34.5 -36.5l-33 -32h-79v4z" />
    <glyph glyph-name="iacute" unicode="&#xed;" horiz-adv-x="221" 
d="M223 704l-83 -151h-54l-1 3l48 151h89zM153 0h-85v462h85v-462z" />
    <glyph glyph-name="ibreve" unicode="&#x12d;" horiz-adv-x="221" 
d="M197 599q-29 -39 -87 -39q-57 0 -86 39t-29 106h61q1 -46 12 -67.5t42 -21.5q32 0 43 21.5t12 67.5h61q0 -67 -29 -106zM153 0h-85v462h85v-462z" />
    <glyph glyph-name="icircumflex" unicode="&#xee;" horiz-adv-x="221" 
d="M228 555v-2h-65l-29 59q-18 38 -22 63h-2q-5 -26 -23 -63l-29 -59h-65v2l79 152h78zM153 0h-85v462h85v-462z" />
    <glyph glyph-name="idieresis" unicode="&#xef;" horiz-adv-x="221" 
d="M78 682.5q17 -17.5 17 -43.5t-17 -43.5t-44 -17.5t-44 17.5t-17 43.5t17 43.5t44 17.5t44 -17.5zM229 682.5q17 -17.5 17 -43.5t-17 -43.5t-44 -17.5t-44 17.5t-17 43.5t17 43.5t44 17.5t44 -17.5zM153 0h-85v462h85v-462z" />
    <glyph glyph-name="i.loclTRK" horiz-adv-x="221" 
d="M153 0h-85v462h85v-462zM158.5 685q19.5 -19 19.5 -48q0 -28 -19.5 -47.5t-47.5 -19.5q-29 0 -48 19.5t-19 47.5q0 29 19 48t48 19q28 0 47.5 -19z" />
    <glyph glyph-name="dotlessi" unicode="&#x131;" horiz-adv-x="221" 
d="M153 0h-85v462h85v-462z" />
    <glyph glyph-name="igrave" unicode="&#xec;" horiz-adv-x="221" 
d="M93 707l48 -151l-1 -3h-55l-82 151l1 3h89zM153 0h-85v462h85v-462z" />
    <glyph glyph-name="ij" unicode="&#x133;" horiz-adv-x="442" 
d="M153 0h-85v462h85v-462zM158.5 685q19.5 -19 19.5 -48q0 -28 -19.5 -47.5t-47.5 -19.5q-29 0 -48 19.5t-19 47.5q0 29 19 48t48 19q28 0 47.5 -19zM374 -34q0 -92 -44 -136.5t-126 -44.5h-7v83h7q44 0 64.5 25t20.5 73v496h85v-496zM379.5 685q19.5 -19 19.5 -48
q0 -28 -19.5 -47.5t-47.5 -19.5q-29 0 -48 19.5t-19 47.5q0 29 19 48t48 19q28 0 47.5 -19z" />
    <glyph glyph-name="uni006A0301" horiz-adv-x="221" 
d="M223 704l-83 -151h-54l-1 3l48 151h89zM153 -34q0 -92 -44 -136.5t-126 -44.5h-7v83h7q44 0 64.5 25t20.5 73v496h85v-496z" />
    <glyph glyph-name="imacron" unicode="&#x12b;" horiz-adv-x="221" 
d="M214 606h-206v62h206v-62zM153 0h-85v462h85v-462z" />
    <glyph glyph-name="iogonek" unicode="&#x12f;" horiz-adv-x="221" 
d="M153 0h-85v462h85v-462zM158.5 685q19.5 -19 19.5 -48q0 -28 -19.5 -47.5t-47.5 -19.5q-29 0 -48 19.5t-19 47.5q0 29 19 48t48 19q28 0 47.5 -19zM113 9q-48 -37 -70.5 -63.5t-22.5 -47.5q0 -15 10.5 -23t29.5 -8q22 0 43 6l13 -49q-35 -13 -68 -13q-38 0 -63 19t-25 52
q0 36 29 69.5t90 75.5z" />
    <glyph glyph-name="itilde" unicode="&#x129;" horiz-adv-x="221" 
d="M94 688.5q17 -7.5 40 -22.5q16 -10 26 -15t19 -5q14 0 24 13t18 37l39 -14q-21 -100 -85 -100q-19 0 -36 7.5t-40 22.5q-16 10 -26 15t-19 5q-26 0 -42 -49l-39 13q8 45 29 72.5t56 27.5q19 0 36 -7.5zM153 0h-85v462h85v-462z" />
    <glyph glyph-name="jcircumflex" unicode="&#x135;" horiz-adv-x="221" 
d="M228 555v-2h-65l-29 59q-18 38 -22 63h-2q-5 -26 -23 -63l-29 -59h-65v2l79 152h78zM153 -34q0 -92 -44 -136.5t-126 -44.5h-7v83h7q44 0 64.5 25t20.5 73v496h85v-496z" />
    <glyph glyph-name="uni0237" unicode="&#x237;" horiz-adv-x="221" 
d="M153 -34q0 -92 -44 -136.5t-126 -44.5h-7v83h7q44 0 64.5 25t20.5 73v496h85v-496z" />
    <glyph glyph-name="kcommaaccent" unicode="&#x137;" horiz-adv-x="479" 
d="M153 355q0 -63 -8 -96l3 -1l188 204h113l-170 -172q-30 -30 -47 -38l1 -4q15 -6 45 -35l199 -213h-114l-215 237l-3 -2q8 -32 8 -95v-140h-85v715h85v-360zM209 -215h-47l34 164h88z" />
    <glyph glyph-name="kgreenlandic" unicode="&#x138;" horiz-adv-x="477" 
d="M68 462h85v-107q0 -63 -8 -96l3 -1l178 204h111l-159 -171q-22 -24 -42 -39v-3q21 -13 41 -35l198 -214h-116l-211 237l-3 -2q8 -32 8 -95v-140h-85v462z" />
    <glyph glyph-name="lacute" unicode="&#x13a;" horiz-adv-x="221" 
d="M153 0h-85v715h85v-715zM267 850l-126 -107h-59l-1 2l88 108h97z" />
    <glyph glyph-name="lcaron" unicode="&#x13e;" horiz-adv-x="323" 
d="M326 730l-71 -198h-47l29 198h89zM153 0h-85v715h85v-715z" />
    <glyph glyph-name="lcommaaccent" unicode="&#x13c;" horiz-adv-x="221" 
d="M153 0h-85v715h85v-715zM80 -215h-47l34 164h88z" />
    <glyph glyph-name="ldot" unicode="&#x140;" horiz-adv-x="315" 
d="M153 0h-85v715h85v-715zM304 457q20 -20 20 -49t-20 -49.5t-49 -20.5q-30 0 -50 20.5t-20 49.5t20 49t50 20q29 0 49 -20z" />
    <glyph glyph-name="lslash" unicode="&#x142;" horiz-adv-x="264" 
d="M86 292q0 30 9 48l-1 1q-6 -7 -12.5 -12.5t-18.5 -11.5l-54 -28v65l77 41v320h85v-229q0 -23 -2 -35.5t-9 -23.5l1 -1q8 8 16 14t19 12l60 31v-65l-85 -45v-373h-85v292z" />
    <glyph glyph-name="nacute" unicode="&#x144;" horiz-adv-x="550" 
d="M443.5 430q43.5 -47 43.5 -133v-297h-84v275q0 59 -28.5 90t-81.5 31q-67 0 -104 -46.5t-37 -131.5v-218h-85v462h85q0 -71 -10 -118l4 -1q47 134 173 134q81 0 124.5 -47zM445 704l-132 -151h-59l-1 3l93 151h98z" />
    <glyph glyph-name="napostrophe" unicode="&#x149;" horiz-adv-x="550" 
d="M443.5 430q43.5 -47 43.5 -133v-297h-84v275q0 59 -28.5 90t-81.5 31q-67 0 -104 -46.5t-37 -131.5v-218h-85v462h85q0 -71 -10 -118l4 -1q47 134 173 134q81 0 124.5 -47zM106 730l-71 -238h-47l29 238h89z" />
    <glyph glyph-name="ncaron" unicode="&#x148;" horiz-adv-x="550" 
d="M443.5 430q43.5 -47 43.5 -133v-297h-84v275q0 59 -28.5 90t-81.5 31q-67 0 -104 -46.5t-37 -131.5v-218h-85v462h85q0 -71 -10 -118l4 -1q47 134 173 134q81 0 124.5 -47zM123 705v2h78l44 -59l15.5 -22t15 -23t6.5 -17h3q3 11 9.5 22t14.5 22l13 18l43 59h79v-2
l-117 -152h-87z" />
    <glyph glyph-name="ncommaaccent" unicode="&#x146;" horiz-adv-x="550" 
d="M443.5 430q43.5 -47 43.5 -133v-297h-84v275q0 59 -28.5 90t-81.5 31q-67 0 -104 -46.5t-37 -131.5v-218h-85v462h85q0 -71 -10 -118l4 -1q47 134 173 134q81 0 124.5 -47zM250 -215h-47l34 164h88z" />
    <glyph glyph-name="ntilde" unicode="&#xf1;" horiz-adv-x="550" 
d="M443.5 430q43.5 -47 43.5 -133v-297h-84v275q0 59 -28.5 90t-81.5 31q-67 0 -104 -46.5t-37 -131.5v-218h-85v462h85q0 -71 -10 -118l4 -1q47 134 173 134q81 0 124.5 -47zM254.5 689q19.5 -7 51.5 -21q42 -22 63 -22q34 0 53 50l39 -14q-10 -44 -34 -72t-64 -28
q-21 0 -42.5 7.5t-50.5 21.5q-22 10 -36.5 15.5t-26.5 5.5q-34 0 -53 -49l-39 13q10 44 34 72t65 28q21 0 40.5 -7z" />
    <glyph glyph-name="eng" unicode="&#x14b;" horiz-adv-x="550" 
d="M488 0v-39q0 -79 -40 -120t-112 -41h-53v83h52q68 0 68 78v314q0 59 -28.5 90t-81.5 31q-67 0 -104 -46.5t-37 -131.5v-218h-85v462h85q0 -71 -10 -118l4 -1q47 134 173 134q81 0 124.5 -47t43.5 -133v-297h1z" />
    <glyph glyph-name="oacute" unicode="&#xf3;" horiz-adv-x="570" 
d="M414 445q57 -32 89.5 -88t32.5 -126t-32.5 -126t-89.5 -88t-129 -32t-129.5 32t-90 88t-32.5 126t32.5 126t90 88t129.5 32t129 -32zM168 349q-45 -45 -45 -118t45 -118t117 -45t117 45t45 118t-45 118t-117 45t-117 -45zM447 704l-132 -151h-59l-1 3l93 151h98z" />
    <glyph glyph-name="obreve" unicode="&#x14f;" horiz-adv-x="570" 
d="M414 445q57 -32 89.5 -88t32.5 -126t-32.5 -126t-89.5 -88t-129 -32t-129.5 32t-90 88t-32.5 126t32.5 126t90 88t129.5 32t129 -32zM168 349q-45 -45 -45 -118t45 -118t117 -45t117 45t45 118t-45 118t-117 45t-117 -45zM384 598.5q-38 -38.5 -99 -38.5q-62 0 -100 38.5
t-38 106.5h61q1 -43 21.5 -64.5t55.5 -21.5t55.5 21.5t21.5 64.5h60q0 -68 -38 -106.5z" />
    <glyph glyph-name="ocircumflex" unicode="&#xf4;" horiz-adv-x="570" 
d="M414 445q57 -32 89.5 -88t32.5 -126t-32.5 -126t-89.5 -88t-129 -32t-129.5 32t-90 88t-32.5 126t32.5 126t90 88t129.5 32t129 -32zM168 349q-45 -45 -45 -118t45 -118t117 -45t117 45t45 118t-45 118t-117 45t-117 -45zM440 555v-2h-74l-42 59q-20 29 -26.5 41
t-11.5 26h-2q-4 -14 -10.5 -26t-26.5 -41l-42 -59h-74v2l111 152h87z" />
    <glyph glyph-name="odieresis" unicode="&#xf6;" horiz-adv-x="570" 
d="M414 445q57 -32 89.5 -88t32.5 -126t-32.5 -126t-89.5 -88t-129 -32t-129.5 32t-90 88t-32.5 126t32.5 126t90 88t129.5 32t129 -32zM168 349q-45 -45 -45 -118t45 -118t117 -45t117 45t45 118t-45 118t-117 45t-117 -45zM230 682.5q17 -17.5 17 -43.5t-17 -43.5
t-44 -17.5t-44 17.5t-17 43.5t17 43.5t44 17.5t44 -17.5zM426 682.5q17 -17.5 17 -43.5t-17 -43.5t-44 -17.5t-44 17.5t-17 43.5t17 43.5t44 17.5t44 -17.5z" />
    <glyph glyph-name="oe" unicode="&#x153;" horiz-adv-x="931" 
d="M154 16.5q-57 31.5 -89 87.5t-32 127q0 72 32 128t89 87t129 31q141 0 198 -120h4q52 120 189 120q108 0 166 -67.5t58 -176.5v-17h-314q-41 0 -55 6l-2 -2l3 -10q6 -70 48 -107.5t111 -37.5q48 0 81 19t64 56l53 -55q-37 -47 -85 -73.5t-117 -26.5q-74 0 -124.5 32
t-76.5 92h-4q-58 -124 -198 -124q-71 0 -128 31.5zM583 279h160q30 0 43.5 -1.5t21.5 -5.5l2 2q-8 63 -45 95.5t-94 32.5q-54 0 -93.5 -30.5t-48.5 -98.5l2 -2q16 8 52 8zM361 88.5q36 20.5 57 57.5t21 85t-21 85t-57 57.5t-80 20.5t-80 -20.5t-57 -57.5t-21 -85t21 -85
t57 -57.5t80 -20.5t80 20.5z" />
    <glyph glyph-name="ograve" unicode="&#xf2;" horiz-adv-x="570" 
d="M414 445q57 -32 89.5 -88t32.5 -126t-32.5 -126t-89.5 -88t-129 -32t-129.5 32t-90 88t-32.5 126t32.5 126t90 88t129.5 32t129 -32zM168 349q-45 -45 -45 -118t45 -118t117 -45t117 45t45 118t-45 118t-117 45t-117 -45zM122 704l1 3h96l95 -151l-1 -3h-59z" />
    <glyph glyph-name="ohungarumlaut" unicode="&#x151;" horiz-adv-x="570" 
d="M414 445q57 -32 89.5 -88t32.5 -126t-32.5 -126t-89.5 -88t-129 -32t-129.5 32t-90 88t-32.5 126t32.5 126t90 88t129.5 32t129 -32zM168 349q-45 -45 -45 -118t45 -118t117 -45t117 45t45 118t-45 118t-117 45t-117 -45zM178 555l113 152h71l1 -2l-119 -152h-65z
M315 555l112 152h71l1 -2l-119 -152h-64z" />
    <glyph glyph-name="omacron" unicode="&#x14d;" horiz-adv-x="570" 
d="M414 445q57 -32 89.5 -88t32.5 -126t-32.5 -126t-89.5 -88t-129 -32t-129.5 32t-90 88t-32.5 126t32.5 126t90 88t129.5 32t129 -32zM168 349q-45 -45 -45 -118t45 -118t117 -45t117 45t45 118t-45 118t-117 45t-117 -45zM428 606h-286v62h286v-62z" />
    <glyph glyph-name="ordfeminine" unicode="&#xaa;" horiz-adv-x="394" 
d="M75 368q-33 30 -33 79t34.5 78t89.5 29q79 0 113 -66l2 2q-5 20 -5 49t-19.5 45.5t-56.5 16.5q-21 0 -43 -3.5t-56 -11.5l-15 61q71 17 123 17q73 0 108 -30t35 -97v-189h-78q0 34 8 63l-2 2q-16 -35 -46 -55t-73 -20q-53 0 -86 30zM241.5 412.5q19.5 14.5 19.5 38.5
t-19.5 38.5t-49.5 14.5t-48.5 -14.5t-18.5 -38.5q0 -25 18.5 -39t48.5 -14t49.5 14.5z" />
    <glyph glyph-name="ordmasculine" unicode="&#xba;" horiz-adv-x="430" 
d="M339 619.5q49 -44.5 49 -118.5t-49 -118.5t-124 -44.5t-124 44.5t-49 118.5t49 118.5t124 44.5t124 -44.5zM146.5 569.5q-27.5 -25.5 -27.5 -68.5t27.5 -68.5t68.5 -25.5t68.5 25.5t27.5 68.5t-27.5 68.5t-68.5 25.5t-68.5 -25.5z" />
    <glyph glyph-name="oslash" unicode="&#xf8;" horiz-adv-x="570" 
d="M517 330q19 -46 19 -99q0 -70 -32.5 -126t-89.5 -88t-129 -32q-87 0 -153 47l-40 -46l-27 22l40 46q-34 34 -53 79.5t-19 97.5q0 70 32.5 126t90 88t129.5 32q85 0 151 -45l40 45l27 -23l-40 -45q35 -33 54 -79zM162 119l218 248q-41 27 -95 27q-72 0 -117 -45t-45 -118
q0 -68 39 -112zM402 113q45 45 45 118q0 68 -40 113l-218 -248q40 -28 96 -28q72 0 117 45z" />
    <glyph glyph-name="oslashacute" unicode="&#x1ff;" horiz-adv-x="570" 
d="M517 330q19 -46 19 -99q0 -70 -32.5 -126t-89.5 -88t-129 -32q-87 0 -153 47l-40 -46l-27 22l40 46q-34 34 -53 79.5t-19 97.5q0 70 32.5 126t90 88t129.5 32q85 0 151 -45l40 45l27 -23l-40 -45q35 -33 54 -79zM162 119l218 248q-41 27 -95 27q-72 0 -117 -45t-45 -118
q0 -68 39 -112zM402 113q45 45 45 118q0 68 -40 113l-218 -248q40 -28 96 -28q72 0 117 45zM448 704l-132 -151h-59l-1 3l93 151h98z" />
    <glyph glyph-name="otilde" unicode="&#xf5;" horiz-adv-x="570" 
d="M414 445q57 -32 89.5 -88t32.5 -126t-32.5 -126t-89.5 -88t-129 -32t-129.5 32t-90 88t-32.5 126t32.5 126t90 88t129.5 32t129 -32zM168 349q-45 -45 -45 -118t45 -118t117 -45t117 45t45 118t-45 118t-117 45t-117 -45zM256.5 689q19.5 -7 51.5 -21q42 -22 63 -22
q34 0 53 50l39 -14q-10 -44 -34 -72t-64 -28q-21 0 -42.5 7.5t-50.5 21.5q-22 10 -36.5 15.5t-26.5 5.5q-34 0 -53 -49l-39 13q10 44 34 72t65 28q21 0 40.5 -7z" />
    <glyph glyph-name="racute" unicode="&#x155;" horiz-adv-x="343" 
d="M328 475v-97q-17 2 -34 2q-69 0 -105.5 -47t-36.5 -136v-197h-85v462h85q0 -31 -3.5 -68t-8.5 -64l5 -2q34 148 161 148q13 0 22 -1zM352 704l-132 -151h-59l-1 3l93 151h98z" />
    <glyph glyph-name="rcaron" unicode="&#x159;" horiz-adv-x="343" 
d="M328 475v-97q-17 2 -34 2q-69 0 -105.5 -47t-36.5 -136v-197h-85v462h85q0 -31 -3.5 -68t-8.5 -64l5 -2q34 148 161 148q13 0 22 -1zM30 705v2h78l44 -59l15.5 -22t15 -23t6.5 -17h3q3 11 9.5 22t14.5 22l13 18l43 59h79v-2l-117 -152h-87z" />
    <glyph glyph-name="rcommaaccent" unicode="&#x157;" horiz-adv-x="343" 
d="M328 475v-97q-17 2 -34 2q-69 0 -105.5 -47t-36.5 -136v-197h-85v462h85q0 -31 -3.5 -68t-8.5 -64l5 -2q34 148 161 148q13 0 22 -1zM78 -215h-47l34 164h88z" />
    <glyph glyph-name="sacute" unicode="&#x15b;" horiz-adv-x="414" 
d="M111 -1.5q-50 13.5 -90 38.5l39 75q76 -47 153 -47q83 0 83 53q0 18 -13 32.5t-43 27.5l-84 41q-51 24 -75.5 56.5t-24.5 75.5q0 59 42.5 92.5t118.5 33.5q78 0 158 -36l-35 -74q-69 31 -125 31q-69 0 -69 -45q0 -19 13.5 -33.5t45.5 -29.5l85 -40q51 -24 73.5 -54.5
t22.5 -74.5q0 -65 -46 -100.5t-129 -35.5q-50 0 -100 13.5zM379 704l-132 -151h-59l-1 3l93 151h98z" />
    <glyph glyph-name="scaron" unicode="&#x161;" horiz-adv-x="414" 
d="M111 -1.5q-50 13.5 -90 38.5l39 75q76 -47 153 -47q83 0 83 53q0 18 -13 32.5t-43 27.5l-84 41q-51 24 -75.5 56.5t-24.5 75.5q0 59 42.5 92.5t118.5 33.5q78 0 158 -36l-35 -74q-69 31 -125 31q-69 0 -69 -45q0 -19 13.5 -33.5t45.5 -29.5l85 -40q51 -24 73.5 -54.5
t22.5 -74.5q0 -65 -46 -100.5t-129 -35.5q-50 0 -100 13.5zM57 705v2h78l44 -59l15.5 -22t15 -23t6.5 -17h3q3 11 9.5 22t14.5 22l13 18l43 59h79v-2l-117 -152h-87z" />
    <glyph glyph-name="scedilla" unicode="&#x15f;" horiz-adv-x="414" 
d="M111 -1.5q-50 13.5 -90 38.5l39 75q76 -47 153 -47q83 0 83 53q0 18 -13 32.5t-43 27.5l-84 41q-51 24 -75.5 56.5t-24.5 75.5q0 59 42.5 92.5t118.5 33.5q78 0 158 -36l-35 -74q-69 31 -125 31q-69 0 -69 -45q0 -19 13.5 -33.5t45.5 -29.5l85 -40q51 -24 73.5 -54.5
t22.5 -74.5q0 -65 -46 -100.5t-129 -35.5q-50 0 -100 13.5zM224 -36q39 -11 63 -27.5t24 -45.5q0 -36 -35 -61t-98 -54l-14 29q43 25 60 37.5t17 27.5t-18.5 25t-54.5 18l41 111h37z" />
    <glyph glyph-name="scircumflex" unicode="&#x15d;" horiz-adv-x="414" 
d="M111 -1.5q-50 13.5 -90 38.5l39 75q76 -47 153 -47q83 0 83 53q0 18 -13 32.5t-43 27.5l-84 41q-51 24 -75.5 56.5t-24.5 75.5q0 59 42.5 92.5t118.5 33.5q78 0 158 -36l-35 -74q-69 31 -125 31q-69 0 -69 -45q0 -19 13.5 -33.5t45.5 -29.5l85 -40q51 -24 73.5 -54.5
t22.5 -74.5q0 -65 -46 -100.5t-129 -35.5q-50 0 -100 13.5zM372 555v-2h-74l-42 59q-20 29 -26.5 41t-11.5 26h-2q-4 -14 -10.5 -26t-26.5 -41l-42 -59h-74v2l111 152h87z" />
    <glyph glyph-name="scommaaccent" unicode="&#x219;" horiz-adv-x="414" 
d="M111 -1.5q-50 13.5 -90 38.5l39 75q76 -47 153 -47q83 0 83 53q0 18 -13 32.5t-43 27.5l-84 41q-51 24 -75.5 56.5t-24.5 75.5q0 59 42.5 92.5t118.5 33.5q78 0 158 -36l-35 -74q-69 31 -125 31q-69 0 -69 -45q0 -19 13.5 -33.5t45.5 -29.5l85 -40q51 -24 73.5 -54.5
t22.5 -74.5q0 -65 -46 -100.5t-129 -35.5q-50 0 -100 13.5zM187 -215h-47l34 164h88z" />
    <glyph glyph-name="tbar" unicode="&#x167;" horiz-adv-x="311" 
d="M111 227q0 19 2 25l-2 2q-5 -4 -21 -4h-59v54h59q15 0 21 -3l2 2q-2 5 -2 27v25q0 16 4 32l-2 2q-6 -4 -14 -5.5t-25 -1.5h-48v80h48q28 0 39 -7l2 2q-4 15 -4 47v145l79 60h5v-205q0 -32 -4 -47l3 -2q11 7 38 7h53v-80h-53q-17 0 -24.5 1.5t-13.5 5.5l-3 -2q4 -17 4 -32
v-25q0 -22 -2 -27l2 -2q8 3 22 3h63v-54h-63q-17 0 -22 4l-2 -2q2 -6 2 -25v-227h-84v227z" />
    <glyph glyph-name="tcaron" unicode="&#x165;" horiz-adv-x="396" 
d="M389 730l-71 -198h-47l29 198h89zM195 504q0 -32 -4 -47l3 -2q11 7 38 7h53v-80h-53q-17 0 -24.5 1.5t-13.5 5.5l-3 -2q4 -15 4 -48v-339h-84v339q0 33 4 48l-2 2q-6 -4 -14 -5.5t-25 -1.5h-48v80h48q28 0 39 -7l2 2q-4 15 -4 47v145l79 60h5v-205z" />
    <glyph glyph-name="uni0163" unicode="&#x163;" horiz-adv-x="311" 
d="M195 504q0 -32 -4 -47l3 -2q11 7 38 7h53v-80h-53q-17 0 -24.5 1.5t-13.5 5.5l-3 -2q4 -15 4 -48v-339h-84v339q0 33 4 48l-2 2q-6 -4 -14 -5.5t-25 -1.5h-48v80h48q28 0 39 -7l2 2q-4 15 -4 47v145l79 60h5v-205zM159 -36q39 -11 63 -27.5t24 -45.5q0 -36 -35 -61
t-98 -54l-14 29q43 25 60 37.5t17 27.5t-18.5 25t-54.5 18l41 111h37z" />
    <glyph glyph-name="uni021B" unicode="&#x21b;" horiz-adv-x="311" 
d="M195 504q0 -32 -4 -47l3 -2q11 7 38 7h53v-80h-53q-17 0 -24.5 1.5t-13.5 5.5l-3 -2q4 -15 4 -48v-339h-84v339q0 33 4 48l-2 2q-6 -4 -14 -5.5t-25 -1.5h-48v80h48q28 0 39 -7l2 2q-4 15 -4 47v145l79 60h5v-205zM122 -215h-47l34 164h88z" />
    <glyph glyph-name="thorn" unicode="&#xfe;" horiz-adv-x="587" 
d="M68 700h85v-239q0 -57 -9 -91l4 -2q25 49 71.5 79t110.5 30q62 0 113 -30t80.5 -86t29.5 -131q0 -74 -30 -129.5t-81 -85.5t-114 -30q-56 0 -102.5 25.5t-76.5 78.5l-3 -2q7 -42 7 -111v-176h-85v900zM424 108.5q41 43.5 41 121.5t-41.5 122.5t-110.5 44.5
q-73 0 -118 -47.5t-45 -119.5q0 -46 20 -83.5t57.5 -59.5t86.5 -22q69 0 110 43.5z" />
    <glyph glyph-name="uacute" unicode="&#xfa;" horiz-adv-x="524" 
d="M462 0h-83q0 69 10 109l-4 1q-23 -63 -63 -94t-102 -31q-77 0 -120 50.5t-43 141.5v285h87v-271q0 -61 28 -93t80 -32q60 0 93 46.5t33 131.5v218h84v-462zM423 704l-132 -151h-59l-1 3l93 151h98z" />
    <glyph glyph-name="ubreve" unicode="&#x16d;" horiz-adv-x="524" 
d="M462 0h-83q0 69 10 109l-4 1q-23 -63 -63 -94t-102 -31q-77 0 -120 50.5t-43 141.5v285h87v-271q0 -61 28 -93t80 -32q60 0 93 46.5t33 131.5v218h84v-462zM360 598.5q-38 -38.5 -99 -38.5q-62 0 -100 38.5t-38 106.5h61q1 -43 21.5 -64.5t55.5 -21.5t55.5 21.5
t21.5 64.5h60q0 -68 -38 -106.5z" />
    <glyph glyph-name="ucircumflex" unicode="&#xfb;" horiz-adv-x="524" 
d="M462 0h-83q0 69 10 109l-4 1q-23 -63 -63 -94t-102 -31q-77 0 -120 50.5t-43 141.5v285h87v-271q0 -61 28 -93t80 -32q60 0 93 46.5t33 131.5v218h84v-462zM416 555v-2h-74l-42 59q-20 29 -26.5 41t-11.5 26h-2q-4 -14 -10.5 -26t-26.5 -41l-42 -59h-74v2l111 152h87z
" />
    <glyph glyph-name="udieresis" unicode="&#xfc;" horiz-adv-x="524" 
d="M462 0h-83q0 69 10 109l-4 1q-23 -63 -63 -94t-102 -31q-77 0 -120 50.5t-43 141.5v285h87v-271q0 -61 28 -93t80 -32q60 0 93 46.5t33 131.5v218h84v-462zM206 682.5q17 -17.5 17 -43.5t-17 -43.5t-44 -17.5t-44 17.5t-17 43.5t17 43.5t44 17.5t44 -17.5zM402 682.5
q17 -17.5 17 -43.5t-17 -43.5t-44 -17.5t-44 17.5t-17 43.5t17 43.5t44 17.5t44 -17.5z" />
    <glyph glyph-name="ugrave" unicode="&#xf9;" horiz-adv-x="524" 
d="M462 0h-83q0 69 10 109l-4 1q-23 -63 -63 -94t-102 -31q-77 0 -120 50.5t-43 141.5v285h87v-271q0 -61 28 -93t80 -32q60 0 93 46.5t33 131.5v218h84v-462zM98 704l1 3h96l95 -151l-1 -3h-59z" />
    <glyph glyph-name="uhungarumlaut" unicode="&#x171;" horiz-adv-x="524" 
d="M462 0h-83q0 69 10 109l-4 1q-23 -63 -63 -94t-102 -31q-77 0 -120 50.5t-43 141.5v285h87v-271q0 -61 28 -93t80 -32q60 0 93 46.5t33 131.5v218h84v-462zM154 555l113 152h71l1 -2l-119 -152h-65zM291 555l112 152h71l1 -2l-119 -152h-64z" />
    <glyph glyph-name="umacron" unicode="&#x16b;" horiz-adv-x="524" 
d="M462 0h-83q0 69 10 109l-4 1q-23 -63 -63 -94t-102 -31q-77 0 -120 50.5t-43 141.5v285h87v-271q0 -61 28 -93t80 -32q60 0 93 46.5t33 131.5v218h84v-462zM404 606h-286v62h286v-62z" />
    <glyph glyph-name="uogonek" unicode="&#x173;" horiz-adv-x="524" 
d="M462 0h-83q0 69 10 109l-4 1q-23 -63 -63 -94t-102 -31q-77 0 -120 50.5t-43 141.5v285h87v-271q0 -61 28 -93t80 -32q60 0 93 46.5t33 131.5v218h84v-462zM428 9q-48 -37 -70.5 -63.5t-22.5 -47.5q0 -15 10.5 -23t29.5 -8q22 0 43 6l13 -49q-35 -13 -68 -13
q-38 0 -63 19t-25 52q0 36 29 69.5t90 75.5z" />
    <glyph glyph-name="uring" unicode="&#x16f;" horiz-adv-x="524" 
d="M462 0h-83q0 69 10 109l-4 1q-23 -63 -63 -94t-102 -31q-77 0 -120 50.5t-43 141.5v285h87v-271q0 -61 28 -93t80 -32q60 0 93 46.5t33 131.5v218h84v-462zM346.5 714q33.5 -33 33.5 -84t-33.5 -84t-85.5 -33t-85.5 33t-33.5 84t33.5 84t85.5 33t85.5 -33zM207.5 683.5
q-20.5 -20.5 -20.5 -53.5t20.5 -53.5t53.5 -20.5t53.5 20.5t20.5 53.5t-20.5 53.5t-53.5 20.5t-53.5 -20.5z" />
    <glyph glyph-name="utilde" unicode="&#x169;" horiz-adv-x="524" 
d="M462 0h-83q0 69 10 109l-4 1q-23 -63 -63 -94t-102 -31q-77 0 -120 50.5t-43 141.5v285h87v-271q0 -61 28 -93t80 -32q60 0 93 46.5t33 131.5v218h84v-462zM232.5 689q19.5 -7 51.5 -21q42 -22 63 -22q34 0 53 50l39 -14q-10 -44 -34 -72t-64 -28q-21 0 -42.5 7.5
t-50.5 21.5q-22 10 -36.5 15.5t-26.5 5.5q-34 0 -53 -49l-39 13q10 44 34 72t65 28q21 0 40.5 -7z" />
    <glyph glyph-name="wacute" unicode="&#x1e83;" horiz-adv-x="706" 
d="M10 462h96l84 -231q11 -31 15 -47t5 -37h4q3 20 8 35t20 50l101 238h21l100 -238q15 -35 20 -50t8 -35h4q1 20 5 35.5t16 48.5l84 231h95l-188 -468h-22l-110 253q-11 27 -15.5 41t-5.5 31h-4q-2 -18 -6 -32.5t-15 -39.5l-110 -253h-21zM515 704l-132 -151h-59l-1 3
l93 151h98z" />
    <glyph glyph-name="wcircumflex" unicode="&#x175;" horiz-adv-x="706" 
d="M10 462h96l84 -231q11 -31 15 -47t5 -37h4q3 20 8 35t20 50l101 238h21l100 -238q15 -35 20 -50t8 -35h4q1 20 5 35.5t16 48.5l84 231h95l-188 -468h-22l-110 253q-11 27 -15.5 41t-5.5 31h-4q-2 -18 -6 -32.5t-15 -39.5l-110 -253h-21zM508 555v-2h-74l-42 59
q-20 29 -26.5 41t-11.5 26h-2q-4 -14 -10.5 -26t-26.5 -41l-42 -59h-74v2l111 152h87z" />
    <glyph glyph-name="wdieresis" unicode="&#x1e85;" horiz-adv-x="706" 
d="M10 462h96l84 -231q11 -31 15 -47t5 -37h4q3 20 8 35t20 50l101 238h21l100 -238q15 -35 20 -50t8 -35h4q1 20 5 35.5t16 48.5l84 231h95l-188 -468h-22l-110 253q-11 27 -15.5 41t-5.5 31h-4q-2 -18 -6 -32.5t-15 -39.5l-110 -253h-21zM298 682.5q17 -17.5 17 -43.5
t-17 -43.5t-44 -17.5t-44 17.5t-17 43.5t17 43.5t44 17.5t44 -17.5zM494 682.5q17 -17.5 17 -43.5t-17 -43.5t-44 -17.5t-44 17.5t-17 43.5t17 43.5t44 17.5t44 -17.5z" />
    <glyph glyph-name="wgrave" unicode="&#x1e81;" horiz-adv-x="706" 
d="M10 462h96l84 -231q11 -31 15 -47t5 -37h4q3 20 8 35t20 50l101 238h21l100 -238q15 -35 20 -50t8 -35h4q1 20 5 35.5t16 48.5l84 231h95l-188 -468h-22l-110 253q-11 27 -15.5 41t-5.5 31h-4q-2 -18 -6 -32.5t-15 -39.5l-110 -253h-21zM190 704l1 3h96l95 -151l-1 -3
h-59z" />
    <glyph glyph-name="yacute" unicode="&#xfd;" horiz-adv-x="487" 
d="M194 -201h-88l100 232l-196 431h97l113 -266q12 -29 18 -48.5t7 -44.5h4q1 21 5.5 38.5t14.5 42.5l116 278h92zM408 704l-132 -151h-59l-1 3l93 151h98z" />
    <glyph glyph-name="ycircumflex" unicode="&#x177;" horiz-adv-x="487" 
d="M194 -201h-88l100 232l-196 431h97l113 -266q12 -29 18 -48.5t7 -44.5h4q1 21 5.5 38.5t14.5 42.5l116 278h92zM401 555v-2h-74l-42 59q-20 29 -26.5 41t-11.5 26h-2q-4 -14 -10.5 -26t-26.5 -41l-42 -59h-74v2l111 152h87z" />
    <glyph glyph-name="ydieresis" unicode="&#xff;" horiz-adv-x="487" 
d="M194 -201h-88l100 232l-196 431h97l113 -266q12 -29 18 -48.5t7 -44.5h4q1 21 5.5 38.5t14.5 42.5l116 278h92zM191 682.5q17 -17.5 17 -43.5t-17 -43.5t-44 -17.5t-44 17.5t-17 43.5t17 43.5t44 17.5t44 -17.5zM387 682.5q17 -17.5 17 -43.5t-17 -43.5t-44 -17.5
t-44 17.5t-17 43.5t17 43.5t44 17.5t44 -17.5z" />
    <glyph glyph-name="ygrave" unicode="&#x1ef3;" horiz-adv-x="487" 
d="M194 -201h-88l100 232l-196 431h97l113 -266q12 -29 18 -48.5t7 -44.5h4q1 21 5.5 38.5t14.5 42.5l116 278h92zM83 704l1 3h96l95 -151l-1 -3h-59z" />
    <glyph glyph-name="zacute" unicode="&#x17a;" horiz-adv-x="453" 
d="M7 5l297 390l-2 2q-20 -10 -38 -13t-57 -3h-173l51 81h358l2 -4l-293 -390l2 -3q17 10 37 13t65 3h188l-51 -81h-383zM417 704l-132 -151h-59l-1 3l93 151h98z" />
    <glyph glyph-name="zcaron" unicode="&#x17e;" horiz-adv-x="453" 
d="M7 5l297 390l-2 2q-20 -10 -38 -13t-57 -3h-173l51 81h358l2 -4l-293 -390l2 -3q17 10 37 13t65 3h188l-51 -81h-383zM95 705v2h78l44 -59l15.5 -22t15 -23t6.5 -17h3q3 11 9.5 22t14.5 22l13 18l43 59h79v-2l-117 -152h-87z" />
    <glyph glyph-name="zdotaccent" unicode="&#x17c;" horiz-adv-x="453" 
d="M7 5l297 390l-2 2q-20 -10 -38 -13t-57 -3h-173l51 81h358l2 -4l-293 -390l2 -3q17 10 37 13t65 3h188l-51 -81h-383zM302.5 685q19.5 -19 19.5 -48q0 -28 -19.5 -47.5t-47.5 -19.5q-29 0 -48 19.5t-19 47.5q0 29 19 48t48 19q28 0 47.5 -19z" />
    <glyph glyph-name="germandbls" unicode="&#xdf;" horiz-adv-x="555" 
d="M467.5 345q54.5 -47 54.5 -138q0 -104 -68 -158t-192 -54h-52v82h44q90 0 135 30.5t45 100.5q0 77 -53.5 109.5t-159.5 32.5v77q72 0 111 27.5t39 81.5q0 48 -28 72.5t-75 24.5q-52 0 -83.5 -30t-31.5 -92v-641h-85v636q0 93 52 151t148 58q92 0 141.5 -46.5t49.5 -120.5
q0 -59 -35.5 -100.5t-105.5 -50.5v-3q95 -2 149.5 -49z" />
    <glyph glyph-name="eth" unicode="&#xf0;" horiz-adv-x="580" 
d="M496 510q37 -82 37 -202q0 -157 -68 -240t-186 -83q-74 0 -130 31.5t-87 88t-31 129.5q0 70 30 125t83.5 86t121.5 31q79 0 130.5 -41.5t66.5 -115.5h5q-6 62 -19 106q-33 111 -128 165l-96 -80l-32 35l81 67q-63 23 -142 29l11 73q117 -12 195 -49l87 72l31 -35l-73 -61
q76 -49 113 -131zM396.5 110.5q43.5 44.5 43.5 119.5q0 76 -44.5 121t-118.5 45q-72 0 -115.5 -44.5t-43.5 -118.5q0 -75 45 -121t118 -46q72 0 115.5 44.5z" />
    <glyph glyph-name="grave" unicode="`" horiz-adv-x="292" 
d="M50 704l1 3h96l95 -151l-1 -3h-59z" />
    <glyph glyph-name="acute" unicode="&#xb4;" horiz-adv-x="292" 
d="M242 704l-132 -151h-59l-1 3l93 151h98z" />
    <glyph glyph-name="circumflex" unicode="&#x2c6;" horiz-adv-x="409" 
d="M359 555v-2h-74l-42 59q-20 29 -26.5 41t-11.5 26h-2q-4 -14 -10.5 -26t-26.5 -41l-42 -59h-74v2l111 152h87z" />
    <glyph glyph-name="tilde" unicode="&#x2dc;" horiz-adv-x="446" 
d="M189.5 689q19.5 -7 51.5 -21q42 -22 63 -22q34 0 53 50l39 -14q-10 -44 -34 -72t-64 -28q-21 0 -42.5 7.5t-50.5 21.5q-22 10 -36.5 15.5t-26.5 5.5q-34 0 -53 -49l-39 13q10 44 34 72t65 28q21 0 40.5 -7z" />
    <glyph glyph-name="caron" unicode="&#x2c7;" horiz-adv-x="421" 
d="M50 705v2h78l44 -59l15.5 -22t15 -23t6.5 -17h3q3 11 9.5 22t14.5 22l13 18l43 59h79v-2l-117 -152h-87z" />
    <glyph glyph-name="dieresis" unicode="&#xa8;" horiz-adv-x="353" 
d="M155 682.5q17 -17.5 17 -43.5t-17 -43.5t-44 -17.5t-44 17.5t-17 43.5t17 43.5t44 17.5t44 -17.5zM351 682.5q17 -17.5 17 -43.5t-17 -43.5t-44 -17.5t-44 17.5t-17 43.5t17 43.5t44 17.5t44 -17.5z" />
    <glyph glyph-name="macron" unicode="&#xaf;" horiz-adv-x="386" 
d="M336 606h-286v62h286v-62z" />
    <glyph glyph-name="breve" unicode="&#x2d8;" horiz-adv-x="375" 
d="M287 598.5q-38 -38.5 -99 -38.5q-62 0 -100 38.5t-38 106.5h61q1 -43 21.5 -64.5t55.5 -21.5t55.5 21.5t21.5 64.5h60q0 -68 -38 -106.5z" />
    <glyph glyph-name="ring" unicode="&#x2da;" horiz-adv-x="338" 
d="M254.5 714q33.5 -33 33.5 -84t-33.5 -84t-85.5 -33t-85.5 33t-33.5 84t33.5 84t85.5 33t85.5 -33zM115.5 683.5q-20.5 -20.5 -20.5 -53.5t20.5 -53.5t53.5 -20.5t53.5 20.5t20.5 53.5t-20.5 53.5t-53.5 20.5t-53.5 -20.5z" />
    <glyph glyph-name="hungarumlaut" unicode="&#x2dd;" horiz-adv-x="421" 
d="M50 555l113 152h71l1 -2l-119 -152h-65zM187 555l112 152h71l1 -2l-119 -152h-64z" />
    <glyph glyph-name="dotaccent" unicode="&#x2d9;" horiz-adv-x="196" 
d="M164.5 685q19.5 -19 19.5 -48q0 -28 -19.5 -47.5t-47.5 -19.5q-29 0 -48 19.5t-19 47.5q0 29 19 48t48 19q28 0 47.5 -19z" />
    <glyph glyph-name="cedilla" unicode="&#xb8;" horiz-adv-x="247" 
d="M110 -36q39 -11 63 -27.5t24 -45.5q0 -36 -35 -61t-98 -54l-14 29q43 25 60 37.5t17 27.5t-18.5 25t-54.5 18l41 111h37z" />
    <glyph glyph-name="ogonek" unicode="&#x2db;" horiz-adv-x="257" 
d="M203 10q-48 -37 -70.5 -63.5t-22.5 -47.5q0 -15 10.5 -23t29.5 -8q22 0 43 6l13 -49q-35 -13 -68 -13q-38 0 -63 19t-25 52q0 36 29 69.5t90 75.5z" />
    <glyph glyph-name="comma" unicode="," horiz-adv-x="234" 
d="M78 100h101l-90 -267h-48z" />
    <glyph glyph-name="semicolon" unicode=";" horiz-adv-x="237" 
d="M78 100h101l-90 -267h-48zM177 457q20 -20 20 -49t-20 -49.5t-49 -20.5q-30 0 -50 20.5t-20 49.5t20 49t50 20q29 0 49 -20z" />
    <glyph glyph-name="colon" unicode=":" horiz-adv-x="219" 
d="M160 107q20 -20 20 -49t-20 -49.5t-49 -20.5q-30 0 -50 20.5t-20 49.5t20 49t50 20q29 0 49 -20zM160 457q20 -20 20 -49t-20 -49.5t-49 -20.5q-30 0 -50 20.5t-20 49.5t20 49t50 20q29 0 49 -20z" />
    <glyph glyph-name="period" unicode="." horiz-adv-x="219" 
d="M159 107q20 -20 20 -49t-20 -49.5t-49 -20.5q-30 0 -50 20.5t-20 49.5t20 49t50 20q29 0 49 -20z" />
    <glyph glyph-name="ellipsis" unicode="&#x2026;" horiz-adv-x="694" 
d="M159 107q20 -20 20 -49t-20 -49.5t-49 -20.5q-30 0 -50 20.5t-20 49.5t20 49t50 20q29 0 49 -20zM633 107q20 -20 20 -49t-20 -49.5t-49 -20.5q-30 0 -50 20.5t-20 49.5t20 49t50 20q29 0 49 -20zM396 107q20 -20 20 -49t-20 -49.5t-49 -20.5q-30 0 -50 20.5t-20 49.5
t20 49t50 20q29 0 49 -20z" />
    <glyph glyph-name="hyphen" unicode="-" horiz-adv-x="384" 
d="M337 228h-290v82h290v-82z" />
    <glyph glyph-name="exclam" unicode="!" horiz-adv-x="302" 
d="M180 209h-59l-22 491h104zM200 107q20 -20 20 -49t-20 -49.5t-49 -20.5q-30 0 -50 20.5t-20 49.5t20 49t50 20q29 0 49 -20z" />
    <glyph glyph-name="exclamdown" unicode="&#xa1;" horiz-adv-x="302" 
d="M122 290h59l22 -491h-104zM102 392q-20 20 -20 49t20 49.5t49 20.5q30 0 50 -20.5t20 -49.5t-20 -49t-50 -20q-29 0 -49 20z" />
    <glyph glyph-name="question" unicode="?" horiz-adv-x="372" 
d="M299 679q41 -36 41 -94q0 -71 -57 -124l-53 -50q-19 -19 -28 -34t-9 -32q0 -24 16.5 -41.5t53.5 -40.5l-47 -69q-49 28 -80.5 63t-31.5 88q0 34 15 61t43 52l51 48q20 18 30 34t10 35q0 27 -20 43t-53 16q-57 0 -131 -49l-37 72q88 58 173 58q73 0 114 -36zM245 107
q20 -20 20 -49t-20 -49.5t-49 -20.5q-30 0 -50 20.5t-20 49.5t20 49t50 20q29 0 49 -20z" />
    <glyph glyph-name="questiondown" unicode="&#xbf;" horiz-adv-x="342" 
d="M53 -180q-41 36 -41 94q0 71 57 124l53 50q19 19 28 34t9 32q0 24 -16.5 41.5t-53.5 40.5l47 69q49 -28 80.5 -63t31.5 -88q0 -34 -15 -61t-43 -52l-51 -48q-20 -18 -30 -34t-10 -35q0 -27 20 -43t53 -16q57 0 131 49l37 -72q-88 -58 -173 -58q-73 0 -114 36zM107 392
q-20 20 -20 49t20 49.5t49 20.5q30 0 50 -20.5t20 -49.5t-20 -49t-50 -20q-29 0 -49 20z" />
    <glyph glyph-name="quoteleft" unicode="&#x2018;" horiz-adv-x="183" 
d="M28 482l71 238h47l-29 -238h-89z" />
    <glyph glyph-name="quoteright" unicode="&#x2019;" horiz-adv-x="183" 
d="M155 730l-71 -238h-47l29 238h89z" />
    <glyph glyph-name="quotedblleft" unicode="&#x201c;" horiz-adv-x="313" 
d="M28 482l71 238h47l-29 -238h-89zM158 482l71 238h47l-29 -238h-89z" />
    <glyph glyph-name="quotedblright" unicode="&#x201d;" horiz-adv-x="313" 
d="M285 730l-71 -238h-47l29 238h89zM155 730l-71 -238h-47l29 238h89z" />
    <glyph glyph-name="quotesinglbase" unicode="&#x201a;" horiz-adv-x="183" 
d="M155 122l-71 -238h-47l29 238h89z" />
    <glyph glyph-name="quotedblbase" unicode="&#x201e;" horiz-adv-x="313" 
d="M155 122l-71 -238h-47l29 238h89zM285 122l-71 -238h-47l29 238h89z" />
    <glyph glyph-name="guilsinglleft" unicode="&#x2039;" horiz-adv-x="270" 
d="M258 415l-85 -114q-30 -41 -41.5 -55t-20.5 -20v-2q9 -6 20.5 -20t41.5 -55l85 -114v-4h-91l-145 194l145 194h91v-4z" />
    <glyph glyph-name="guilsinglright" unicode="&#x203a;" horiz-adv-x="270" 
d="M103 419l145 -194l-145 -194h-91v4l85 114q30 41 41.5 55t20.5 20v2q-9 6 -20.5 20t-41.5 55l-85 114v4h91z" />
    <glyph glyph-name="periodcentered" unicode="&#xb7;" horiz-adv-x="239" 
d="M169 457q20 -20 20 -49t-20 -49.5t-49 -20.5q-30 0 -50 20.5t-20 49.5t20 49t50 20q29 0 49 -20z" />
    <glyph glyph-name="slash" unicode="/" horiz-adv-x="570" 
d="M30 -60l452 817l58 -32l-453 -816z" />
    <glyph glyph-name="bar" unicode="|" horiz-adv-x="297" 
d="M112 727h72v-942h-72v942z" />
    <glyph glyph-name="endash" unicode="&#x2013;" horiz-adv-x="756" 
d="M704 229h-652v79h652v-79z" />
    <glyph glyph-name="emdash" unicode="&#x2014;" horiz-adv-x="1158" 
d="M1105 232h-1053v75h1053v-75z" />
    <glyph glyph-name="bullet" unicode="&#x2022;" horiz-adv-x="348" 
d="M249.5 445.5q30.5 -30.5 30.5 -75.5q0 -46 -30.5 -76t-75.5 -30q-46 0 -76.5 30t-30.5 76q0 45 30.5 75.5t76.5 30.5q45 0 75.5 -30.5z" />
    <glyph glyph-name="parenleft" unicode="(" horiz-adv-x="310" 
d="M94.5 11.5q-47.5 130.5 -47.5 261.5q0 128 45.5 252.5t133.5 234.5l62 -46q-82 -104 -121 -212.5t-39 -228.5q0 -119 40.5 -231.5t118.5 -207.5l-62 -49q-83 96 -130.5 226.5z" />
    <glyph glyph-name="parenright" unicode=")" horiz-adv-x="310" 
d="M43 -166q78 95 118.5 207.5t40.5 231.5q0 120 -39 228.5t-121 212.5l62 46q88 -110 133.5 -234.5t45.5 -252.5q0 -131 -47.5 -261.5t-130.5 -226.5z" />
    <glyph glyph-name="bracketleft" unicode="[" horiz-adv-x="342" 
d="M330 679h-115q-25 0 -37 4l-1 -1q6 -12 6 -34v-768q0 -22 -6 -34l1 -1q6 3 15 3.5t22 0.5h115v-69h-228v968h228v-69z" />
    <glyph glyph-name="bracketright" unicode="]" horiz-adv-x="342" 
d="M240 748v-968h-228v69h115q13 0 22 -0.5t15 -3.5l1 1q-6 12 -6 34v768q0 22 6 34l-1 1q-12 -4 -37 -4h-115v69h228z" />
    <glyph glyph-name="braceleft" unicode="{" horiz-adv-x="385" 
d="M210.5 229q33.5 -37 33.5 -109v-162q0 -57 25 -80.5t84 -23.5h20v-74h-33q-176 0 -176 174v174q0 51 -29.5 75t-97.5 27v90q68 3 97.5 27t29.5 75v152q0 88 43.5 131t132.5 43h33v-74h-20q-59 0 -84 -24t-25 -81v-139q0 -72 -33.5 -109t-105.5 -44v-4q72 -7 105.5 -44z
" />
    <glyph glyph-name="braceright" unicode="}" horiz-adv-x="385" 
d="M280 277q-72 7 -105.5 44t-33.5 109v139q0 57 -25 81t-84 24h-20v74h33q89 0 132.5 -43t43.5 -131v-152q0 -51 29.5 -75t97.5 -27v-90q-68 -3 -97.5 -27t-29.5 -75v-174q0 -174 -176 -174h-33v74h20q59 0 84 23.5t25 80.5v162q0 72 33.5 109t105.5 44v4z" />
    <glyph glyph-name="uni00AD" unicode="&#xad;" horiz-adv-x="384" 
d="M337 228h-290v82h290v-82z" />
    <glyph glyph-name="guillemotleft" unicode="&#xab;" horiz-adv-x="432" 
d="M258 415l-85 -114q-30 -41 -41.5 -55t-20.5 -20v-2q9 -6 20.5 -20t41.5 -55l85 -114v-4h-91l-145 194l145 194h91v-4zM419 415l-85 -114q-30 -41 -41.5 -55t-20.5 -20v-2q9 -6 20.5 -20t41.5 -55l85 -114v-4h-91l-145 194l145 194h91v-4z" />
    <glyph glyph-name="guillemotright" unicode="&#xbb;" horiz-adv-x="431" 
d="M173 415l85 -114q30 -41 41.5 -55t20.5 -20v-2q-9 -6 -20.5 -20t-41.5 -55l-85 -114v-4h91l145 194l-145 194h-91v-4zM12 415l85 -114q30 -41 41.5 -55t20.5 -20v-2q-9 -6 -20.5 -20t-41.5 -55l-85 -114v-4h91l145 194l-145 194h-91v-4z" />
    <glyph glyph-name="zero" unicode="0" horiz-adv-x="581" 
d="M470 598q64 -92 64 -260t-64.5 -260.5t-178.5 -92.5q-115 0 -179.5 92.5t-64.5 260.5q0 169 64.5 260.5t179.5 91.5t179 -92zM176.5 539.5q-41.5 -72.5 -41.5 -201.5t41.5 -202t114.5 -73q72 0 114 73t42 202t-42 201.5t-114 72.5q-73 0 -114.5 -72.5z" />
    <glyph glyph-name="one" unicode="1" horiz-adv-x="339" 
d="M243 0h-85v438q0 35 1.5 50t6.5 37l-3 2q-10 -16 -37 -31l-88 -48v86l126 86l16 55h63v-675z" />
    <glyph glyph-name="two" unicode="2" horiz-adv-x="492" 
d="M394.5 643q51.5 -47 51.5 -128q0 -49 -21 -97t-65 -104l-133 -165q-42 -52 -71 -73l2 -2q27 9 81 9h221l1 -2l-46 -81h-407l-2 4l284 355q35 44 51.5 79t16.5 70q0 49 -29.5 76t-77.5 27q-38 0 -77.5 -17.5t-85.5 -52.5l-44 68q54 41 105.5 61t105.5 20q88 0 139.5 -47z
" />
    <glyph glyph-name="three" unicode="3" horiz-adv-x="484" 
d="M361.5 648q48.5 -42 48.5 -114q0 -53 -27.5 -91t-75.5 -53q-22 -6 -52 -9v-4q26 0 51 -5q68 -17 105 -61.5t37 -115.5q0 -97 -64 -153.5t-179 -56.5q-104 0 -191 49l29 79q43 -25 82.5 -37t80.5 -12q73 0 113 35t40 99q0 70 -50.5 101.5t-161.5 31.5v77q82 0 129 29
t47 82q0 44 -29 69t-80 25q-68 0 -152 -51l-35 71q42 26 94.5 41.5t104.5 15.5q87 0 135.5 -42z" />
    <glyph glyph-name="four" unicode="4" horiz-adv-x="553" 
d="M429 236q0 -18 -2 -24l2 -2q6 3 18 3h92l-27 -80h-64q-11 0 -19 2l-2 -1q2 -5 2 -23v-111h-82v111q0 18 1 23l-1 1q-10 -2 -20 -2h-311v71l336 471h77v-439zM331.5 525q-8.5 -17 -27.5 -44l-162 -225q-24 -35 -39 -48l2 -2q21 7 55 7h165q13 0 21 -3l2 2q-2 6 -2 25v258
q0 34 5 66l-3 1q-8 -20 -16.5 -37z" />
    <glyph glyph-name="five" unicode="5" horiz-adv-x="484" 
d="M439 590h-181q-20 0 -26 1l-1 -1q0 -13 -8 -45l-22 -73q-7 -23 -20 -40l1 -2q26 6 47 6q106 0 167.5 -58t61.5 -156q0 -72 -32 -125.5t-91.5 -82.5t-140.5 -29q-105 0 -188 49l30 78q88 -49 164 -49q81 0 125.5 42t44.5 113q0 69 -45 105t-127 36q-61 0 -111 -15l-3 3
l97 328h290z" />
    <glyph glyph-name="six" unicode="6" horiz-adv-x="526" 
d="M231 491q-34 -40 -54 -70.5t-35 -64.5l4 -1q28 45 64.5 65t82.5 20q61 0 108.5 -29t74 -80t26.5 -115q0 -67 -30 -119.5t-84 -82t-123 -29.5q-68 0 -122 30t-84.5 84.5t-30.5 127.5q0 71 29.5 139.5t93.5 148.5l133 165h108zM156.5 318q-40.5 -41 -40.5 -111
q0 -65 41 -105t109 -40t108 41.5t40 111.5q0 67 -40 105.5t-109 38.5q-68 0 -108.5 -41z" />
    <glyph glyph-name="seven" unicode="7" horiz-adv-x="434" 
d="M432 673l-288 -673h-93l226 509l19 45q13 33 20 41l-2 2q-9 -4 -26.5 -5t-52.5 -1h-227l35 84h388z" />
    <glyph glyph-name="eight" unicode="8" horiz-adv-x="534" 
d="M99 37q-61 52 -61 144q0 71 38 118.5t105 60.5v4q-56 11 -89.5 53t-33.5 101q0 79 57 125.5t152 46.5t152 -46.5t57 -125.5q0 -59 -33.5 -101t-89.5 -53v-4q67 -13 104.5 -60.5t37.5 -118.5q0 -92 -61 -144t-167 -52q-107 0 -168 52zM355 430.5q33 29.5 33 78.5
q0 48 -33 76t-88 28q-56 0 -88.5 -28t-32.5 -76q0 -49 33 -78.5t88 -29.5t88 29.5zM369 95.5q37 33.5 37 93.5t-37.5 95t-101.5 35q-65 0 -102.5 -35t-37.5 -95t37.5 -93.5t102.5 -33.5t102 33.5z" />
    <glyph glyph-name="nine" unicode="9" horiz-adv-x="510" 
d="M375.5 660q53.5 -30 83.5 -86t30 -131q0 -71 -26 -132t-83 -129l-149 -182h-102l173 210q26 31 45 57t34 49l-4 2q-28 -39 -66 -59.5t-83 -20.5q-60 0 -108 29.5t-75.5 80.5t-27.5 113q0 67 30 119t84 81t123 29q68 0 121.5 -30zM145.5 571.5q-40.5 -40.5 -40.5 -108.5
q0 -67 39.5 -106t106.5 -39q68 0 108.5 39t40.5 106q0 69 -39.5 109t-108.5 40q-66 0 -106.5 -40.5z" />
    <glyph glyph-name="zero.zero" horiz-adv-x="581" 
d="M513 504.5q21 -71.5 21 -166.5q0 -168 -64.5 -260.5t-178.5 -92.5q-79 0 -136 45l-31 -61l-26 11l35 70q-42 45 -64 118t-22 170q0 169 64.5 260.5t179.5 91.5q81 0 140 -48l27 54l26 -11l-32 -64q40 -45 61 -116.5zM176 136l214 426q-38 50 -99 50q-73 0 -114.5 -72.5
t-41.5 -201.5q0 -128 41 -202zM405 136q42 73 42 202q0 124 -39 196l-213 -425q38 -46 96 -46q72 0 114 73z" />
    <glyph glyph-name="asterisk" unicode="*" horiz-adv-x="413" 
d="M78 424l92 107l-138 33l21 65l131 -55l-12 141h69l-12 -141l131 55l21 -65l-138 -33l93 -107l-56 -40l-73 121l-74 -122z" />
    <glyph glyph-name="asciitilde" unicode="~" 
d="M251.5 357.5q25.5 -8.5 60.5 -26.5q30 -15 52 -23t47 -8q33 0 57.5 13t54.5 39l43 -59q-40 -36 -78.5 -52.5t-79.5 -16.5q-33 0 -59 9t-61 26q-32 16 -52.5 23t-45.5 7q-33 0 -58 -13t-55 -38l-43 58q41 36 79.5 53t79.5 17q33 0 58.5 -8.5z" />
    <glyph glyph-name="brokenbar" unicode="&#xa6;" horiz-adv-x="297" 
d="M112 727h72v-393h-72v393zM184 -215h-72v397h72v-397z" />
    <glyph glyph-name="backslash" unicode="\" horiz-adv-x="568" 
d="M538 -58l-57 -31l-451 814l58 32z" />
    <glyph glyph-name="underscore" unicode="_" horiz-adv-x="537" 
d="M525 -83h-513v68h513v-68z" />
    <glyph glyph-name="quotesingle" unicode="'" horiz-adv-x="189" 
d="M52 715h85l-21 -253h-43z" />
    <glyph glyph-name="quotedbl" unicode="&#x22;" horiz-adv-x="292" 
d="M52 715h77l-21 -253h-35zM163 715h76l-20 -253h-36z" />
    <glyph glyph-name="uni02BC" unicode="&#x2bc;" horiz-adv-x="183" 
d="M155 730l-71 -238h-47l29 238h89z" />
    <glyph glyph-name="ampersand" unicode="&#x26;" horiz-adv-x="664" 
d="M474 600l-1 -3h-217q-22 0 -35 7l-2 -2l286 -404h2l-1 6q0 9 10 26q30 49 58 115l77 -31q-16 -41 -37 -83.5t-39 -68.5q-15 -20 -26 -21l-1 -3l98 -136l-1 -2h-106l-49 71h-3q-6 -19 -35 -39t-73.5 -33.5t-93.5 -13.5q-70 0 -124.5 28t-84.5 78.5t-30 116.5
q0 159 152 223q22 7 31 4l2 2l-169 235l1 3h366zM270 377q-3 -11 -21 -18q-112 -45 -112 -147q0 -64 41 -103.5t109 -39.5q38 0 69 12t63 35q18 10 27 9l2 4l-176 248h-2z" />
    <glyph glyph-name="at" unicode="@" horiz-adv-x="942" 
d="M268 -98.5q-100 51.5 -158 145.5t-58 217q0 130 54 226.5t151.5 148t226.5 51.5q118 0 210.5 -48t144 -136t51.5 -202q0 -115 -45 -181.5t-127 -66.5q-45 0 -75 21t-37 62h-3q-20 -42 -59 -65t-93 -23q-72 0 -117.5 42t-45.5 110t45 108.5t120 40.5q101 0 143 -81l2 2
q-4 17 -6 56q-2 45 -29.5 66.5t-79.5 21.5t-133 -21l-17 70q87 21 155 21q178 0 178 -160v-138q0 -33 16 -50.5t44 -17.5q45 0 69.5 47t24.5 130q0 98 -43 172.5t-119 114.5t-174 40q-108 0 -189.5 -43t-127 -124t-45.5 -193q0 -104 48.5 -183.5t132.5 -123t188 -43.5
q99 0 200 42l25 -61q-118 -46 -226 -46q-122 0 -222 51.5zM555 138q30 24 30 63q0 38 -30.5 62.5t-79.5 24.5t-78 -24t-29 -63q0 -38 29 -62.5t78 -24.5q50 0 80 24z" />
    <glyph glyph-name="copyright" unicode="&#xa9;" horiz-adv-x="832" 
d="M230.5 32.5q-83.5 47.5 -131 131t-47.5 186.5t47.5 186.5t131 131t185.5 47.5t185.5 -47.5t131 -131t47.5 -186.5t-47.5 -186.5t-131 -131t-185.5 -47.5t-185.5 47.5zM575 76q71 41 112 112.5t41 161.5t-41 161.5t-112 112.5t-159 41t-159 -41t-111.5 -112.5
t-40.5 -161.5t40.5 -161.5t111.5 -112.5t159 -41t159 41zM301.5 157.5q-52.5 29.5 -82.5 81t-30 116.5t30 116.5t82.5 81t118.5 29.5q83 0 151 -49l-33 -60q-28 17 -56 28t-65 11q-69 0 -111.5 -43.5t-42.5 -113.5q0 -71 42.5 -114.5t111.5 -43.5q37 0 65 11t56 28l33 -60
q-67 -48 -151 -48q-66 0 -118.5 29.5z" />
    <glyph glyph-name="registered" unicode="&#xae;" horiz-adv-x="536" 
d="M386.5 684.5q52.5 -30.5 82.5 -83.5t30 -119t-30 -119t-82.5 -83t-117.5 -30q-66 0 -118.5 30t-82.5 83t-30 119t30 119.5t82.5 83.5t118.5 30q65 0 117.5 -30.5zM173.5 649q-42.5 -25 -67 -68.5t-24.5 -98.5q0 -54 24.5 -97.5t67 -68t95.5 -24.5q52 0 94.5 24.5t67 68
t24.5 97.5q0 55 -24.5 98.5t-67 68.5t-94.5 25q-53 0 -95.5 -25zM342.5 600q21.5 -20 21.5 -54q0 -33 -20.5 -53.5t-53.5 -20.5v-1q11 -4 22 -19l64 -81v-5h-50l-79 105h-18v-105h-42v254h98q36 0 57.5 -20zM229 581v-71h51q19 0 29.5 9t10.5 26q0 18 -10.5 27t-29.5 9h-51z
" />
    <glyph glyph-name="trademark" unicode="&#x2122;" horiz-adv-x="803" 
d="M426 492q-14 35 -20 63h-2q1 -30 -7 -65l-58 -209h-66l118 421h9l101 -239q18 -44 21 -73h2q4 32 20 73l102 239h9l118 -421h-67l-57 209q-8 27 -8 51l1 14h-3q-7 -34 -20 -63l-91 -216h-11zM140 619q0 18 3 25l-2 2q-9 -4 -25 -4h-86v58h282v-58h-85q-17 0 -26 4l-1 -2
q3 -7 3 -25v-338h-63v338z" />
    <glyph glyph-name="paragraph" unicode="&#xb6;" horiz-adv-x="609" 
d="M559 636h-59v-742h-68v742h-120v-742h-68v416q-54 0 -98.5 25t-70 70t-25.5 104q0 57 26.5 100.5t73 67t104.5 23.5h305v-64z" />
    <glyph glyph-name="section" unicode="&#xa7;" horiz-adv-x="542" 
d="M453 -6q0 -68 -49 -110t-141 -42q-58 0 -108.5 17t-99.5 49l47 72q84 -57 167 -57q49 0 74 19t25 51q0 38 -32 60t-99 48q-60 23 -97 43.5t-63.5 56t-26.5 89.5t26 93t69 64q-56 46 -56 115t49 111t141 42q57 0 107.5 -17t100.5 -49l-47 -72q-84 57 -167 57
q-49 0 -74 -19t-25 -51q0 -27 17 -46t43 -31.5t71 -30.5q59 -23 96.5 -43.5t64 -56t26.5 -89.5q0 -100 -95 -158q56 -44 56 -115zM154 244q19 -23 47 -37.5t77 -34.5q42 -17 52 -22q31 17 54 44t23 64q0 32 -19 55t-47 37.5t-77 34.5q-42 17 -52 22q-31 -17 -54 -44t-23 -64
q0 -32 19 -55z" />
    <glyph glyph-name="asciicircum" unicode="^" 
d="M487 393h-71l-116 262l-116 -262h-71l145 322h84z" />
    <glyph glyph-name="dagger" unicode="&#x2020;" horiz-adv-x="509" 
d="M457 408h-165v-501h-75v501h-165v69h165v223h75v-223h165v-69z" />
    <glyph glyph-name="daggerdbl" unicode="&#x2021;" horiz-adv-x="503" 
d="M289 415v-214h164v-69h-164v-225h-75v225h-164v69h164v214h-164v69h164v216h75v-216h164v-69h-164z" />
    <glyph glyph-name="emptyset" unicode="&#x2205;" 
d="M523.5 410.5q15.5 -40.5 15.5 -86.5q0 -65 -31 -118t-86 -83.5t-122 -30.5q-46 0 -86.5 14.5t-72.5 41.5l-57 -57l-19 20l56 56q-29 30 -44.5 70.5t-15.5 86.5q0 65 31 118t86 83.5t122 30.5q46 0 86.5 -14t71.5 -41l57 56l20 -20l-56 -56q29 -30 44.5 -70.5zM180 225
l220 218q-41 33 -100 33q-68 0 -111.5 -43t-43.5 -109q0 -58 35 -99zM411.5 215q43.5 43 43.5 109q0 57 -35 100l-221 -219q42 -33 101 -33q68 0 111.5 43z" />
    <glyph glyph-name="uni2206" unicode="&#x2206;" horiz-adv-x="628" 
d="M608 0h-588l254 700h80zM125 43h377l-188 545z" />
    <glyph glyph-name="uni00B5" unicode="&#xb5;" 
d="M502 462v-462h-83q0 69 10 109l-4 1q-23 -63 -63 -94t-102 -31q-49 0 -85 21v-206h-78v662h87v-271q0 -61 28 -93t80 -32q60 0 93 46.5t33 131.5v218h84z" />
    <glyph glyph-name="uniF8FF" unicode="&#xf8ff;" horiz-adv-x="865" 
d="M60.5 702q10.5 10 26.5 10q15 0 26 -10.5t11 -25.5q0 -10 -4.5 -19.5t-13.5 -14.5v-24q49 20 88.5 31t84.5 11t76 -21.5t31 -61.5v-25q55 12 104 12q57 0 96.5 -19t39.5 -64v-48q48 12 81 12q55 0 81.5 -21.5t26.5 -57.5v-240q-52 32 -107 32q-16 0 -34 -3.5t-33 -7.5
q-32 -9 -53 -9q-51 0 -51 46v86q-23 5 -47 5q-26 0 -76 -10q-46 -8 -64 -8q-54 0 -54 46v68h-14q-62 0 -176 -44v-327h-39v643q-8 5 -12.5 14t-4.5 19q0 16 10.5 26zM334.5 618.5q-22.5 13.5 -54.5 13.5q-43 0 -81.5 -11.5t-92.5 -33.5v-230q110 42 175 42q45 0 76 -14v192
q0 28 -22.5 41.5zM247 485v-68h-30v68l-65 95h38l42 -64l42 64h38zM578.5 517.5q-19.5 18.5 -86.5 18.5q-45 0 -106 -12v-171q0 -12 -8.5 -18t-25.5 -12q-15 -5 -22.5 -10t-7.5 -14q0 -7 6.5 -10.5t20.5 -3.5q16 0 60 8q56 9 81 9q28 0 57.5 -6.5t50.5 -18.5v197
q0 25 -19.5 43.5zM422.5 472q22.5 23 57.5 23t57.5 -23t22.5 -58t-22.5 -58t-57.5 -23t-57.5 23t-22.5 58t22.5 58zM516 451.5q-14 14.5 -36 14.5t-36 -14.5t-14 -37.5t14 -37.5t36 -14.5t36 14.5t14 37.5t-14 37.5zM767 404.5q-21 11.5 -59 11.5q-34 0 -82 -12v-167
q0 -13 -8.5 -19t-25.5 -14q-14 -5 -21 -9.5t-7 -13.5q0 -16 25 -16q17 0 48 9q44 12 70 12q39 0 81 -15v194q0 28 -21 39.5zM699 273h-16l-10 100h36zM347 361.5q-9 4.5 -23 6.5v-32q5 3 13.5 5.5t13.5 4.5t5 6q0 5 -9 9.5zM564 264v-47q6 4 15 7.5t14 7t5 8.5q0 13 -34 24z
M676.5 244.5q5.5 5.5 14.5 5.5t14.5 -5.5t5.5 -13.5q0 -9 -5.5 -14.5t-14.5 -5.5t-14.5 5.5t-5.5 14.5q0 8 5.5 13.5z" />
    <glyph glyph-name="uni2113" unicode="&#x2113;" horiz-adv-x="480" 
d="M438 36q-43 -25 -74 -36.5t-69 -11.5q-56 0 -92 26.5t-55 86t-22 158.5q-21 -8 -63 -22l-21 72q56 18 83 29q3 196 50 274t125 78q62 0 97.5 -37.5t35.5 -101.5q0 -86 -62.5 -149.5t-169.5 -112.5q2 -118 26 -170t77 -52q24 0 48.5 9.5t56.5 29.5zM202 372
q153 77 153 181q0 32 -13.5 48t-37.5 16q-94 0 -102 -245z" />
    <glyph glyph-name="estimated" unicode="&#x212e;" horiz-adv-x="777" 
d="M84 462.5q47 72.5 128 115t176 42.5q96 0 177 -42.5t128 -115t47 -158.5v-9h-574v-140q0 -33 13.5 -60.5t38.5 -43.5q68 -45 172 -45q73 0 138.5 27.5t109.5 77.5h29q-50 -58 -123.5 -90.5t-155.5 -32.5q-95 0 -176 42.5t-128 115t-47 158.5t47 158.5zM390 602
q-106 0 -172 -46q-52 -35 -52 -85v-158h445v152q0 53 -44 87q-65 50 -177 50z" />
    <glyph glyph-name="dollar" unicode="$" horiz-adv-x="502" 
d="M254 -45q0 24 4 36l-1 1q-15 -7 -33 -6q-54 4 -100.5 19t-92.5 42l40 76q45 -24 81 -36t75 -17q21 -2 29 -9l2 1q-4 11 -4 40v208l-77 56q-51 37 -77 77t-26 88q0 66 42 107t108 49l15 1q12 0 17 -5l2 1q-4 17 -4 35v38h30v-38q0 -14 -3 -34l2 -2q6 6 19 6q6 0 10 -1
q52 -4 134 -39l-35 -77q-48 21 -99 31q-3 1 -13 3t-16 7l-2 -1q3 -16 3 -36v-177l63 -45q67 -47 96 -89.5t29 -99.5q0 -74 -43 -120t-119 -56l-10 -1q-9 0 -19 5l-1 -1q4 -13 4 -36v-38h-30v37zM257 414q-3 26 -3 41v122q0 21 4 36l-2 1q-5 -6 -14.5 -7.5t-12.5 -2.5
q-31 -6 -49 -23.5t-18 -45.5q0 -29 15.5 -50t59.5 -52q1 -1 8 -5.5t11 -14.5zM308 74q37 9 56.5 31t19.5 53t-18 57.5t-52 51.5q-23 18 -33 30h-1q4 -15 4 -40v-154q0 -24 -4 -40l1 -1q10 8 27 12z" />
    <glyph glyph-name="cent" unicode="&#xa2;" horiz-adv-x="488" 
d="M279 -45q0 14 0.5 22.5t3.5 12.5l-2 1q-4 -3 -16 -3q-11 0 -16 1q-59 8 -105 41t-71.5 86t-25.5 117q0 97 57 162.5t152 79.5l10 1q10 0 17 -5l1 1q-5 9 -5 35v22h30v-22q0 -24 -4 -35l1 -1q8 5 19 5q6 0 9 -1q72 -10 122 -46l-41 -71q-18 12 -41.5 21t-43.5 12
q-17 2 -24 9l-1 -1q4 -11 4 -36v-261q0 -27 -6 -38l1 -1q8 6 29 9q43 8 82 33l41 -72q-23 -17 -56 -29.5t-61 -15.5l-14 -1q-15 0 -19 4l-1 -1q3 -4 3.5 -12t0.5 -23v-21h-30v21zM283 63q-4 16 -4 39v261q0 30 5 36l-1 1q-6 -3 -15.5 -6t-13.5 -5q-57 -15 -88 -56.5
t-31 -100.5q0 -60 31.5 -103t86.5 -56q22 -6 29 -11z" />
    <glyph glyph-name="sterling" unicode="&#xa3;" horiz-adv-x="541" 
d="M302.5 -9q-19.5 5 -50.5 15q-23 8 -36.5 12t-28.5 4q-18 0 -36 -6t-48 -21l-43 71q54 31 84.5 72.5t30.5 90.5q0 28 -9.5 53t-34.5 73h-89v30h50q10 0 17 -1t13 -5l1 1q-10 10 -19 28q-7 20 -11.5 45.5t-4.5 48.5q0 85 58 136.5t154 51.5q95 0 179 -55l-47 -75
q-29 22 -63.5 34.5t-69.5 12.5q-55 0 -88.5 -30t-33.5 -79q0 -24 8.5 -50.5t27.5 -62.5h197v-30h-150q-16 0 -22.5 1t-15.5 5v-1q18 -28 29.5 -62t11.5 -63q0 -41 -22.5 -74t-68.5 -70l2 -3q24 9 46 9q17 0 29.5 -3.5t29.5 -10.5q19 -7 31.5 -10.5t29.5 -3.5q67 0 124 62
l44 -72q-36 -35 -77.5 -54t-84.5 -19q-24 0 -43.5 5z" />
    <glyph glyph-name="florin" unicode="&#x192;" horiz-adv-x="383" 
d="M361 681v-78q-24 3 -41 3q-93 0 -93 -99v-18q0 -21 -2 -29l1 -1q12 3 30 3h102v-30h-102q-12 0 -30 3l-1 -1q2 -28 2 -45v-412q0 -91 -39.5 -134.5t-112.5 -43.5q-18 0 -53 3v76q18 -2 51 -2q71 0 71 93v420q0 24 3 45l-1 1q-18 -3 -30 -3h-83v30h83q21 0 30 -3l1 1
q-3 12 -3 27v10q0 186 172 186q9 0 45 -2z" />
    <glyph glyph-name="yen" unicode="&#xa5;" horiz-adv-x="556" 
d="M236 234h-180v30h149q14 0 28 -4l1 1q-11 12 -15 19l-19 40h-144v30h107q14 0 28 -4l1 1q-8 8 -15 20l-150 308h98l127 -286q12 -27 17 -42t7 -32h4q2 17 7 32t17 42l126 286h99l-150 -308q-6 -10 -15 -20l1 -1q13 4 28 4h107v-30h-144l-20 -40q-2 -6 -14 -19l1 -1
q14 4 27 4h150v-30h-181v-234h-83v234z" />
    <glyph glyph-name="Euro" unicode="&#x20ac;" horiz-adv-x="668" 
d="M220.5 65q-83.5 79 -100.5 218h-109l15 30h66q13 0 29 -3l1 1q-5 9 -5 27q0 25 5 37l-1 1q-11 -4 -29 -4h-76l15 30h90q19 135 102 211.5t212 76.5q54 0 103 -14t98 -43l-40 -75q-86 47 -166 47q-82 0 -136 -45.5t-76 -133.5q-4 -16 -11 -27l1 -1q7 3 13.5 3.5t18.5 0.5
h288l-15 -30h-273q-12 0 -20.5 1t-16.5 4l-1 -1q7 -7 7 -38q0 -17 -7 -28l1 -1q13 4 36 4h251l-15 -30h-234q-25 0 -35 5v-1q7 -11 9.5 -22.5t2.5 -13.5q16 -82 73 -131t141 -49q79 0 166 49l41 -74q-49 -30 -98.5 -45t-105.5 -15q-131 0 -214.5 79z" />
    <glyph glyph-name="currency" unicode="&#xa4;" 
d="M518 410q15 -40 15 -86t-15 -86t-42 -70l57 -58l-20 -19l-57 57q-31 -27 -71 -41.5t-85 -14.5t-85.5 14.5t-71.5 41.5l-57 -57l-19 20l57 57q-27 30 -42 70t-15 86t15 86t42 70l-57 57l20 20l57 -57q31 27 71 41.5t85 14.5t85 -14.5t71 -41.5l57 57l20 -20l-57 -57
q27 -30 42 -70zM411 211.5q42 43.5 42 112.5t-42 112.5t-111 43.5t-111.5 -43.5t-42.5 -112.5t42.5 -112.5t111.5 -43.5t111 43.5z" />
    <glyph glyph-name="fraction" unicode="&#x2044;" horiz-adv-x="104" 
d="M225 675h49l-396 -675h-48z" />
    <glyph glyph-name="onequarter" unicode="&#xbc;" horiz-adv-x="703" 
d="M120 540q0 23 7 37l-2 2q-4 -5 -12 -9l-10 -5l-64 -32v48l83 50l10 44h34v-386h-46v251zM483 675h49l-396 -675h-48zM559 54q0 13 2 18l-1 1q-5 -2 -17 -2h-196v37l207 278h51v-253q0 -15 -2 -20h1q8 2 14 2h50l-18 -44h-32q-10 0 -14 2l-1 -1q2 -4 2 -16v-56h-46v54z
M434 115h102q14 0 25 -3l2 1q-4 8 -4 23v145q0 36 3 47l-2 1q-3 -8 -9.5 -17l-12.5 -17l-118 -163q-11 -14 -16 -18l1 -2q8 3 29 3z" />
    <glyph glyph-name="onehalf" unicode="&#xbd;" horiz-adv-x="708" 
d="M120 540q0 23 7 37l-2 2q-4 -5 -12 -9l-10 -5l-64 -32v48l83 50l10 44h34v-386h-46v251zM483 675h49l-396 -675h-48zM391 5l159 191q24 30 36.5 50t12.5 47q0 26 -18 41t-47 15q-28 0 -52.5 -9.5t-52.5 -26.5l-21 41q33 20 63.5 30.5t65.5 10.5q51 0 81.5 -26t30.5 -71
q0 -33 -15.5 -62.5t-50.5 -70.5l-77 -93q-17 -20 -38 -33l1 -3q18 7 45 7h149l1 -2l-26 -41h-244z" />
    <glyph glyph-name="threequarters" unicode="&#xbe;" horiz-adv-x="810" 
d="M108.5 286.5q-31.5 6.5 -56.5 18.5l20 45q50 -24 98 -24q42 0 66 18t24 54t-31 54t-105 18v45q57 0 88 18t31 50q0 26 -18.5 40t-53.5 14q-45 0 -98 -28l-21 42q64 33 125 33q57 0 87 -24.5t30 -69.5q0 -39 -25.5 -64.5t-74.5 -28.5v-3q116 -3 116 -98q0 -56 -36 -86
t-103 -30q-31 0 -62.5 6.5zM590 675h49l-396 -675h-48zM666 54q0 13 2 18l-1 1q-5 -2 -17 -2h-196v37l207 278h51v-253q0 -15 -2 -20h1q8 2 14 2h50l-18 -44h-32q-10 0 -14 2l-1 -1q2 -4 2 -16v-56h-46v54zM541 115h102q14 0 25 -3l2 1q-4 8 -4 23v145q0 36 3 47l-2 1
q-3 -8 -9.5 -17l-12.5 -17l-118 -163q-11 -14 -16 -18l1 -2q8 3 29 3z" />
    <glyph glyph-name="uni2153" unicode="&#x2153;" horiz-adv-x="707" 
d="M120 540q0 23 7 37l-2 2q-4 -5 -12 -9l-10 -5l-64 -32v48l83 50l10 44h34v-386h-46v251zM483 675h49l-396 -675h-48zM470.5 -2.5q-31.5 6.5 -56.5 18.5l20 45q50 -24 98 -24q42 0 66 18t24 54t-31 54t-105 18v45q57 0 88 18t31 50q0 26 -18.5 40t-53.5 14q-45 0 -98 -28
l-21 42q64 33 125 33q57 0 87 -24.5t30 -69.5q0 -39 -25.5 -64.5t-74.5 -28.5v-3q116 -3 116 -98q0 -56 -36 -86t-103 -30q-31 0 -62.5 6.5z" />
    <glyph glyph-name="uni2154" unicode="&#x2154;" horiz-adv-x="797" 
d="M19 294l159 191q24 30 36.5 50t12.5 47q0 26 -18 41t-47 15q-28 0 -52.5 -9.5t-52.5 -26.5l-21 41q33 20 63.5 30.5t65.5 10.5q51 0 81.5 -26t30.5 -71q0 -33 -15.5 -62.5t-50.5 -70.5l-77 -93q-17 -20 -38 -33l1 -3q18 7 45 7h149l1 -2l-26 -41h-244zM573 675h49
l-396 -675h-48zM560.5 -2.5q-31.5 6.5 -56.5 18.5l20 45q50 -24 98 -24q42 0 66 18t24 54t-31 54t-105 18v45q57 0 88 18t31 50q0 26 -18.5 40t-53.5 14q-45 0 -98 -28l-21 42q64 33 125 33q57 0 87 -24.5t30 -69.5q0 -39 -25.5 -64.5t-74.5 -28.5v-3q116 -3 116 -98
q0 -56 -36 -86t-103 -30q-31 0 -62.5 6.5z" />
    <glyph glyph-name="oneeighth" unicode="&#x215b;" horiz-adv-x="714" 
d="M120 540q0 23 7 37l-2 2q-4 -5 -12 -9l-10 -5l-64 -32v48l83 50l10 44h34v-386h-46v251zM483 675h49l-396 -675h-48zM437 21.5q-34 30.5 -34 82.5q0 43 22 69t56 31v2q-29 6 -47 29t-18 58q0 48 33.5 75t88.5 27t89 -27t34 -75q0 -35 -18 -58t-47 -29v-2q33 -5 55 -31.5
t22 -68.5q0 -52 -34 -82.5t-101 -30.5t-101 30.5zM591.5 244.5q20.5 17.5 20.5 45.5t-20 44t-54 16t-53.5 -16t-19.5 -44t20 -45.5t53 -17.5t53.5 17.5zM601 56.5q23 19.5 23 53.5q0 33 -22 53.5t-64 20.5t-63.5 -20.5t-21.5 -53.5q0 -34 23 -53.5t62 -19.5q40 0 63 19.5z
" />
    <glyph glyph-name="threeeighths" unicode="&#x215c;" horiz-adv-x="821" 
d="M108.5 286.5q-31.5 6.5 -56.5 18.5l20 45q50 -24 98 -24q42 0 66 18t24 54t-31 54t-105 18v45q57 0 88 18t31 50q0 26 -18.5 40t-53.5 14q-45 0 -98 -28l-21 42q64 33 125 33q57 0 87 -24.5t30 -69.5q0 -39 -25.5 -64.5t-74.5 -28.5v-3q116 -3 116 -98q0 -56 -36 -86
t-103 -30q-31 0 -62.5 6.5zM590 675h49l-396 -675h-48zM544 21.5q-34 30.5 -34 82.5q0 43 22 69t56 31v2q-29 6 -47 29t-18 58q0 48 33.5 75t88.5 27t89 -27t34 -75q0 -35 -18 -58t-47 -29v-2q33 -5 55 -31.5t22 -68.5q0 -52 -34 -82.5t-101 -30.5t-101 30.5zM698.5 244.5
q20.5 17.5 20.5 45.5t-20 44t-54 16t-53.5 -16t-19.5 -44t20 -45.5t53 -17.5t53.5 17.5zM708 56.5q23 19.5 23 53.5q0 33 -22 53.5t-64 20.5t-63.5 -20.5t-21.5 -53.5q0 -34 23 -53.5t62 -19.5q40 0 63 19.5z" />
    <glyph glyph-name="fiveeighths" unicode="&#x215d;" horiz-adv-x="801" 
d="M27 307l19 44q49 -25 97 -25q44 0 70 23t26 66q0 39 -24 59.5t-63 20.5q-33 0 -86 -11l-3 2l51 189h189l-16 -43h-123q-12 0 -17 5l-2 -2v-4q0 -8 -1 -12l-21 -75q-2 -7 -10 -17l1 -2q18 11 51 11q56 0 89.5 -30.5t33.5 -88.5q0 -65 -40 -101t-108 -36q-62 0 -113 27z
M570 675h49l-396 -675h-48zM524 21.5q-34 30.5 -34 82.5q0 43 22 69t56 31v2q-29 6 -47 29t-18 58q0 48 33.5 75t88.5 27t89 -27t34 -75q0 -35 -18 -58t-47 -29v-2q33 -5 55 -31.5t22 -68.5q0 -52 -34 -82.5t-101 -30.5t-101 30.5zM678.5 244.5q20.5 17.5 20.5 45.5t-20 44
t-54 16t-53.5 -16t-19.5 -44t20 -45.5t53 -17.5t53.5 17.5zM688 56.5q23 19.5 23 53.5q0 33 -22 53.5t-64 20.5t-63.5 -20.5t-21.5 -53.5q0 -34 23 -53.5t62 -19.5q40 0 63 19.5z" />
    <glyph glyph-name="seveneighths" unicode="&#x215e;" horiz-adv-x="719" 
d="M200 609q8 16 18 26l-1 1q-10 -6 -33 -6h-166l16 45h246l1 -3l-194 -383h-50zM488 675h49l-396 -675h-48zM442 21.5q-34 30.5 -34 82.5q0 43 22 69t56 31v2q-29 6 -47 29t-18 58q0 48 33.5 75t88.5 27t89 -27t34 -75q0 -35 -18 -58t-47 -29v-2q33 -5 55 -31.5t22 -68.5
q0 -52 -34 -82.5t-101 -30.5t-101 30.5zM596.5 244.5q20.5 17.5 20.5 45.5t-20 44t-54 16t-53.5 -16t-19.5 -44t20 -45.5t53 -17.5t53.5 17.5zM606 56.5q23 19.5 23 53.5q0 33 -22 53.5t-64 20.5t-63.5 -20.5t-21.5 -53.5q0 -34 23 -53.5t62 -19.5q40 0 63 19.5z" />
    <glyph glyph-name="percent" unicode="%" horiz-adv-x="759" 
d="M95 416q-45 45 -45 115t45 114.5t115 44.5q71 0 116.5 -44.5t45.5 -114.5t-45.5 -115t-116.5 -45q-70 0 -115 45zM544 675h49l-396 -675h-48zM293 448.5q31 31.5 31 82.5t-31 82t-82 31q-50 0 -81.5 -31t-31.5 -82q0 -50 31.5 -82t81.5 -32q51 0 82 31.5zM433 39.5
q-45 44.5 -45 114.5t45 115t115 45t115.5 -45t45.5 -115t-45.5 -114.5t-115.5 -44.5t-115 44.5zM630.5 72q31.5 31 31.5 82q0 50 -31.5 82t-81.5 32t-82 -32t-32 -82q0 -51 31.5 -82t82.5 -31q50 0 81.5 31z" />
    <glyph glyph-name="perthousand" unicode="&#x2030;" horiz-adv-x="1110" 
d="M95 416q-45 45 -45 115t45 114.5t115 44.5q71 0 116.5 -44.5t45.5 -114.5t-45.5 -115t-116.5 -45q-70 0 -115 45zM544 675h49l-396 -675h-48zM293 448.5q31 31.5 31 82.5t-31 82t-82 31q-50 0 -81.5 -31t-31.5 -82q0 -50 31.5 -82t81.5 -32q51 0 82 31.5zM433 39.5
q-45 44.5 -45 114.5t45 115t115 45t115.5 -45t45.5 -115t-45.5 -114.5t-115.5 -44.5t-115 44.5zM982.5 293q36.5 -21 57 -57.5t20.5 -81.5t-20.5 -81.5t-57 -57t-81.5 -20.5t-81.5 20.5t-57 57t-20.5 81.5t20.5 81.5t57 57.5t81.5 21t81.5 -21zM630.5 72q31.5 31 31.5 82
q0 50 -31.5 82t-81.5 32t-82 -32t-32 -82q0 -51 31.5 -82t82.5 -31q50 0 81.5 31zM819 236q-32 -32 -32 -82t32 -81.5t82 -31.5t81.5 31.5t31.5 81.5t-31.5 82t-81.5 32t-82 -32z" />
    <glyph glyph-name="uni03BC" unicode="&#x3bc;" horiz-adv-x="524" 
d="M462 462v-462h-83q0 69 10 109l-4 1q-23 -63 -63 -94t-102 -31q-49 0 -84 20v-205h-79v662h87v-271q0 -61 28 -93t80 -32q60 0 93 46.5t33 131.5v218h84z" />
    <glyph glyph-name="numbersign" unicode="#" horiz-adv-x="635" 
d="M459 457l-34 -188h122v-44h-130l-41 -225h-48l41 225h-148l-41 -225h-48l41 225h-121v44h129l34 188h-127v44h135l36 199h48l-36 -199h148l36 199h48l-36 -199h116v-44h-124zM411 457h-148l-34 -188h148z" />
    <glyph glyph-name="uni2116" unicode="&#x2116;" horiz-adv-x="1165" 
d="M512 257q18 -18 33 -39.5t22 -38.5l4 1q-10 45 -10 126v394h90v-710h-8l-427 453q-17 18 -32 39.5t-23 38.5l-3 -1q9 -40 9 -125v-395h-90v710h9zM801 168q-47 26 -73 73t-26 108t26 108t73 73.5t108 26.5t108 -26.5t73.5 -73.5t26.5 -108t-26.5 -108t-73.5 -73t-108 -26
t-108 26zM1004 252q37 38 37 97t-37 97t-94 38q-58 0 -95.5 -38t-37.5 -97t37.5 -97t95.5 -38q57 0 94 38zM722 72h375v-72h-375v72z" />
    <glyph glyph-name="uni0394" unicode="&#x394;" horiz-adv-x="628" 
d="M608 0h-588l254 700h80zM125 43h377l-188 545z" />
    <glyph glyph-name="uni03A9" unicode="&#x3a9;" horiz-adv-x="763" 
d="M562 673.5q78 -41.5 121 -116.5t43 -172q0 -117 -70.5 -201t-189.5 -113v-3q41 7 85 7h159v-75h-288v129q100 20 158.5 88.5t58.5 163.5q0 76 -31.5 133t-89.5 88.5t-136 31.5t-136.5 -31.5t-90 -88.5t-31.5 -133q0 -95 59 -163.5t159 -88.5v-129h-289v75h160q43 0 84 -7
v3q-119 29 -189.5 113t-70.5 201q0 97 43 172t121.5 116.5t180.5 41.5t180 -41.5z" />
    <glyph glyph-name="pi" unicode="&#x3c0;" horiz-adv-x="605" 
d="M575 399h-108v-399h-82v399h-143l-95 -399h-82l95 399q-76 -1 -130 -20v78q58 20 139 20h406v-78z" />
    <glyph glyph-name="plus" unicode="+" 
d="M323 319h221v-42h-221v-222h-46v222h-221v42h221v222h46v-222z" />
    <glyph glyph-name="minus" unicode="&#x2212;" 
d="M539 276h-478v44h478v-44z" />
    <glyph glyph-name="plusminus" unicode="&#xb1;" 
d="M323 383h216v-44h-216v-139h-46v139h-216v44h216v139h46v-139zM539 112h-478v43h478v-43z" />
    <glyph glyph-name="multiply" unicode="&#xd7;" 
d="M514 481l-182 -183l182 -183l-31 -31l-183 182l-183 -182l-31 31l182 183l-182 183l31 31l183 -182l183 182z" />
    <glyph glyph-name="divide" unicode="&#xf7;" 
d="M270 416.5q-12 11.5 -12 30.5t12 31t31 12q18 0 30 -12t12 -31t-12 -30.5t-30 -11.5q-19 0 -31 11.5zM41 320h518v-43h-518v43zM270 119q-12 12 -12 31q0 18 12 30t31 12q18 0 30 -12t12 -30q0 -19 -12 -31t-30 -12q-19 0 -31 12z" />
    <glyph glyph-name="equal" unicode="=" 
d="M553 369h-506v44h506v-44zM553 186h-506v43h506v-43z" />
    <glyph glyph-name="less" unicode="&#x3c;" 
d="M523 469l-392 -170l392 -169v-50l-446 196v46l446 197v-50z" />
    <glyph glyph-name="greater" unicode="&#x3e;" 
d="M523 322v-46l-446 -196v50l392 169l-392 170v50z" />
    <glyph glyph-name="degree" unicode="&#xb0;" horiz-adv-x="357" 
d="M276.5 652q38.5 -38 38.5 -99q0 -60 -38.5 -98t-97.5 -38q-60 0 -98.5 38t-38.5 98q0 61 38.5 99t98.5 38q59 0 97.5 -38zM112 621.5q-27 -26.5 -27 -68.5q0 -41 27 -67.5t67 -26.5t67 26.5t27 67.5q0 42 -27 68.5t-67 26.5t-67 -26.5z" />
    <glyph glyph-name="approxequal" unicode="&#x2248;" 
d="M227.5 436q31.5 -10 83.5 -31q47 -19 73 -27.5t46 -8.5q55 0 77 67h43q-15 -57 -46.5 -84.5t-72.5 -27.5q-28 0 -61 10.5t-82 30.5q-45 18 -71 26.5t-47 8.5q-55 0 -77 -67h-43q15 57 47 85t72 28q27 0 58.5 -10zM227.5 284q31.5 -10 83.5 -31q44 -18 71 -26.5t48 -8.5
q55 0 77 67h43q-15 -57 -46.5 -84.5t-72.5 -27.5q-28 0 -61 10.5t-82 30.5q-45 18 -71 26.5t-47 8.5q-55 0 -77 -68h-43q15 58 47 85.5t72 27.5q27 0 58.5 -10z" />
    <glyph glyph-name="greaterequal" unicode="&#x2265;" 
d="M80 443l380 -101l-380 -100v-46l445 124v45l-445 124v-46zM73 114h454v42h-454v-42z" />
    <glyph glyph-name="infinity" unicode="&#x221e;" horiz-adv-x="760" 
d="M696 408.5q44 -41.5 44 -111.5t-44 -111.5t-116 -41.5q-60 0 -104.5 31.5t-95.5 90.5q-49 -58 -94 -90t-105 -32q-73 0 -117 41.5t-44 111.5t44 111.5t117 41.5q60 0 105 -32t94 -90q51 59 95.5 90.5t104.5 31.5q72 0 116 -41.5zM95 379q-33 -31 -33 -82t33 -82t86 -31
q49 0 88 29t85 84q-46 55 -85 84t-88 29q-53 0 -86 -31zM492 381q-39 -29 -85 -84q46 -55 85 -84t88 -29q53 0 85.5 31t32.5 82t-32.5 82t-85.5 31q-49 0 -88 -29z" />
    <glyph glyph-name="lessequal" unicode="&#x2264;" 
d="M520 443l-380 -101l380 -100v-46l-445 124v45l445 124v-46zM527 114h-454v42h454v-42z" />
    <glyph glyph-name="logicalnot" unicode="&#xac;" 
d="M529 432v-265h-46v221h-412v44h458z" />
    <glyph glyph-name="notequal" unicode="&#x2260;" 
d="M364 369l-83 -140h272v-43h-298l-60 -101h-43l60 101h-165v43h190l83 140h-273v44h299l59 99h44l-59 -99h163v-44h-189z" />
    <glyph glyph-name="integral" unicode="&#x222b;" horiz-adv-x="380" 
d="M340 639q-54 0 -82 -28.5t-28 -88.5v-554q0 -89 -49 -136t-141 -47v76q53 1 80.5 28.5t27.5 88.5v554q0 89 49 136t143 47v-76z" />
    <glyph glyph-name="partialdiff" unicode="&#x2202;" horiz-adv-x="566" 
d="M450 371q-11 130 -66 196.5t-162 66.5q-38 0 -69.5 -8t-64.5 -22l-29 77q84 34 163 34q87 0 155.5 -39t108.5 -121.5t40 -208.5q0 -160 -65 -260.5t-193 -100.5q-70 0 -121.5 30.5t-79 83t-27.5 118.5q0 70 30 123t82 82t115 29q72 0 121 -35.5t64 -86.5l3 1q-4 18 -5 41
zM397 127.5q40 61.5 45 150.5q-24 38 -66 64.5t-99 26.5q-70 0 -110 -42t-40 -110t40 -109.5t106 -41.5q84 0 124 61.5z" />
    <glyph glyph-name="product" unicode="&#x220f;" horiz-adv-x="710" 
d="M690 622h-127v-700h-80v700h-256v-700h-80v700h-127v78h670v-78z" />
    <glyph glyph-name="radical" unicode="&#x221a;" horiz-adv-x="593" 
d="M347 1l1 -1h-77l-154 386h-97v76h149l136 -352l190 605h78z" />
    <glyph glyph-name="summation" unicode="&#x2211;" horiz-adv-x="551" 
d="M511 620h-369l274 -325l-274 -325h369v-80h-471v81l274 324l-274 324v81h471v-80z" />
    <glyph glyph-name="lozenge" unicode="&#x25ca;" horiz-adv-x="586" 
d="M566 350l-227 -365h-92l-227 365l227 365h92zM112 350l182 -297l181 297l-181 297z" />
    <glyph glyph-name="zero.tf" 
d="M479 598q64 -92 64 -260t-64.5 -260.5t-178.5 -92.5q-115 0 -179.5 92.5t-64.5 260.5q0 169 64.5 260.5t179.5 91.5t179 -92zM185.5 539.5q-41.5 -72.5 -41.5 -201.5t41.5 -202t114.5 -73q72 0 114 73t42 202t-42 201.5t-114 72.5q-73 0 -114.5 -72.5z" />
    <glyph glyph-name="one.tf" 
d="M518 82v-82h-436v82h186v355q0 33 1.5 48t7.5 38l-3 2q-5 -9 -13.5 -15t-23.5 -13l-112 -50v85l150 87l16 56h62v-593h165z" />
    <glyph glyph-name="two.tf" 
d="M448 643q52 -47 52 -129q0 -49 -21.5 -98t-65.5 -102l-138 -165q-50 -59 -71 -72l2 -3q27 9 85 9h254l1 -2l-46 -81h-445l-1 4l290 355q34 42 51 78t17 71q0 49 -30 76t-80 27q-40 0 -84 -18.5t-86 -51.5l-44 68q108 81 219 81q89 0 141 -47z" />
    <glyph glyph-name="three.tf" 
d="M76 34l35 76q43 -23 83.5 -34.5t83.5 -11.5q74 0 115 35t41 99q0 70 -51 101.5t-164 31.5v77q84 0 131.5 29t47.5 83q0 43 -30.5 68t-82.5 25q-39 0 -81 -13.5t-80 -37.5l-37 70q46 27 101 42.5t109 15.5q89 0 138.5 -41.5t49.5 -114.5q0 -53 -28.5 -91t-78.5 -54
q-20 -6 -49 -9v-4q31 0 48 -5q71 -16 108.5 -60t37.5 -117q0 -99 -63.5 -154t-182.5 -55q-108 0 -201 49z" />
    <glyph glyph-name="four.tf" 
d="M451 236q0 -18 -2 -24l2 -2q6 3 18 3h92l-27 -80h-64q-11 0 -19 2l-2 -1q2 -5 2 -23v-111h-82v111q0 18 1 23l-1 1q-10 -2 -20 -2h-311v71l336 471h77v-439zM353.5 525q-8.5 -17 -27.5 -44l-162 -225q-24 -35 -39 -48l2 -2q21 7 55 7h165q13 0 21 -3l2 2q-2 6 -2 25v258
q0 34 5 66l-3 1q-8 -20 -16.5 -37z" />
    <glyph glyph-name="five.tf" 
d="M507 592h-197q-20 0 -25 1l-1 -1q0 -12 -8 -46l-23 -74q-7 -23 -20 -40l1 -2q26 6 47 6q106 0 167.5 -58.5t61.5 -158.5q0 -71 -31.5 -124t-90.5 -81.5t-138 -28.5q-51 0 -100 12.5t-89 36.5l30 78q86 -49 165 -49q78 0 122 41.5t44 111.5t-45 106.5t-128 36.5
q-60 0 -110 -15l-3 3l97 328h306z" />
    <glyph glyph-name="six.tf" 
d="M265 491q-34 -40 -54 -70.5t-35 -64.5l4 -1q28 45 64.5 65t82.5 20q61 0 108.5 -29t74 -80t26.5 -115q0 -67 -30 -119.5t-84 -82t-123 -29.5q-68 0 -122 30t-84.5 84.5t-30.5 127.5q0 71 29.5 139.5t93.5 148.5l133 165h108zM190.5 318q-40.5 -41 -40.5 -111
q0 -65 41 -105t109 -40t108 41.5t40 111.5q0 67 -40 105.5t-109 38.5q-68 0 -108.5 -41z" />
    <glyph glyph-name="seven.tf" 
d="M523 673l-291 -673h-93l227 509q12 28 16 36l13.5 32t10.5 18l-2 2q-9 -4 -26.5 -5t-52.5 -1h-247l34 84h410z" />
    <glyph glyph-name="eight.tf" 
d="M132 37q-61 52 -61 144q0 71 38 118.5t105 60.5v4q-56 11 -89.5 53t-33.5 101q0 79 57 125.5t152 46.5t152 -46.5t57 -125.5q0 -59 -33.5 -101t-89.5 -53v-4q67 -13 104.5 -60.5t37.5 -118.5q0 -92 -61 -144t-167 -52q-107 0 -168 52zM388 430.5q33 29.5 33 78.5
q0 48 -33 76t-88 28q-56 0 -88.5 -28t-32.5 -76q0 -49 33 -78.5t88 -29.5t88 29.5zM402 95.5q37 33.5 37 93.5t-37.5 95t-101.5 35q-65 0 -102.5 -35t-37.5 -95t37.5 -93.5t102.5 -33.5t102 33.5z" />
    <glyph glyph-name="nine.tf" 
d="M422.5 660q53.5 -30 83.5 -86t30 -131q0 -71 -26 -132t-83 -129l-149 -182h-102l173 210q26 31 45 57t34 49l-4 2q-28 -39 -66 -59.5t-83 -20.5q-60 0 -108 29.5t-75.5 80.5t-27.5 113q0 67 30 119t84 81t123 29q68 0 121.5 -30zM192.5 571.5q-40.5 -40.5 -40.5 -108.5
q0 -67 39.5 -106t106.5 -39q68 0 108.5 39t40.5 106q0 69 -39.5 109t-108.5 40q-66 0 -106.5 -40.5z" />
    <glyph glyph-name="zero.tf.zero" 
d="M522 504.5q21 -71.5 21 -166.5q0 -168 -64.5 -260.5t-178.5 -92.5q-79 0 -136 45l-31 -61l-26 11l35 70q-42 45 -64 118t-22 170q0 169 64.5 260.5t179.5 91.5q81 0 140 -48l27 54l26 -11l-32 -64q40 -45 61 -116.5zM185 136l214 426q-38 50 -99 50q-73 0 -114.5 -72.5
t-41.5 -201.5q0 -128 41 -202zM414 136q42 73 42 202q0 124 -39 196l-213 -425q38 -46 96 -46q72 0 114 73z" />
    <glyph glyph-name="dollar.tf" 
d="M303 -45q0 24 4 36l-1 1q-15 -7 -33 -6q-54 4 -100.5 19t-92.5 42l40 76q45 -24 81 -36t75 -17q21 -2 29 -9l2 1q-4 11 -4 40v208l-77 56q-51 37 -77 77t-26 88q0 66 42 107t108 49l15 1q12 0 17 -5l2 1q-4 17 -4 35v38h30v-38q0 -14 -3 -34l2 -2q6 6 19 6q6 0 10 -1
q52 -4 134 -39l-35 -77q-48 21 -99 31q-3 1 -13 3t-16 7l-2 -1q3 -16 3 -36v-177l63 -45q67 -47 96 -89.5t29 -99.5q0 -74 -43 -120t-119 -56l-10 -1q-9 0 -19 5l-1 -1q4 -13 4 -36v-38h-30v37zM306 414q-3 26 -3 41v122q0 21 4 36l-2 1q-5 -6 -14.5 -7.5t-12.5 -2.5
q-31 -6 -49 -23.5t-18 -45.5q0 -29 15.5 -50t59.5 -52q1 -1 8 -5.5t11 -14.5zM357 74q37 9 56.5 31t19.5 53t-18 57.5t-52 51.5q-23 18 -33 30h-1q4 -15 4 -40v-154q0 -24 -4 -40l1 -1q10 8 27 12z" />
    <glyph glyph-name="cent.tf" 
d="M327 -45q0 14 0.5 22.5t3.5 12.5l-2 1q-4 -3 -16 -3q-11 0 -16 1q-59 8 -105 41t-71.5 86t-25.5 117q0 97 57 162.5t152 79.5l10 1q10 0 17 -5l1 1q-5 9 -5 35v22h30v-22q0 -24 -4 -35l1 -1q8 5 19 5q6 0 9 -1q72 -10 122 -46l-41 -71q-18 12 -41.5 21t-43.5 12
q-17 2 -24 9l-1 -1q4 -11 4 -36v-261q0 -27 -6 -38l1 -1q8 6 29 9q43 8 82 33l41 -72q-23 -17 -56 -29.5t-61 -15.5l-14 -1q-15 0 -19 4l-1 -1q3 -4 3.5 -12t0.5 -23v-21h-30v21zM331 63q-4 16 -4 39v261q0 30 5 36l-1 1q-6 -3 -15.5 -6t-13.5 -5q-57 -15 -88 -56.5
t-31 -100.5q0 -60 31.5 -103t86.5 -56q22 -6 29 -11z" />
    <glyph glyph-name="sterling.tf" 
d="M326.5 -9q-19.5 5 -50.5 15q-23 8 -36.5 12t-28.5 4q-18 0 -36 -6t-48 -21l-43 71q54 31 84.5 72.5t30.5 90.5q0 28 -9.5 53t-34.5 73h-89v30h50q10 0 17 -1t13 -5l1 1q-10 10 -19 28q-7 20 -11.5 45.5t-4.5 48.5q0 85 58 136.5t154 51.5q95 0 179 -55l-47 -75
q-29 22 -63.5 34.5t-69.5 12.5q-55 0 -88.5 -30t-33.5 -79q0 -24 8.5 -50.5t27.5 -62.5h197v-30h-150q-16 0 -22.5 1t-15.5 5v-1q18 -28 29.5 -62t11.5 -63q0 -41 -22.5 -74t-68.5 -70l2 -3q24 9 46 9q17 0 29.5 -3.5t29.5 -10.5q19 -7 31.5 -10.5t29.5 -3.5q67 0 124 62
l44 -72q-36 -35 -77.5 -54t-84.5 -19q-24 0 -43.5 5z" />
    <glyph glyph-name="florin.tf" 
d="M470 681v-78q-24 3 -41 3q-93 0 -93 -99v-18q0 -21 -2 -29l1 -1q12 3 30 3h102v-30h-102q-12 0 -30 3l-1 -1q2 -28 2 -45v-412q0 -91 -39.5 -134.5t-112.5 -43.5q-18 0 -53 3v76q18 -2 51 -2q71 0 71 93v420q0 24 3 45l-1 1q-18 -3 -30 -3h-83v30h83q21 0 30 -3l1 1
q-3 12 -3 27v10q0 186 172 186q9 0 45 -2z" />
    <glyph glyph-name="yen.tf" 
d="M259 234h-181v30h150q13 0 27 -4l1 1q-12 13 -14 19l-20 40h-144v30h107q15 0 28 -4l1 1q-7 7 -15 20l-150 308h99l126 -286q12 -27 17 -42t7 -32h4q2 17 7 32t17 42l126 286h99l-150 -308q-7 -12 -15 -20l1 -1q13 4 28 4h107v-30h-144l-20 -40q-2 -6 -14 -19l1 -1
q14 4 28 4h149v-30h-181v-234h-82v234z" />
    <glyph glyph-name="Euro.tf" 
d="M202.5 68.5q-74.5 82.5 -88.5 214.5h-102l15 30h58q17 0 30 -3v1q-4 10 -4 27q0 12 1 21t4 16l-1 1q-12 -4 -30 -4h-68l15 30h83q16 128 90 208t201 80q53 0 96 -15.5t83 -41.5l-40 -75q-34 21 -69 34t-75 13q-74 0 -122.5 -45.5t-67.5 -133.5q-3 -15 -11 -27l1 -1
q7 3 14 3.5t18 0.5h279l-15 -30h-264q-12 0 -20.5 1t-16.5 4l-1 -1q7 -7 7 -38q0 -17 -7 -28l1 -1q12 4 36 4h242l-15 -30h-225q-25 0 -35 5v-1q7 -11 9.5 -22.5t2.5 -13.5q14 -81 65 -130.5t127 -49.5q68 0 144 49l40 -74q-40 -28 -83 -44t-98 -16q-129 0 -203.5 82.5z" />
    <glyph glyph-name="perthousand.tf" 
d="M56 423q-37 43 -37 112t37 112t93 43q36 0 65.5 -19.5t47 -54.5t17.5 -81t-17.5 -81t-47 -54.5t-65.5 -19.5q-56 0 -93 43zM95 611q-22 -27 -22 -76t22 -76t54 -27q31 0 53.5 27.5t22.5 75.5t-22.5 75.5t-53.5 27.5q-32 0 -54 -27zM539 479l-500 -232l-12 25l500 232z
M518.5 275.5q29.5 -19.5 47 -54.5t17.5 -81t-17.5 -81t-47 -54.5t-65.5 -19.5q-31 0 -58 14.5t-45 41.5q-18 -27 -45 -41.5t-58 -14.5q-56 0 -93 43t-37 112t37 112t93 43q31 0 58 -14.5t45 -41.5q18 27 45 41.5t58 14.5q36 0 65.5 -19.5zM301 64q22 27 22 76t-22 76t-54 27
q-31 0 -53.5 -27.5t-22.5 -75.5t22.5 -75.5t53.5 -27.5q32 0 54 27zM506.5 64.5q22.5 27.5 22.5 75.5t-22.5 75.5t-53.5 27.5q-32 0 -54 -27t-22 -76t22 -76t54 -27q31 0 53.5 27.5z" />
    <glyph glyph-name="uni0308" unicode="&#x308;" horiz-adv-x="0" 
d="M-263 682.5q17 -17.5 17 -43.5t-17 -43.5t-44 -17.5t-44 17.5t-17 43.5t17 43.5t44 17.5t44 -17.5zM-67 682.5q17 -17.5 17 -43.5t-17 -43.5t-44 -17.5t-44 17.5t-17 43.5t17 43.5t44 17.5t44 -17.5z" />
    <glyph glyph-name="uni0307" unicode="&#x307;" horiz-adv-x="0" 
d="M-69.5 685q19.5 -19 19.5 -48q0 -28 -19.5 -47.5t-47.5 -19.5q-29 0 -48 19.5t-19 47.5q0 29 19 48t48 19q28 0 47.5 -19z" />
    <glyph glyph-name="gravecomb" unicode="&#x300;" horiz-adv-x="0" 
d="M-242 704l1 3h96l95 -151l-1 -3h-59z" />
    <glyph glyph-name="acutecomb" unicode="&#x301;" horiz-adv-x="0" 
d="M-50 704l-132 -151h-59l-1 3l93 151h98z" />
    <glyph glyph-name="uni030B" unicode="&#x30b;" horiz-adv-x="0" 
d="M-371 555l113 152h71l1 -2l-119 -152h-65zM-234 555l112 152h71l1 -2l-119 -152h-64z" />
    <glyph glyph-name="uni0302" unicode="&#x302;" horiz-adv-x="0" 
d="M-50 555v-2h-74l-42 59q-20 29 -26.5 41t-11.5 26h-2q-4 -14 -10.5 -26t-26.5 -41l-42 -59h-74v2l111 152h87z" />
    <glyph glyph-name="uni030C" unicode="&#x30c;" horiz-adv-x="0" 
d="M-371 705v2h78l44 -59l15.5 -22t15 -23t6.5 -17h3q3 11 9.5 22t14.5 22l13 18l43 59h79v-2l-117 -152h-87z" />
    <glyph glyph-name="uni0306" unicode="&#x306;" horiz-adv-x="0" 
d="M-88 598.5q-38 -38.5 -99 -38.5q-62 0 -100 38.5t-38 106.5h61q1 -43 21.5 -64.5t55.5 -21.5t55.5 21.5t21.5 64.5h60q0 -68 -38 -106.5z" />
    <glyph glyph-name="uni030A" unicode="&#x30a;" horiz-adv-x="0" 
d="M-83.5 714q33.5 -33 33.5 -84t-33.5 -84t-85.5 -33t-85.5 33t-33.5 84t33.5 84t85.5 33t85.5 -33zM-222.5 683.5q-20.5 -20.5 -20.5 -53.5t20.5 -53.5t53.5 -20.5t53.5 20.5t20.5 53.5t-20.5 53.5t-53.5 20.5t-53.5 -20.5z" />
    <glyph glyph-name="tildecomb" unicode="&#x303;" horiz-adv-x="0" 
d="M-256.5 689q19.5 -7 51.5 -21q42 -22 63 -22q34 0 53 50l39 -14q-10 -44 -34 -72t-64 -28q-21 0 -42.5 7.5t-50.5 21.5q-22 10 -36.5 15.5t-26.5 5.5q-34 0 -53 -49l-39 13q10 44 34 72t65 28q21 0 40.5 -7z" />
    <glyph glyph-name="uni0304" unicode="&#x304;" horiz-adv-x="0" 
d="M-50 606h-286v62h286v-62z" />
    <glyph glyph-name="uni0312" unicode="&#x312;" horiz-adv-x="0" 
d="M-178 553l81 159h47l-37 -159h-91z" />
    <glyph glyph-name="uni0326" unicode="&#x326;" horiz-adv-x="0" 
d="M-125 -215h-47l34 164h88z" />
    <glyph glyph-name="uni0327" unicode="&#x327;" horiz-adv-x="0" 
d="M-137 -36q39 -11 63 -27.5t24 -45.5q0 -36 -35 -61t-98 -54l-14 29q43 25 60 37.5t17 27.5t-18.5 25t-54.5 18l41 111h37z" />
    <glyph glyph-name="uni0328" unicode="&#x328;" horiz-adv-x="0" 
d="M-54 10q-48 -37 -70.5 -63.5t-22.5 -47.5q0 -15 10.5 -23t29.5 -8q22 0 43 6l13 -49q-35 -13 -68 -13q-38 0 -63 19t-25 52q0 36 29 69.5t90 75.5z" />
    <glyph glyph-name="uni018F" unicode="&#x18f;" horiz-adv-x="767" 
d="M562.5 671q79.5 -44 123 -126t43.5 -195q0 -110 -41.5 -192.5t-121 -127.5t-189.5 -45q-162 0 -251 96.5t-89 268.5v48h555q22 0 42 -7l1 2q-6 12 -7.5 20t-3.5 14q-17 92 -84 144t-170 52q-129 0 -230 -85l-54 76q57 49 131 75t158 26q108 0 187.5 -44zM614 312.5
q-12 -0.5 -28 -0.5h-406q-18 0 -30.5 0.5t-20.5 3.5l-2 -2q7 -14 10 -38q12 -94 76 -146.5t169 -52.5q100 0 161 52t82 146q2 11 11 39l-2 2q-8 -3 -20 -3.5z" />
    <glyph glyph-name="uni0232" unicode="&#x232;" horiz-adv-x="555" 
d="M322 277v-277h-90v277l-225 423h108l117 -238q24 -51 31.5 -69.5t12.5 -44.5h2q5 25 12 42.5t33 71.5l117 238h108zM420 822v-59h-288v59h288z" />
    <glyph glyph-name="Adieresis.ss01" horiz-adv-x="686" 
d="M338 715h10l327 -715h-101l-87 196h-288l-87 -196h-101zM280 273h126q38 0 56 -2l1 1q-15 19 -31 57l-62 146q-22 57 -25 82h-4q-3 -25 -25 -82l-62 -146q-16 -38 -31 -57l1 -1q18 2 56 2zM299 853v-110h-81v110h81zM468 853v-110h-81v110h81z" />
    <glyph glyph-name="Cdotaccent.ss01" horiz-adv-x="687" 
d="M216 31q-85 46 -132 129t-47 190t47 190t132 129t195 46q140 0 246 -78l-55 -78q-90 64 -194 64q-80 0 -142 -34.5t-96.5 -96.5t-34.5 -142t34.5 -142t96.5 -96.5t142 -34.5q104 0 194 64l55 -78q-106 -78 -246 -78q-110 0 -195 46zM440 743h-87v110h87v-110z" />
    <glyph glyph-name="Edieresis.ss01" horiz-adv-x="515" 
d="M470 615h-279q-16 0 -25 4l-2 -2q3 -7 3 -26v-143q0 -17 -3 -25l2 -2q9 4 25 4h247v-85h-247q-16 0 -25 4l-2 -2q3 -7 3 -26v-207q0 -18 -3 -26l2 -2q9 4 25 4h284v-85h-398v700h393v-85zM243 853v-110h-81v110h81zM412 853v-110h-81v110h81z" />
    <glyph glyph-name="Edotaccent.ss01" horiz-adv-x="515" 
d="M470 615h-279q-16 0 -25 4l-2 -2q3 -7 3 -26v-143q0 -17 -3 -25l2 -2q9 4 25 4h247v-85h-247q-16 0 -25 4l-2 -2q3 -7 3 -26v-207q0 -18 -3 -26l2 -2q9 4 25 4h284v-85h-398v700h393v-85zM330 743h-87v110h87v-110z" />
    <glyph glyph-name="Gdotaccent.ss01" horiz-adv-x="788" 
d="M675 621l-60 -75q-91 77 -210 77q-80 0 -141 -35.5t-95 -98t-34 -141.5q0 -78 34.5 -140t97 -96.5t143.5 -34.5q82 0 138.5 34.5t85 86.5t29.5 103l-1 2q-16 -9 -68 -9h-184v85h350v-33q0 -93 -39.5 -176t-119.5 -134t-194 -51q-106 0 -190 45t-132 127.5t-48 189.5
t47 190.5t131.5 130.5t193.5 47q153 0 266 -94zM448 743h-87v110h87v-110z" />
    <glyph glyph-name="Idieresis.ss01" horiz-adv-x="244" 
d="M167 0h-90v700h90v-700zM78 853v-110h-81v110h81zM247 853v-110h-81v110h81z" />
    <glyph glyph-name="Idotaccent.ss01" horiz-adv-x="244" 
d="M167 0h-90v700h90v-700zM165 743h-87v110h87v-110z" />
    <glyph glyph-name="Ldot.ss01" horiz-adv-x="490" 
d="M167 109q0 -16 -3 -24l2 -2q7 3 25 3h288v-86h-402v700h90v-591zM311 467h107v-114h-107v114z" />
    <glyph glyph-name="Odieresis.ss01" horiz-adv-x="804" 
d="M590 668q83 -47 130 -130t47 -188t-47 -188t-130 -130t-188 -47t-188 47t-130 130t-47 188t47 188t130 130t188 47t188 -47zM264 588q-61 -35 -95 -97t-34 -141t34 -141t95 -97t138 -35t138 35t95 97t34 141t-34 141t-95 97t-138 35t-138 -35zM358 853v-110h-81v110h81z
M527 853v-110h-81v110h81z" />
    <glyph glyph-name="Udieresis.ss01" horiz-adv-x="681" 
d="M613 261q0 -84 -33.5 -146t-95 -95.5t-143.5 -33.5q-83 0 -144.5 33.5t-95 95.5t-33.5 146v439h94v-435q0 -88 48 -137.5t131 -49.5q82 0 130 49.5t48 137.5v435h94v-439zM297 853v-110h-81v110h81zM466 853v-110h-81v110h81z" />
    <glyph glyph-name="Wdieresis.ss01" horiz-adv-x="949" 
d="M626 310q20 -55 26 -77.5t10 -53.5h4q4 31 10.5 56.5t23.5 73.5l134 391h103l-268 -711h-10l-163 436q-10 26 -13.5 45t-5.5 43h-4q-3 -25 -6.5 -44t-12.5 -44l-164 -436h-10l-268 711h104l133 -391q17 -48 23.5 -73.5t10.5 -56.5h4q4 32 11 55.5t25 75.5l146 401h12z
M431 853v-110h-81v110h81zM600 853v-110h-81v110h81z" />
    <glyph glyph-name="Ydieresis.ss01" horiz-adv-x="555" 
d="M322 277v-277h-90v277l-225 423h108l117 -238q24 -51 31.5 -69.5t12.5 -44.5h2q5 25 12 42.5t33 71.5l117 238h108zM233 853v-110h-81v110h81zM402 853v-110h-81v110h81z" />
    <glyph glyph-name="Zdotaccent.ss01" horiz-adv-x="583" 
d="M564 696l-401 -620l1 -3q11 8 26.5 11.5t44.5 3.5h330l-46 -88h-504l-3 4l404 620l-2 3q-12 -8 -30 -11.5t-52 -3.5h-278l44 88h465zM358 743h-87v110h87v-110z" />
    <glyph glyph-name="Adieresis.ss02" horiz-adv-x="686" 
d="M161.5 676q-17.5 17 -17.5 43t17.5 43.5t43.5 17.5q25 0 42.5 -17.5t17.5 -43.5q0 -25 -17 -42.5t-43 -17.5t-43.5 17zM438.5 676.5q-17.5 17.5 -17.5 42.5q0 26 17.5 43.5t42.5 17.5q26 0 43.5 -17.5t17.5 -43.5q0 -25 -17.5 -42.5t-43.5 -17.5q-25 0 -42.5 17.5z
M338 715h10l327 -715h-101l-87 196h-288l-87 -196h-101zM280 273h126q38 0 56 -2l1 1q-15 19 -31 57l-62 146q-22 57 -25 82h-4q-3 -25 -25 -82l-62 -146q-16 -38 -31 -57l1 -1q18 2 56 2z" />
    <glyph glyph-name="Idieresis.ss02" horiz-adv-x="244" 
d="M-51.5 677.5q-17.5 17.5 -17.5 43.5t17.5 43t43.5 17t43 -17t17 -43t-17.5 -43.5t-42.5 -17.5q-26 0 -43.5 17.5zM209.5 677.5q-17.5 17.5 -17.5 43.5t17.5 43t43.5 17t43 -17t17 -43t-17.5 -43.5t-42.5 -17.5q-26 0 -43.5 17.5zM167 0h-90v700h90v-700z" />
    <glyph glyph-name="Odieresis.ss02" horiz-adv-x="804" 
d="M83.5 677.5q-17.5 17.5 -17.5 43.5t17.5 43t43.5 17t43 -17t17 -43t-17.5 -43.5t-42.5 -17.5q-26 0 -43.5 17.5zM635.5 677.5q-17.5 17.5 -17.5 43.5t17.5 43t43.5 17t43 -17t17 -43t-17.5 -43.5t-42.5 -17.5q-26 0 -43.5 17.5zM590 668q83 -47 130 -130t47 -188
t-47 -188t-130 -130t-188 -47t-188 47t-130 130t-47 188t47 188t130 130t188 47t188 -47zM264 588q-61 -35 -95 -97t-34 -141t34 -141t95 -97t138 -35t138 35t95 97t34 141t-34 141t-95 97t-138 35t-138 -35z" />
    <glyph glyph-name="Udieresis.ss02" horiz-adv-x="681" 
d="M299.5 764q17.5 -17 17.5 -43t-17.5 -43.5t-43.5 -17.5q-25 0 -42.5 17.5t-17.5 43.5t17.5 43t42.5 17q26 0 43.5 -17zM468 764q17 -17 17 -43t-17.5 -43.5t-42.5 -17.5t-43 18t-18 43t17.5 42.5t43.5 17.5t43 -17zM613 261q0 -84 -33.5 -146t-95 -95.5t-143.5 -33.5
q-83 0 -144.5 33.5t-95 95.5t-33.5 146v439h94v-435q0 -88 48 -137.5t131 -49.5q82 0 130 49.5t48 137.5v435h94v-439z" />
    <glyph glyph-name="Wdieresis.ss02" horiz-adv-x="949" 
d="M295.5 677.5q-17.5 17.5 -17.5 43.5t17.5 43t43.5 17t43 -17t17 -43t-17.5 -43.5t-42.5 -17.5q-26 0 -43.5 17.5zM569.5 677.5q-17.5 17.5 -17.5 43.5t17.5 43t43.5 17t43 -17t17 -43t-17.5 -43.5t-42.5 -17.5q-26 0 -43.5 17.5zM626 310q20 -55 26 -77.5t10 -53.5h4
q4 31 10.5 56.5t23.5 73.5l134 391h103l-268 -711h-10l-163 436q-10 26 -13.5 45t-5.5 43h-4q-3 -25 -6.5 -44t-12.5 -44l-164 -436h-10l-268 711h104l133 -391q17 -48 23.5 -73.5t10.5 -56.5h4q4 32 11 55.5t25 75.5l146 401h12z" />
    <glyph glyph-name="Ydieresis.ss02" horiz-adv-x="555" 
d="M160.5 677.5q-17.5 17.5 -17.5 43.5t17.5 43t43.5 17t43 -17t17 -43t-17.5 -43.5t-42.5 -17.5q-26 0 -43.5 17.5zM308.5 677.5q-17.5 17.5 -17.5 43.5t17.5 43t43.5 17t43 -17t17 -43t-17.5 -43.5t-42.5 -17.5q-26 0 -43.5 17.5zM322 277v-277h-90v277l-225 423h108
l117 -238q24 -51 31.5 -69.5t12.5 -44.5h2q5 25 12 42.5t33 71.5l117 238h108z" />
    <glyph glyph-name="Adieresis.ss01.ss02" horiz-adv-x="686" 
d="M338 715h10l327 -715h-101l-87 196h-288l-87 -196h-101zM280 273h126q38 0 56 -2l1 1q-15 19 -31 57l-62 146q-22 57 -25 82h-4q-3 -25 -25 -82l-62 -146q-16 -38 -31 -57l1 -1q18 2 56 2z" />
    <glyph glyph-name="Idieresis.ss01.ss02" horiz-adv-x="244" 
d="M167 0h-90v700h90v-700z" />
    <glyph glyph-name="Odieresis.ss01.ss02" horiz-adv-x="804" 
d="M590 668q83 -47 130 -130t47 -188t-47 -188t-130 -130t-188 -47t-188 47t-130 130t-47 188t47 188t130 130t188 47t188 -47zM264 588q-61 -35 -95 -97t-34 -141t34 -141t95 -97t138 -35t138 35t95 97t34 141t-34 141t-95 97t-138 35t-138 -35z" />
    <glyph glyph-name="Udieresis.ss01.ss02" horiz-adv-x="681" 
d="M613 261q0 -84 -33.5 -146t-95 -95.5t-143.5 -33.5q-83 0 -144.5 33.5t-95 95.5t-33.5 146v439h94v-435q0 -88 48 -137.5t131 -49.5q82 0 130 49.5t48 137.5v435h94v-439z" />
    <glyph glyph-name="Wdieresis.ss01.ss02" horiz-adv-x="949" 
d="M626 310q20 -55 26 -77.5t10 -53.5h4q4 31 10.5 56.5t23.5 73.5l134 391h103l-268 -711h-10l-163 436q-10 26 -13.5 45t-5.5 43h-4q-3 -25 -6.5 -44t-12.5 -44l-164 -436h-10l-268 711h104l133 -391q17 -48 23.5 -73.5t10.5 -56.5h4q4 32 11 55.5t25 75.5l146 401h12z
" />
    <glyph glyph-name="Ydieresis.ss01.ss02" horiz-adv-x="555" 
d="M322 277v-277h-90v277l-225 423h108l117 -238q24 -51 31.5 -69.5t12.5 -44.5h2q5 25 12 42.5t33 71.5l117 238h108z" />
    <glyph glyph-name="uni0259" unicode="&#x259;" horiz-adv-x="523" 
d="M93 50.5q-59 65.5 -59 178.5v17h316q41 0 55 -7l2 2l-4 11q-6 68 -47 106t-108 38q-44 0 -79 -17t-70 -57l-53 55q79 100 203 100q72 0 126.5 -30.5t84.5 -85.5t30 -128q0 -74 -29 -130.5t-82.5 -87t-124.5 -30.5q-102 0 -161 65.5zM356.5 96q38.5 34 45.5 93l-1 1
q-20 -9 -52 -9h-159q-30 0 -44 1.5t-22 6.5l-1 -1q4 -60 39.5 -93t94.5 -33q61 0 99.5 34z" />
    <glyph glyph-name="uni0292" unicode="&#x292;" horiz-adv-x="440" 
d="M81.5 -200.5q-56.5 14.5 -104.5 41.5l36 78q101 -53 187 -53q67 0 103.5 32.5t36.5 94.5q0 127 -159 127h-93v70l210 199l-2 2q-18 -6 -33.5 -8t-41.5 -2h-198v81h375v-84l-216 -198l2 -3q26 9 50 9q57 0 101.5 -23.5t69.5 -67.5t25 -103q0 -96 -62 -151.5t-172 -55.5
q-58 0 -114.5 14.5z" />
    <glyph glyph-name="uni01E5" unicode="&#x1e5;" horiz-adv-x="581" 
d="M571 -76h-66q-44 -139 -237 -139q-118 0 -203 55l41 76q43 -26 82 -38t82 -12q48 0 84 15t57 43h-185v30h201q9 22 9 49v22q0 42 7 74l-4 1q-26 -56 -72 -85t-108 -29q-66 0 -117.5 31t-80 86.5t-28.5 127.5t28.5 128t80 87t117.5 31q63 0 109 -29.5t71 -85.5l4 1
q-9 27 -9 99h84v-446q0 -30 -5 -62h58v-30zM393 111.5q46 46.5 46 119.5t-46 119.5t-118 46.5q-70 0 -111 -44.5t-41 -121.5t40.5 -121.5t110.5 -44.5q73 0 119 46.5z" />
    <glyph glyph-name="uni01E9" unicode="&#x1e9;" horiz-adv-x="479" 
d="M153 355q0 -63 -8 -96l3 -1l188 204h113l-170 -172q-30 -30 -47 -38l1 -4q15 -6 45 -35l199 -213h-114l-215 237l-3 -2q8 -32 8 -95v-140h-85v715h85v-360zM382 859l-114 -116h-93l-114 116v4h79l33 -32q25 -25 34.5 -36.5t12.5 -25.5h3q4 14 13.5 25.5t34.5 36.5l32 32
h79v-4z" />
    <glyph glyph-name="uni0233" unicode="&#x233;" horiz-adv-x="487" 
d="M194 -201h-88l100 232l-196 431h97l113 -266q12 -29 18 -48.5t7 -44.5h4q1 21 5.5 38.5t14.5 42.5l116 278h92zM389 606h-286v62h286v-62z" />
    <glyph glyph-name="adieresis.ss01" horiz-adv-x="503" 
d="M394.5 432q46.5 -45 46.5 -141v-291h-86q0 24 2.5 40t9.5 38l-3 2q-25 -46 -67 -70.5t-95 -24.5q-77 0 -124 45t-47 118q0 75 47 119t125 44q54 0 95.5 -22t64.5 -62l3 2q-6 20 -8 69q-4 100 -115 100q-58 0 -139 -26l-24 77q87 28 169 28q99 0 145.5 -45zM151.5 214
q-30.5 -26 -30.5 -67q0 -42 30 -66.5t80 -24.5q51 0 85 26t34 66t-34 66t-85 26q-49 0 -79.5 -26zM209 578h-81v122h81v-122zM381 578h-81v122h81v-122z" />
    <glyph glyph-name="cdotaccent.ss01" horiz-adv-x="471" 
d="M154.5 16q-57.5 31 -89.5 87t-32 128t32 128t89.5 87t131.5 31q86 0 158 -47l-41 -72q-56 37 -120 37q-70 0 -115 -46t-45 -118t45 -118t115 -46q64 0 120 37l41 -72q-72 -47 -158 -47q-74 0 -131.5 31zM318 569h-96v131h96v-131z" />
    <glyph glyph-name="edieresis.ss01" horiz-adv-x="523" 
d="M430 411.5q59 -65.5 59 -178.5v-17h-316q-41 0 -55 7l-2 -2l4 -11q6 -68 47 -106t108 -38q44 0 79 17t70 57l53 -55q-79 -100 -203 -100q-72 0 -126.5 30.5t-84.5 85.5t-30 128q0 74 29 130.5t82.5 87t124.5 30.5q102 0 161 -65.5zM166.5 366q-38.5 -34 -45.5 -93l1 -1
q20 9 52 9h159q30 0 44 -1.5t22 -6.5l1 1q-4 60 -39.5 93t-94.5 33q-61 0 -99.5 -34zM225 578h-81v122h81v-122zM397 578h-81v122h81v-122z" />
    <glyph glyph-name="edotaccent.ss01" horiz-adv-x="523" 
d="M430 411.5q59 -65.5 59 -178.5v-17h-316q-41 0 -55 7l-2 -2l4 -11q6 -68 47 -106t108 -38q44 0 79 17t70 57l53 -55q-79 -100 -203 -100q-72 0 -126.5 30.5t-84.5 85.5t-30 128q0 74 29 130.5t82.5 87t124.5 30.5q102 0 161 -65.5zM166.5 366q-38.5 -34 -45.5 -93l1 -1
q20 9 52 9h159q30 0 44 -1.5t22 -6.5l1 1q-4 60 -39.5 93t-94.5 33q-61 0 -99.5 -34zM318 569h-96v131h96v-131z" />
    <glyph glyph-name="gdotaccent.ss01" horiz-adv-x="581" 
d="M368 447.5q46 -29.5 71 -85.5l4 1q-9 27 -9 99h84v-446q0 -115 -63 -173t-187 -58q-118 0 -203 55l41 76q43 -26 82 -38t82 -12q76 0 121 37.5t45 99.5v22q0 42 7 74l-4 1q-26 -56 -72 -85t-108 -29q-66 0 -117.5 31t-80 86.5t-28.5 127.5t28.5 128t80 87t117.5 31
q63 0 109 -29.5zM164 352.5q-41 -44.5 -41 -121.5t40.5 -121.5t110.5 -44.5q73 0 119 46.5t46 119.5t-46 119.5t-118 46.5q-70 0 -111 -44.5zM322 569h-96v131h96v-131z" />
    <glyph glyph-name="i.ss01" horiz-adv-x="221" 
d="M153 0h-85v462h85v-462zM159 569h-96v131h96v-131z" />
    <glyph glyph-name="idieresis.ss01" horiz-adv-x="221" 
d="M153 0h-85v462h85v-462zM85 578h-81v122h81v-122zM217 578h-81v122h81v-122z" />
    <glyph glyph-name="i.loclTRK.ss01" horiz-adv-x="221" 
d="M153 0h-85v462h85v-462zM159 569h-96v131h96v-131z" />
    <glyph glyph-name="ij.ss01" horiz-adv-x="442" 
d="M153 0h-85v462h85v-462zM159 569h-96v131h96v-131zM374 -34q0 -92 -44 -136.5t-126 -44.5h-7v83h7q44 0 64.5 25t20.5 73v496h85v-496zM380 569h-96v131h96v-131z" />
    <glyph glyph-name="iogonek.ss01" horiz-adv-x="221" 
d="M153 0h-85v462h85v-462zM159 569h-96v131h96v-131zM113 9q-48 -37 -70.5 -63.5t-22.5 -47.5q0 -15 10.5 -23t29.5 -8q22 0 43 6l13 -49q-35 -13 -68 -13q-38 0 -63 19t-25 52q0 36 29 69.5t90 75.5z" />
    <glyph glyph-name="j.ss01" horiz-adv-x="221" 
d="M153 -34q0 -92 -44 -136.5t-126 -44.5h-7v83h7q44 0 64.5 25t20.5 73v496h85v-496zM159 569h-96v131h96v-131z" />
    <glyph glyph-name="ldot.ss01" horiz-adv-x="315" 
d="M153 0h-85v715h85v-715zM202 462h107v-114h-107v114z" />
    <glyph glyph-name="odieresis.ss01" horiz-adv-x="570" 
d="M414 445q57 -32 89.5 -88t32.5 -126t-32.5 -126t-89.5 -88t-129 -32t-129.5 32t-90 88t-32.5 126t32.5 126t90 88t129.5 32t129 -32zM168 349q-45 -45 -45 -118t45 -118t117 -45t117 45t45 118t-45 118t-117 45t-117 -45zM240 578h-81v122h81v-122zM412 578h-81v122h81
v-122z" />
    <glyph glyph-name="udieresis.ss01" horiz-adv-x="524" 
d="M462 0h-83q0 69 10 109l-4 1q-23 -63 -63 -94t-102 -31q-77 0 -120 50.5t-43 141.5v285h87v-271q0 -61 28 -93t80 -32q60 0 93 46.5t33 131.5v218h84v-462zM216 578h-81v122h81v-122zM388 578h-81v122h81v-122z" />
    <glyph glyph-name="wdieresis.ss01" horiz-adv-x="706" 
d="M10 462h96l84 -231q11 -31 15 -47t5 -37h4q3 20 8 35t20 50l101 238h21l100 -238q15 -35 20 -50t8 -35h4q1 20 5 35.5t16 48.5l84 231h95l-188 -468h-22l-110 253q-11 27 -15.5 41t-5.5 31h-4q-2 -18 -6 -32.5t-15 -39.5l-110 -253h-21zM308 578h-81v122h81v-122z
M480 578h-81v122h81v-122z" />
    <glyph glyph-name="ydieresis.ss01" horiz-adv-x="487" 
d="M194 -201h-88l100 232l-196 431h97l113 -266q12 -29 18 -48.5t7 -44.5h4q1 21 5.5 38.5t14.5 42.5l116 278h92zM201 578h-81v122h81v-122zM373 578h-81v122h81v-122z" />
    <glyph glyph-name="zdotaccent.ss01" horiz-adv-x="453" 
d="M7 5l297 390l-2 2q-20 -10 -38 -13t-57 -3h-173l51 81h358l2 -4l-293 -390l2 -3q17 10 37 13t65 3h188l-51 -81h-383zM303 569h-96v131h96v-131z" />
    <glyph glyph-name="germandbls.ss03" horiz-adv-x="529" 
d="M285 630h-26q-52 0 -79 -24t-27 -80v-59q0 -37 -8 -61l3 -1l43 57h292l2 -6l-91 -146q-21 -35 -33 -45v-3q60 -20 91 -56.5t31 -108.5q0 -62 -29 -115.5t-75 -98.5t-114 -98l-56 66q94 72 141.5 128t47.5 110t-36.5 81.5t-90.5 43.5l-20 6l-1 2l81 123q22 36 27 41l-1 1
q-13 -5 -49 -5h-116q-34 0 -43 4l-2 -2q4 -14 5 -28t1 -31v-325h-85v518q0 101 51.5 146t126.5 45h39v-79z" />
    <glyph glyph-name="wdieresis.ss01.ss04" horiz-adv-x="738" 
d="M576 0h-89l-79 240q-20 61 -27 88t-10 64h-4q-4 -37 -10.5 -64t-26.5 -88l-79 -240h-89l-152 462h95l71 -237q14 -45 20.5 -78t9.5 -72h3q4 39 11 68.5t24 82.5l79 236h92l78 -236q17 -53 24 -82.5t11 -68.5h4q3 39 9.5 72t20.5 78l71 237h95zM323 578h-81v122h81v-122z
M495 578h-81v122h81v-122z" />
    <glyph glyph-name="v.ss04" horiz-adv-x="484" 
d="M288 0h-92l-186 462h99l95 -255q15 -41 23.5 -72.5t13.5 -69.5h3q4 38 12.5 69.5t24.5 72.5l94 255h99z" />
    <glyph glyph-name="w.ss04" horiz-adv-x="738" 
d="M576 0h-89l-79 240q-20 61 -27 88t-10 64h-4q-4 -37 -10.5 -64t-26.5 -88l-79 -240h-89l-152 462h95l71 -237q14 -45 20.5 -78t9.5 -72h3q4 39 11 68.5t24 82.5l79 236h92l78 -236q17 -53 24 -82.5t11 -68.5h4q3 39 9.5 72t20.5 78l71 237h95z" />
    <glyph glyph-name="wacute.ss04" horiz-adv-x="738" 
d="M576 0h-89l-79 240q-20 61 -27 88t-10 64h-4q-4 -37 -10.5 -64t-26.5 -88l-79 -240h-89l-152 462h95l71 -237q14 -45 20.5 -78t9.5 -72h3q4 39 11 68.5t24 82.5l79 236h92l78 -236q17 -53 24 -82.5t11 -68.5h4q3 39 9.5 72t20.5 78l71 237h95zM531 704l-132 -151h-59
l-1 3l93 151h98z" />
    <glyph glyph-name="wcircumflex.ss04" horiz-adv-x="738" 
d="M576 0h-89l-79 240q-20 61 -27 88t-10 64h-4q-4 -37 -10.5 -64t-26.5 -88l-79 -240h-89l-152 462h95l71 -237q14 -45 20.5 -78t9.5 -72h3q4 39 11 68.5t24 82.5l79 236h92l78 -236q17 -53 24 -82.5t11 -68.5h4q3 39 9.5 72t20.5 78l71 237h95zM524 555v-2h-74l-42 59
q-20 29 -26.5 41t-11.5 26h-2q-4 -14 -10.5 -26t-26.5 -41l-42 -59h-74v2l111 152h87z" />
    <glyph glyph-name="wdieresis.ss04" horiz-adv-x="738" 
d="M576 0h-89l-79 240q-20 61 -27 88t-10 64h-4q-4 -37 -10.5 -64t-26.5 -88l-79 -240h-89l-152 462h95l71 -237q14 -45 20.5 -78t9.5 -72h3q4 39 11 68.5t24 82.5l79 236h92l78 -236q17 -53 24 -82.5t11 -68.5h4q3 39 9.5 72t20.5 78l71 237h95zM314 682.5
q17 -17.5 17 -43.5t-17 -43.5t-44 -17.5t-44 17.5t-17 43.5t17 43.5t44 17.5t44 -17.5zM510 682.5q17 -17.5 17 -43.5t-17 -43.5t-44 -17.5t-44 17.5t-17 43.5t17 43.5t44 17.5t44 -17.5z" />
    <glyph glyph-name="wgrave.ss04" horiz-adv-x="738" 
d="M576 0h-89l-79 240q-20 61 -27 88t-10 64h-4q-4 -37 -10.5 -64t-26.5 -88l-79 -240h-89l-152 462h95l71 -237q14 -45 20.5 -78t9.5 -72h3q4 39 11 68.5t24 82.5l79 236h92l78 -236q17 -53 24 -82.5t11 -68.5h4q3 39 9.5 72t20.5 78l71 237h95zM206 704l1 3h96l95 -151
l-1 -3h-59z" />
    <glyph glyph-name="t_z" horiz-adv-x="580" 
d="M503 205.5q31 -36.5 31 -108.5q0 -62 -29 -115.5t-75 -98.5t-114 -98l-56 66q94 72 141.5 127.5t47.5 110.5q0 54 -37 81.5t-91 43.5l-20 5l-1 2l82 124q22 35 28 41l-1 1q-15 -5 -50 -5h-127q-17 0 -24.5 1.5t-13.5 5.5l-3 -2q4 -15 4 -48v-339h-84v339q0 33 4 48l-2 2
q-6 -4 -14 -5.5t-25 -1.5h-48v80h48q28 0 39 -7l2 2q-4 15 -4 47v145l79 60h5v-205q0 -32 -4 -47l3 -2q11 7 38 7h302l2 -6l-91 -146q-21 -35 -33 -45v-3q60 -20 91 -56.5z" />
    <glyph glyph-name="f_f_i.ss01" horiz-adv-x="867" 
d="M296 630h-8q-45 0 -68.5 -24t-23.5 -80v-38q0 -4 -1 -14.5t-3 -16.5l2 -2q11 7 39 7h62v-80h-62q-17 0 -25 1.5t-14 5.5l-2 -2q4 -15 4 -48v-339h-84v339q0 33 4 48l-2 2q-6 -4 -14 -5.5t-25 -1.5h-50v80h50q28 0 39 -7l2 2q-4 11 -4 30v32q0 100 49.5 145t120.5 45h14
v-79zM619 630h-8q-45 0 -68.5 -24t-23.5 -80v-38q0 -4 -1 -14.5t-3 -16.5l2 -2q11 7 39 7h62v-80h-62q-17 0 -25 1.5t-14 5.5l-2 -2q4 -15 4 -48v-339h-84v339q0 33 4 48l-2 2q-6 -4 -14 -5.5t-25 -1.5h-50v80h50q28 0 39 -7l2 2q-4 11 -4 30v32q0 100 49.5 145t120.5 45h14
v-79zM799 0h-85v462h85v-462zM805 569h-96v131h96v-131z" />
    <glyph glyph-name="fi.ss01" horiz-adv-x="544" 
d="M296 630h-8q-45 0 -68.5 -24t-23.5 -80v-38q0 -4 -1 -14.5t-3 -16.5l2 -2q11 7 39 7h62v-80h-62q-17 0 -25 1.5t-14 5.5l-2 -2q4 -15 4 -48v-339h-84v339q0 33 4 48l-2 2q-6 -4 -14 -5.5t-25 -1.5h-50v80h50q28 0 39 -7l2 2q-4 11 -4 30v32q0 100 49.5 145t120.5 45h14
v-79zM476 0h-85v462h85v-462zM482 569h-96v131h96v-131z" />
    <glyph glyph-name="a.subs" horiz-adv-x="388" 
d="M59 -90q-33 30 -33 79t34.5 78t89.5 29q79 0 113 -66l2 2q-5 20 -5 49t-19.5 45.5t-56.5 16.5q-21 0 -43 -3.5t-56 -11.5l-15 61q71 17 123 17q73 0 108 -30t35 -97v-189h-78q0 34 8 63l-2 2q-16 -35 -46 -55t-73 -20q-53 0 -86 30zM225.5 -45.5q19.5 14.5 19.5 38.5
t-19.5 38.5t-49.5 14.5t-48.5 -14.5t-18.5 -38.5q0 -25 18.5 -39t48.5 -14t49.5 14.5z" />
    <glyph glyph-name="b.subs" horiz-adv-x="429" 
d="M358 161.5q43 -44.5 43 -118.5t-43 -118.5t-108 -44.5q-93 0 -128 88l-3 -1q8 -34 8 -77h-74v472h74v-166q0 -43 -8 -77l3 -1q35 88 128 88q65 0 108 -44.5zM295.5 -25q26.5 26 26.5 68t-26.5 68t-68.5 26q-44 0 -71.5 -26t-27.5 -68t27.5 -68t71.5 -26q42 0 68.5 26z
" />
    <glyph glyph-name="c.subs" horiz-adv-x="338" 
d="M313 175l-33 -62q-35 22 -76 22q-44 0 -71.5 -25.5t-27.5 -66.5t27.5 -66.5t71.5 -25.5q41 0 76 22l33 -62q-53 -31 -114 -31q-75 0 -123 45t-48 118t48 118t123 45q61 0 114 -31z" />
    <glyph glyph-name="d.subs" horiz-adv-x="429" 
d="M376 362v-472h-74q0 43 8 77l-3 1q-35 -88 -128 -88q-65 0 -108 44.5t-43 118.5t43 118.5t108 44.5q93 0 128 -88l3 1q-8 34 -8 77v166h74zM274 -25q27 26 27 68t-27 68t-71 26q-42 0 -69 -26t-27 -68t27 -68t69 -26q44 0 71 26z" />
    <glyph glyph-name="e.subs" horiz-adv-x="378" 
d="M309.5 161.5q40.5 -44.5 40.5 -116.5v-21h-213q-22 0 -34 6l-1 -1l2 -7q4 -38 30.5 -58t67.5 -20q53 0 103 38l31 -58q-31 -21 -63 -32.5t-72 -11.5q-78 0 -125.5 43.5t-47.5 117.5t46 119.5t121 45.5q74 0 114.5 -44.5zM130.5 126.5q-24.5 -21.5 -28.5 -57.5l1 -2
q8 6 28 6h115q18 0 27 -5l1 1q-3 37 -24 58t-57 21q-38 0 -62.5 -21.5z" />
    <glyph glyph-name="f.subs" horiz-adv-x="257" 
d="M235 290h-8q-38 0 -54 -14t-16 -50v-12q0 -12 -5 -21l1 -1q7 4 27 4h55v-63h-55q-20 0 -27 4l-1 -1q5 -9 5 -31v-215h-74v215q0 22 4 31l-1 1q-7 -4 -27 -4h-39v63h39q20 0 27 -4l1 1q-4 7 -4 20v15q0 131 135 131h17v-69z" />
    <glyph glyph-name="g.subs" horiz-adv-x="429" 
d="M376 196v-273q0 -175 -179 -175q-82 0 -150 40l34 61q30 -19 55.5 -27.5t60.5 -8.5q106 0 106 96q0 30 7 58l-3 1q-34 -88 -126 -88q-67 0 -110 44.5t-43 118.5q0 49 20.5 86t55 57t77.5 20q45 0 77 -22.5t49 -65.5l3 1q-8 34 -8 77h74zM273.5 -25q27.5 26 27.5 68
t-27.5 68t-70.5 26q-42 0 -69 -26t-27 -68t27 -68t69 -26q43 0 70.5 26z" />
    <glyph glyph-name="h.subs" horiz-adv-x="410" 
d="M127 209q0 -56 -6 -95l3 -1q30 93 119 93q52 0 83.5 -33.5t31.5 -96.5v-186h-74v165q0 84 -69 84q-39 0 -63.5 -26.5t-24.5 -79.5v-143h-74v472h74v-153z" />
    <glyph glyph-name="i.subs" horiz-adv-x="188" 
d="M135 246h-82v106h82v-106zM131 -110h-74v306h74v-306z" />
    <glyph glyph-name="j.subs" horiz-adv-x="184" 
d="M49 352h82v-106h-82v106zM-5 -180h7q50 0 50 50v326h74v-330q0 -118 -123 -118h-8v72z" />
    <glyph glyph-name="k.subs" horiz-adv-x="365" 
d="M53 362h74v-224q0 -50 -9 -77l1 -1l133 136h97l-119 -114q-23 -23 -36 -26l1 -2q11 -3 32 -25l135 -139h-100l-143 154l-1 -1q9 -27 9 -73v-80h-74v472z" />
    <glyph glyph-name="l.subs" horiz-adv-x="181" 
d="M127 -110h-74v472h74v-472z" />
    <glyph glyph-name="m.subs" horiz-adv-x="611" 
d="M57 196h73q0 -41 -7 -72l3 -1q16 41 42.5 62t69.5 21q79 0 100 -83h3q11 39 39 61t72 22q48 0 77.5 -32t29.5 -97v-187h-74v171q0 78 -65 78q-34 0 -54.5 -22.5t-20.5 -72.5v-154h-74v168q0 81 -64 81q-34 0 -55 -23.5t-21 -74.5v-151h-74v306z" />
    <glyph glyph-name="n.subs" horiz-adv-x="414" 
d="M57 196h73q0 -53 -6 -83l3 -1q31 94 121 94q53 0 83.5 -33.5t30.5 -96.5v-186h-74v166q0 82 -69 82q-39 0 -63.5 -26t-24.5 -79v-143h-74v306z" />
    <glyph glyph-name="o.subs" horiz-adv-x="402" 
d="M325 161.5q49 -44.5 49 -118.5t-49 -118.5t-124 -44.5t-124 44.5t-49 118.5t49 118.5t124 44.5t124 -44.5zM132.5 111.5q-27.5 -25.5 -27.5 -68.5t27.5 -68.5t68.5 -25.5t68.5 25.5t27.5 68.5t-27.5 68.5t-68.5 25.5t-68.5 -25.5z" />
    <glyph glyph-name="p.subs" horiz-adv-x="429" 
d="M358 161.5q43 -44.5 43 -118.5t-43 -118.5t-108 -44.5q-93 0 -128 88l-3 -1q8 -34 8 -77v-132h-74v438h74q0 -43 -8 -77l3 -1q35 88 128 88q65 0 108 -44.5zM295.5 -25q26.5 26 26.5 68t-26.5 68t-68.5 26q-44 0 -71.5 -26t-27.5 -68t27.5 -68t71.5 -26q42 0 68.5 26z
" />
    <glyph glyph-name="q.subs" horiz-adv-x="429" 
d="M376 196v-438h-74v132q0 43 8 77l-3 1q-35 -88 -128 -88q-65 0 -108 44.5t-43 118.5t43 118.5t108 44.5q93 0 128 -88l3 1q-8 34 -8 77h74zM274 -25q27 26 27 68t-27 68t-71 26q-42 0 -69 -26t-27 -68t27 -68t69 -26q44 0 71 26z" />
    <glyph glyph-name="r.subs" horiz-adv-x="255" 
d="M248 204v-75q-15 2 -30 2q-42 0 -66.5 -28.5t-24.5 -90.5v-122h-74v306h70q0 -60 -8 -105l4 -2q10 66 37 91.5t66 25.5q10 0 26 -2z" />
    <glyph glyph-name="s.subs" horiz-adv-x="303" 
d="M17 -85l31 62q53 -34 111 -34q50 0 50 25q0 12 -7.5 17t-26.5 14l-57 23q-37 15 -55.5 37.5t-18.5 54.5q0 43 32 67.5t91 24.5q52 0 110 -22l-27 -62q-46 23 -87 23q-44 0 -44 -25q0 -11 8.5 -17.5t29.5 -15.5l53 -21q37 -14 56 -34t19 -56q0 -47 -35 -71.5t-95 -24.5
q-75 0 -138 35z" />
    <glyph glyph-name="t.subs" horiz-adv-x="241" 
d="M156 215q0 -13 -4 -22l1 -1q7 4 27 4h41v-63h-41q-20 0 -27 4l-1 -1q4 -9 4 -31v-215h-74v215q0 11 0.5 18.5t3.5 12.5l-1 1q-5 -3 -11.5 -3.5t-16.5 -0.5h-37v63h37q20 0 28 -4l1 1q-4 7 -4 22v93l66 50h8v-143z" />
    <glyph glyph-name="u.subs" horiz-adv-x="401" 
d="M348 -110h-73q0 48 10 83l-3 1q-34 -93 -118 -93q-53 0 -85 32t-32 96v187h76v-167q0 -42 18.5 -61.5t50.5 -19.5q36 0 59 24.5t23 74.5v149h74v-306z" />
    <glyph glyph-name="v.subs" horiz-adv-x="364" 
d="M194 -117h-25l-162 313h86l67 -149q2 -4 7.5 -17.5t8.5 -22.5t4 -19h4q2 13 6 24.5t8 21t6 13.5l67 149h86z" />
    <glyph glyph-name="w.subs" horiz-adv-x="531" 
d="M7 196h86l53 -130q7 -16 12.5 -32t6.5 -31h4q2 17 7 29t16 34l64 137h19l64 -137q11 -22 16 -34t7 -29h4q1 15 6.5 31t12.5 32l53 130h86l-145 -313h-20l-68 139q-11 22 -16.5 35.5t-7.5 27.5h-3q-2 -14 -7.5 -27.5t-16.5 -35.5l-69 -139h-19z" />
    <glyph glyph-name="x.subs" horiz-adv-x="374" 
d="M251 70q-9 -12 -19 -18v-2q8 -5 18 -19l113 -141h-89l-68 86q-8 9 -12 17t-5 20h-4q-4 -21 -17 -37l-68 -86h-89l112 141q2 2 7.5 9t11.5 10v2q-10 6 -19 18l-100 126h89l54 -71q15 -18 19 -37h4q2 17 18 37l55 71h89z" />
    <glyph glyph-name="y.subs" horiz-adv-x="370" 
d="M154 -242h-78l74 156l-139 282h85l69 -147q15 -35 20 -74h3q3 30 18 64l70 157h83z" />
    <glyph glyph-name="z.subs" horiz-adv-x="355" 
d="M11 -107l208 247l-1 2q-13 -6 -26 -8.5t-39 -2.5h-115l42 65h263l1 -3l-203 -246l1 -1q12 5 24 7t38 2h136l-41 -65h-287z" />
    <glyph glyph-name="a.sups" horiz-adv-x="388" 
d="M59 368q-33 30 -33 79t34.5 78t89.5 29q79 0 113 -66l2 2q-5 20 -5 49t-19.5 45.5t-56.5 16.5q-21 0 -43 -3.5t-56 -11.5l-15 61q71 17 123 17q73 0 108 -30t35 -97v-189h-78q0 34 8 63l-2 2q-16 -35 -46 -55t-73 -20q-53 0 -86 30zM225.5 412.5q19.5 14.5 19.5 38.5
t-19.5 38.5t-49.5 14.5t-48.5 -14.5t-18.5 -38.5q0 -25 18.5 -39t48.5 -14t49.5 14.5z" />
    <glyph glyph-name="b.sups" horiz-adv-x="429" 
d="M358 619.5q43 -44.5 43 -118.5t-43 -118.5t-108 -44.5q-93 0 -128 88l-3 -1q8 -34 8 -77h-74v472h74v-166q0 -43 -8 -77l3 -1q35 88 128 88q65 0 108 -44.5zM295.5 433q26.5 26 26.5 68t-26.5 68t-68.5 26q-44 0 -71.5 -26t-27.5 -68t27.5 -68t71.5 -26q42 0 68.5 26z
" />
    <glyph glyph-name="c.sups" horiz-adv-x="338" 
d="M313 633l-33 -62q-35 22 -76 22q-44 0 -71.5 -25.5t-27.5 -66.5t27.5 -66.5t71.5 -25.5q41 0 76 22l33 -62q-53 -31 -114 -31q-75 0 -123 45t-48 118t48 118t123 45q61 0 114 -31z" />
    <glyph glyph-name="d.sups" horiz-adv-x="429" 
d="M376 820v-472h-74q0 43 8 77l-3 1q-35 -88 -128 -88q-65 0 -108 44.5t-43 118.5t43 118.5t108 44.5q93 0 128 -88l3 1q-8 34 -8 77v166h74zM274 433q27 26 27 68t-27 68t-71 26q-42 0 -69 -26t-27 -68t27 -68t69 -26q44 0 71 26z" />
    <glyph glyph-name="e.sups" horiz-adv-x="378" 
d="M309.5 619.5q40.5 -44.5 40.5 -116.5v-21h-213q-22 0 -34 6l-1 -1l2 -7q4 -38 30.5 -58t67.5 -20q53 0 103 38l31 -58q-31 -21 -63 -32.5t-72 -11.5q-78 0 -125.5 43.5t-47.5 117.5t46 119.5t121 45.5q74 0 114.5 -44.5zM130.5 584.5q-24.5 -21.5 -28.5 -57.5l1 -2
q8 6 28 6h115q18 0 27 -5l1 1q-3 37 -24 58t-57 21q-38 0 -62.5 -21.5z" />
    <glyph glyph-name="f.sups" horiz-adv-x="247" 
d="M230 748h-8q-38 0 -54 -14t-16 -50v-12q0 -12 -5 -21l1 -1q7 4 27 4h55v-63h-55q-20 0 -27 4l-1 -1q5 -9 5 -31v-215h-74v215q0 22 4 31l-1 1q-7 -4 -27 -4h-39v63h39q20 0 27 -4l1 1q-4 7 -4 20v15q0 131 135 131h17v-69z" />
    <glyph glyph-name="g.sups" horiz-adv-x="429" 
d="M376 654v-273q0 -175 -179 -175q-82 0 -150 40l34 61q30 -19 55.5 -27.5t60.5 -8.5q106 0 106 96q0 30 7 58l-3 1q-34 -88 -126 -88q-67 0 -110 44.5t-43 118.5q0 49 20.5 86t55 57t77.5 20q45 0 77 -22.5t49 -65.5l3 1q-8 34 -8 77h74zM273.5 433q27.5 26 27.5 68
t-27.5 68t-70.5 26q-42 0 -69 -26t-27 -68t27 -68t69 -26q43 0 70.5 26z" />
    <glyph glyph-name="h.sups" horiz-adv-x="410" 
d="M127 667q0 -56 -6 -95l3 -1q30 93 119 93q52 0 83.5 -33.5t31.5 -96.5v-186h-74v165q0 84 -69 84q-39 0 -63.5 -26.5t-24.5 -79.5v-143h-74v472h74v-153z" />
    <glyph glyph-name="i.sups" horiz-adv-x="188" 
d="M135 704h-82v106h82v-106zM131 348h-74v306h74v-306z" />
    <glyph glyph-name="j.sups" horiz-adv-x="184" 
d="M49 810h82v-106h-82v106zM-5 278h7q50 0 50 50v326h74v-330q0 -118 -123 -118h-8v72z" />
    <glyph glyph-name="k.sups" horiz-adv-x="365" 
d="M53 820h74v-224q0 -50 -9 -77l1 -1l133 136h97l-119 -114q-23 -23 -36 -26l1 -2q11 -3 32 -25l135 -139h-100l-143 154l-1 -1q9 -27 9 -73v-80h-74v472z" />
    <glyph glyph-name="l.sups" horiz-adv-x="181" 
d="M127 348h-74v472h74v-472z" />
    <glyph glyph-name="m.sups" horiz-adv-x="611" 
d="M57 654h73q0 -41 -7 -72l3 -1q16 41 42.5 62t69.5 21q79 0 100 -83h3q11 39 39 61t72 22q48 0 77.5 -32t29.5 -97v-187h-74v171q0 78 -65 78q-34 0 -54.5 -22.5t-20.5 -72.5v-154h-74v168q0 81 -64 81q-34 0 -55 -23.5t-21 -74.5v-151h-74v306z" />
    <glyph glyph-name="n.sups" horiz-adv-x="414" 
d="M57 654h73q0 -53 -6 -83l3 -1q31 94 121 94q53 0 83.5 -33.5t30.5 -96.5v-186h-74v166q0 82 -69 82q-39 0 -63.5 -26t-24.5 -79v-143h-74v306z" />
    <glyph glyph-name="o.sups" horiz-adv-x="402" 
d="M325 619.5q49 -44.5 49 -118.5t-49 -118.5t-124 -44.5t-124 44.5t-49 118.5t49 118.5t124 44.5t124 -44.5zM132.5 569.5q-27.5 -25.5 -27.5 -68.5t27.5 -68.5t68.5 -25.5t68.5 25.5t27.5 68.5t-27.5 68.5t-68.5 25.5t-68.5 -25.5z" />
    <glyph glyph-name="p.sups" horiz-adv-x="429" 
d="M358 619.5q43 -44.5 43 -118.5t-43 -118.5t-108 -44.5q-93 0 -128 88l-3 -1q8 -34 8 -77v-132h-74v438h74q0 -43 -8 -77l3 -1q35 88 128 88q65 0 108 -44.5zM295.5 433q26.5 26 26.5 68t-26.5 68t-68.5 26q-44 0 -71.5 -26t-27.5 -68t27.5 -68t71.5 -26q42 0 68.5 26z
" />
    <glyph glyph-name="q.sups" horiz-adv-x="429" 
d="M376 654v-438h-74v132q0 43 8 77l-3 1q-35 -88 -128 -88q-65 0 -108 44.5t-43 118.5t43 118.5t108 44.5q93 0 128 -88l3 1q-8 34 -8 77h74zM274 433q27 26 27 68t-27 68t-71 26q-42 0 -69 -26t-27 -68t27 -68t69 -26q44 0 71 26z" />
    <glyph glyph-name="r.sups" horiz-adv-x="255" 
d="M248 662v-75q-15 2 -30 2q-42 0 -66.5 -28.5t-24.5 -90.5v-122h-74v306h70q0 -60 -8 -105l4 -2q10 66 37 91.5t66 25.5q10 0 26 -2z" />
    <glyph glyph-name="s.sups" horiz-adv-x="303" 
d="M17 373l31 62q53 -34 111 -34q50 0 50 25q0 12 -7.5 17t-26.5 14l-57 23q-37 15 -55.5 37.5t-18.5 54.5q0 43 32 67.5t91 24.5q52 0 110 -22l-27 -62q-46 23 -87 23q-44 0 -44 -25q0 -11 8.5 -17.5t29.5 -15.5l53 -21q37 -14 56 -34t19 -56q0 -47 -35 -71.5t-95 -24.5
q-75 0 -138 35z" />
    <glyph glyph-name="t.sups" horiz-adv-x="241" 
d="M156 673q0 -13 -4 -22l1 -1q7 4 27 4h41v-63h-41q-20 0 -27 4l-1 -1q4 -9 4 -31v-215h-74v215q0 11 0.5 18.5t3.5 12.5l-1 1q-5 -3 -11.5 -3.5t-16.5 -0.5h-37v63h37q20 0 28 -4l1 1q-4 7 -4 22v93l66 50h8v-143z" />
    <glyph glyph-name="u.sups" horiz-adv-x="401" 
d="M348 348h-73q0 48 10 83l-3 1q-34 -93 -118 -93q-53 0 -85 32t-32 96v187h76v-167q0 -42 18.5 -61.5t50.5 -19.5q36 0 59 24.5t23 74.5v149h74v-306z" />
    <glyph glyph-name="v.sups" horiz-adv-x="364" 
d="M194 341h-25l-162 313h86l67 -149q2 -4 7.5 -17.5t8.5 -22.5t4 -19h4q2 13 6 24.5t8 21t6 13.5l67 149h86z" />
    <glyph glyph-name="w.sups" horiz-adv-x="531" 
d="M7 654h86l53 -130q7 -16 12.5 -32t6.5 -31h4q2 17 7 29t16 34l64 137h19l64 -137q11 -22 16 -34t7 -29h4q1 15 6.5 31t12.5 32l53 130h86l-145 -313h-20l-68 139q-11 22 -16.5 35.5t-7.5 27.5h-3q-2 -14 -7.5 -27.5t-16.5 -35.5l-69 -139h-19z" />
    <glyph glyph-name="x.sups" horiz-adv-x="374" 
d="M251 528q-9 -12 -19 -18v-2q8 -5 18 -19l113 -141h-89l-68 86q-8 9 -12 17t-5 20h-4q-4 -21 -17 -37l-68 -86h-89l112 141q2 2 7.5 9t11.5 10v2q-10 6 -19 18l-100 126h89l54 -71q15 -18 19 -37h4q2 17 18 37l55 71h89z" />
    <glyph glyph-name="y.sups" horiz-adv-x="370" 
d="M154 216h-78l74 156l-139 282h85l69 -147q15 -35 20 -74h3q3 30 18 64l70 157h83z" />
    <glyph glyph-name="z.sups" horiz-adv-x="355" 
d="M11 351l208 247l-1 2q-13 -6 -26 -8.5t-39 -2.5h-115l42 65h263l1 -3l-203 -246l1 -1q12 5 24 7t38 2h136l-41 -65h-287z" />
    <glyph glyph-name="uni048A" unicode="&#x48a;" horiz-adv-x="715" 
d="M287 761.5q-36 36.5 -38 101.5h60q-1 -41 19 -63t57 -22q38 0 57.5 22t18.5 63h60q-2 -65 -38 -101.5t-98 -36.5t-98 36.5zM702 71l-70 -211h-73l43 140h-41v401q0 79 10 126l-4 1q-7 -17 -22 -38.5t-33 -40.5l-426 -459h-9v710h90v-400q0 -85 -9 -126l3 -1q16 36 55 78
l427 459h8v-639h51z" />
    <glyph glyph-name="uni04F6" unicode="&#x4f6;" horiz-adv-x="481" 
d="M166 619l-2 -2q3 -7 3 -25v-532h44v-200h-85v140h-49v700h394v-85h-280q-16 0 -25 4z" />
    <glyph glyph-name="uni048B" unicode="&#x48b;" horiz-adv-x="534" 
d="M180 548.5q-38 38.5 -38 106.5h61q1 -43 21.5 -64.5t55.5 -21.5t55.5 21.5t21.5 64.5h60q0 -68 -38 -106.5t-99 -38.5q-62 0 -100 38.5zM524 71l-70 -211h-73l43 140h-36v200q0 66 5 116l-4 1q-12 -27 -51 -70l-245 -254h-26v469h85v-200q0 -66 -5 -116l3 -1q15 31 52 70
l245 254h25v-398h52z" />
    <glyph glyph-name="uni04F7" unicode="&#x4f7;" horiz-adv-x="370" 
d="M148 387l-1 -1q5 -10 5 -26v-308h40v-192h-77v140h-48v462h298v-79h-189q-20 0 -28 4z" />
    <glyph glyph-name="uni048B.ss04" horiz-adv-x="550" 
d="M179 548.5q-38 38.5 -38 106.5h61q1 -43 21.5 -64.5t55.5 -21.5t55.5 21.5t21.5 64.5h60q0 -68 -38 -106.5t-99 -38.5q-62 0 -100 38.5zM539 71l-70 -211h-73l43 140h-43v217q0 78 5 132l-3 1q-14 -35 -52 -86l-198 -264h-81v462h85v-217q0 -78 -5 -132l3 -1q15 39 52 86
l198 264h81v-391h58z" />
    <glyph glyph-name="uni24FF" unicode="&#x24ff;" horiz-adv-x="830" 
d="M228.5 32.5q-83.5 47.5 -131 131t-47.5 186.5t47.5 186.5t131 131t186.5 47.5t186.5 -47.5t131 -131t47.5 -186.5t-47.5 -186.5t-131 -131t-186.5 -47.5t-186.5 47.5zM526.5 206.5q41.5 52.5 41.5 149.5t-41.5 149.5t-111.5 52.5t-111.5 -52.5t-41.5 -149.5t41.5 -149.5
t111.5 -52.5t111.5 52.5zM338.5 242.5q-27.5 42.5 -27.5 113.5t27.5 113.5t76.5 42.5t76.5 -42.5t27.5 -113.5t-27.5 -113.5t-76.5 -42.5t-76.5 42.5z" />
    <glyph glyph-name="uni2776" unicode="&#x2776;" horiz-adv-x="830" 
d="M228.5 32.5q-83.5 47.5 -131 131t-47.5 186.5t47.5 186.5t131 131t186.5 47.5t186.5 -47.5t131 -131t47.5 -186.5t-47.5 -186.5t-131 -131t-186.5 -47.5t-186.5 47.5zM448 163v386h-35l-10 -44l-82 -50v-48l64 32q3 1 10 5t11 9l2 -1q-7 -15 -7 -38v-251h47z" />
    <glyph glyph-name="uni2777" unicode="&#x2777;" horiz-adv-x="830" 
d="M228.5 32.5q-83.5 47.5 -131 131t-47.5 186.5t47.5 186.5t131 131t186.5 47.5t186.5 -47.5t131 -131t47.5 -186.5t-47.5 -186.5t-131 -131t-186.5 -47.5t-186.5 47.5zM531 172l26 42l-1 1h-149q-31 0 -45 -7l-1 3q20 12 37 33l78 93q35 41 50.5 70.5t15.5 62.5
q0 45 -30.5 71t-81.5 26q-35 0 -65.5 -10.5t-63.5 -30.5l21 -41q28 17 52.5 26.5t52.5 9.5q29 0 47 -15t18 -41q0 -27 -12.5 -47t-36.5 -50l-159 -191l3 -5h244z" />
    <glyph glyph-name="uni2778" unicode="&#x2778;" horiz-adv-x="830" 
d="M228.5 32.5q-83.5 47.5 -131 131t-47.5 186.5t47.5 186.5t131 131t186.5 47.5t186.5 -47.5t131 -131t47.5 -186.5t-47.5 -186.5t-131 -131t-186.5 -47.5t-186.5 47.5zM515.5 186.5q36.5 30.5 36.5 85.5q0 95 -116 98v3q49 3 74.5 28.5t25.5 65.5q0 43 -30.5 68t-86.5 25
q-61 0 -125 -33l20 -41q56 27 99 27q35 0 53.5 -14t18.5 -40q0 -32 -31 -50t-88 -18v-44q74 0 105 -18.5t31 -54.5t-23.5 -53.5t-66.5 -17.5q-50 0 -98 23l-20 -45q25 -12 56.5 -18.5t62.5 -6.5q66 0 102.5 30.5z" />
    <glyph glyph-name="uni2779" unicode="&#x2779;" horiz-adv-x="830" 
d="M228.5 32.5q-83.5 47.5 -131 131t-47.5 186.5t47.5 186.5t131 131t186.5 47.5t186.5 -47.5t131 -131t47.5 -186.5t-47.5 -186.5t-131 -131t-186.5 -47.5t-186.5 47.5zM492 170v56q0 8 -2 16l1 1q3 -2 14 -2h32l18 44h-51q-7 0 -13 -2h-1q2 10 2 19v254h-51l-207 -278v-37
h196q11 0 17 2l1 -1q-3 -7 -3 -18v-54h47zM291 284q9 9 15 18l119 163l12.5 17t9.5 17l2 -1q-3 -11 -3 -47v-145q0 -15 4 -23l-2 -1q-12 3 -26 3h-101q-22 0 -30 -3v2z" />
    <glyph glyph-name="uni277A" unicode="&#x277a;" horiz-adv-x="830" 
d="M228.5 32.5q-83.5 47.5 -131 131t-47.5 186.5t47.5 186.5t131 131t186.5 47.5t186.5 -47.5t131 -131t47.5 -186.5t-47.5 -186.5t-131 -131t-186.5 -47.5t-186.5 47.5zM497 188q40 36 40 101q0 58 -33.5 88.5t-89.5 30.5q-33 0 -51 -11l-1 2q8 10 10 17l21 75q4 11 1 16
l2 2q5 -5 17 -5h124l15 43h-189l-51 -189l3 -2q53 11 86 11q39 0 63 -20.5t24 -59.5q0 -43 -26 -66t-70 -23q-48 0 -97 25l-19 -44q51 -27 113 -27q68 0 108 36z" />
    <glyph glyph-name="uni277B" unicode="&#x277b;" horiz-adv-x="830" 
d="M228.5 32.5q-83.5 47.5 -131 131t-47.5 186.5t47.5 186.5t131 131t186.5 47.5t186.5 -47.5t131 -131t47.5 -186.5t-47.5 -186.5t-131 -131t-186.5 -47.5t-186.5 47.5zM486.5 176.5q31.5 19.5 49 51.5t17.5 68q0 63 -37 98.5t-93 35.5q-25 0 -45 -10t-38 -32l-3 1
q19 27 63 77l81 95h-61l-92 -118q-34 -43 -46 -76.5t-12 -71.5q0 -62 40 -100t103 -38q42 0 73.5 19.5zM343.5 228.5q-25.5 25.5 -25.5 66.5q0 40 26 65.5t67 25.5q42 0 67.5 -25t25.5 -66q0 -43 -25.5 -67.5t-67.5 -24.5t-67.5 25.5z" />
    <glyph glyph-name="uni277C" unicode="&#x277c;" horiz-adv-x="830" 
d="M228.5 32.5q-83.5 47.5 -131 131t-47.5 186.5t47.5 186.5t131 131t186.5 47.5t186.5 -47.5t131 -131t47.5 -186.5t-47.5 -186.5t-131 -131t-186.5 -47.5t-186.5 47.5zM366 153l194 383l-1 3h-246l-16 -45h166q18 0 34 6l1 -1q-9 -7 -18 -26l-164 -320h50z" />
    <glyph glyph-name="uni277D" unicode="&#x277d;" horiz-adv-x="830" 
d="M228.5 32.5q-83.5 47.5 -131 131t-47.5 186.5t47.5 186.5t131 131t186.5 47.5t186.5 -47.5t131 -131t47.5 -186.5t-47.5 -186.5t-131 -131t-186.5 -47.5t-186.5 47.5zM516 184.5q34 30.5 34 82.5q0 43 -22 69t-56 31v2q29 6 47 29t18 58q0 48 -33.5 75t-88.5 27
t-88.5 -27t-33.5 -75q0 -35 18 -58t47 -29v-2q-34 -5 -56 -31t-22 -69q0 -52 34 -82.5t101 -30.5t101 30.5zM361.5 407.5q-20.5 17.5 -20.5 45.5t20 44t54 16t54 -16t20 -44t-20.5 -45.5t-53.5 -17.5t-53.5 17.5zM352.5 219.5q-23.5 19.5 -23.5 53.5q0 33 22 53.5t64 20.5
t64 -20.5t22 -53.5q0 -34 -23 -53.5t-63 -19.5q-39 0 -62.5 19.5z" />
    <glyph glyph-name="uni277E" unicode="&#x277e;" horiz-adv-x="830" 
d="M228.5 32.5q-83.5 47.5 -131 131t-47.5 186.5t47.5 186.5t131 131t186.5 47.5t186.5 -47.5t131 -131t47.5 -186.5t-47.5 -186.5t-131 -131t-186.5 -47.5t-186.5 47.5zM413 154l102 130q47 61 47 126q0 63 -40 101t-104 38q-66 0 -105.5 -40t-39.5 -102q0 -60 37 -94.5
t92 -34.5q26 0 45 9t37 28l3 -1q-23 -31 -73 -87l-63 -73h62zM350 345.5q-27 25.5 -27 65.5q0 41 27 66.5t69 25.5q43 0 70 -25.5t27 -66.5q0 -40 -27.5 -65.5t-69.5 -25.5t-69 25.5z" />
    <glyph glyph-name="uni24EA" unicode="&#x24ea;" horiz-adv-x="830" 
d="M226 32q-83 47 -129.5 130.5t-46.5 187.5t46.5 187.5t129.5 130.5t189 47t189 -47t129.5 -130.5t46.5 -187.5t-46.5 -187.5t-129.5 -130.5t-189 -47t-189 47zM573.5 77q70.5 41 110.5 112.5t40 160.5t-40 160.5t-110.5 112.5t-158.5 41t-158.5 -41t-110.5 -112.5
t-40 -160.5t40 -160.5t110.5 -112.5t158.5 -41t158.5 41zM303.5 206.5q-41.5 52.5 -41.5 149.5t41.5 149.5t111.5 52.5t111.5 -52.5t41.5 -149.5t-41.5 -149.5t-111.5 -52.5t-111.5 52.5zM491.5 242.5q27.5 42.5 27.5 113.5t-27.5 113.5t-76.5 42.5t-76.5 -42.5
t-27.5 -113.5t27.5 -113.5t76.5 -42.5t76.5 42.5z" />
    <glyph glyph-name="uni2460" unicode="&#x2460;" horiz-adv-x="830" 
d="M226 32q-83 47 -129.5 130.5t-46.5 187.5t46.5 187.5t129.5 130.5t189 47t189 -47t129.5 -130.5t46.5 -187.5t-46.5 -187.5t-129.5 -130.5t-189 -47t-189 47zM576 73.5q71 41.5 111.5 114t40.5 162.5t-40.5 162.5t-111.5 114t-161 41.5t-161 -41.5t-111.5 -114
t-40.5 -162.5t40.5 -162.5t111.5 -114t161 -41.5t161 41.5zM405 413q0 24 7 38l-2 1q-4 -5 -11 -9t-10 -5l-64 -32v48l82 50l10 44h35v-386h-47v251z" />
    <glyph glyph-name="uni2461" unicode="&#x2461;" horiz-adv-x="830" 
d="M226 32q-83 47 -129.5 130.5t-46.5 187.5t46.5 187.5t129.5 130.5t189 47t189 -47t129.5 -130.5t46.5 -187.5t-46.5 -187.5t-129.5 -130.5t-189 -47t-189 47zM576 73.5q71 41.5 111.5 114t40.5 162.5t-40.5 162.5t-111.5 114t-161 41.5t-161 -41.5t-111.5 -114
t-40.5 -162.5t40.5 -162.5t111.5 -114t161 -41.5t161 41.5zM282 181l159 191q3 3 17 20t23 37t9 38q0 28 -18 43t-48 15q-26 0 -50.5 -9.5t-53.5 -26.5l-21 41q34 20 64.5 30.5t62.5 10.5q52 0 82.5 -26.5t30.5 -73.5q0 -31 -15.5 -59.5t-49.5 -70.5l-78 -93q-9 -13 -37 -32
l1 -1q7 4 32 4h31h132l-26 -43h-244z" />
    <glyph glyph-name="uni2462" unicode="&#x2462;" horiz-adv-x="830" 
d="M226 32q-83 47 -129.5 130.5t-46.5 187.5t46.5 187.5t129.5 130.5t189 47t189 -47t129.5 -130.5t46.5 -187.5t-46.5 -187.5t-129.5 -130.5t-189 -47t-189 47zM576 73.5q71 41.5 111.5 114t40.5 162.5t-40.5 162.5t-111.5 114t-161 41.5t-161 -41.5t-111.5 -114
t-40.5 -162.5t40.5 -162.5t111.5 -114t161 -41.5t161 41.5zM300 188l20 45q46 -24 94 -24q44 0 69 18.5t25 53.5q0 36 -29.5 54t-100.5 18v46q53 0 83 18t30 48q0 55 -75 55q-43 0 -96 -28l-20 41q64 34 124 34q57 0 87 -26t30 -68t-26.5 -66t-72.5 -27v-2q55 -2 85 -24.5
t30 -73.5q0 -53 -35.5 -85t-106.5 -32q-70 0 -115 25z" />
    <glyph glyph-name="uni2463" unicode="&#x2463;" horiz-adv-x="830" 
d="M226 32q-83 47 -129.5 130.5t-46.5 187.5t46.5 187.5t129.5 130.5t189 47t189 -47t129.5 -130.5t46.5 -187.5t-46.5 -187.5t-129.5 -130.5t-189 -47t-189 47zM576 73.5q71 41.5 111.5 114t40.5 162.5t-40.5 162.5t-111.5 114t-161 41.5t-161 -41.5t-111.5 -114
t-40.5 -162.5t40.5 -162.5t111.5 -114t161 -41.5t161 41.5zM450 222q0 8 2 18l-1 1q-5 -2 -17 -2h-196v36l207 279h51v-254q0 -14 -2 -19h1q4 1 14 1h50l-18 -43h-31q-11 0 -15 2l-1 -1q2 -4 2 -16v-56h-46v54zM325 282h102q18 0 25 -2l2 1q-3 5 -3 23v144q0 36 2 47l-2 1
q-3 -9 -10 -18t-12 -16l-118 -163q-11 -14 -16 -18l1 -1q10 2 29 2z" />
    <glyph glyph-name="uni2464" unicode="&#x2464;" horiz-adv-x="830" 
d="M226 32q-83 47 -129.5 130.5t-46.5 187.5t46.5 187.5t129.5 130.5t189 47t189 -47t129.5 -130.5t46.5 -187.5t-46.5 -187.5t-129.5 -130.5t-189 -47t-189 47zM576 73.5q71 41.5 111.5 114t40.5 162.5t-40.5 162.5t-111.5 114t-161 41.5t-161 -41.5t-111.5 -114
t-40.5 -162.5t40.5 -162.5t111.5 -114t161 -41.5t161 41.5zM278 186l19 43q49 -25 94 -25q46 0 72.5 23.5t26.5 66.5q0 39 -24 59.5t-63 20.5q-38 0 -86 -12l-2 3l50 188h189l-15 -43h-125q-11 0 -17 5l-2 -2q1 -2 1 -5t-2 -11l-21 -75q-2 -7 -10 -17l2 -2q18 11 51 11
q56 0 89.5 -30.5t33.5 -87.5q0 -65 -40.5 -101.5t-110.5 -36.5q-59 0 -110 28z" />
    <glyph glyph-name="uni2465" unicode="&#x2465;" horiz-adv-x="830" 
d="M226 32q-83 47 -129.5 130.5t-46.5 187.5t46.5 187.5t129.5 130.5t189 47t189 -47t129.5 -130.5t46.5 -187.5t-46.5 -187.5t-129.5 -130.5t-189 -47t-189 47zM576 73.5q71 41.5 111.5 114t40.5 162.5t-40.5 162.5t-111.5 114t-161 41.5t-161 -41.5t-111.5 -114
t-40.5 -162.5t40.5 -162.5t111.5 -114t161 -41.5t161 41.5zM308 196q-40 38 -40 99q0 38 12 71.5t46 77.5l92 118h61l-80 -95q-48 -55 -64 -77l3 -2q19 22 38.5 32t44.5 10q56 0 93 -35.5t37 -98.5q0 -36 -17.5 -68t-49 -51t-73.5 -19q-63 0 -103 38zM477 228q25 24 25 68
q0 41 -25.5 65.5t-66.5 24.5q-42 0 -67.5 -24.5t-25.5 -65.5t25.5 -66.5t67.5 -25.5t67 24z" />
    <glyph glyph-name="uni2466" unicode="&#x2466;" horiz-adv-x="830" 
d="M226 32q-83 47 -129.5 130.5t-46.5 187.5t46.5 187.5t129.5 130.5t189 47t189 -47t129.5 -130.5t46.5 -187.5t-46.5 -187.5t-129.5 -130.5t-189 -47t-189 47zM576 73.5q71 41.5 111.5 114t40.5 162.5t-40.5 162.5t-111.5 114t-161 41.5t-161 -41.5t-111.5 -114
t-40.5 -162.5t40.5 -162.5t111.5 -114t161 -41.5t161 41.5zM479 475q8 16 18 26l-1 1q-14 -6 -33 -6h-164l16 45h246v-2l-194 -384h-49z" />
    <glyph glyph-name="uni2467" unicode="&#x2467;" horiz-adv-x="830" 
d="M226 32q-83 47 -129.5 130.5t-46.5 187.5t46.5 187.5t129.5 130.5t189 47t189 -47t129.5 -130.5t46.5 -187.5t-46.5 -187.5t-129.5 -130.5t-189 -47t-189 47zM576 73.5q71 41.5 111.5 114t40.5 162.5t-40.5 162.5t-111.5 114t-161 41.5t-161 -41.5t-111.5 -114
t-40.5 -162.5t40.5 -162.5t111.5 -114t161 -41.5t161 41.5zM314 191q-34 31 -34 83q0 39 22.5 66.5t55.5 32.5v2q-29 5 -47 28t-18 58q0 49 33 76t89 27t89 -27t33 -76q0 -35 -18 -58t-47 -28v-2q33 -5 55.5 -32.5t22.5 -66.5q0 -52 -34 -83t-101 -31t-101 31zM468.5 413.5
q20.5 17.5 20.5 45.5t-20 43.5t-54 15.5t-54 -15.5t-20 -43.5t20.5 -45.5t53.5 -17.5t53.5 17.5zM478 225.5q23 19.5 23 53.5q0 31 -22 52t-64 21t-64 -21t-22 -52q0 -34 23.5 -53.5t62.5 -19.5q40 0 63 19.5z" />
    <glyph glyph-name="uni2468" unicode="&#x2468;" horiz-adv-x="830" 
d="M226 32q-83 47 -129.5 130.5t-46.5 187.5t46.5 187.5t129.5 130.5t189 47t189 -47t129.5 -130.5t46.5 -187.5t-46.5 -187.5t-129.5 -130.5t-189 -47t-189 47zM576 73.5q71 41.5 111.5 114t40.5 162.5t-40.5 162.5t-111.5 114t-161 41.5t-161 -41.5t-111.5 -114
t-40.5 -162.5t40.5 -162.5t111.5 -114t161 -41.5t161 41.5zM415 233q41 46 73 87l-3 1q-18 -19 -37.5 -28t-44.5 -9q-56 0 -92.5 34.5t-36.5 94.5q0 62 39.5 102t105.5 40q64 0 104 -38t40 -101q0 -65 -47 -126l-102 -130h-62zM489.5 351.5q27.5 25.5 27.5 65.5t-27.5 66
t-69.5 26t-69 -25.5t-27 -66.5q0 -40 27 -65.5t69 -25.5t69.5 25.5z" />
    <glyph glyph-name="zero.subs" horiz-adv-x="440" 
d="M88.5 -60q-48.5 60 -48.5 173t48.5 173t131.5 60q84 0 132 -60t48 -173t-48 -173t-132 -60q-83 0 -131.5 60zM294.5 -7q27.5 43 27.5 120t-27.5 120t-74.5 43t-74.5 -43t-27.5 -120t27.5 -120t74.5 -43t74.5 43z" />
    <glyph glyph-name="one.subs" horiz-adv-x="280" 
d="M130 161q0 30 6 48l-2 2q-10 -11 -24 -18l-66 -32v72l90 59l13 44h58v-446h-75v271z" />
    <glyph glyph-name="two.subs" horiz-adv-x="398" 
d="M13 -105l203 230q48 55 48 93q0 27 -19 42.5t-49 15.5q-51 0 -114 -47l-38 62q82 55 161 55q65 0 101.5 -32t36.5 -88q0 -36 -16.5 -69t-52.5 -72l-83 -92q-17 -18 -42 -39v-2q20 7 52 7h160l1 -1l-41 -68h-305z" />
    <glyph glyph-name="three.subs" horiz-adv-x="393" 
d="M108.5 -111q-40.5 8 -71.5 22l27 71q64 -31 119 -31q103 0 103 71q0 37 -34.5 54t-120.5 17v68q59 0 93 16t34 46q0 25 -19 39t-54 14q-49 0 -115 -32l-30 66q82 36 157 36q67 0 104 -28.5t37 -78.5q0 -30 -16.5 -55.5t-48.5 -39.5q-21 -7 -45 -8v-3q23 0 45 -6
q42 -11 65.5 -38t23.5 -71q0 -65 -45.5 -101t-130.5 -36q-37 0 -77.5 8z" />
    <glyph glyph-name="four.subs" horiz-adv-x="432" 
d="M264 -47q0 13 3 19l-1 1q-6 -3 -18 -3h-222v58l236 308h75v-281q0 -14 -2 -19l1 -1q6 3 16 3h53l-24 -68h-28q-11 0 -17 3l-1 -1q2 -4 2 -19v-63h-73v63zM147 38h99q13 0 20 -3l1 1q-3 8 -3 21v153q0 19 5 42h-2q-6 -16 -31 -49l-105 -140q-12 -16 -26 -28l1 -1
q18 4 41 4z" />
    <glyph glyph-name="five.subs" horiz-adv-x="387" 
d="M20 -91l27 70q64 -29 113 -29q48 0 74.5 24.5t26.5 63.5q0 41 -29 61.5t-78 20.5q-47 0 -84 -13l-3 3l70 226h216l-27 -72h-125q-15 0 -20 4l-1 -1v-5q0 -7 -3 -18l-17 -56q-4 -12 -13 -19l1 -2q18 10 52 10q63 0 101 -35.5t38 -102.5q0 -75 -48 -117t-133 -42
q-74 0 -138 29z" />
    <glyph glyph-name="six.subs" horiz-adv-x="397" 
d="M73.5 -76q-48.5 44 -48.5 123q0 42 16 80t53 86l104 132h96l-118 -134q-21 -24 -35 -41.5t-24 -34.5l4 -1q19 28 42 41.5t57 13.5q38 0 71 -18.5t52.5 -52t19.5 -77.5q0 -69 -45.5 -115t-122.5 -46q-73 0 -121.5 44zM261 -25q25 25 25 63t-25 63.5t-67 25.5t-67 -25.5
t-25 -63.5t25 -63t67 -25t67 25z" />
    <glyph glyph-name="seven.subs" horiz-adv-x="351" 
d="M210 215q3 6 5.5 10.5t4.5 8.5q15 30 20 36l-1 1q-14 -7 -51 -7h-163l29 72h289l1 -3l-213 -443h-84z" />
    <glyph glyph-name="eight.subs" horiz-adv-x="426" 
d="M88 -84.5q-43 35.5 -43 96.5q0 45 26.5 75t69.5 38v2q-37 8 -59.5 35.5t-22.5 65.5q0 54 40.5 85.5t113.5 31.5t113.5 -31.5t40.5 -85.5q0 -38 -22.5 -65.5t-59.5 -35.5v-2q43 -8 69.5 -38t26.5 -75q0 -61 -43 -96.5t-125 -35.5t-125 35.5zM267.5 174.5
q20.5 16.5 20.5 45.5q0 28 -20.5 44t-54.5 16t-54.5 -16t-20.5 -44q0 -29 20.5 -45.5t54.5 -16.5t54.5 16.5zM277 -29.5q24 18.5 24 52.5q0 32 -23.5 51.5t-64.5 19.5t-64.5 -19.5t-23.5 -51.5q0 -34 24 -52.5t64 -18.5t64 18.5z" />
    <glyph glyph-name="nine.subs" horiz-adv-x="405" 
d="M213 15q37 43 59 78l-3 1q-38 -55 -100 -55q-39 0 -72 18t-52.5 51t-19.5 77q0 45 20.5 81.5t58.5 58t89 21.5q75 0 123 -44t48 -124q0 -44 -16.5 -83t-52.5 -83l-100 -122h-92zM261.5 123q24.5 25 24.5 62q0 40 -24.5 65.5t-67.5 25.5t-68 -26t-25 -65q0 -38 24.5 -62.5
t68.5 -24.5q43 0 67.5 25z" />
    <glyph glyph-name="zero.dnom" horiz-adv-x="396" 
d="M86.5 43.5q-41.5 52.5 -41.5 149.5t41.5 149.5t111.5 52.5t111.5 -52.5t41.5 -149.5t-41.5 -149.5t-111.5 -52.5t-111.5 52.5zM274.5 79.5q27.5 42.5 27.5 113.5t-27.5 113.5t-76.5 42.5t-76.5 -42.5t-27.5 -113.5t27.5 -113.5t76.5 -42.5t76.5 42.5z" />
    <glyph glyph-name="one.dnom" horiz-adv-x="236" 
d="M120 251q0 23 7 37l-2 2q-4 -5 -12 -9l-10 -5l-64 -32v48l83 50l10 44h34v-386h-46v251z" />
    <glyph glyph-name="two.dnom" horiz-adv-x="336" 
d="M19 5l159 191q24 30 36.5 50t12.5 47q0 26 -18 41t-47 15q-28 0 -52.5 -9.5t-52.5 -26.5l-21 41q33 20 63.5 30.5t65.5 10.5q51 0 81.5 -26t30.5 -71q0 -33 -15.5 -62.5t-50.5 -70.5l-77 -93q-17 -20 -38 -33l1 -3q18 7 45 7h149l1 -2l-26 -41h-244z" />
    <glyph glyph-name="three.dnom" horiz-adv-x="345" 
d="M108.5 -2.5q-31.5 6.5 -56.5 18.5l20 45q50 -24 98 -24q42 0 66 18t24 54t-31 54t-105 18v45q57 0 88 18t31 50q0 26 -18.5 40t-53.5 14q-45 0 -98 -28l-21 42q64 33 125 33q57 0 87 -24.5t30 -69.5q0 -39 -25.5 -64.5t-74.5 -28.5v-3q116 -3 116 -98q0 -56 -36 -86
t-103 -30q-31 0 -62.5 6.5z" />
    <glyph glyph-name="four.dnom" horiz-adv-x="376" 
d="M232 54q0 13 2 18l-1 1q-5 -2 -17 -2h-196v37l207 278h51v-253q0 -15 -2 -20h1q8 2 14 2h50l-18 -44h-32q-10 0 -14 2l-1 -1q2 -4 2 -16v-56h-46v54zM107 115h102q14 0 25 -3l2 1q-4 8 -4 23v145q0 36 3 47l-2 1q-3 -8 -9.5 -17l-12.5 -17l-118 -163q-11 -14 -16 -18
l1 -2q8 3 29 3z" />
    <glyph glyph-name="five.dnom" horiz-adv-x="343" 
d="M27 18l19 44q49 -25 97 -25q44 0 70 23t26 66q0 39 -24 59.5t-63 20.5q-33 0 -86 -11l-3 2l51 189h189l-16 -43h-123q-12 0 -17 5l-2 -2v-4q0 -8 -1 -12l-21 -75q-2 -7 -10 -17l1 -2q18 11 51 11q56 0 89.5 -30.5t33.5 -88.5q0 -65 -40 -101t-108 -36q-62 0 -113 27z" />
    <glyph glyph-name="six.dnom" horiz-adv-x="343" 
d="M75.5 29q-40.5 38 -40.5 100q0 37 12.5 71t46.5 77l92 118h61l-81 -95q-44 -50 -63 -77l3 -1q18 22 38 32t45 10q56 0 93 -35.5t37 -98.5q0 -36 -17.5 -68t-49 -51.5t-73.5 -19.5q-63 0 -103.5 38zM244.5 61.5q25.5 24.5 25.5 67.5q0 41 -25.5 66t-67.5 25
q-41 0 -67 -25.5t-26 -65.5q0 -41 25.5 -66.5t67.5 -25.5t67.5 24.5z" />
    <glyph glyph-name="seven.dnom" horiz-adv-x="297" 
d="M200 320q8 16 18 26l-1 1q-10 -6 -33 -6h-166l16 45h246l1 -3l-194 -383h-50z" />
    <glyph glyph-name="eight.dnom" horiz-adv-x="352" 
d="M75 21.5q-34 30.5 -34 82.5q0 43 22 69t56 31v2q-29 6 -47 29t-18 58q0 48 33.5 75t88.5 27t89 -27t34 -75q0 -35 -18 -58t-47 -29v-2q33 -5 55 -31.5t22 -68.5q0 -52 -34 -82.5t-101 -30.5t-101 30.5zM229.5 244.5q20.5 17.5 20.5 45.5t-20 44t-54 16t-53.5 -16
t-19.5 -44t20 -45.5t53 -17.5t53.5 17.5zM239 56.5q23 19.5 23 53.5q0 33 -22 53.5t-64 20.5t-63.5 -20.5t-21.5 -53.5q0 -34 23 -53.5t62 -19.5q40 0 63 19.5z" />
    <glyph glyph-name="nine.dnom" horiz-adv-x="335" 
d="M167 73l13 15q34 39 59 72l-2 1q-18 -19 -37.5 -28t-45.5 -9q-55 0 -92 34.5t-37 94.5q0 62 40 102t106 40q65 0 104.5 -37t39.5 -102q0 -66 -48 -126l-102 -130h-61zM241 191.5q27 25.5 27 65.5t-27 66t-69 26t-69.5 -25.5t-27.5 -66.5q0 -40 27.5 -65.5t69.5 -25.5
t69 25.5z" />
    <glyph glyph-name="zero.numr" horiz-adv-x="396" 
d="M86.5 332.5q-41.5 52.5 -41.5 149.5t41.5 149.5t111.5 52.5t111.5 -52.5t41.5 -149.5t-41.5 -149.5t-111.5 -52.5t-111.5 52.5zM274.5 368.5q27.5 42.5 27.5 113.5t-27.5 113.5t-76.5 42.5t-76.5 -42.5t-27.5 -113.5t27.5 -113.5t76.5 -42.5t76.5 42.5z" />
    <glyph glyph-name="one.numr" horiz-adv-x="236" 
d="M120 540q0 23 7 37l-2 2q-4 -5 -12 -9l-10 -5l-64 -32v48l83 50l10 44h34v-386h-46v251z" />
    <glyph glyph-name="two.numr" horiz-adv-x="336" 
d="M19 294l159 191q24 30 36.5 50t12.5 47q0 26 -18 41t-47 15q-28 0 -52.5 -9.5t-52.5 -26.5l-21 41q33 20 63.5 30.5t65.5 10.5q51 0 81.5 -26t30.5 -71q0 -33 -15.5 -62.5t-50.5 -70.5l-77 -93q-17 -20 -38 -33l1 -3q18 7 45 7h149l1 -2l-26 -41h-244z" />
    <glyph glyph-name="three.numr" horiz-adv-x="345" 
d="M108.5 286.5q-31.5 6.5 -56.5 18.5l20 45q50 -24 98 -24q42 0 66 18t24 54t-31 54t-105 18v45q57 0 88 18t31 50q0 26 -18.5 40t-53.5 14q-45 0 -98 -28l-21 42q64 33 125 33q57 0 87 -24.5t30 -69.5q0 -39 -25.5 -64.5t-74.5 -28.5v-3q116 -3 116 -98q0 -56 -36 -86
t-103 -30q-31 0 -62.5 6.5z" />
    <glyph glyph-name="four.numr" horiz-adv-x="376" 
d="M232 343q0 13 2 18l-1 1q-5 -2 -17 -2h-196v37l207 278h51v-253q0 -15 -2 -20h1q8 2 14 2h50l-18 -44h-32q-10 0 -14 2l-1 -1q2 -4 2 -16v-56h-46v54zM107 404h102q14 0 25 -3l2 1q-4 8 -4 23v145q0 36 3 47l-2 1q-3 -8 -9.5 -17l-12.5 -17l-118 -163q-11 -14 -16 -18
l1 -2q7 3 29 3z" />
    <glyph glyph-name="five.numr" horiz-adv-x="343" 
d="M27 307l19 44q49 -25 97 -25q44 0 70 23t26 66q0 39 -24 59.5t-63 20.5q-33 0 -86 -11l-3 2l51 189h189l-16 -43h-123q-12 0 -17 5l-2 -2v-4q0 -8 -1 -12l-21 -75q-2 -7 -10 -17l1 -2q18 11 51 11q56 0 89.5 -30.5t33.5 -88.5q0 -65 -40 -101t-108 -36q-62 0 -113 27z
" />
    <glyph glyph-name="six.numr" horiz-adv-x="343" 
d="M75.5 318q-40.5 38 -40.5 100q0 37 12.5 71t46.5 77l92 118h61l-81 -95q-44 -50 -63 -77l3 -1q18 22 38 32t45 10q56 0 93 -35.5t37 -98.5q0 -36 -17.5 -68t-49 -51.5t-73.5 -19.5q-63 0 -103.5 38zM244.5 350.5q25.5 24.5 25.5 67.5q0 41 -25.5 66t-67.5 25
q-41 0 -67 -25.5t-26 -65.5q0 -41 25.5 -66.5t67.5 -25.5t67.5 24.5z" />
    <glyph glyph-name="seven.numr" horiz-adv-x="297" 
d="M200 609q8 16 18 26l-1 1q-10 -6 -33 -6h-166l16 45h246l1 -3l-194 -383h-50z" />
    <glyph glyph-name="eight.numr" horiz-adv-x="352" 
d="M75 310.5q-34 30.5 -34 82.5q0 43 22 69t56 31v2q-29 6 -47 29t-18 58q0 48 33.5 75t88.5 27t89 -27t34 -75q0 -35 -18 -58t-47 -29v-2q33 -5 55 -31.5t22 -68.5q0 -52 -34 -82.5t-101 -30.5t-101 30.5zM229.5 533.5q20.5 17.5 20.5 45.5t-20 44t-54 16t-53.5 -16
t-19.5 -44t20 -45.5t53 -17.5t53.5 17.5zM239 345.5q23 19.5 23 53.5q0 33 -22 53.5t-64 20.5t-63.5 -20.5t-21.5 -53.5q0 -34 23 -53.5t62 -19.5q40 0 63 19.5z" />
    <glyph glyph-name="nine.numr" horiz-adv-x="335" 
d="M167 362l13 15q34 39 59 72l-2 1q-18 -19 -37.5 -28t-45.5 -9q-55 0 -92 34.5t-37 94.5q0 62 40 102t106 40q65 0 104.5 -37t39.5 -102q0 -66 -48 -126l-102 -130h-61zM241 480.5q27 25.5 27 65.5t-27 66t-69 26t-69.5 -25.5t-27.5 -66.5q0 -40 27.5 -65.5t69.5 -25.5
t69 25.5z" />
    <glyph glyph-name="zero.sups" horiz-adv-x="440" 
d="M88.5 398q-48.5 60 -48.5 173t48.5 173t131.5 60q84 0 132 -60t48 -173t-48 -173t-132 -60q-83 0 -131.5 60zM294.5 451q27.5 43 27.5 120t-27.5 120t-74.5 43t-74.5 -43t-27.5 -120t27.5 -120t74.5 -43t74.5 43z" />
    <glyph glyph-name="one.sups" horiz-adv-x="280" 
d="M130 619q0 30 6 48l-2 2q-10 -11 -24 -18l-66 -32v72l90 59l13 44h58v-446h-75v271z" />
    <glyph glyph-name="two.sups" horiz-adv-x="398" 
d="M13 353l203 230q48 55 48 93q0 27 -19 42.5t-49 15.5q-51 0 -114 -47l-38 62q82 55 161 55q65 0 101.5 -32t36.5 -88q0 -36 -16.5 -69t-52.5 -72l-83 -92q-17 -18 -42 -39v-2q20 7 52 7h160l1 -1l-41 -68h-305z" />
    <glyph glyph-name="three.sups" horiz-adv-x="393" 
d="M108.5 347q-40.5 8 -71.5 22l27 71q64 -31 119 -31q103 0 103 71q0 37 -34.5 54t-120.5 17v68q59 0 93 16t34 46q0 25 -19 39t-54 14q-49 0 -115 -32l-30 66q82 36 157 36q67 0 104 -28.5t37 -78.5q0 -30 -16.5 -55.5t-48.5 -39.5q-21 -7 -45 -8v-3q23 0 45 -6
q42 -11 65.5 -38t23.5 -71q0 -65 -45.5 -101t-130.5 -36q-37 0 -77.5 8z" />
    <glyph glyph-name="four.sups" horiz-adv-x="432" 
d="M264 411q0 13 3 19l-1 1q-6 -3 -18 -3h-222v58l236 308h75v-281q0 -14 -2 -19l1 -1q6 3 16 3h53l-24 -68h-28q-11 0 -17 3l-1 -1q2 -4 2 -19v-63h-73v63zM147 496h99q13 0 20 -3l1 1q-3 8 -3 21v153q0 19 5 42h-2q-6 -16 -31 -49l-105 -140q-12 -16 -26 -28l1 -1
q18 4 41 4z" />
    <glyph glyph-name="five.sups" horiz-adv-x="387" 
d="M20 367l27 70q64 -29 113 -29q48 0 74.5 24.5t26.5 63.5q0 41 -29 61.5t-78 20.5q-47 0 -84 -13l-3 3l70 226h216l-27 -72h-125q-15 0 -20 4l-1 -1v-5q0 -7 -3 -18l-17 -56q-4 -12 -13 -19l1 -2q18 10 52 10q63 0 101 -35.5t38 -102.5q0 -75 -48 -117t-133 -42
q-74 0 -138 29z" />
    <glyph glyph-name="six.sups" horiz-adv-x="397" 
d="M73.5 382q-48.5 44 -48.5 123q0 42 16 80t53 86l104 132h96l-118 -134q-21 -24 -35 -41.5t-24 -34.5l4 -1q19 28 42 41.5t57 13.5q38 0 71 -18.5t52.5 -52t19.5 -77.5q0 -69 -45.5 -115t-122.5 -46q-73 0 -121.5 44zM261 433q25 25 25 63t-25 63.5t-67 25.5t-67 -25.5
t-25 -63.5t25 -63t67 -25t67 25z" />
    <glyph glyph-name="seven.sups" horiz-adv-x="351" 
d="M210 673q3 6 5.5 10.5t4.5 8.5q15 30 20 36l-1 1q-14 -7 -51 -7h-163l29 72h289l1 -3l-213 -443h-84z" />
    <glyph glyph-name="eight.sups" horiz-adv-x="426" 
d="M88 373.5q-43 35.5 -43 96.5q0 45 26.5 75t69.5 38v2q-37 8 -59.5 35.5t-22.5 65.5q0 54 40.5 85.5t113.5 31.5t113.5 -31.5t40.5 -85.5q0 -38 -22.5 -65.5t-59.5 -35.5v-2q43 -8 69.5 -38t26.5 -75q0 -61 -43 -96.5t-125 -35.5t-125 35.5zM267.5 632.5
q20.5 16.5 20.5 45.5q0 28 -20.5 44t-54.5 16t-54.5 -16t-20.5 -44q0 -29 20.5 -45.5t54.5 -16.5t54.5 16.5zM277 428.5q24 18.5 24 52.5q0 32 -23.5 51.5t-64.5 19.5t-64.5 -19.5t-23.5 -51.5q0 -34 24 -52.5t64 -18.5t64 18.5z" />
    <glyph glyph-name="nine.sups" horiz-adv-x="405" 
d="M213 473q37 43 59 78l-3 1q-38 -55 -100 -55q-39 0 -72 18t-52.5 51t-19.5 77q0 45 20.5 81.5t58.5 58t89 21.5q75 0 123 -44t48 -124q0 -44 -16.5 -83t-52.5 -83l-100 -122h-92zM261.5 581q24.5 25 24.5 62q0 40 -24.5 65.5t-67.5 25.5t-68 -26t-25 -65
q0 -38 24.5 -62.5t68.5 -24.5q43 0 67.5 25z" />
    <glyph glyph-name="colon.case" horiz-adv-x="219" 
d="M159 107q20 -20 20 -49t-20 -49.5t-49 -20.5q-30 0 -50 20.5t-20 49.5t20 49t50 20q29 0 49 -20zM159 508q20 -20 20 -49t-20 -49.5t-49 -20.5q-30 0 -50 20.5t-20 49.5t20 49t50 20q29 0 49 -20z" />
    <glyph glyph-name="exclamdown.case" horiz-adv-x="302" 
d="M129 491h59l22 -491h-104zM109 593q-20 20 -20 49t20 49.5t49 20.5q30 0 50 -20.5t20 -49.5t-20 -49t-50 -20q-29 0 -49 20z" />
    <glyph glyph-name="questiondown.case" horiz-adv-x="342" 
d="M53 21q-41 36 -41 94q0 71 57 124l53 50q19 19 28 34t9 32q0 24 -16.5 41.5t-53.5 40.5l47 69q49 -28 80.5 -63t31.5 -88q0 -34 -15 -61t-43 -52l-51 -48q-20 -18 -30 -34t-10 -35q0 -27 20 -43t53 -16q57 0 131 49l37 -72q-88 -58 -173 -58q-73 0 -114 36zM107 593
q-20 20 -20 49t20 49.5t49 20.5q30 0 50 -20.5t20 -49.5t-20 -49t-50 -20q-29 0 -49 20z" />
    <glyph glyph-name="semicolon.case" horiz-adv-x="237" 
d="M78 100h101l-90 -267h-48zM178 508q20 -20 20 -49t-20 -49.5t-49 -20.5q-30 0 -50 20.5t-20 49.5t20 49t50 20q29 0 49 -20z" />
    <glyph glyph-name="periodcentered.ss01" horiz-adv-x="207" 
d="M50 462h107v-114h-107v114z" />
    <glyph glyph-name="colon.case.ss01" horiz-adv-x="219" 
d="M53 522h107v-114h-107v114zM53 114h107v-114h-107v114z" />
    <glyph glyph-name="exclamdown.case.ss01" horiz-adv-x="302" 
d="M205 684v-114h-107v114h107zM180 475l23 -491h-104l22 491h59z" />
    <glyph glyph-name="questiondown.case.ss01" horiz-adv-x="342" 
d="M219 586h-107v114h107v-114zM53 21q-41 36 -41 94q0 71 57 124l53 50q19 19 28 34t9 32q0 24 -16.5 41.5t-53.5 40.5l47 69q49 -28 80.5 -63t31.5 -88q0 -34 -15 -61t-43 -52l-51 -48q-20 -18 -30 -34t-10 -35q0 -27 20 -43t53 -16q57 0 131 49l37 -72q-88 -58 -173 -58
q-73 0 -114 36z" />
    <glyph glyph-name="semicolon.case.ss01" horiz-adv-x="237" 
d="M78 100h101l-90 -267h-48zM72 522h107v-114h-107v114z" />
    <glyph glyph-name="colon.ss01" horiz-adv-x="219" 
d="M56 114h107v-114h-107v114zM56 462h107v-114h-107v114z" />
    <glyph glyph-name="ellipsis.ss01" horiz-adv-x="694" 
d="M532 114h107v-114h-107v114zM56 114h107v-114h-107v114zM294 114h107v-114h-107v114z" />
    <glyph glyph-name="exclam.ss01" horiz-adv-x="302" 
d="M99 700h104l-23 -491h-59zM98 114h107v-114h-107v114z" />
    <glyph glyph-name="exclamdown.ss01" horiz-adv-x="302" 
d="M205 483v-114h-107v114h107zM180 274l23 -491h-104l22 491h59z" />
    <glyph glyph-name="period.ss01" horiz-adv-x="219" 
d="M56 114h107v-114h-107v114z" />
    <glyph glyph-name="question.ss01" horiz-adv-x="372" 
d="M299 679q41 -36 41 -94q0 -71 -57 -124l-53 -50q-19 -19 -28 -34t-9 -32q0 -24 16.5 -41.5t53.5 -40.5l-47 -69q-49 28 -80.5 63t-31.5 88q0 34 15 61t43 52l51 48q20 18 30 34t10 35q0 27 -20 43t-53 16q-57 0 -131 -49l-37 72q88 58 173 58q73 0 114 -36zM133 114h107
v-114h-107v114z" />
    </font>
</defs>
</svg>
