<?xml version="1.0" standalone="no"?>
<!DOCTYPE svg PUBLIC "-//W3C//DTD SVG 1.1//EN" "http://www.w3.org/Graphics/SVG/1.1/DTD/svg11.dtd" >
<svg>
<metadata>
Created by FontForge 20090622 at Fri Mar 16 12:49:23 2018
 By deploy user
Copyright &#194;&#169; 2015 by Reto Moser. All rights reserved.
</metadata>
<defs>
<font id="GTEestiText-Bold" horiz-adv-x="600" >
  <font-face 
    font-family="GT Eesti Text Bold"
    font-weight="700"
    font-stretch="normal"
    units-per-em="1000"
    panose-1="0 0 8 0 0 0 0 0 0 0"
    ascent="750"
    descent="-250"
    x-height="462"
    cap-height="700"
    bbox="-459 -252 1132 891"
    underline-thickness="50"
    underline-position="-50"
    unicode-range="U+0020-U+FB02"
  />
<missing-glyph horiz-adv-x="770" 
d="M197.5 32q-83.5 47 -130.5 130.5t-47 187.5q0 105 47 188t130.5 130t187.5 47q105 0 188 -47t130 -130t47 -188q0 -104 -47 -187.5t-130 -130.5t-188 -47q-104 0 -187.5 47zM560 54.5q78 44.5 122.5 123.5t44.5 177l-51 65l-70 -30l-68 90l-79 -44l-74 118l-74 -118
l-79 44l-68 -90l-70 30l-51 -65q0 -98 44.5 -177t122.5 -123.5t175 -44.5t175 44.5zM257 328q-10 10 -10 25t10 25t25 10t25 -10t10 -25t-10 -25t-25 -10t-25 10zM462 328q-10 10 -10 25t10 25t25 10t25 -10t10 -25t-10 -25t-25 -10t-25 10zM379 356q1 4 4 5.5t7 -0.5
q3 -1 4.5 -4t0.5 -7l-28 -78h34q4 0 6.5 -2.5t2.5 -6.5q0 -3 -2.5 -5.5t-6.5 -2.5h-58zM138.5 190.5q-19.5 19.5 -19.5 49.5t19.5 49.5t49.5 19.5t49.5 -19.5t19.5 -49.5t-19.5 -49.5t-49.5 -19.5t-49.5 19.5zM531.5 190.5q-19.5 19.5 -19.5 49.5t19.5 49.5t49.5 19.5
t49.5 -19.5t19.5 -49.5t-19.5 -49.5t-49.5 -19.5t-49.5 19.5zM346.5 185q-16.5 -8 -23.5 -22q-3 -6 -9 -6q-8 0 -8 9q0 17 24.5 31t54.5 14t54.5 -14t24.5 -31q0 -9 -8 -9q-6 0 -9 6q-7 14 -23.5 22t-38.5 8t-38.5 -8z" />
    <glyph glyph-name="fi" unicode="fi" horiz-adv-x="616" 
d="M351 573h-12q-52 0 -73.5 -16.5t-21.5 -58.5v-7q0 -21 -7 -34l2 -2q8 5 17.5 6t27.5 1h67v-127h-67q-20 0 -28.5 1t-16.5 6l-2 -2q5 -8 6 -19.5t1 -37.5v-283h-151v283q0 26 1 37.5t6 19.5l-2 2q-8 -5 -16.5 -6t-28.5 -1h-42v127h42q18 0 27.5 -1t17.5 -6l2 2
q-7 13 -7 34v7q0 110 57 161t170 51h31v-137zM564 0h-151v462h151v-462zM556.5 683.5q26.5 -26.5 26.5 -67.5q0 -42 -26.5 -68t-67.5 -26q-42 0 -68 26t-26 68q0 41 26 67.5t68 26.5q41 0 67.5 -26.5z" />
    <glyph glyph-name="fl" unicode="fl" horiz-adv-x="616" 
d="M351 573h-12q-52 0 -73.5 -16.5t-21.5 -58.5v-7q0 -21 -7 -34l2 -2q8 5 17.5 6t27.5 1h67v-127h-67q-20 0 -28.5 1t-16.5 6l-2 -2q5 -8 6 -19.5t1 -37.5v-283h-151v283q0 26 1 37.5t6 19.5l-2 2q-8 -5 -16.5 -6t-28.5 -1h-42v127h42q18 0 27.5 -1t17.5 -6l2 2
q-7 13 -7 34v7q0 110 57 161t170 51h31v-137zM564 0h-151v715h151v-715z" />
    <glyph glyph-name="f_f" unicode="ff" horiz-adv-x="724" 
d="M351 573h-12q-52 0 -73.5 -16.5t-21.5 -58.5v-7q0 -21 -7 -34l2 -2q8 5 17.5 6t27.5 1h67v-127h-67q-20 0 -28.5 1t-16.5 6l-2 -2q5 -8 6 -19.5t1 -37.5v-283h-151v283q0 26 1 37.5t6 19.5l-2 2q-8 -5 -16.5 -6t-28.5 -1h-42v127h42q18 0 27.5 -1t17.5 -6l2 2
q-7 13 -7 34v7q0 110 57 161t170 51h31v-137zM713 573h-12q-52 0 -73.5 -16.5t-21.5 -58.5v-7q0 -21 -7 -34l2 -2q8 5 17.5 6t27.5 1h67v-127h-67q-20 0 -28.5 1t-16.5 6l-2 -2q5 -8 6 -19.5t1 -37.5v-283h-151v283q0 26 1 37.5t6 19.5l-2 2q-8 -5 -16.5 -6t-28.5 -1h-42
v127h42q18 0 27.5 -1t17.5 -6l2 2q-7 13 -7 34v7q0 110 57 161t170 51h31v-137z" />
    <glyph glyph-name="f_f_i" unicode="ffi" horiz-adv-x="978" 
d="M351 573h-12q-52 0 -73.5 -16.5t-21.5 -58.5v-7q0 -21 -7 -34l2 -2q8 5 17.5 6t27.5 1h67v-127h-67q-20 0 -28.5 1t-16.5 6l-2 -2q5 -8 6 -19.5t1 -37.5v-283h-151v283q0 26 1 37.5t6 19.5l-2 2q-8 -5 -16.5 -6t-28.5 -1h-42v127h42q18 0 27.5 -1t17.5 -6l2 2
q-7 13 -7 34v7q0 110 57 161t170 51h31v-137zM713 573h-12q-52 0 -73.5 -16.5t-21.5 -58.5v-7q0 -21 -7 -34l2 -2q8 5 17.5 6t27.5 1h67v-127h-67q-20 0 -28.5 1t-16.5 6l-2 -2q5 -8 6 -19.5t1 -37.5v-283h-151v283q0 26 1 37.5t6 19.5l-2 2q-8 -5 -16.5 -6t-28.5 -1h-42
v127h42q18 0 27.5 -1t17.5 -6l2 2q-7 13 -7 34v7q0 110 57 161t170 51h31v-137zM926 0h-151v462h151v-462zM918.5 683.5q26.5 -26.5 26.5 -67.5q0 -42 -26.5 -68t-67.5 -26q-42 0 -68 26t-26 68q0 41 26 67.5t68 26.5q41 0 67.5 -26.5z" />
    <glyph glyph-name="f_f_l" unicode="ffl" horiz-adv-x="978" 
d="M351 573h-12q-52 0 -73.5 -16.5t-21.5 -58.5v-7q0 -21 -7 -34l2 -2q8 5 17.5 6t27.5 1h67v-127h-67q-20 0 -28.5 1t-16.5 6l-2 -2q5 -8 6 -19.5t1 -37.5v-283h-151v283q0 26 1 37.5t6 19.5l-2 2q-8 -5 -16.5 -6t-28.5 -1h-42v127h42q18 0 27.5 -1t17.5 -6l2 2
q-7 13 -7 34v7q0 110 57 161t170 51h31v-137zM713 573h-12q-52 0 -73.5 -16.5t-21.5 -58.5v-7q0 -21 -7 -34l2 -2q8 5 17.5 6t27.5 1h67v-127h-67q-20 0 -28.5 1t-16.5 6l-2 -2q5 -8 6 -19.5t1 -37.5v-283h-151v283q0 26 1 37.5t6 19.5l-2 2q-8 -5 -16.5 -6t-28.5 -1h-42
v127h42q18 0 27.5 -1t17.5 -6l2 2q-7 13 -7 34v7q0 110 57 161t170 51h31v-137zM926 0h-151v715h151v-715z" />
    <glyph glyph-name=".notdef" horiz-adv-x="770" 
d="M197.5 32q-83.5 47 -130.5 130.5t-47 187.5q0 105 47 188t130.5 130t187.5 47q105 0 188 -47t130 -130t47 -188q0 -104 -47 -187.5t-130 -130.5t-188 -47q-104 0 -187.5 47zM560 54.5q78 44.5 122.5 123.5t44.5 177l-51 65l-70 -30l-68 90l-79 -44l-74 118l-74 -118
l-79 44l-68 -90l-70 30l-51 -65q0 -98 44.5 -177t122.5 -123.5t175 -44.5t175 44.5zM257 328q-10 10 -10 25t10 25t25 10t25 -10t10 -25t-10 -25t-25 -10t-25 10zM462 328q-10 10 -10 25t10 25t25 10t25 -10t10 -25t-10 -25t-25 -10t-25 10zM379 356q1 4 4 5.5t7 -0.5
q3 -1 4.5 -4t0.5 -7l-28 -78h34q4 0 6.5 -2.5t2.5 -6.5q0 -3 -2.5 -5.5t-6.5 -2.5h-58zM138.5 190.5q-19.5 19.5 -19.5 49.5t19.5 49.5t49.5 19.5t49.5 -19.5t19.5 -49.5t-19.5 -49.5t-49.5 -19.5t-49.5 19.5zM531.5 190.5q-19.5 19.5 -19.5 49.5t19.5 49.5t49.5 19.5
t49.5 -19.5t19.5 -49.5t-19.5 -49.5t-49.5 -19.5t-49.5 19.5zM346.5 185q-16.5 -8 -23.5 -22q-3 -6 -9 -6q-8 0 -8 9q0 17 24.5 31t54.5 14t54.5 -14t24.5 -31q0 -9 -8 -9q-6 0 -9 6q-7 14 -23.5 22t-38.5 8t-38.5 -8z" />
    <glyph glyph-name=".null" horiz-adv-x="0" 
 />
    <glyph glyph-name="nonmarkingreturn" horiz-adv-x="0" 
 />
    <glyph glyph-name="space" unicode=" " horiz-adv-x="264" 
 />
    <glyph glyph-name="A" unicode="A" horiz-adv-x="732" 
d="M350 713h32l345 -713h-170l-65 146h-251l-66 -146h-170zM321 261h90q31 0 45 -5l1 1q-13 15 -27 47l-40 95q-21 50 -22 72h-4q-2 -25 -21 -72l-40 -95q-16 -34 -28 -47l1 -1q14 5 45 5z" />
    <glyph glyph-name="B" unicode="B" horiz-adv-x="630" 
d="M66 700h291q92 0 146.5 -46t54.5 -125q0 -57 -26.5 -95.5t-74.5 -52.5q-32 -10 -60 -11v-4q32 0 62 -6q140 -29 140 -166q0 -91 -61.5 -142.5t-168.5 -51.5h-303v700zM246 424h74q41 0 63.5 19.5t22.5 56.5q0 35 -22 53t-64 18h-74q-21 0 -28 5l-2 -2q5 -8 5 -29v-94
q0 -21 -5 -29l2 -2q8 4 28 4zM228.5 126.5q7.5 2.5 18.5 2.5h90q50 0 76 22t26 65q0 80 -103 80h-90q-21 0 -28 5l-2 -2q5 -8 5 -31v-112q0 -22 -5 -30l2 -2q3 0 10.5 2.5z" />
    <glyph glyph-name="C" unicode="C" horiz-adv-x="680" 
d="M208.5 31.5q-86.5 46.5 -134.5 130t-48 188.5t48 188.5t134.5 130t196.5 46.5q70 0 135 -20t120 -58l-79 -126q-84 54 -173 54q-64 0 -114 -27t-77.5 -76t-27.5 -112t27.5 -112t77.5 -76t114 -27q89 0 173 54l79 -126q-55 -38 -120 -58t-135 -20q-110 0 -196.5 46.5z" />
    <glyph glyph-name="D" unicode="D" horiz-adv-x="693" 
d="M492 657.5q84 -42.5 129.5 -121.5t45.5 -186t-45.5 -186t-129.5 -121.5t-199 -42.5h-227v700h227q115 0 199 -42.5zM216 565q5 -8 5 -31v-368q0 -23 -5 -31l2 -2q7 5 28 5h59q94 0 147 56.5t53 155.5t-53 155.5t-147 56.5h-59q-21 0 -28 5z" />
    <glyph glyph-name="E" unicode="E" horiz-adv-x="544" 
d="M500 562h-254q-20 0 -28 5l-2 -2q5 -8 5 -30v-70q0 -23 -5 -31l2 -2q8 5 28 5h227v-136h-227q-20 0 -28 5l-2 -2q5 -8 5 -30v-109q0 -22 -5 -30l2 -2q8 5 28 5h258v-138h-438v700h434v-138z" />
    <glyph glyph-name="F" unicode="F" horiz-adv-x="519" 
d="M508 562h-262q-20 0 -28 5l-2 -2q5 -8 5 -30v-89q0 -21 -5 -29l2 -2q8 5 28 5h233v-138h-233q-20 0 -28 5l-2 -2q5 -8 5 -31v-254h-155v700h442v-138z" />
    <glyph glyph-name="G" unicode="G" horiz-adv-x="765" 
d="M674 628l-88 -126q-40 30 -89.5 46.5t-98.5 16.5q-63 0 -111.5 -26.5t-75 -75t-26.5 -110.5q0 -65 26 -114.5t73.5 -76.5t109.5 -27q91 0 137.5 42t54.5 105l-2 2q-15 -11 -64 -11h-128v130h348v-32q0 -112 -38 -199.5t-115 -137t-189 -49.5q-109 0 -193.5 46t-131.5 129
t-47 191q0 107 47 190t132.5 128.5t197.5 45.5q152 0 271 -87z" />
    <glyph glyph-name="H" unicode="H" horiz-adv-x="737" 
d="M671 0h-155v272q0 22 5 30l-2 2q-10 -5 -28 -5h-245q-20 0 -28 5l-2 -2q5 -8 5 -30v-272h-155v700h155v-232q0 -23 -5 -31l2 -2q8 5 28 5h245q18 0 28 -5l2 2q-5 8 -5 31v232h155v-700z" />
    <glyph glyph-name="I" unicode="I" horiz-adv-x="287" 
d="M221 0h-155v700h155v-700z" />
    <glyph glyph-name="J" unicode="J" horiz-adv-x="342" 
d="M276 194q0 -102 -45 -150.5t-139 -48.5q-21 0 -76 5v142q25 -3 54 -3q26 0 38.5 16.5t12.5 52.5v492h155v-506z" />
    <glyph glyph-name="K" unicode="K" horiz-adv-x="711" 
d="M435 435q-21 -24 -35.5 -38t-29.5 -23v-4q15 -9 27 -20t34 -36l279 -314h-210l-287 343l-3 -1q7 -22 9 -40.5t2 -49.5v-252h-155v700h155v-215q0 -31 -2.5 -51.5t-8.5 -41.5l3 -2l246 310h204z" />
    <glyph glyph-name="L" unicode="L" horiz-adv-x="507" 
d="M221 168q0 -22 -5 -30l2 -2q8 5 28 5h256v-141h-436v700h155v-532z" />
    <glyph glyph-name="M" unicode="M" horiz-adv-x="964" 
d="M319 306q-13 29 -18 45.5t-6 38.5h-4q-3 -41 -17 -86l-100 -304h-169l260 710h28l169 -377q9 -20 12 -33.5t6 -35.5h4q3 22 6 35.5t12 33.5l169 377h27l260 -710h-168l-100 304q-14 45 -17 86h-4q-1 -22 -6 -38.5t-19 -45.5l-151 -313h-22z" />
    <glyph glyph-name="N" unicode="N" horiz-adv-x="722" 
d="M464 345q18 -18 27.5 -31t18.5 -31l4 1q-11 36 -11 122v294h153v-710h-34l-365 365q-18 18 -27 30.5t-19 32.5l-4 -1q12 -34 12 -123v-294h-153v710h33z" />
    <glyph glyph-name="O" unicode="O" horiz-adv-x="789" 
d="M584.5 668q83.5 -47 131 -130t47.5 -188t-47.5 -188t-131 -130t-189.5 -47t-190 47t-131.5 130t-47.5 188t47.5 188t131.5 130t190 47t189.5 -47zM285.5 538q-47.5 -27 -74 -76t-26.5 -112t26.5 -112t74 -76t109.5 -27q61 0 108.5 27t74 76t26.5 112t-26.5 112t-74 76
t-108.5 27q-62 0 -109.5 -27z" />
    <glyph glyph-name="P" unicode="P" horiz-adv-x="584" 
d="M508 643.5q65 -56.5 65 -159.5t-63 -160t-177 -57h-87q-21 0 -28 5l-2 -2q5 -8 5 -30v-240h-155v700h259q118 0 183 -56.5zM216 570q5 -8 5 -30v-112q0 -23 -5 -31l2 -2q7 5 28 5h84q41 0 65.5 23t24.5 61t-24.5 60.5t-65.5 22.5h-84q-21 0 -28 5z" />
    <glyph glyph-name="Q" unicode="Q" horiz-adv-x="805" 
d="M207 41q-85 46 -133 128t-48 185q0 105 47.5 187t133 128t193.5 46q103 0 186 -44t130 -121t47 -172q0 -86 -31 -144t-99 -100q-38 -23 -110 -51v-5q62 21 106.5 30t85.5 9h64v-122h-380q-107 0 -192 46zM505 170q46 27 71.5 76t25.5 112q0 61 -26 108t-72.5 73
t-106.5 26q-62 0 -110.5 -26.5t-75 -74.5t-26.5 -110t27 -110t76 -74.5t111 -26.5q60 0 106 27z" />
    <glyph glyph-name="R" unicode="R" horiz-adv-x="655" 
d="M506 647.5q62 -52.5 62 -147.5q0 -54 -22.5 -98.5t-60.5 -70.5t-83 -26q-15 0 -21 1v-2q22 -6 40 -19.5t38 -38.5l196 -246h-189l-216 289q-11 0 -20 3t-16 6l-2 -2q9 -21 9 -53v-243h-155v700h266q112 0 174 -52.5zM216 570q5 -8 5 -30v-101q0 -23 -5 -31l2 -2q7 5 28 5
h85q38 0 59.5 21t21.5 58q0 36 -21.5 56.5t-59.5 20.5h-85q-21 0 -28 5z" />
    <glyph glyph-name="S" unicode="S" horiz-adv-x="546" 
d="M507 661l-68 -135q-82 46 -152 46q-67 0 -67 -40q0 -17 11 -29.5t42 -31.5l117 -75q70 -44 100.5 -91.5t30.5 -111.5q0 -100 -66 -154t-188 -54q-68 0 -133.5 18t-123.5 52l70 139q99 -65 193 -65q42 0 65.5 15t23.5 42q0 20 -15 37t-52 40l-108 69q-63 40 -94.5 89
t-31.5 109q0 86 59.5 135.5t165.5 49.5q113 0 221 -54z" />
    <glyph glyph-name="T" unicode="T" horiz-adv-x="542" 
d="M536 559h-163q-18 0 -26 5l-2 -2q3 -7 3 -30v-532h-155v532q0 20 4 30l-2 2q-8 -5 -26 -5h-164v141h531v-141z" />
    <glyph glyph-name="U" unicode="U" horiz-adv-x="711" 
d="M651 280q0 -139 -77.5 -216t-217.5 -77t-218 77t-78 216v420h158v-412q0 -70 37 -110t101 -40q63 0 100.5 40.5t37.5 109.5v412h157v-420z" />
    <glyph glyph-name="V" unicode="V" horiz-adv-x="696" 
d="M363 -7h-30l-333 707h183l135 -332q13 -33 19 -52.5t9 -42.5h4q4 24 10 44.5t19 50.5l134 332h183z" />
    <glyph glyph-name="W" unicode="W" horiz-adv-x="999" 
d="M656 385q12 -28 17 -44.5t9 -43.5h4q4 29 8 47.5t13 43.5l110 312h177l-287 -707h-32l-150 332q-18 41 -23 77h-4q-5 -33 -24 -77l-150 -332h-32l-287 707h178l109 -312q9 -27 14 -45t8 -46h4q4 27 9 43.5t17 44.5l145 325h21z" />
    <glyph glyph-name="X" unicode="X" horiz-adv-x="734" 
d="M506 425q-28 -42 -44 -55v-3q7 -5 18.5 -19.5t24.5 -33.5l223 -314h-197l-136 206q-25 36 -30 67h-4q-5 -29 -28 -67l-131 -206h-197l222 320q31 45 44 54v4q-14 11 -45 53l-195 269h197l109 -166q15 -23 22 -37.5t9 -29.5h4q2 15 9 29.5t22 37.5l102 166h198z" />
    <glyph glyph-name="Y" unicode="Y" horiz-adv-x="671" 
d="M413 248v-248h-155v248l-253 452h184l108 -227q4 -9 15 -31t15.5 -34.5t7.5 -28.5h2q4 20 9 33.5t14.5 33l13.5 27.5l108 227h184z" />
    <glyph glyph-name="Z" unicode="Z" horiz-adv-x="659" 
d="M647 695l-387 -567l4 -2q19 11 41 15t60 4h288l-77 -145h-568l-3 5l391 568l-3 2q-17 -10 -41 -14.5t-61 -4.5h-241l74 144h521z" />
    <glyph glyph-name="Aacute" unicode="&#xc1;" horiz-adv-x="732" 
d="M350 713h32l345 -713h-170l-65 146h-251l-66 -146h-170zM321 261h90q31 0 45 -5l1 1q-13 15 -27 47l-40 95q-21 50 -22 72h-4q-2 -25 -21 -72l-40 -95q-16 -34 -28 -47l1 -1q14 5 45 5zM584 849l-167 -106h-104l-1 4l112 106h159z" />
    <glyph glyph-name="Abreve" unicode="&#x102;" horiz-adv-x="732" 
d="M350 713h32l345 -713h-170l-65 146h-251l-66 -146h-170zM321 261h90q31 0 45 -5l1 1q-13 15 -27 47l-40 95q-21 50 -22 72h-4q-2 -25 -21 -72l-40 -95q-16 -34 -28 -47l1 -1q14 5 45 5zM484 770q-46 -35 -118 -35q-71 0 -117 35t-47 93h104q1 -18 17.5 -30.5t42.5 -12.5
q27 0 43.5 12t17.5 31h104q-1 -58 -47 -93z" />
    <glyph glyph-name="Acircumflex" unicode="&#xc2;" horiz-adv-x="732" 
d="M350 713h32l345 -713h-170l-65 146h-251l-66 -146h-170zM321 261h90q31 0 45 -5l1 1q-13 15 -27 47l-40 95q-21 50 -22 72h-4q-2 -25 -21 -72l-40 -95q-16 -34 -28 -47l1 -1q14 5 45 5zM176 746l117 117h146l116 -117v-3h-131l-28 29q-14 14 -19.5 23t-8.5 19h-4
q-2 -10 -8 -19t-20 -23l-29 -29h-131v3z" />
    <glyph glyph-name="Adieresis" unicode="&#xc4;" horiz-adv-x="732" 
d="M350 713h32l345 -713h-170l-65 146h-251l-66 -146h-170zM321 261h90q31 0 45 -5l1 1q-13 15 -27 47l-40 95q-21 50 -22 72h-4q-2 -25 -21 -72l-40 -95q-16 -34 -28 -47l1 -1q14 5 45 5zM315 868q23 -23 23 -58q0 -34 -23 -57t-58 -23q-34 0 -57 23t-23 57q0 35 23 58
t57 23q35 0 58 -23zM533 868q23 -23 23 -58q0 -34 -23 -57t-58 -23q-34 0 -57 23t-23 57q0 35 23 58t57 23q35 0 58 -23z" />
    <glyph glyph-name="AE" unicode="&#xc6;" horiz-adv-x="971" 
d="M931 138v-138h-398v118q0 23 5 31l-2 2q-8 -5 -27 -5h-224l-93 -146h-187l475 700h446v-138h-226q-18 0 -28 5l-2 -2q5 -8 5 -31v-69q0 -23 -5 -31l2 -2q10 5 28 5h201v-136h-201q-18 0 -28 5l-2 -2q5 -8 5 -31v-107q0 -23 -5 -31l2 -2q10 5 28 5h231zM533 289v199
q0 42 7 78h-2q-12 -34 -37 -76l-122 -195q-9 -14 -17 -22.5t-22 -17.5l1 -2q29 8 61 8h107q19 0 27 -5l2 2q-5 8 -5 31z" />
    <glyph glyph-name="AEacute" unicode="&#x1fc;" horiz-adv-x="971" 
d="M931 138v-138h-398v118q0 23 5 31l-2 2q-8 -5 -27 -5h-224l-93 -146h-187l475 700h446v-138h-226q-18 0 -28 5l-2 -2q5 -8 5 -31v-69q0 -23 -5 -31l2 -2q10 5 28 5h201v-136h-201q-18 0 -28 5l-2 -2q5 -8 5 -31v-107q0 -23 -5 -31l2 -2q10 5 28 5h231zM533 289v199
q0 42 7 78h-2q-12 -34 -37 -76l-122 -195q-9 -14 -17 -22.5t-22 -17.5l1 -2q29 8 61 8h107q19 0 27 -5l2 2q-5 8 -5 31zM914 849l-167 -106h-104l-1 4l112 106h159z" />
    <glyph glyph-name="Agrave" unicode="&#xc0;" horiz-adv-x="732" 
d="M350 713h32l345 -713h-170l-65 146h-251l-66 -146h-170zM321 261h90q31 0 45 -5l1 1q-13 15 -27 47l-40 95q-21 50 -22 72h-4q-2 -25 -21 -72l-40 -95q-16 -34 -28 -47l1 -1q14 5 45 5zM420 747l-1 -4h-105l-166 106l1 4h159z" />
    <glyph glyph-name="Amacron" unicode="&#x100;" horiz-adv-x="732" 
d="M350 713h32l345 -713h-170l-65 146h-251l-66 -146h-170zM321 261h90q31 0 45 -5l1 1q-13 15 -27 47l-40 95q-21 50 -22 72h-4q-2 -25 -21 -72l-40 -95q-16 -34 -28 -47l1 -1q14 5 45 5zM528 843v-94h-324v94h324z" />
    <glyph glyph-name="Aogonek" unicode="&#x104;" horiz-adv-x="732" 
d="M350 713h32l345 -713h-170l-65 146h-251l-66 -146h-170zM321 261h90q31 0 45 -5l1 1q-13 15 -27 47l-40 95q-21 50 -22 72h-4q-2 -25 -21 -72l-40 -95q-16 -34 -28 -47l1 -1q14 5 45 5zM641 10q-84 -76 -84 -104q0 -10 7.5 -16t19.5 -6q16 0 39 5l13 -93q-16 -2 -25 -4
q-32 -5 -46 -5q-52 0 -81.5 21t-29.5 65q0 34 27 68.5t84 82.5z" />
    <glyph glyph-name="Aring" unicode="&#xc5;" horiz-adv-x="732" 
d="M350 713h32l345 -713h-170l-65 146h-251l-66 -146h-170zM321 261h90q31 0 45 -5l1 1q-13 15 -27 47l-40 95q-21 50 -22 72h-4q-2 -25 -21 -72l-40 -95q-16 -34 -28 -47l1 -1q14 5 45 5zM279 687q-34 33 -34 83q0 51 34 84t87 33t86.5 -33t33.5 -84t-33.5 -83.5
t-86.5 -32.5t-87 33zM407 731q16 16 16 39q0 24 -16 40t-41 16q-26 0 -41.5 -16t-15.5 -40q0 -23 15.5 -39t41.5 -16q25 0 41 16z" />
    <glyph glyph-name="Atilde" unicode="&#xc3;" horiz-adv-x="732" 
d="M350 713h32l345 -713h-170l-65 146h-251l-66 -146h-170zM321 261h90q31 0 45 -5l1 1q-13 15 -27 47l-40 95q-21 50 -22 72h-4q-2 -25 -21 -72l-40 -95q-16 -34 -28 -47l1 -1q14 5 45 5zM182 755q16 55 42.5 85t73.5 30q32 0 104 -19q54 -15 73 -15q31 0 54 37l47 -19
q-16 -55 -42.5 -85.5t-73.5 -30.5q-19 0 -40 4.5t-40 9t-25 6.5q-54 15 -72 15q-31 0 -54 -37z" />
    <glyph glyph-name="Cacute" unicode="&#x106;" horiz-adv-x="680" 
d="M208.5 31.5q-86.5 46.5 -134.5 130t-48 188.5t48 188.5t134.5 130t196.5 46.5q70 0 135 -20t120 -58l-79 -126q-84 54 -173 54q-64 0 -114 -27t-77.5 -76t-27.5 -112t27.5 -112t77.5 -76t114 -27q89 0 173 54l79 -126q-55 -38 -120 -58t-135 -20q-110 0 -196.5 46.5z
M609 849l-167 -106h-104l-1 4l112 106h159z" />
    <glyph glyph-name="Ccaron" unicode="&#x10c;" horiz-adv-x="680" 
d="M208.5 31.5q-86.5 46.5 -134.5 130t-48 188.5t48 188.5t134.5 130t196.5 46.5q70 0 135 -20t120 -58l-79 -126q-84 54 -173 54q-64 0 -114 -27t-77.5 -76t-27.5 -112t27.5 -112t77.5 -76t114 -27q89 0 173 54l79 -126q-55 -38 -120 -58t-135 -20q-110 0 -196.5 46.5z
M580 860l-116 -117h-146l-117 117v3h131l29 -29q14 -14 20 -23t8 -19h4q3 10 8.5 19t19.5 23l28 29h131v-3z" />
    <glyph glyph-name="Ccedilla" unicode="&#xc7;" horiz-adv-x="680" 
d="M208.5 31.5q-86.5 46.5 -134.5 130t-48 188.5t48 188.5t134.5 130t196.5 46.5q70 0 135 -20t120 -58l-79 -126q-84 54 -173 54q-64 0 -114 -27t-77.5 -76t-27.5 -112t27.5 -112t77.5 -76t114 -27q89 0 173 54l79 -126q-55 -38 -120 -58t-135 -20q-110 0 -196.5 46.5z
M415 -35q92 -14 92 -71q0 -39 -38.5 -63.5t-115.5 -53.5l-28 -11l-21 47q47 24 64.5 36.5t17.5 23.5q0 22 -49 31l47 130h58z" />
    <glyph glyph-name="Ccircumflex" unicode="&#x108;" horiz-adv-x="680" 
d="M208.5 31.5q-86.5 46.5 -134.5 130t-48 188.5t48 188.5t134.5 130t196.5 46.5q70 0 135 -20t120 -58l-79 -126q-84 54 -173 54q-64 0 -114 -27t-77.5 -76t-27.5 -112t27.5 -112t77.5 -76t114 -27q89 0 173 54l79 -126q-55 -38 -120 -58t-135 -20q-110 0 -196.5 46.5z
M201 746l117 117h146l116 -117v-3h-131l-28 29q-14 14 -19.5 23t-8.5 19h-4q-2 -10 -8 -19t-20 -23l-29 -29h-131v3z" />
    <glyph glyph-name="Cdotaccent" unicode="&#x10a;" horiz-adv-x="680" 
d="M208.5 31.5q-86.5 46.5 -134.5 130t-48 188.5t48 188.5t134.5 130t196.5 46.5q70 0 135 -20t120 -58l-79 -126q-84 54 -173 54q-64 0 -114 -27t-77.5 -76t-27.5 -112t27.5 -112t77.5 -76t114 -27q89 0 173 54l79 -126q-55 -38 -120 -58t-135 -20q-110 0 -196.5 46.5z
M449 868q23 -23 23 -58q0 -34 -23 -57t-58 -23q-34 0 -57 23t-23 57q0 35 23 58t57 23q35 0 58 -23z" />
    <glyph glyph-name="Dcaron" unicode="&#x10e;" horiz-adv-x="693" 
d="M492 657.5q84 -42.5 129.5 -121.5t45.5 -186t-45.5 -186t-129.5 -121.5t-199 -42.5h-227v700h227q115 0 199 -42.5zM216 565q5 -8 5 -31v-368q0 -23 -5 -31l2 -2q7 5 28 5h59q94 0 147 56.5t53 155.5t-53 155.5t-147 56.5h-59q-21 0 -28 5zM481 860l-116 -117h-146
l-117 117v3h131l29 -29q14 -14 20 -23t8 -19h4q3 10 8.5 19t19.5 23l28 29h131v-3z" />
    <glyph glyph-name="Dcroat" unicode="&#x110;" horiz-adv-x="701" 
d="M494 657.5q85 -42.5 133 -121.5t48 -186t-48 -186t-133 -121.5t-194 -42.5h-227v263q0 22 5 30l-2 2q-10 -5 -28 -5h-57v124h57q20 0 28 -4l2 2q-5 8 -5 30v258h227q109 0 194 -42.5zM458 193q56 55 56 157t-56 157t-146 55h-59q-20 0 -28 5l-2 -2q5 -8 5 -31v-92
q0 -22 -5 -30l2 -2q7 4 28 4h130v-124h-130q-20 0 -28 5l-2 -2q5 -8 5 -30v-97q0 -23 -5 -31l2 -2q8 5 28 5h59q90 0 146 55z" />
    <glyph glyph-name="Eacute" unicode="&#xc9;" horiz-adv-x="544" 
d="M500 562h-254q-20 0 -28 5l-2 -2q5 -8 5 -30v-70q0 -23 -5 -31l2 -2q8 5 28 5h227v-136h-227q-20 0 -28 5l-2 -2q5 -8 5 -30v-109q0 -22 -5 -30l2 -2q8 5 28 5h258v-138h-438v700h434v-138zM513 849l-167 -106h-104l-1 4l112 106h159z" />
    <glyph glyph-name="Ebreve" unicode="&#x114;" horiz-adv-x="544" 
d="M500 562h-254q-20 0 -28 5l-2 -2q5 -8 5 -30v-70q0 -23 -5 -31l2 -2q8 5 28 5h227v-136h-227q-20 0 -28 5l-2 -2q5 -8 5 -30v-109q0 -22 -5 -30l2 -2q8 5 28 5h258v-138h-438v700h434v-138zM413 770q-46 -35 -118 -35q-71 0 -117 35t-47 93h104q1 -18 17.5 -30.5
t42.5 -12.5q27 0 43.5 12t17.5 31h104q-1 -58 -47 -93z" />
    <glyph glyph-name="Ecaron" unicode="&#x11a;" horiz-adv-x="544" 
d="M500 562h-254q-20 0 -28 5l-2 -2q5 -8 5 -30v-70q0 -23 -5 -31l2 -2q8 5 28 5h227v-136h-227q-20 0 -28 5l-2 -2q5 -8 5 -30v-109q0 -22 -5 -30l2 -2q8 5 28 5h258v-138h-438v700h434v-138zM484 860l-116 -117h-146l-117 117v3h131l29 -29q14 -14 20 -23t8 -19h4
q3 10 8.5 19t19.5 23l28 29h131v-3z" />
    <glyph glyph-name="Ecircumflex" unicode="&#xca;" horiz-adv-x="544" 
d="M500 562h-254q-20 0 -28 5l-2 -2q5 -8 5 -30v-70q0 -23 -5 -31l2 -2q8 5 28 5h227v-136h-227q-20 0 -28 5l-2 -2q5 -8 5 -30v-109q0 -22 -5 -30l2 -2q8 5 28 5h258v-138h-438v700h434v-138zM105 746l117 117h146l116 -117v-3h-131l-28 29q-14 14 -19.5 23t-8.5 19h-4
q-2 -10 -8 -19t-20 -23l-29 -29h-131v3z" />
    <glyph glyph-name="Edieresis" unicode="&#xcb;" horiz-adv-x="544" 
d="M500 562h-254q-20 0 -28 5l-2 -2q5 -8 5 -30v-70q0 -23 -5 -31l2 -2q8 5 28 5h227v-136h-227q-20 0 -28 5l-2 -2q5 -8 5 -30v-109q0 -22 -5 -30l2 -2q8 5 28 5h258v-138h-438v700h434v-138zM244 868q23 -23 23 -58q0 -34 -23 -57t-58 -23q-34 0 -57 23t-23 57q0 35 23 58
t57 23q35 0 58 -23zM462 868q23 -23 23 -58q0 -34 -23 -57t-58 -23q-34 0 -57 23t-23 57q0 35 23 58t57 23q35 0 58 -23z" />
    <glyph glyph-name="Edotaccent" unicode="&#x116;" horiz-adv-x="544" 
d="M500 562h-254q-20 0 -28 5l-2 -2q5 -8 5 -30v-70q0 -23 -5 -31l2 -2q8 5 28 5h227v-136h-227q-20 0 -28 5l-2 -2q5 -8 5 -30v-109q0 -22 -5 -30l2 -2q8 5 28 5h258v-138h-438v700h434v-138zM353 868q23 -23 23 -58q0 -34 -23 -57t-58 -23q-34 0 -57 23t-23 57q0 35 23 58
t57 23q35 0 58 -23z" />
    <glyph glyph-name="Egrave" unicode="&#xc8;" horiz-adv-x="544" 
d="M500 562h-254q-20 0 -28 5l-2 -2q5 -8 5 -30v-70q0 -23 -5 -31l2 -2q8 5 28 5h227v-136h-227q-20 0 -28 5l-2 -2q5 -8 5 -30v-109q0 -22 -5 -30l2 -2q8 5 28 5h258v-138h-438v700h434v-138zM349 747l-1 -4h-105l-166 106l1 4h159z" />
    <glyph glyph-name="Emacron" unicode="&#x112;" horiz-adv-x="544" 
d="M500 562h-254q-20 0 -28 5l-2 -2q5 -8 5 -30v-70q0 -23 -5 -31l2 -2q8 5 28 5h227v-136h-227q-20 0 -28 5l-2 -2q5 -8 5 -30v-109q0 -22 -5 -30l2 -2q8 5 28 5h258v-138h-438v700h434v-138zM457 843v-94h-324v94h324z" />
    <glyph glyph-name="Eogonek" unicode="&#x118;" horiz-adv-x="544" 
d="M500 562h-254q-20 0 -28 5l-2 -2q5 -8 5 -30v-70q0 -23 -5 -31l2 -2q8 5 28 5h227v-136h-227q-20 0 -28 5l-2 -2q5 -8 5 -30v-109q0 -22 -5 -30l2 -2q8 5 28 5h258v-138h-438v700h434v-138zM488 10q-84 -76 -84 -104q0 -10 7.5 -16t19.5 -6q16 0 39 5l13 -93
q-16 -2 -25 -4q-32 -5 -46 -5q-52 0 -81.5 21t-29.5 65q0 34 27 68.5t84 82.5z" />
    <glyph glyph-name="Eth" unicode="&#xd0;" horiz-adv-x="701" 
d="M494 657.5q85 -42.5 133 -121.5t48 -186t-48 -186t-133 -121.5t-194 -42.5h-227v263q0 22 5 30l-2 2q-10 -5 -28 -5h-57v124h57q20 0 28 -4l2 2q-5 8 -5 30v258h227q109 0 194 -42.5zM458 193q56 55 56 157t-56 157t-146 55h-59q-20 0 -28 5l-2 -2q5 -8 5 -31v-92
q0 -22 -5 -30l2 -2q7 4 28 4h130v-124h-130q-20 0 -28 5l-2 -2q5 -8 5 -30v-97q0 -23 -5 -31l2 -2q8 5 28 5h59q90 0 146 55z" />
    <glyph glyph-name="Gbreve" unicode="&#x11e;" horiz-adv-x="765" 
d="M674 628l-88 -126q-40 30 -89.5 46.5t-98.5 16.5q-63 0 -111.5 -26.5t-75 -75t-26.5 -110.5q0 -65 26 -114.5t73.5 -76.5t109.5 -27q91 0 137.5 42t54.5 105l-2 2q-15 -11 -64 -11h-128v130h348v-32q0 -112 -38 -199.5t-115 -137t-189 -49.5q-109 0 -193.5 46t-131.5 129
t-47 191q0 107 47 190t132.5 128.5t197.5 45.5q152 0 271 -87zM500 770q-46 -35 -118 -35q-71 0 -117 35t-47 93h104q1 -18 17.5 -30.5t42.5 -12.5q27 0 43.5 12t17.5 31h104q-1 -58 -47 -93z" />
    <glyph glyph-name="Gcircumflex" unicode="&#x11c;" horiz-adv-x="765" 
d="M674 628l-88 -126q-40 30 -89.5 46.5t-98.5 16.5q-63 0 -111.5 -26.5t-75 -75t-26.5 -110.5q0 -65 26 -114.5t73.5 -76.5t109.5 -27q91 0 137.5 42t54.5 105l-2 2q-15 -11 -64 -11h-128v130h348v-32q0 -112 -38 -199.5t-115 -137t-189 -49.5q-109 0 -193.5 46t-131.5 129
t-47 191q0 107 47 190t132.5 128.5t197.5 45.5q152 0 271 -87zM192 746l117 117h146l116 -117v-3h-131l-28 29q-14 14 -19.5 23t-8.5 19h-4q-2 -10 -8 -19t-20 -23l-29 -29h-131v3z" />
    <glyph glyph-name="Gcommaaccent" unicode="&#x122;" horiz-adv-x="765" 
d="M674 628l-88 -126q-40 30 -89.5 46.5t-98.5 16.5q-63 0 -111.5 -26.5t-75 -75t-26.5 -110.5q0 -65 26 -114.5t73.5 -76.5t109.5 -27q91 0 137.5 42t54.5 105l-2 2q-15 -11 -64 -11h-128v130h348v-32q0 -112 -38 -199.5t-115 -137t-189 -49.5q-109 0 -193.5 46t-131.5 129
t-47 191q0 107 47 190t132.5 128.5t197.5 45.5q152 0 271 -87zM350 -215h-73l27 164h146z" />
    <glyph glyph-name="Gdotaccent" unicode="&#x120;" horiz-adv-x="765" 
d="M674 628l-88 -126q-40 30 -89.5 46.5t-98.5 16.5q-63 0 -111.5 -26.5t-75 -75t-26.5 -110.5q0 -65 26 -114.5t73.5 -76.5t109.5 -27q91 0 137.5 42t54.5 105l-2 2q-15 -11 -64 -11h-128v130h348v-32q0 -112 -38 -199.5t-115 -137t-189 -49.5q-109 0 -193.5 46t-131.5 129
t-47 191q0 107 47 190t132.5 128.5t197.5 45.5q152 0 271 -87zM440 868q23 -23 23 -58q0 -34 -23 -57t-58 -23q-34 0 -57 23t-23 57q0 35 23 58t57 23q35 0 58 -23z" />
    <glyph glyph-name="Hbar" unicode="&#x126;" horiz-adv-x="721" 
d="M61 489q0 18 2 24l-2 2q-6 -3 -20 -3h-50v117h50q14 0 20 -3l2 2q-2 5 -2 25v47h155v-47q0 -20 -2 -25l2 -2q6 3 20 3h250q13 0 19 -3l2 2q-2 5 -2 25v47h155v-47q0 -20 -2 -25l2 -2q6 3 20 3h50v-117h-50q-14 0 -20 3l-2 -2q2 -6 2 -24v-489h-155v267q0 23 5 31l-2 2
q-8 -5 -27 -5h-241q-19 0 -27 5l-2 -2q5 -8 5 -31v-267h-155v489zM240 440h241q19 0 27 -5l2 2q-5 7 -5 25v27q0 12 2 24l-2 2q-6 -3 -19 -3h-250q-14 0 -20 3l-2 -2q2 -12 2 -24v-27q0 -18 -5 -25l2 -2q8 5 27 5z" />
    <glyph glyph-name="Hcircumflex" unicode="&#x124;" horiz-adv-x="737" 
d="M671 0h-155v272q0 22 5 30l-2 2q-10 -5 -28 -5h-245q-20 0 -28 5l-2 -2q5 -8 5 -30v-272h-155v700h155v-232q0 -23 -5 -31l2 -2q8 5 28 5h245q18 0 28 -5l2 2q-5 8 -5 31v232h155v-700zM179 746l117 117h146l116 -117v-3h-131l-28 29q-14 14 -19.5 23t-8.5 19h-4
q-2 -10 -8 -19t-20 -23l-29 -29h-131v3z" />
    <glyph glyph-name="Iacute" unicode="&#xcd;" horiz-adv-x="287" 
d="M221 0h-155v700h155v-700zM361 849l-167 -106h-104l-1 4l112 106h159z" />
    <glyph glyph-name="Ibreve" unicode="&#x12c;" horiz-adv-x="287" 
d="M221 0h-155v700h155v-700zM261 770q-46 -35 -118 -35q-71 0 -117 35t-47 93h104q1 -18 17.5 -30.5t42.5 -12.5q27 0 43.5 12t17.5 31h104q-1 -58 -47 -93z" />
    <glyph glyph-name="Icircumflex" unicode="&#xce;" horiz-adv-x="287" 
d="M221 0h-155v700h155v-700zM-47 746l117 117h146l116 -117v-3h-131l-28 29q-14 14 -19.5 23t-8.5 19h-4q-2 -10 -8 -19t-20 -23l-29 -29h-131v3z" />
    <glyph glyph-name="Idieresis" unicode="&#xcf;" horiz-adv-x="287" 
d="M221 0h-155v700h155v-700zM92 868q23 -23 23 -58q0 -34 -23 -57t-58 -23q-34 0 -57 23t-23 57q0 35 23 58t57 23q35 0 58 -23zM310 868q23 -23 23 -58q0 -34 -23 -57t-58 -23q-34 0 -57 23t-23 57q0 35 23 58t57 23q35 0 58 -23z" />
    <glyph glyph-name="Idotaccent" unicode="&#x130;" horiz-adv-x="287" 
d="M221 0h-155v700h155v-700zM201 868q23 -23 23 -58q0 -34 -23 -57t-58 -23q-34 0 -57 23t-23 57q0 35 23 58t57 23q35 0 58 -23z" />
    <glyph glyph-name="Igrave" unicode="&#xcc;" horiz-adv-x="287" 
d="M221 0h-155v700h155v-700zM197 747l-1 -4h-105l-166 106l1 4h159z" />
    <glyph glyph-name="IJ" unicode="&#x132;" horiz-adv-x="629" 
d="M221 0h-155v700h155v-700zM563 194q0 -102 -45 -150.5t-139 -48.5q-21 0 -76 5v142q25 -3 54 -3q26 0 38.5 16.5t12.5 52.5v492h155v-506z" />
    <glyph glyph-name="uni00A40301" horiz-adv-x="342" 
d="M276 194q0 -102 -45 -150.5t-139 -48.5q-21 0 -76 5v142q25 -3 54 -3q26 0 38.5 16.5t12.5 52.5v492h155v-506zM417 849l-167 -106h-104l-1 4l112 106h159z" />
    <glyph glyph-name="Imacron" unicode="&#x12a;" horiz-adv-x="287" 
d="M221 0h-155v700h155v-700zM305 843v-94h-324v94h324z" />
    <glyph glyph-name="Iogonek" unicode="&#x12e;" horiz-adv-x="287" 
d="M221 0h-155v700h155v-700zM159 10q-84 -76 -84 -104q0 -10 7.5 -16t19.5 -6q16 0 39 5l13 -93q-16 -2 -25 -4q-32 -5 -46 -5q-52 0 -81.5 21t-29.5 65q0 34 27 68.5t84 82.5z" />
    <glyph glyph-name="Itilde" unicode="&#x128;" horiz-adv-x="287" 
d="M221 0h-155v700h155v-700zM-41 755q16 55 42.5 85t73.5 30q32 0 104 -19q54 -15 73 -15q31 0 54 37l47 -19q-16 -55 -42.5 -85.5t-73.5 -30.5q-19 0 -40 4.5t-40 9t-25 6.5q-54 15 -72 15q-31 0 -54 -37z" />
    <glyph glyph-name="Jcircumflex" unicode="&#x134;" horiz-adv-x="342" 
d="M276 194q0 -102 -45 -150.5t-139 -48.5q-21 0 -76 5v142q25 -3 54 -3q26 0 38.5 16.5t12.5 52.5v492h155v-506zM9 746l117 117h146l116 -117v-3h-131l-28 29q-14 14 -19.5 23t-8.5 19h-4q-2 -10 -8 -19t-20 -23l-29 -29h-131v3z" />
    <glyph glyph-name="Kcommaaccent" unicode="&#x136;" horiz-adv-x="711" 
d="M435 435q-21 -24 -35.5 -38t-29.5 -23v-4q15 -9 27 -20t34 -36l279 -314h-210l-287 343l-3 -1q7 -22 9 -40.5t2 -49.5v-252h-155v700h155v-215q0 -31 -2.5 -51.5t-8.5 -41.5l3 -2l246 310h204zM317 -215h-73l27 164h146z" />
    <glyph glyph-name="Lacute" unicode="&#x139;" horiz-adv-x="507" 
d="M221 168q0 -22 -5 -30l2 -2q8 5 28 5h256v-141h-436v700h155v-532zM361 849l-167 -106h-104l-1 4l112 106h159z" />
    <glyph glyph-name="Lcaron" unicode="&#x13d;" horiz-adv-x="507" 
d="M221 168q0 -22 -5 -30l2 -2q8 5 28 5h256v-141h-436v700h155v-532zM493 730l-105 -283h-96l46 283h155z" />
    <glyph glyph-name="Lcommaaccent" unicode="&#x13b;" horiz-adv-x="507" 
d="M221 168q0 -22 -5 -30l2 -2q8 5 28 5h256v-141h-436v700h155v-532zM265 -215h-73l27 164h146z" />
    <glyph glyph-name="Ldot" unicode="&#x13f;" horiz-adv-x="507" 
d="M221 168q0 -22 -5 -30l2 -2q8 5 28 5h256v-141h-436v700h155v-532zM467.5 464.5q26.5 -26.5 26.5 -67.5q0 -40 -26.5 -67t-67.5 -27q-40 0 -67 27t-27 67q0 41 27 67.5t67 26.5q41 0 67.5 -26.5z" />
    <glyph glyph-name="Lslash" unicode="&#x141;" horiz-adv-x="508" 
d="M67 236q0 20 2 32t7 25l-2 2q-8 -11 -17 -18t-24 -15l-43 -22v91l77 39v330h155v-213q0 -18 -2.5 -28.5t-8.5 -21.5l3 -1q22 22 43 33l131 68v-91l-166 -86v-192q0 -22 -5 -30l2 -2q8 5 28 5h256v-141h-436v236z" />
    <glyph glyph-name="Nacute" unicode="&#x143;" horiz-adv-x="722" 
d="M464 345q18 -18 27.5 -31t18.5 -31l4 1q-11 36 -11 122v294h153v-710h-34l-365 365q-18 18 -27 30.5t-19 32.5l-4 -1q12 -34 12 -123v-294h-153v710h33zM581 849l-167 -106h-104l-1 4l112 106h159z" />
    <glyph glyph-name="Ncaron" unicode="&#x147;" horiz-adv-x="722" 
d="M464 345q18 -18 27.5 -31t18.5 -31l4 1q-11 36 -11 122v294h153v-710h-34l-365 365q-18 18 -27 30.5t-19 32.5l-4 -1q12 -34 12 -123v-294h-153v710h33zM552 860l-116 -117h-146l-117 117v3h131l29 -29q14 -14 20 -23t8 -19h4q3 10 8.5 19t19.5 23l28 29h131v-3z" />
    <glyph glyph-name="Ncommaaccent" unicode="&#x145;" horiz-adv-x="722" 
d="M464 345q18 -18 27.5 -31t18.5 -31l4 1q-11 36 -11 122v294h153v-710h-34l-365 365q-18 18 -27 30.5t-19 32.5l-4 -1q12 -34 12 -123v-294h-153v710h33zM377 -215h-73l27 164h146z" />
    <glyph glyph-name="Ntilde" unicode="&#xd1;" horiz-adv-x="722" 
d="M464 345q18 -18 27.5 -31t18.5 -31l4 1q-11 36 -11 122v294h153v-710h-34l-365 365q-18 18 -27 30.5t-19 32.5l-4 -1q12 -34 12 -123v-294h-153v710h33zM179 755q16 55 42.5 85t73.5 30q32 0 104 -19q54 -15 73 -15q31 0 54 37l47 -19q-16 -55 -42.5 -85.5t-73.5 -30.5
q-19 0 -40 4.5t-40 9t-25 6.5q-54 15 -72 15q-31 0 -54 -37z" />
    <glyph glyph-name="Eng" unicode="&#x14a;" horiz-adv-x="722" 
d="M656 -10h-1v-2q0 -92 -56 -140t-157 -48h-51v146h47q31 0 46.5 15.5t15.5 48.5v102l-243 243q-18 18 -27 30.5t-19 32.5l-4 -1q12 -34 12 -123v-294h-153v710h33l365 -365q18 -18 27.5 -31t18.5 -31l4 1q-11 36 -11 122v294h153v-710z" />
    <glyph glyph-name="Oacute" unicode="&#xd3;" horiz-adv-x="789" 
d="M584.5 668q83.5 -47 131 -130t47.5 -188t-47.5 -188t-131 -130t-189.5 -47t-190 47t-131.5 130t-47.5 188t47.5 188t131.5 130t190 47t189.5 -47zM285.5 538q-47.5 -27 -74 -76t-26.5 -112t26.5 -112t74 -76t109.5 -27q61 0 108.5 27t74 76t26.5 112t-26.5 112t-74 76
t-108.5 27q-62 0 -109.5 -27zM613 849l-167 -106h-104l-1 4l112 106h159z" />
    <glyph glyph-name="Obreve" unicode="&#x14e;" horiz-adv-x="789" 
d="M584.5 668q83.5 -47 131 -130t47.5 -188t-47.5 -188t-131 -130t-189.5 -47t-190 47t-131.5 130t-47.5 188t47.5 188t131.5 130t190 47t189.5 -47zM285.5 538q-47.5 -27 -74 -76t-26.5 -112t26.5 -112t74 -76t109.5 -27q61 0 108.5 27t74 76t26.5 112t-26.5 112t-74 76
t-108.5 27q-62 0 -109.5 -27zM513 770q-46 -35 -118 -35q-71 0 -117 35t-47 93h104q1 -18 17.5 -30.5t42.5 -12.5q27 0 43.5 12t17.5 31h104q-1 -58 -47 -93z" />
    <glyph glyph-name="Ocircumflex" unicode="&#xd4;" horiz-adv-x="789" 
d="M584.5 668q83.5 -47 131 -130t47.5 -188t-47.5 -188t-131 -130t-189.5 -47t-190 47t-131.5 130t-47.5 188t47.5 188t131.5 130t190 47t189.5 -47zM285.5 538q-47.5 -27 -74 -76t-26.5 -112t26.5 -112t74 -76t109.5 -27q61 0 108.5 27t74 76t26.5 112t-26.5 112t-74 76
t-108.5 27q-62 0 -109.5 -27zM205 746l117 117h146l116 -117v-3h-131l-28 29q-14 14 -19.5 23t-8.5 19h-4q-2 -10 -8 -19t-20 -23l-29 -29h-131v3z" />
    <glyph glyph-name="Odieresis" unicode="&#xd6;" horiz-adv-x="789" 
d="M584.5 668q83.5 -47 131 -130t47.5 -188t-47.5 -188t-131 -130t-189.5 -47t-190 47t-131.5 130t-47.5 188t47.5 188t131.5 130t190 47t189.5 -47zM285.5 538q-47.5 -27 -74 -76t-26.5 -112t26.5 -112t74 -76t109.5 -27q61 0 108.5 27t74 76t26.5 112t-26.5 112t-74 76
t-108.5 27q-62 0 -109.5 -27zM343 868q23 -23 23 -58q0 -34 -23 -57t-58 -23q-34 0 -57 23t-23 57q0 35 23 58t57 23q35 0 58 -23zM561 868q23 -23 23 -58q0 -34 -23 -57t-58 -23q-34 0 -57 23t-23 57q0 35 23 58t57 23q35 0 58 -23z" />
    <glyph glyph-name="OE" unicode="&#x152;" horiz-adv-x="1069" 
d="M204 31.5q-83 46.5 -130.5 129.5t-47.5 189t47.5 189t130.5 129.5t186 46.5q67 0 124 -23.5t79 -52.5l2 1q-4 19 -4 44v16h434v-138h-254q-20 0 -28 5l-2 -2q5 -8 5 -31v-69q0 -23 -5 -31l2 -2q8 5 28 5h227v-136h-227q-20 0 -28 5l-2 -2q5 -8 5 -31v-107q0 -23 -5 -31
l2 -2q8 5 28 5h258v-138h-438v20q0 19 4 39l-3 1q-13 -15 -42 -32.5t-71 -30t-89 -12.5q-103 0 -186 46.5zM542 193q58 57 58 157t-58 157t-151 57q-59 0 -105 -25t-72 -73.5t-26 -115.5t26 -115.5t72 -73.5t105 -25q93 0 151 57z" />
    <glyph glyph-name="Ograve" unicode="&#xd2;" horiz-adv-x="789" 
d="M584.5 668q83.5 -47 131 -130t47.5 -188t-47.5 -188t-131 -130t-189.5 -47t-190 47t-131.5 130t-47.5 188t47.5 188t131.5 130t190 47t189.5 -47zM285.5 538q-47.5 -27 -74 -76t-26.5 -112t26.5 -112t74 -76t109.5 -27q61 0 108.5 27t74 76t26.5 112t-26.5 112t-74 76
t-108.5 27q-62 0 -109.5 -27zM449 747l-1 -4h-105l-166 106l1 4h159z" />
    <glyph glyph-name="Ohungarumlaut" unicode="&#x150;" horiz-adv-x="789" 
d="M584.5 668q83.5 -47 131 -130t47.5 -188t-47.5 -188t-131 -130t-189.5 -47t-190 47t-131.5 130t-47.5 188t47.5 188t131.5 130t190 47t189.5 -47zM285.5 538q-47.5 -27 -74 -76t-26.5 -112t26.5 -112t74 -76t109.5 -27q61 0 108.5 27t74 76t26.5 112t-26.5 112t-74 76
t-108.5 27q-62 0 -109.5 -27zM486 851l-125 -108h-99l-1 2l115 108h109zM522 853h108l1 -2l-124 -108h-99l-1 2z" />
    <glyph glyph-name="Omacron" unicode="&#x14c;" horiz-adv-x="789" 
d="M584.5 668q83.5 -47 131 -130t47.5 -188t-47.5 -188t-131 -130t-189.5 -47t-190 47t-131.5 130t-47.5 188t47.5 188t131.5 130t190 47t189.5 -47zM285.5 538q-47.5 -27 -74 -76t-26.5 -112t26.5 -112t74 -76t109.5 -27q61 0 108.5 27t74 76t26.5 112t-26.5 112t-74 76
t-108.5 27q-62 0 -109.5 -27zM557 843v-94h-324v94h324z" />
    <glyph glyph-name="Oslash" unicode="&#xd8;" horiz-adv-x="789" 
d="M726 518q37 -76 37 -168q0 -105 -47.5 -188t-131 -130t-189.5 -47q-114 0 -202 54l-37 -53l-33 21l38 54q-64 50 -99.5 124.5t-35.5 164.5q0 105 47.5 188t131.5 130t190 47q108 0 194 -50l35 49l33 -22l-34 -48q66 -50 103 -126zM202 258.5q17 -41.5 49 -71.5l249 353
q-47 25 -105 25q-62 0 -109.5 -27t-74 -76t-26.5 -112q0 -50 17 -91.5zM503.5 162q47.5 27 74 76t26.5 112q0 53 -18.5 95.5t-52.5 71.5l-251 -353q49 -29 113 -29q61 0 108.5 27z" />
    <glyph glyph-name="Oslashacute" unicode="&#x1fe;" horiz-adv-x="789" 
d="M726 518q37 -76 37 -168q0 -105 -47.5 -188t-131 -130t-189.5 -47q-114 0 -202 54l-37 -53l-33 21l38 54q-64 50 -99.5 124.5t-35.5 164.5q0 105 47.5 188t131.5 130t190 47q108 0 194 -50l35 49l33 -22l-34 -48q66 -50 103 -126zM202 258.5q17 -41.5 49 -71.5l249 353
q-47 25 -105 25q-62 0 -109.5 -27t-74 -76t-26.5 -112q0 -50 17 -91.5zM503.5 162q47.5 27 74 76t26.5 112q0 53 -18.5 95.5t-52.5 71.5l-251 -353q49 -29 113 -29q61 0 108.5 27zM608 849l-167 -106h-104l-1 4l112 106h159z" />
    <glyph glyph-name="Otilde" unicode="&#xd5;" horiz-adv-x="789" 
d="M584.5 668q83.5 -47 131 -130t47.5 -188t-47.5 -188t-131 -130t-189.5 -47t-190 47t-131.5 130t-47.5 188t47.5 188t131.5 130t190 47t189.5 -47zM285.5 538q-47.5 -27 -74 -76t-26.5 -112t26.5 -112t74 -76t109.5 -27q61 0 108.5 27t74 76t26.5 112t-26.5 112t-74 76
t-108.5 27q-62 0 -109.5 -27zM211 755q16 55 42.5 85t73.5 30q32 0 104 -19q54 -15 73 -15q31 0 54 37l47 -19q-16 -55 -42.5 -85.5t-73.5 -30.5q-19 0 -40 4.5t-40 9t-25 6.5q-54 15 -72 15q-31 0 -54 -37z" />
    <glyph glyph-name="Racute" unicode="&#x154;" horiz-adv-x="655" 
d="M506 647.5q62 -52.5 62 -147.5q0 -54 -22.5 -98.5t-60.5 -70.5t-83 -26q-15 0 -21 1v-2q22 -6 40 -19.5t38 -38.5l196 -246h-189l-216 289q-11 0 -20 3t-16 6l-2 -2q9 -21 9 -53v-243h-155v700h266q112 0 174 -52.5zM216 570q5 -8 5 -30v-101q0 -23 -5 -31l2 -2q7 5 28 5
h85q38 0 59.5 21t21.5 58q0 36 -21.5 56.5t-59.5 20.5h-85q-21 0 -28 5zM500 849l-167 -106h-104l-1 4l112 106h159z" />
    <glyph glyph-name="Rcaron" unicode="&#x158;" horiz-adv-x="655" 
d="M506 647.5q62 -52.5 62 -147.5q0 -54 -22.5 -98.5t-60.5 -70.5t-83 -26q-15 0 -21 1v-2q22 -6 40 -19.5t38 -38.5l196 -246h-189l-216 289q-11 0 -20 3t-16 6l-2 -2q9 -21 9 -53v-243h-155v700h266q112 0 174 -52.5zM216 570q5 -8 5 -30v-101q0 -23 -5 -31l2 -2q7 5 28 5
h85q38 0 59.5 21t21.5 58q0 36 -21.5 56.5t-59.5 20.5h-85q-21 0 -28 5zM471 860l-116 -117h-146l-117 117v3h131l29 -29q14 -14 20 -23t8 -19h4q3 10 8.5 19t19.5 23l28 29h131v-3z" />
    <glyph glyph-name="Rcommaaccent" unicode="&#x156;" horiz-adv-x="655" 
d="M506 647.5q62 -52.5 62 -147.5q0 -54 -22.5 -98.5t-60.5 -70.5t-83 -26q-15 0 -21 1v-2q22 -6 40 -19.5t38 -38.5l196 -246h-189l-216 289q-11 0 -20 3t-16 6l-2 -2q9 -21 9 -53v-243h-155v700h266q112 0 174 -52.5zM216 570q5 -8 5 -30v-101q0 -23 -5 -31l2 -2q7 5 28 5
h85q38 0 59.5 21t21.5 58q0 36 -21.5 56.5t-59.5 20.5h-85q-21 0 -28 5zM312 -215h-73l27 164h146z" />
    <glyph glyph-name="Sacute" unicode="&#x15a;" horiz-adv-x="546" 
d="M507 661l-68 -135q-82 46 -152 46q-67 0 -67 -40q0 -17 11 -29.5t42 -31.5l117 -75q70 -44 100.5 -91.5t30.5 -111.5q0 -100 -66 -154t-188 -54q-68 0 -133.5 18t-123.5 52l70 139q99 -65 193 -65q42 0 65.5 15t23.5 42q0 20 -15 37t-52 40l-108 69q-63 40 -94.5 89
t-31.5 109q0 86 59.5 135.5t165.5 49.5q113 0 221 -54zM501 849l-167 -106h-104l-1 4l112 106h159z" />
    <glyph glyph-name="Scaron" unicode="&#x160;" horiz-adv-x="546" 
d="M507 661l-68 -135q-82 46 -152 46q-67 0 -67 -40q0 -17 11 -29.5t42 -31.5l117 -75q70 -44 100.5 -91.5t30.5 -111.5q0 -100 -66 -154t-188 -54q-68 0 -133.5 18t-123.5 52l70 139q99 -65 193 -65q42 0 65.5 15t23.5 42q0 20 -15 37t-52 40l-108 69q-63 40 -94.5 89
t-31.5 109q0 86 59.5 135.5t165.5 49.5q113 0 221 -54zM472 860l-116 -117h-146l-117 117v3h131l29 -29q14 -14 20 -23t8 -19h4q3 10 8.5 19t19.5 23l28 29h131v-3z" />
    <glyph glyph-name="Scedilla" unicode="&#x15e;" horiz-adv-x="546" 
d="M507 661l-68 -135q-82 46 -152 46q-67 0 -67 -40q0 -17 11 -29.5t42 -31.5l117 -75q70 -44 100.5 -91.5t30.5 -111.5q0 -100 -66 -154t-188 -54q-68 0 -133.5 18t-123.5 52l70 139q99 -65 193 -65q42 0 65.5 15t23.5 42q0 20 -15 37t-52 40l-108 69q-63 40 -94.5 89
t-31.5 109q0 86 59.5 135.5t165.5 49.5q113 0 221 -54zM280 -35q92 -14 92 -71q0 -39 -38.5 -63.5t-115.5 -53.5l-28 -11l-21 47q47 24 64.5 36.5t17.5 23.5q0 22 -49 31l47 130h58z" />
    <glyph glyph-name="Scircumflex" unicode="&#x15c;" horiz-adv-x="546" 
d="M507 661l-68 -135q-82 46 -152 46q-67 0 -67 -40q0 -17 11 -29.5t42 -31.5l117 -75q70 -44 100.5 -91.5t30.5 -111.5q0 -100 -66 -154t-188 -54q-68 0 -133.5 18t-123.5 52l70 139q99 -65 193 -65q42 0 65.5 15t23.5 42q0 20 -15 37t-52 40l-108 69q-63 40 -94.5 89
t-31.5 109q0 86 59.5 135.5t165.5 49.5q113 0 221 -54zM93 746l117 117h146l116 -117v-3h-131l-28 29q-14 14 -19.5 23t-8.5 19h-4q-2 -10 -8 -19t-20 -23l-29 -29h-131v3z" />
    <glyph glyph-name="Scommaaccent" unicode="&#x218;" horiz-adv-x="546" 
d="M507 661l-68 -135q-82 46 -152 46q-67 0 -67 -40q0 -17 11 -29.5t42 -31.5l117 -75q70 -44 100.5 -91.5t30.5 -111.5q0 -100 -66 -154t-188 -54q-68 0 -133.5 18t-123.5 52l70 139q99 -65 193 -65q42 0 65.5 15t23.5 42q0 20 -15 37t-52 40l-108 69q-63 40 -94.5 89
t-31.5 109q0 86 59.5 135.5t165.5 49.5q113 0 221 -54zM237 -215h-73l27 164h146z" />
    <glyph glyph-name="Tbar" unicode="&#x166;" horiz-adv-x="544" 
d="M346 560l-2 -2q5 -8 5 -31v-41q0 -20 -2 -25l2 -2q6 3 20 3h96v-117h-96q-14 0 -20 3l-2 -2q2 -12 2 -24v-322h-155v322q0 18 2 24l-2 2q-6 -3 -19 -3h-97v117h97q13 0 19 -3l2 2q-2 5 -2 25v41q0 23 5 31l-2 2q-8 -5 -27 -5h-165v145h533v-145h-164q-18 0 -28 5z" />
    <glyph glyph-name="Tcaron" unicode="&#x164;" horiz-adv-x="542" 
d="M536 559h-163q-18 0 -26 5l-2 -2q3 -7 3 -30v-532h-155v532q0 20 4 30l-2 2q-8 -5 -26 -5h-164v141h531v-141zM460 860l-116 -117h-146l-117 117v3h131l29 -29q14 -14 20 -23t8 -19h4q3 10 8.5 19t19.5 23l28 29h131v-3z" />
    <glyph glyph-name="uni0162" unicode="&#x162;" horiz-adv-x="542" 
d="M536 559h-163q-18 0 -26 5l-2 -2q3 -7 3 -30v-532h-155v532q0 20 4 30l-2 2q-8 -5 -26 -5h-164v141h531v-141zM287 -35q92 -14 92 -71q0 -39 -38.5 -63.5t-115.5 -53.5l-28 -11l-21 47q47 24 64.5 36.5t17.5 23.5q0 22 -49 31l47 130h58z" />
    <glyph glyph-name="uni021A" unicode="&#x21a;" horiz-adv-x="542" 
d="M536 559h-163q-18 0 -26 5l-2 -2q3 -7 3 -30v-532h-155v532q0 20 4 30l-2 2q-8 -5 -26 -5h-164v141h531v-141zM244 -215h-73l27 164h146z" />
    <glyph glyph-name="Thorn" unicode="&#xde;" horiz-adv-x="560" 
d="M205 596q0 -24 -2 -28l2 -2q4 3 20 3h84q118 0 178.5 -54.5t60.5 -154.5t-60.5 -154.5t-178.5 -54.5h-84q-16 0 -20 3l-2 -2q2 -4 2 -28v-124h-139v700h139v-104zM203 438q2 -5 2 -23v-110q0 -18 -2 -23l2 -2q6 3 19 3h87q45 0 69.5 20t24.5 57t-24.5 57t-69.5 20h-87
q-13 0 -19 3z" />
    <glyph glyph-name="Uacute" unicode="&#xda;" horiz-adv-x="711" 
d="M651 280q0 -139 -77.5 -216t-217.5 -77t-218 77t-78 216v420h158v-412q0 -70 37 -110t101 -40q63 0 100.5 40.5t37.5 109.5v412h157v-420zM574 849l-167 -106h-104l-1 4l112 106h159z" />
    <glyph glyph-name="Ubreve" unicode="&#x16c;" horiz-adv-x="711" 
d="M651 280q0 -139 -77.5 -216t-217.5 -77t-218 77t-78 216v420h158v-412q0 -70 37 -110t101 -40q63 0 100.5 40.5t37.5 109.5v412h157v-420zM474 770q-46 -35 -118 -35q-71 0 -117 35t-47 93h104q1 -18 17.5 -30.5t42.5 -12.5q27 0 43.5 12t17.5 31h104q-1 -58 -47 -93z
" />
    <glyph glyph-name="Ucircumflex" unicode="&#xdb;" horiz-adv-x="711" 
d="M651 280q0 -139 -77.5 -216t-217.5 -77t-218 77t-78 216v420h158v-412q0 -70 37 -110t101 -40q63 0 100.5 40.5t37.5 109.5v412h157v-420zM166 746l117 117h146l116 -117v-3h-131l-28 29q-14 14 -19.5 23t-8.5 19h-4q-2 -10 -8 -19t-20 -23l-29 -29h-131v3z" />
    <glyph glyph-name="Udieresis" unicode="&#xdc;" horiz-adv-x="711" 
d="M651 280q0 -139 -77.5 -216t-217.5 -77t-218 77t-78 216v420h158v-412q0 -70 37 -110t101 -40q63 0 100.5 40.5t37.5 109.5v412h157v-420zM305 868q23 -23 23 -58q0 -34 -23 -57t-58 -23q-34 0 -57 23t-23 57q0 35 23 58t57 23q35 0 58 -23zM523 868q23 -23 23 -58
q0 -34 -23 -57t-58 -23q-34 0 -57 23t-23 57q0 35 23 58t57 23q35 0 58 -23z" />
    <glyph glyph-name="Ugrave" unicode="&#xd9;" horiz-adv-x="711" 
d="M651 280q0 -139 -77.5 -216t-217.5 -77t-218 77t-78 216v420h158v-412q0 -70 37 -110t101 -40q63 0 100.5 40.5t37.5 109.5v412h157v-420zM410 747l-1 -4h-105l-166 106l1 4h159z" />
    <glyph glyph-name="Uhungarumlaut" unicode="&#x170;" horiz-adv-x="711" 
d="M651 280q0 -139 -77.5 -216t-217.5 -77t-218 77t-78 216v420h158v-412q0 -70 37 -110t101 -40q63 0 100.5 40.5t37.5 109.5v412h157v-420zM447 851l-125 -108h-99l-1 2l115 108h109zM483 853h108l1 -2l-124 -108h-99l-1 2z" />
    <glyph glyph-name="Umacron" unicode="&#x16a;" horiz-adv-x="711" 
d="M651 280q0 -139 -77.5 -216t-217.5 -77t-218 77t-78 216v420h158v-412q0 -70 37 -110t101 -40q63 0 100.5 40.5t37.5 109.5v412h157v-420zM518 843v-94h-324v94h324z" />
    <glyph glyph-name="Uogonek" unicode="&#x172;" horiz-adv-x="711" 
d="M651 280q0 -139 -77.5 -216t-217.5 -77t-218 77t-78 216v420h158v-412q0 -70 37 -110t101 -40q63 0 100.5 40.5t37.5 109.5v412h157v-420zM482 10q-84 -76 -84 -104q0 -10 7.5 -16t19.5 -6q16 0 39 5l13 -93q-16 -2 -25 -4q-32 -5 -46 -5q-52 0 -81.5 21t-29.5 65
q0 34 27 68.5t84 82.5z" />
    <glyph glyph-name="Uring" unicode="&#x16e;" horiz-adv-x="711" 
d="M651 280q0 -139 -77.5 -216t-217.5 -77t-218 77t-78 216v420h158v-412q0 -70 37 -110t101 -40q63 0 100.5 40.5t37.5 109.5v412h157v-420zM269 687q-34 33 -34 83q0 51 34 84t87 33t86.5 -33t33.5 -84t-33.5 -83.5t-86.5 -32.5t-87 33zM397 731q16 16 16 39q0 24 -16 40
t-41 16q-26 0 -41.5 -16t-15.5 -40q0 -23 15.5 -39t41.5 -16q25 0 41 16z" />
    <glyph glyph-name="Utilde" unicode="&#x168;" horiz-adv-x="711" 
d="M651 280q0 -139 -77.5 -216t-217.5 -77t-218 77t-78 216v420h158v-412q0 -70 37 -110t101 -40q63 0 100.5 40.5t37.5 109.5v412h157v-420zM172 755q16 55 42.5 85t73.5 30q32 0 104 -19q54 -15 73 -15q31 0 54 37l47 -19q-16 -55 -42.5 -85.5t-73.5 -30.5q-19 0 -40 4.5
t-40 9t-25 6.5q-54 15 -72 15q-31 0 -54 -37z" />
    <glyph glyph-name="Wacute" unicode="&#x1e82;" horiz-adv-x="999" 
d="M656 385q12 -28 17 -44.5t9 -43.5h4q4 29 8 47.5t13 43.5l110 312h177l-287 -707h-32l-150 332q-18 41 -23 77h-4q-5 -33 -24 -77l-150 -332h-32l-287 707h178l109 -312q9 -27 14 -45t8 -46h4q4 27 9 43.5t17 44.5l145 325h21zM718 849l-167 -106h-104l-1 4l112 106h159z
" />
    <glyph glyph-name="Wcircumflex" unicode="&#x174;" horiz-adv-x="999" 
d="M656 385q12 -28 17 -44.5t9 -43.5h4q4 29 8 47.5t13 43.5l110 312h177l-287 -707h-32l-150 332q-18 41 -23 77h-4q-5 -33 -24 -77l-150 -332h-32l-287 707h178l109 -312q9 -27 14 -45t8 -46h4q4 27 9 43.5t17 44.5l145 325h21zM310 746l117 117h146l116 -117v-3h-131
l-28 29q-14 14 -19.5 23t-8.5 19h-4q-2 -10 -8 -19t-20 -23l-29 -29h-131v3z" />
    <glyph glyph-name="Wdieresis" unicode="&#x1e84;" horiz-adv-x="999" 
d="M656 385q12 -28 17 -44.5t9 -43.5h4q4 29 8 47.5t13 43.5l110 312h177l-287 -707h-32l-150 332q-18 41 -23 77h-4q-5 -33 -24 -77l-150 -332h-32l-287 707h178l109 -312q9 -27 14 -45t8 -46h4q4 27 9 43.5t17 44.5l145 325h21zM449 868q23 -23 23 -58q0 -34 -23 -57
t-58 -23q-34 0 -57 23t-23 57q0 35 23 58t57 23q35 0 58 -23zM667 868q23 -23 23 -58q0 -34 -23 -57t-58 -23q-34 0 -57 23t-23 57q0 35 23 58t57 23q35 0 58 -23z" />
    <glyph glyph-name="Wgrave" unicode="&#x1e80;" horiz-adv-x="999" 
d="M656 385q12 -28 17 -44.5t9 -43.5h4q4 29 8 47.5t13 43.5l110 312h177l-287 -707h-32l-150 332q-18 41 -23 77h-4q-5 -33 -24 -77l-150 -332h-32l-287 707h178l109 -312q9 -27 14 -45t8 -46h4q4 27 9 43.5t17 44.5l145 325h21zM554 747l-1 -4h-105l-166 106l1 4h159z" />
    <glyph glyph-name="Yacute" unicode="&#xdd;" horiz-adv-x="671" 
d="M413 248v-248h-155v248l-253 452h184l108 -227q4 -9 15 -31t15.5 -34.5t7.5 -28.5h2q4 20 9 33.5t14.5 33l13.5 27.5l108 227h184zM554 849l-167 -106h-104l-1 4l112 106h159z" />
    <glyph glyph-name="Ycircumflex" unicode="&#x176;" horiz-adv-x="671" 
d="M413 248v-248h-155v248l-253 452h184l108 -227q4 -9 15 -31t15.5 -34.5t7.5 -28.5h2q4 20 9 33.5t14.5 33l13.5 27.5l108 227h184zM146 746l117 117h146l116 -117v-3h-131l-28 29q-14 14 -19.5 23t-8.5 19h-4q-2 -10 -8 -19t-20 -23l-29 -29h-131v3z" />
    <glyph glyph-name="Ydieresis" unicode="&#x178;" horiz-adv-x="671" 
d="M413 248v-248h-155v248l-253 452h184l108 -227q4 -9 15 -31t15.5 -34.5t7.5 -28.5h2q4 20 9 33.5t14.5 33l13.5 27.5l108 227h184zM285 868q23 -23 23 -58q0 -34 -23 -57t-58 -23q-34 0 -57 23t-23 57q0 35 23 58t57 23q35 0 58 -23zM503 868q23 -23 23 -58
q0 -34 -23 -57t-58 -23q-34 0 -57 23t-23 57q0 35 23 58t57 23q35 0 58 -23z" />
    <glyph glyph-name="Ygrave" unicode="&#x1ef2;" horiz-adv-x="671" 
d="M413 248v-248h-155v248l-253 452h184l108 -227q4 -9 15 -31t15.5 -34.5t7.5 -28.5h2q4 20 9 33.5t14.5 33l13.5 27.5l108 227h184zM390 747l-1 -4h-105l-166 106l1 4h159z" />
    <glyph glyph-name="Zacute" unicode="&#x179;" horiz-adv-x="659" 
d="M647 695l-387 -567l4 -2q19 11 41 15t60 4h288l-77 -145h-568l-3 5l391 568l-3 2q-17 -10 -41 -14.5t-61 -4.5h-241l74 144h521zM573 849l-167 -106h-104l-1 4l112 106h159z" />
    <glyph glyph-name="Zcaron" unicode="&#x17d;" horiz-adv-x="659" 
d="M647 695l-387 -567l4 -2q19 11 41 15t60 4h288l-77 -145h-568l-3 5l391 568l-3 2q-17 -10 -41 -14.5t-61 -4.5h-241l74 144h521zM544 860l-116 -117h-146l-117 117v3h131l29 -29q14 -14 20 -23t8 -19h4q3 10 8.5 19t19.5 23l28 29h131v-3z" />
    <glyph glyph-name="Zdotaccent" unicode="&#x17b;" horiz-adv-x="659" 
d="M647 695l-387 -567l4 -2q19 11 41 15t60 4h288l-77 -145h-568l-3 5l391 568l-3 2q-17 -10 -41 -14.5t-61 -4.5h-241l74 144h521zM413 868q23 -23 23 -58q0 -34 -23 -57t-58 -23q-34 0 -57 23t-23 57q0 35 23 58t57 23q35 0 58 -23z" />
    <glyph glyph-name="a" unicode="a" horiz-adv-x="529" 
d="M431 434q52 -43 52 -141v-293h-151q0 51 16 92l-5 3q-24 -54 -65 -82t-97 -28q-74 0 -119.5 44.5t-45.5 117.5q0 72 45.5 115t121.5 43q108 0 158 -86l4 2q-8 24 -8 74q0 28 -26 44t-70 16q-32 0 -62 -3t-79 -12l-21 120q93 17 181 17q119 0 171 -43zM196 199.5
q-18 -16.5 -18 -42.5t18 -42.5t46 -16.5t46.5 16.5t18.5 42.5t-18.5 42.5t-46.5 16.5t-46 -16.5z" />
    <glyph glyph-name="b" unicode="b" horiz-adv-x="601" 
d="M258.5 16.5q-44.5 31.5 -64.5 88.5l-4 -1q8 -48 8 -104h-147v715h151v-225q0 -82 -13 -132l4 -1q49 120 171 120q63 0 111 -31t74.5 -87t26.5 -129t-26.5 -128.5t-74.5 -86t-111 -30.5q-61 0 -105.5 31.5zM390.5 150q30.5 30 30.5 81t-31 81t-82 30q-52 0 -82.5 -30.5
t-30.5 -80.5t30.5 -80.5t82.5 -30.5t82.5 30z" />
    <glyph glyph-name="c" unicode="c" horiz-adv-x="461" 
d="M148.5 16q-58.5 31 -91 87t-32.5 128t32.5 128t91 87t133.5 31q92 0 167 -45l-61 -121q-24 15 -47 21.5t-52 6.5q-50 0 -81 -30t-31 -78q0 -47 31.5 -77.5t80.5 -30.5q29 0 52 6.5t47 21.5l61 -121q-75 -45 -167 -45q-75 0 -133.5 31z" />
    <glyph glyph-name="d" unicode="d" horiz-adv-x="601" 
d="M342.5 16.5q44.5 31.5 64.5 88.5l4 -1q-8 -48 -8 -104h147v715h-151v-225q0 -82 13 -132l-4 -1q-49 120 -171 120q-63 0 -111 -31t-74.5 -87t-26.5 -129t26.5 -128.5t74.5 -86t111 -30.5q61 0 105.5 31.5zM210.5 150q-30.5 30 -30.5 81t31 81t82 30q52 0 82.5 -30.5
t30.5 -80.5t-30.5 -80.5t-82.5 -30.5t-82.5 30z" />
    <glyph glyph-name="e" unicode="e" horiz-adv-x="520" 
d="M438 412.5q61 -63.5 61 -179.5v-40h-274q-21 0 -32 2t-22 10l-2 -3l4 -11q10 -40 39 -61t76 -21q37 0 72 11.5t62 29.5l50 -115q-85 -50 -183 -50q-121 0 -192.5 66t-71.5 181q0 75 31 130t86.5 84.5t127.5 29.5q107 0 168 -63.5zM198 341q-26 -23 -31 -63l2 -3q8 9 42 9
h101q31 0 38 -8l2 2q-2 42 -25.5 64t-62.5 22q-40 0 -66 -23z" />
    <glyph glyph-name="f" unicode="f" horiz-adv-x="362" 
d="M351 573h-12q-52 0 -73.5 -16.5t-21.5 -58.5v-7q0 -21 -7 -34l2 -2q8 5 17.5 6t27.5 1h67v-127h-67q-20 0 -28.5 1t-16.5 6l-2 -2q5 -8 6 -19.5t1 -37.5v-283h-151v283q0 26 1 37.5t6 19.5l-2 2q-8 -5 -16.5 -6t-28.5 -1h-42v127h42q18 0 27.5 -1t17.5 -6l2 2
q-7 13 -7 34v7q0 110 57 161t170 51h31v-137z" />
    <glyph glyph-name="g" unicode="g" horiz-adv-x="601" 
d="M408 357l4 1q-13 47 -13 104h151v-422q0 -134 -70.5 -195t-194.5 -61q-134 0 -236 59l64 123q41 -21 78.5 -32t82.5 -11q61 0 95 25.5t34 78.5v9q0 23 9 68l-4 1q-30 -57 -71.5 -84t-99.5 -27q-63 0 -111 28.5t-74.5 82t-26.5 125.5q0 75 27 131t75.5 86t110.5 30
q118 0 170 -120zM210.5 309.5q-30.5 -29.5 -30.5 -78.5t30.5 -78.5t76.5 -29.5q47 0 78 29.5t31 78.5t-31 78.5t-78 29.5q-46 0 -76.5 -29.5z" />
    <glyph glyph-name="h" unicode="h" horiz-adv-x="573" 
d="M202 502q0 -50 -2.5 -80.5t-8.5 -62.5l4 -2q25 58 63 89t101 31q79 0 123 -48t44 -140v-289h-150v247q0 53 -20 75.5t-59 22.5q-43 0 -69 -29.5t-26 -92.5v-223h-151v715h151v-213z" />
    <glyph glyph-name="i" unicode="i" horiz-adv-x="254" 
d="M202 0h-151v462h151v-462zM194.5 683.5q26.5 -26.5 26.5 -67.5q0 -42 -26.5 -68t-67.5 -26q-42 0 -68 26t-26 68q0 41 26 67.5t68 26.5q41 0 67.5 -26.5z" />
    <glyph glyph-name="j" unicode="j" horiz-adv-x="254" 
d="M202 -14q0 -201 -211 -201h-14v139h9q65 0 65 71v467h151v-476zM194.5 683.5q26.5 -26.5 26.5 -67.5q0 -42 -26.5 -68t-67.5 -26q-42 0 -68 26t-26 68q0 41 26 67.5t68 26.5q41 0 67.5 -26.5z" />
    <glyph glyph-name="k" unicode="k" horiz-adv-x="554" 
d="M202 372q0 -73 -17 -113l3 -1l173 204h181l-159 -172q-32 -34 -50 -38v-4q9 -2 18 -9.5t23 -23.5l180 -215h-191l-175 228l-3 -2q17 -36 17 -104v-122h-151v715h151v-343z" />
    <glyph glyph-name="l" unicode="l" horiz-adv-x="254" 
d="M202 0h-151v715h151v-715z" />
    <glyph glyph-name="m" unicode="m" horiz-adv-x="869" 
d="M51 462h148q0 -27 -2.5 -47.5t-8.5 -47.5l4 -2q26 58 63 85t96 27q61 0 95.5 -29t49.5 -85h4q21 52 60 83t101 31q76 0 119 -46t43 -138v-293h-151v245q0 54 -20 76.5t-56 22.5q-86 0 -86 -120v-224h-145v247q0 53 -20 75t-56 22q-87 0 -87 -120v-224h-151v462z" />
    <glyph glyph-name="n" unicode="n" horiz-adv-x="573" 
d="M484 429.5q42 -47.5 42 -140.5v-289h-150v247q0 49 -20.5 73.5t-57.5 24.5q-45 0 -70.5 -29.5t-25.5 -92.5v-223h-151v462h149q0 -40 -2 -60.5t-7 -43.5l4 -2q23 56 63.5 88.5t105.5 32.5q78 0 120 -47.5z" />
    <glyph glyph-name="o" unicode="o" horiz-adv-x="570" 
d="M418 446.5q59 -30.5 92.5 -86.5t33.5 -129t-33.5 -129t-92.5 -86.5t-133 -30.5q-75 0 -134 30.5t-92.5 86.5t-33.5 129t33.5 129t92.5 86.5t134 30.5q74 0 133 -30.5zM207.5 309.5q-30.5 -29.5 -30.5 -78.5t30.5 -78.5t77.5 -29.5t77.5 29.5t30.5 78.5t-30.5 78.5
t-77.5 29.5t-77.5 -29.5z" />
    <glyph glyph-name="p" unicode="p" horiz-adv-x="601" 
d="M473.5 447q48.5 -30 75.5 -86t27 -131q0 -74 -26.5 -129.5t-74.5 -85.5t-111 -30q-59 0 -103.5 30.5t-66.5 89.5l-4 -1q9 -54 9 -90v-214h-148v662h149q0 -61 -11 -104l4 -1q52 120 170 120q62 0 110.5 -30zM226 312q-31 -30 -31 -81t31 -81t82 -30t82 30t31 81t-31 81
t-82 30t-82 -30z" />
    <glyph glyph-name="q" unicode="q" horiz-adv-x="601" 
d="M127.5 447q-48.5 -30 -75.5 -86t-27 -131q0 -74 26.5 -129.5t74.5 -85.5t111 -30q59 0 103.5 30.5t66.5 89.5l4 -1q-9 -54 -9 -90v-214h148v662h-149q0 -61 11 -104l-4 -1q-52 120 -170 120q-62 0 -110.5 -30zM375 312q31 -30 31 -81t-31 -81t-82 -30t-82 30t-31 81
t31 81t82 30t82 -30z" />
    <glyph glyph-name="r" unicode="r" horiz-adv-x="373" 
d="M367 474v-148q-23 2 -45 2q-59 0 -89.5 -33t-30.5 -107v-188h-151v462h143q0 -76 -14 -152l4 -1q35 167 147 167q16 0 36 -2z" />
    <glyph glyph-name="s" unicode="s" horiz-adv-x="428" 
d="M6 33l56 119q76 -49 159 -49q24 0 34.5 5t10.5 17q0 9 -6 13.5t-25 13.5l-83 34q-109 43 -109 143q0 70 50.5 109t142.5 39q76 0 167 -30l-43 -117q-33 15 -68.5 23.5t-63.5 8.5q-40 0 -40 -20q0 -10 7.5 -16t31.5 -16l77 -30q57 -23 82.5 -55.5t25.5 -83.5
q0 -74 -52.5 -115t-148.5 -41q-112 0 -205 48z" />
    <glyph glyph-name="t" unicode="t" horiz-adv-x="347" 
d="M244 497q0 -10 -1 -21t-6 -19l2 -2q8 5 17.5 6t27.5 1h51v-127h-51q-20 0 -28.5 1t-16.5 6l-2 -2q5 -8 6 -19.5t1 -37.5v-283h-151v283q0 26 1 37.5t6 19.5l-2 2q-8 -5 -16.5 -6t-28.5 -1h-42v127h42q18 0 27.5 -1t17.5 -6l2 2q-7 12 -7 40v120l136 92h15v-212z" />
    <glyph glyph-name="u" unicode="u" horiz-adv-x="566" 
d="M515 0h-147q0 53 15 116l-4 1q-24 -66 -63 -99t-100 -33q-76 0 -123 49t-47 142v286h155v-241q0 -51 20.5 -75t56.5 -24q38 0 62 27.5t24 84.5v228h151v-462z" />
    <glyph glyph-name="v" unicode="v" horiz-adv-x="537" 
d="M296 -10h-54l-241 472h167l73 -173q3 -6 10 -23t11 -32t6 -32h2q3 25 8.5 41t18.5 46l73 173h166z" />
    <glyph glyph-name="w" unicode="w" horiz-adv-x="773" 
d="M1 462h165l56 -140q16 -39 21.5 -55.5t8.5 -36.5h4q4 21 10.5 37t26.5 56l75 149h37l75 -149q20 -40 26.5 -56t10.5 -37h4q3 20 10.5 41t19.5 51l57 140h165l-221 -472h-41l-82 162q-4 7 -15.5 30.5t-16.5 37t-8 27.5h-4q-5 -20 -12 -36.5t-28 -58.5l-83 -162h-41z" />
    <glyph glyph-name="x" unicode="x" horiz-adv-x="568" 
d="M166 214q14 20 28 28v3q-17 12 -26 25l-146 192h179l54 -79q13 -18 19 -32t9 -33h4q3 18 9 32.5t18 32.5l53 79h179l-146 -193q-13 -17 -27 -25v-3q13 -7 28 -28l161 -213h-178l-76 104q-11 16 -16 29.5t-7 34.5h-4q-4 -21 -9 -34.5t-16 -29.5l-73 -104h-178z" />
    <glyph glyph-name="y" unicode="y" horiz-adv-x="537" 
d="M241 -200h-151l108 236l-197 426h162l77 -181q13 -31 18.5 -54.5t7.5 -59.5l4 1q3 45 21 88l83 206h162z" />
    <glyph glyph-name="z" unicode="z" horiz-adv-x="500" 
d="M-4 5l272 349l-3 3q-19 -11 -36.5 -15t-50.5 -4h-140l71 124h389l2 -5l-266 -348l4 -3q17 11 35.5 14.5t58.5 3.5h163l-76 -124h-421z" />
    <glyph glyph-name="aacute" unicode="&#xe1;" horiz-adv-x="529" 
d="M431 434q52 -43 52 -141v-293h-151q0 51 16 92l-5 3q-24 -54 -65 -82t-97 -28q-74 0 -119.5 44.5t-45.5 117.5q0 72 45.5 115t121.5 43q108 0 158 -86l4 2q-8 24 -8 74q0 28 -26 44t-70 16q-32 0 -62 -3t-79 -12l-21 120q93 17 181 17q119 0 171 -43zM196 199.5
q-18 -16.5 -18 -42.5t18 -42.5t46 -16.5t46.5 16.5t18.5 42.5t-18.5 42.5t-46.5 16.5t-46 -16.5zM456 703l-149 -150h-104l-1 4l112 150h141z" />
    <glyph glyph-name="abreve" unicode="&#x103;" horiz-adv-x="529" 
d="M431 434q52 -43 52 -141v-293h-151q0 51 16 92l-5 3q-24 -54 -65 -82t-97 -28q-74 0 -119.5 44.5t-45.5 117.5q0 72 45.5 115t121.5 43q108 0 158 -86l4 2q-8 24 -8 74q0 28 -26 44t-70 16q-32 0 -62 -3t-79 -12l-21 120q93 17 181 17q119 0 171 -43zM196 199.5
q-18 -16.5 -18 -42.5t18 -42.5t46 -16.5t46.5 16.5t18.5 42.5t-18.5 42.5t-46.5 16.5t-46 -16.5zM403.5 629.5q-21.5 -36.5 -59 -57t-84.5 -20.5q-46 0 -83.5 20.5t-59 57t-21.5 84.5h94q2 -30 18.5 -49.5t51.5 -19.5t51.5 19.5t18.5 49.5h95q0 -48 -21.5 -84.5z" />
    <glyph glyph-name="acircumflex" unicode="&#xe2;" horiz-adv-x="529" 
d="M431 434q52 -43 52 -141v-293h-151q0 51 16 92l-5 3q-24 -54 -65 -82t-97 -28q-74 0 -119.5 44.5t-45.5 117.5q0 72 45.5 115t121.5 43q108 0 158 -86l4 2q-8 24 -8 74q0 28 -26 44t-70 16q-32 0 -62 -3t-79 -12l-21 120q93 17 181 17q119 0 171 -43zM196 199.5
q-18 -16.5 -18 -42.5t18 -42.5t46 -16.5t46.5 16.5t18.5 42.5t-18.5 42.5t-46.5 16.5t-46 -16.5zM448 558v-5h-121l-33 43q-17 22 -24 35.5t-9 32.5h-3q-2 -19 -8.5 -32.5t-23.5 -35.5l-34 -43h-120v5l116 149h144z" />
    <glyph glyph-name="adieresis" unicode="&#xe4;" horiz-adv-x="529" 
d="M431 434q52 -43 52 -141v-293h-151q0 51 16 92l-5 3q-24 -54 -65 -82t-97 -28q-74 0 -119.5 44.5t-45.5 117.5q0 72 45.5 115t121.5 43q108 0 158 -86l4 2q-8 24 -8 74q0 28 -26 44t-70 16q-32 0 -62 -3t-79 -12l-21 120q93 17 181 17q119 0 171 -43zM196 199.5
q-18 -16.5 -18 -42.5t18 -42.5t46 -16.5t46.5 16.5t18.5 42.5t-18.5 42.5t-46.5 16.5t-46 -16.5zM213.5 677q22.5 -23 22.5 -58q0 -34 -22.5 -57t-57.5 -23t-58 22.5t-23 57.5t23 58t58 23t57.5 -23zM422.5 677q22.5 -23 22.5 -58q0 -34 -22.5 -57t-57.5 -23t-58 22.5
t-23 57.5t23 58t58 23t57.5 -23z" />
    <glyph glyph-name="ae" unicode="&#xe6;" horiz-adv-x="822" 
d="M61 31.5q-45 46.5 -45 117.5q0 73 47 114.5t123 41.5q105 0 156 -86l3 2q-8 30 -8 74q-1 27 -25 43.5t-78 16.5q-40 0 -134 -15l-21 120q93 17 178 17q63 0 96.5 -16.5t54.5 -56.5h1q59 72 165 72q104 0 166 -64.5t62 -178.5v-40h-274q-21 0 -32 2t-22 9l-2 -3l4 -9
q8 -39 37 -61t77 -22q37 0 72.5 11.5t62.5 29.5l50 -115q-85 -50 -179 -50q-76 0 -129.5 31t-81.5 85h-2q-24 -51 -77 -83.5t-120 -32.5q-80 0 -125 46.5zM515 284h100q30 0 38 -8l2 2q-2 42 -25.5 64t-62.5 22q-40 0 -66 -22.5t-32 -62.5l2 -3q11 8 44 8zM288.5 114
q18.5 16 18.5 43t-18.5 43t-46.5 16t-46 -16t-18 -43t18 -43t46 -16t46.5 16z" />
    <glyph glyph-name="aeacute" unicode="&#x1fd;" horiz-adv-x="822" 
d="M61 31.5q-45 46.5 -45 117.5q0 73 47 114.5t123 41.5q105 0 156 -86l3 2q-8 30 -8 74q-1 27 -25 43.5t-78 16.5q-40 0 -134 -15l-21 120q93 17 178 17q63 0 96.5 -16.5t54.5 -56.5h1q59 72 165 72q104 0 166 -64.5t62 -178.5v-40h-274q-21 0 -32 2t-22 9l-2 -3l4 -9
q8 -39 37 -61t77 -22q37 0 72.5 11.5t62.5 29.5l50 -115q-85 -50 -179 -50q-76 0 -129.5 31t-81.5 85h-2q-24 -51 -77 -83.5t-120 -32.5q-80 0 -125 46.5zM515 284h100q30 0 38 -8l2 2q-2 42 -25.5 64t-62.5 22q-40 0 -66 -22.5t-32 -62.5l2 -3q11 8 44 8zM288.5 114
q18.5 16 18.5 43t-18.5 43t-46.5 16t-46 -16t-18 -43t18 -43t46 -16t46.5 16zM625 703l-149 -150h-104l-1 4l112 150h141z" />
    <glyph glyph-name="agrave" unicode="&#xe0;" horiz-adv-x="529" 
d="M431 434q52 -43 52 -141v-293h-151q0 51 16 92l-5 3q-24 -54 -65 -82t-97 -28q-74 0 -119.5 44.5t-45.5 117.5q0 72 45.5 115t121.5 43q108 0 158 -86l4 2q-8 24 -8 74q0 28 -26 44t-70 16q-32 0 -62 -3t-79 -12l-21 120q93 17 181 17q119 0 171 -43zM196 199.5
q-18 -16.5 -18 -42.5t18 -42.5t46 -16.5t46.5 16.5t18.5 42.5t-18.5 42.5t-46.5 16.5t-46 -16.5zM64 703l1 4h141l112 -150l-1 -4h-104z" />
    <glyph glyph-name="amacron" unicode="&#x101;" horiz-adv-x="529" 
d="M431 434q52 -43 52 -141v-293h-151q0 51 16 92l-5 3q-24 -54 -65 -82t-97 -28q-74 0 -119.5 44.5t-45.5 117.5q0 72 45.5 115t121.5 43q108 0 158 -86l4 2q-8 24 -8 74q0 28 -26 44t-70 16q-32 0 -62 -3t-79 -12l-21 120q93 17 181 17q119 0 171 -43zM196 199.5
q-18 -16.5 -18 -42.5t18 -42.5t46 -16.5t46.5 16.5t18.5 42.5t-18.5 42.5t-46.5 16.5t-46 -16.5zM414 579h-308v97h308v-97z" />
    <glyph glyph-name="aogonek" unicode="&#x105;" horiz-adv-x="529" 
d="M431 434q52 -43 52 -141v-293h-151q0 51 16 92l-5 3q-24 -54 -65 -82t-97 -28q-74 0 -119.5 44.5t-45.5 117.5q0 72 45.5 115t121.5 43q108 0 158 -86l4 2q-8 24 -8 74q0 28 -26 44t-70 16q-32 0 -62 -3t-79 -12l-21 120q93 17 181 17q119 0 171 -43zM196 199.5
q-18 -16.5 -18 -42.5t18 -42.5t46 -16.5t46.5 16.5t18.5 42.5t-18.5 42.5t-46.5 16.5t-46 -16.5zM418 10q-84 -76 -84 -104q0 -10 7.5 -16t19.5 -6q16 0 39 5l13 -93q-16 -2 -25 -4q-32 -5 -46 -5q-52 0 -81.5 21t-29.5 65q0 34 27 68.5t84 82.5z" />
    <glyph glyph-name="aring" unicode="&#xe5;" horiz-adv-x="529" 
d="M431 434q52 -43 52 -141v-293h-151q0 51 16 92l-5 3q-24 -54 -65 -82t-97 -28q-74 0 -119.5 44.5t-45.5 117.5q0 72 45.5 115t121.5 43q108 0 158 -86l4 2q-8 24 -8 74q0 28 -26 44t-70 16q-32 0 -62 -3t-79 -12l-21 120q93 17 181 17q119 0 171 -43zM196 199.5
q-18 -16.5 -18 -42.5t18 -42.5t46 -16.5t46.5 16.5t18.5 42.5t-18.5 42.5t-46.5 16.5t-46 -16.5zM347 714q34 -33 34 -84t-34 -84t-86 -33t-86 33t-34 84t34 84t86 33t86 -33zM220.5 669.5q-15.5 -15.5 -15.5 -39.5t15.5 -39.5t40.5 -15.5t40.5 15.5t15.5 39.5t-15.5 39.5
t-40.5 15.5t-40.5 -15.5z" />
    <glyph glyph-name="atilde" unicode="&#xe3;" horiz-adv-x="529" 
d="M431 434q52 -43 52 -141v-293h-151q0 51 16 92l-5 3q-24 -54 -65 -82t-97 -28q-74 0 -119.5 44.5t-45.5 117.5q0 72 45.5 115t121.5 43q108 0 158 -86l4 2q-8 24 -8 74q0 28 -26 44t-70 16q-32 0 -62 -3t-79 -12l-21 120q93 17 181 17q119 0 171 -43zM196 199.5
q-18 -16.5 -18 -42.5t18 -42.5t46 -16.5t46.5 16.5t18.5 42.5t-18.5 42.5t-46.5 16.5t-46 -16.5zM237.5 699q23.5 -7 56.5 -20q4 -1 27 -9.5t37 -8.5q17 0 30 11.5t24 34.5l57 -19q-16 -63 -42.5 -98t-72.5 -35q-23 0 -46.5 7t-56.5 20q-47 19 -64 19t-30 -11.5t-24 -35.5
l-57 20q16 63 42.5 97.5t72.5 34.5q23 0 46.5 -7z" />
    <glyph glyph-name="cacute" unicode="&#x107;" horiz-adv-x="461" 
d="M148.5 16q-58.5 31 -91 87t-32.5 128t32.5 128t91 87t133.5 31q92 0 167 -45l-61 -121q-24 15 -47 21.5t-52 6.5q-50 0 -81 -30t-31 -78q0 -47 31.5 -77.5t80.5 -30.5q29 0 52 6.5t47 21.5l61 -121q-75 -45 -167 -45q-75 0 -133.5 31zM466 703l-149 -150h-104l-1 4
l112 150h141z" />
    <glyph glyph-name="ccaron" unicode="&#x10d;" horiz-adv-x="461" 
d="M148.5 16q-58.5 31 -91 87t-32.5 128t32.5 128t91 87t133.5 31q92 0 167 -45l-61 -121q-24 15 -47 21.5t-52 6.5q-50 0 -81 -30t-31 -78q0 -47 31.5 -77.5t80.5 -30.5q29 0 52 6.5t47 21.5l61 -121q-75 -45 -167 -45q-75 0 -133.5 31zM89 702v5h121l33 -43
q18 -22 24.5 -35.5t8.5 -32.5h3q2 19 8.5 32.5t23.5 35.5l34 43h120v-5l-116 -149h-144z" />
    <glyph glyph-name="ccedilla" unicode="&#xe7;" horiz-adv-x="461" 
d="M148.5 16q-58.5 31 -91 87t-32.5 128t32.5 128t91 87t133.5 31q92 0 167 -45l-61 -121q-24 15 -47 21.5t-52 6.5q-50 0 -81 -30t-31 -78q0 -47 31.5 -77.5t80.5 -30.5q29 0 52 6.5t47 21.5l61 -121q-75 -45 -167 -45q-75 0 -133.5 31zM293 -35q92 -14 92 -71
q0 -39 -38.5 -63.5t-115.5 -53.5l-28 -11l-21 47q47 24 64.5 36.5t17.5 23.5q0 22 -49 31l47 130h58z" />
    <glyph glyph-name="ccircumflex" unicode="&#x109;" horiz-adv-x="461" 
d="M148.5 16q-58.5 31 -91 87t-32.5 128t32.5 128t91 87t133.5 31q92 0 167 -45l-61 -121q-24 15 -47 21.5t-52 6.5q-50 0 -81 -30t-31 -78q0 -47 31.5 -77.5t80.5 -30.5q29 0 52 6.5t47 21.5l61 -121q-75 -45 -167 -45q-75 0 -133.5 31zM458 558v-5h-121l-33 43
q-17 22 -24 35.5t-9 32.5h-3q-2 -19 -8.5 -32.5t-23.5 -35.5l-34 -43h-120v5l116 149h144z" />
    <glyph glyph-name="cdotaccent" unicode="&#x10b;" horiz-adv-x="461" 
d="M148.5 16q-58.5 31 -91 87t-32.5 128t32.5 128t91 87t133.5 31q92 0 167 -45l-61 -121q-24 15 -47 21.5t-52 6.5q-50 0 -81 -30t-31 -78q0 -47 31.5 -77.5t80.5 -30.5q29 0 52 6.5t47 21.5l61 -121q-75 -45 -167 -45q-75 0 -133.5 31zM337.5 683.5q26.5 -26.5 26.5 -67.5
q0 -42 -26.5 -68t-67.5 -26q-42 0 -68 26t-26 68q0 41 26 67.5t68 26.5q41 0 67.5 -26.5z" />
    <glyph glyph-name="dcaron" unicode="&#x10f;" horiz-adv-x="777" 
d="M791 730l-105 -216h-96l46 216h155zM126 15.5q-48 30.5 -74.5 86t-26.5 128.5t26.5 129t74.5 87t111 31q122 0 171 -120l4 1q-13 50 -13 132v225h151v-715h-147q0 56 8 104l-4 1q-20 -57 -64.5 -88.5t-105.5 -31.5q-63 0 -111 30.5zM375.5 150.5q30.5 30.5 30.5 80.5
t-30.5 80.5t-82.5 30.5q-51 0 -82 -30t-31 -81t30.5 -81t82.5 -30t82.5 30.5z" />
    <glyph glyph-name="dcroat" unicode="&#x111;" horiz-adv-x="597" 
d="M606 639v-87h-32q-20 0 -28 4l-1 -1q5 -10 5 -26v-529h-147q0 53 8 104l-4 1q-20 -59 -65.5 -89.5t-104.5 -30.5q-62 0 -110 30t-75 85.5t-27 129.5q0 75 27.5 131t75.5 86t109 30q122 0 171 -120l4 1q-13 59 -13 132v39q0 16 5 26l-1 1q-8 -4 -28 -4h-125v87h125
q20 0 28 -4l1 1q-5 10 -5 26v53h151v-53q0 -16 -5 -26l1 -1q8 4 28 4h32zM364.5 153q30.5 30 30.5 78t-30.5 78t-75.5 30t-74.5 -29.5t-29.5 -78.5t29.5 -78.5t74.5 -29.5t75.5 30z" />
    <glyph glyph-name="eacute" unicode="&#xe9;" horiz-adv-x="520" 
d="M438 412.5q61 -63.5 61 -179.5v-40h-274q-21 0 -32 2t-22 10l-2 -3l4 -11q10 -40 39 -61t76 -21q37 0 72 11.5t62 29.5l50 -115q-85 -50 -183 -50q-121 0 -192.5 66t-71.5 181q0 75 31 130t86.5 84.5t127.5 29.5q107 0 168 -63.5zM198 341q-26 -23 -31 -63l2 -3q8 9 42 9
h101q31 0 38 -8l2 2q-2 42 -25.5 64t-62.5 22q-40 0 -66 -23zM467 703l-149 -150h-104l-1 4l112 150h141z" />
    <glyph glyph-name="ebreve" unicode="&#x115;" horiz-adv-x="520" 
d="M438 412.5q61 -63.5 61 -179.5v-40h-274q-21 0 -32 2t-22 10l-2 -3l4 -11q10 -40 39 -61t76 -21q37 0 72 11.5t62 29.5l50 -115q-85 -50 -183 -50q-121 0 -192.5 66t-71.5 181q0 75 31 130t86.5 84.5t127.5 29.5q107 0 168 -63.5zM198 341q-26 -23 -31 -63l2 -3q8 9 42 9
h101q31 0 38 -8l2 2q-2 42 -25.5 64t-62.5 22q-40 0 -66 -23zM414.5 629.5q-21.5 -36.5 -59 -57t-84.5 -20.5q-46 0 -83.5 20.5t-59 57t-21.5 84.5h94q2 -30 18.5 -49.5t51.5 -19.5t51.5 19.5t18.5 49.5h95q0 -48 -21.5 -84.5z" />
    <glyph glyph-name="ecaron" unicode="&#x11b;" horiz-adv-x="520" 
d="M438 412.5q61 -63.5 61 -179.5v-40h-274q-21 0 -32 2t-22 10l-2 -3l4 -11q10 -40 39 -61t76 -21q37 0 72 11.5t62 29.5l50 -115q-85 -50 -183 -50q-121 0 -192.5 66t-71.5 181q0 75 31 130t86.5 84.5t127.5 29.5q107 0 168 -63.5zM198 341q-26 -23 -31 -63l2 -3q8 9 42 9
h101q31 0 38 -8l2 2q-2 42 -25.5 64t-62.5 22q-40 0 -66 -23zM90 702v5h121l33 -43q18 -22 24.5 -35.5t8.5 -32.5h3q2 19 8.5 32.5t23.5 35.5l34 43h120v-5l-116 -149h-144z" />
    <glyph glyph-name="ecircumflex" unicode="&#xea;" horiz-adv-x="520" 
d="M438 412.5q61 -63.5 61 -179.5v-40h-274q-21 0 -32 2t-22 10l-2 -3l4 -11q10 -40 39 -61t76 -21q37 0 72 11.5t62 29.5l50 -115q-85 -50 -183 -50q-121 0 -192.5 66t-71.5 181q0 75 31 130t86.5 84.5t127.5 29.5q107 0 168 -63.5zM198 341q-26 -23 -31 -63l2 -3q8 9 42 9
h101q31 0 38 -8l2 2q-2 42 -25.5 64t-62.5 22q-40 0 -66 -23zM459 558v-5h-121l-33 43q-17 22 -24 35.5t-9 32.5h-3q-2 -19 -8.5 -32.5t-23.5 -35.5l-34 -43h-120v5l116 149h144z" />
    <glyph glyph-name="edieresis" unicode="&#xeb;" horiz-adv-x="520" 
d="M438 412.5q61 -63.5 61 -179.5v-40h-274q-21 0 -32 2t-22 10l-2 -3l4 -11q10 -40 39 -61t76 -21q37 0 72 11.5t62 29.5l50 -115q-85 -50 -183 -50q-121 0 -192.5 66t-71.5 181q0 75 31 130t86.5 84.5t127.5 29.5q107 0 168 -63.5zM198 341q-26 -23 -31 -63l2 -3q8 9 42 9
h101q31 0 38 -8l2 2q-2 42 -25.5 64t-62.5 22q-40 0 -66 -23zM224.5 677q22.5 -23 22.5 -58q0 -34 -22.5 -57t-57.5 -23t-58 22.5t-23 57.5t23 58t58 23t57.5 -23zM433.5 677q22.5 -23 22.5 -58q0 -34 -22.5 -57t-57.5 -23t-58 22.5t-23 57.5t23 58t58 23t57.5 -23z" />
    <glyph glyph-name="edotaccent" unicode="&#x117;" horiz-adv-x="520" 
d="M438 412.5q61 -63.5 61 -179.5v-40h-274q-21 0 -32 2t-22 10l-2 -3l4 -11q10 -40 39 -61t76 -21q37 0 72 11.5t62 29.5l50 -115q-85 -50 -183 -50q-121 0 -192.5 66t-71.5 181q0 75 31 130t86.5 84.5t127.5 29.5q107 0 168 -63.5zM198 341q-26 -23 -31 -63l2 -3q8 9 42 9
h101q31 0 38 -8l2 2q-2 42 -25.5 64t-62.5 22q-40 0 -66 -23zM338.5 683.5q26.5 -26.5 26.5 -67.5q0 -42 -26.5 -68t-67.5 -26q-42 0 -68 26t-26 68q0 41 26 67.5t68 26.5q41 0 67.5 -26.5z" />
    <glyph glyph-name="egrave" unicode="&#xe8;" horiz-adv-x="520" 
d="M438 412.5q61 -63.5 61 -179.5v-40h-274q-21 0 -32 2t-22 10l-2 -3l4 -11q10 -40 39 -61t76 -21q37 0 72 11.5t62 29.5l50 -115q-85 -50 -183 -50q-121 0 -192.5 66t-71.5 181q0 75 31 130t86.5 84.5t127.5 29.5q107 0 168 -63.5zM198 341q-26 -23 -31 -63l2 -3q8 9 42 9
h101q31 0 38 -8l2 2q-2 42 -25.5 64t-62.5 22q-40 0 -66 -23zM75 703l1 4h141l112 -150l-1 -4h-104z" />
    <glyph glyph-name="emacron" unicode="&#x113;" horiz-adv-x="520" 
d="M438 412.5q61 -63.5 61 -179.5v-40h-274q-21 0 -32 2t-22 10l-2 -3l4 -11q10 -40 39 -61t76 -21q37 0 72 11.5t62 29.5l50 -115q-85 -50 -183 -50q-121 0 -192.5 66t-71.5 181q0 75 31 130t86.5 84.5t127.5 29.5q107 0 168 -63.5zM198 341q-26 -23 -31 -63l2 -3q8 9 42 9
h101q31 0 38 -8l2 2q-2 42 -25.5 64t-62.5 22q-40 0 -66 -23zM425 579h-308v97h308v-97z" />
    <glyph glyph-name="eogonek" unicode="&#x119;" horiz-adv-x="520" 
d="M438 412.5q61 -63.5 61 -179.5v-40h-274q-21 0 -32 2t-22 10l-2 -3l4 -11q10 -40 39 -61t76 -21q37 0 72 11.5t62 29.5l50 -115q-85 -50 -183 -50q-121 0 -192.5 66t-71.5 181q0 75 31 130t86.5 84.5t127.5 29.5q107 0 168 -63.5zM198 341q-26 -23 -31 -63l2 -3q8 9 42 9
h101q31 0 38 -8l2 2q-2 42 -25.5 64t-62.5 22q-40 0 -66 -23zM435 10q-84 -76 -84 -104q0 -10 7.5 -16t19.5 -6q16 0 39 5l13 -93q-16 -2 -25 -4q-32 -5 -46 -5q-52 0 -81.5 21t-29.5 65q0 34 27 68.5t84 82.5z" />
    <glyph glyph-name="gbreve" unicode="&#x11f;" horiz-adv-x="601" 
d="M408 357l4 1q-13 47 -13 104h151v-422q0 -134 -70.5 -195t-194.5 -61q-134 0 -236 59l64 123q41 -21 78.5 -32t82.5 -11q61 0 95 25.5t34 78.5v9q0 23 9 68l-4 1q-30 -57 -71.5 -84t-99.5 -27q-63 0 -111 28.5t-74.5 82t-26.5 125.5q0 75 27 131t75.5 86t110.5 30
q118 0 170 -120zM210.5 309.5q-30.5 -29.5 -30.5 -78.5t30.5 -78.5t76.5 -29.5q47 0 78 29.5t31 78.5t-31 78.5t-78 29.5q-46 0 -76.5 -29.5zM442.5 629.5q-21.5 -36.5 -59 -57t-84.5 -20.5q-46 0 -83.5 20.5t-59 57t-21.5 84.5h94q2 -30 18.5 -49.5t51.5 -19.5t51.5 19.5
t18.5 49.5h95q0 -48 -21.5 -84.5z" />
    <glyph glyph-name="gcircumflex" unicode="&#x11d;" horiz-adv-x="601" 
d="M408 357l4 1q-13 47 -13 104h151v-422q0 -134 -70.5 -195t-194.5 -61q-134 0 -236 59l64 123q41 -21 78.5 -32t82.5 -11q61 0 95 25.5t34 78.5v9q0 23 9 68l-4 1q-30 -57 -71.5 -84t-99.5 -27q-63 0 -111 28.5t-74.5 82t-26.5 125.5q0 75 27 131t75.5 86t110.5 30
q118 0 170 -120zM210.5 309.5q-30.5 -29.5 -30.5 -78.5t30.5 -78.5t76.5 -29.5q47 0 78 29.5t31 78.5t-31 78.5t-78 29.5q-46 0 -76.5 -29.5zM487 558v-5h-121l-33 43q-17 22 -24 35.5t-9 32.5h-3q-2 -19 -8.5 -32.5t-23.5 -35.5l-34 -43h-120v5l116 149h144z" />
    <glyph glyph-name="gcommaaccent" unicode="&#x123;" horiz-adv-x="601" 
d="M408 357l4 1q-13 47 -13 104h151v-422q0 -134 -70.5 -195t-194.5 -61q-134 0 -236 59l64 123q41 -21 78.5 -32t82.5 -11q61 0 95 25.5t34 78.5v9q0 23 9 68l-4 1q-30 -57 -71.5 -84t-99.5 -27q-63 0 -111 28.5t-74.5 82t-26.5 125.5q0 75 27 131t75.5 86t110.5 30
q118 0 170 -120zM210.5 309.5q-30.5 -29.5 -30.5 -78.5t30.5 -78.5t76.5 -29.5q47 0 78 29.5t31 78.5t-31 78.5t-78 29.5q-46 0 -76.5 -29.5zM210 553l121 183h77l-36 -183h-162z" />
    <glyph glyph-name="gdotaccent" unicode="&#x121;" horiz-adv-x="601" 
d="M408 357l4 1q-13 47 -13 104h151v-422q0 -134 -70.5 -195t-194.5 -61q-134 0 -236 59l64 123q41 -21 78.5 -32t82.5 -11q61 0 95 25.5t34 78.5v9q0 23 9 68l-4 1q-30 -57 -71.5 -84t-99.5 -27q-63 0 -111 28.5t-74.5 82t-26.5 125.5q0 75 27 131t75.5 86t110.5 30
q118 0 170 -120zM210.5 309.5q-30.5 -29.5 -30.5 -78.5t30.5 -78.5t76.5 -29.5q47 0 78 29.5t31 78.5t-31 78.5t-78 29.5q-46 0 -76.5 -29.5zM366.5 683.5q26.5 -26.5 26.5 -67.5q0 -42 -26.5 -68t-67.5 -26q-42 0 -68 26t-26 68q0 41 26 67.5t68 26.5q41 0 67.5 -26.5z" />
    <glyph glyph-name="hbar" unicode="&#x127;" horiz-adv-x="569" 
d="M477.5 429q44.5 -48 44.5 -140v-289h-150v247q0 53 -20 75.5t-59 22.5q-43 0 -69 -29t-26 -93v-223h-151v529q0 16 5 26l-1 1q-8 -4 -28 -4h-32v87h32q20 0 28 -4l1 1q-5 10 -5 26v53h151v-53q0 -16 -5 -26l1 -1q8 4 28 4h125v-87h-125q-20 0 -28 4l-1 -1q5 -10 5 -26
v-27q0 -50 -2.5 -80.5t-8.5 -62.5l4 -2q24 58 62.5 89t101.5 31q78 0 122.5 -48z" />
    <glyph glyph-name="hcircumflex" unicode="&#x125;" horiz-adv-x="573" 
d="M202 502q0 -50 -2.5 -80.5t-8.5 -62.5l4 -2q25 58 63 89t101 31q79 0 123 -48t44 -140v-289h-150v247q0 53 -20 75.5t-59 22.5q-43 0 -69 -29.5t-26 -92.5v-223h-151v715h151v-213zM-63 746l117 117h146l116 -117v-3h-131l-28 29q-14 14 -19.5 23t-8.5 19h-4
q-2 -10 -8 -19t-20 -23l-29 -29h-131v3z" />
    <glyph glyph-name="iacute" unicode="&#xed;" horiz-adv-x="254" 
d="M281 703l-98 -150h-104l-1 4l62 150h140zM202 0h-151v462h151v-462z" />
    <glyph glyph-name="ibreve" unicode="&#x12d;" horiz-adv-x="254" 
d="M227.5 593.5q-39.5 -41.5 -100.5 -41.5t-100.5 41.5t-39.5 120.5h94q1 -36 12 -52.5t34 -16.5t33.5 16t11.5 53h95q0 -79 -39.5 -120.5zM202 0h-151v462h151v-462z" />
    <glyph glyph-name="icircumflex" unicode="&#xee;" horiz-adv-x="254" 
d="M265 558v-5h-101l-17 43q-10 24 -13.5 36t-5.5 32h-3q-3 -22 -5.5 -33.5t-12.5 -34.5l-18 -43h-101v5l67 149h143zM202 0h-151v462h151v-462z" />
    <glyph glyph-name="idieresis" unicode="&#xef;" horiz-adv-x="254" 
d="M91.5 677q22.5 -23 22.5 -58q0 -34 -22.5 -57t-57.5 -23t-58 22.5t-23 57.5t23 58t58 23t57.5 -23zM278.5 677q22.5 -23 22.5 -58q0 -34 -22.5 -57t-57.5 -23t-58 22.5t-23 57.5t23 58t58 23t57.5 -23zM202 0h-151v462h151v-462z" />
    <glyph glyph-name="i.loclTRK" horiz-adv-x="254" 
d="M202 0h-151v462h151v-462zM194.5 683.5q26.5 -26.5 26.5 -67.5q0 -42 -26.5 -68t-67.5 -26q-42 0 -68 26t-26 68q0 41 26 67.5t68 26.5q41 0 67.5 -26.5z" />
    <glyph glyph-name="dotlessi" unicode="&#x131;" horiz-adv-x="254" 
d="M202 0h-151v462h151v-462z" />
    <glyph glyph-name="igrave" unicode="&#xec;" horiz-adv-x="254" 
d="M122 707l62 -150l-1 -4h-104l-98 150l1 4h140zM202 0h-151v462h151v-462z" />
    <glyph glyph-name="ij" unicode="&#x133;" horiz-adv-x="508" 
d="M202 0h-151v462h151v-462zM194.5 683.5q26.5 -26.5 26.5 -67.5q0 -42 -26.5 -68t-67.5 -26q-42 0 -68 26t-26 68q0 41 26 67.5t68 26.5q41 0 67.5 -26.5zM456 -14q0 -201 -211 -201h-14v139h9q65 0 65 71v467h151v-476zM448.5 683.5q26.5 -26.5 26.5 -67.5
q0 -42 -26.5 -68t-67.5 -26q-42 0 -68 26t-26 68q0 41 26 67.5t68 26.5q41 0 67.5 -26.5z" />
    <glyph glyph-name="uni006A0301" horiz-adv-x="254" 
d="M281 703l-98 -150h-104l-1 4l62 150h140zM202 -14q0 -201 -211 -201h-14v139h9q65 0 65 71v467h151v-476z" />
    <glyph glyph-name="imacron" unicode="&#x12b;" horiz-adv-x="254" 
d="M241 579h-228v97h228v-97zM202 0h-151v462h151v-462z" />
    <glyph glyph-name="iogonek" unicode="&#x12f;" horiz-adv-x="254" 
d="M202 0h-151v462h151v-462zM194.5 683.5q26.5 -26.5 26.5 -67.5q0 -42 -26.5 -68t-67.5 -26q-42 0 -68 26t-26 68q0 41 26 67.5t68 26.5q41 0 67.5 -26.5zM157 10q-84 -76 -84 -104q0 -10 7.5 -16t19.5 -6q16 0 39 5l13 -93q-16 -2 -25 -4q-32 -5 -46 -5q-52 0 -81.5 21
t-29.5 65q0 34 27 68.5t84 82.5z" />
    <glyph glyph-name="itilde" unicode="&#x129;" horiz-adv-x="254" 
d="M120 699.5q15 -6.5 40 -20.5q27 -18 42 -18q28 0 47 46l57 -19q-16 -63 -42.5 -98t-69.5 -35q-20 0 -35 6.5t-38 20.5q-11 7 -22.5 13t-20.5 6q-29 0 -48 -47l-57 20q16 62 42.5 97t69.5 35q20 0 35 -6.5zM202 0h-151v462h151v-462z" />
    <glyph glyph-name="jcircumflex" unicode="&#x135;" horiz-adv-x="254" 
d="M265 558v-5h-101l-17 43q-10 24 -13.5 36t-5.5 32h-3q-3 -22 -5.5 -33.5t-12.5 -34.5l-18 -43h-101v5l67 149h143zM202 -14q0 -201 -211 -201h-14v139h9q65 0 65 71v467h151v-476z" />
    <glyph glyph-name="uni0237" unicode="&#x237;" horiz-adv-x="254" 
d="M202 -14q0 -201 -211 -201h-14v139h9q65 0 65 71v467h151v-476z" />
    <glyph glyph-name="kcommaaccent" unicode="&#x137;" horiz-adv-x="554" 
d="M202 372q0 -73 -17 -113l3 -1l173 204h181l-159 -172q-32 -34 -50 -38v-4q9 -2 18 -9.5t23 -23.5l180 -215h-191l-175 228l-3 -2q17 -36 17 -104v-122h-151v715h151v-343zM250 -215h-73l27 164h146z" />
    <glyph glyph-name="kgreenlandic" unicode="&#x138;" horiz-adv-x="553" 
d="M51 462h151v-90q0 -73 -17 -113l3 -1l171 204h182l-158 -172q-32 -34 -50 -38v-4q9 -2 18 -9.5t23 -23.5l179 -215h-191l-174 228l-3 -2q17 -36 17 -104v-122h-151v462z" />
    <glyph glyph-name="lacute" unicode="&#x13a;" horiz-adv-x="254" 
d="M202 0h-151v715h151v-715zM345 851l-167 -106h-104l-1 4l112 106h159z" />
    <glyph glyph-name="lcaron" unicode="&#x13e;" horiz-adv-x="429" 
d="M443 730l-105 -216h-95l46 216h154zM202 0h-151v715h151v-715z" />
    <glyph glyph-name="lcommaaccent" unicode="&#x13c;" horiz-adv-x="254" 
d="M202 0h-151v715h151v-715zM100 -215h-73l27 164h146z" />
    <glyph glyph-name="ldot" unicode="&#x140;" horiz-adv-x="410" 
d="M202 0h-151v715h151v-715zM389.5 450.5q26.5 -26.5 26.5 -67.5q0 -40 -26.5 -67t-67.5 -27q-40 0 -67 27t-27 67q0 41 27 67.5t67 26.5q41 0 67.5 -26.5z" />
    <glyph glyph-name="lslash" unicode="&#x142;" horiz-adv-x="313" 
d="M80 254q0 27 12 49l-3 1q-8 -10 -14.5 -15.5t-18.5 -11.5l-46 -24v105l70 37v320h151v-198q0 -37 -13 -58l2 -2q18 21 40 32l43 21v-105l-72 -37v-368h-151v254z" />
    <glyph glyph-name="nacute" unicode="&#x144;" horiz-adv-x="573" 
d="M484 429.5q42 -47.5 42 -140.5v-289h-150v247q0 49 -20.5 73.5t-57.5 24.5q-45 0 -70.5 -29.5t-25.5 -92.5v-223h-151v462h149q0 -40 -2 -60.5t-7 -43.5l4 -2q23 56 63.5 88.5t105.5 32.5q78 0 120 -47.5zM497 703l-149 -150h-104l-1 4l112 150h141z" />
    <glyph glyph-name="napostrophe" unicode="&#x149;" horiz-adv-x="573" 
d="M484 429.5q42 -47.5 42 -140.5v-289h-150v247q0 49 -20.5 73.5t-57.5 24.5q-45 0 -70.5 -29.5t-25.5 -92.5v-223h-151v462h149q0 -40 -2 -60.5t-7 -43.5l4 -2q23 56 63.5 88.5t105.5 32.5q78 0 120 -47.5zM112 730l-105 -283h-96l46 283h155z" />
    <glyph glyph-name="ncaron" unicode="&#x148;" horiz-adv-x="573" 
d="M484 429.5q42 -47.5 42 -140.5v-289h-150v247q0 49 -20.5 73.5t-57.5 24.5q-45 0 -70.5 -29.5t-25.5 -92.5v-223h-151v462h149q0 -40 -2 -60.5t-7 -43.5l4 -2q23 56 63.5 88.5t105.5 32.5q78 0 120 -47.5zM120 702v5h121l33 -43q18 -22 24.5 -35.5t8.5 -32.5h3
q2 19 8.5 32.5t23.5 35.5l34 43h120v-5l-116 -149h-144z" />
    <glyph glyph-name="ncommaaccent" unicode="&#x146;" horiz-adv-x="573" 
d="M484 429.5q42 -47.5 42 -140.5v-289h-150v247q0 49 -20.5 73.5t-57.5 24.5q-45 0 -70.5 -29.5t-25.5 -92.5v-223h-151v462h149q0 -40 -2 -60.5t-7 -43.5l4 -2q23 56 63.5 88.5t105.5 32.5q78 0 120 -47.5zM262 -215h-73l27 164h146z" />
    <glyph glyph-name="ntilde" unicode="&#xf1;" horiz-adv-x="573" 
d="M484 429.5q42 -47.5 42 -140.5v-289h-150v247q0 49 -20.5 73.5t-57.5 24.5q-45 0 -70.5 -29.5t-25.5 -92.5v-223h-151v462h149q0 -40 -2 -60.5t-7 -43.5l4 -2q23 56 63.5 88.5t105.5 32.5q78 0 120 -47.5zM278.5 699q23.5 -7 56.5 -20q4 -1 27 -9.5t37 -8.5q17 0 30 11.5
t24 34.5l57 -19q-16 -63 -42.5 -98t-72.5 -35q-23 0 -46.5 7t-56.5 20q-47 19 -64 19t-30 -11.5t-24 -35.5l-57 20q16 63 42.5 97.5t72.5 34.5q23 0 46.5 -7z" />
    <glyph glyph-name="eng" unicode="&#x14b;" horiz-adv-x="573" 
d="M484 429.5q42 -47.5 42 -140.5v-297q0 -192 -209 -192h-46v139h41q63 0 63 69v11h1v228q0 49 -20.5 73.5t-57.5 24.5q-45 0 -70.5 -29.5t-25.5 -92.5v-223h-151v462h149q0 -40 -2 -60.5t-7 -43.5l4 -2q23 56 63.5 88.5t105.5 32.5q78 0 120 -47.5z" />
    <glyph glyph-name="oacute" unicode="&#xf3;" horiz-adv-x="570" 
d="M418 446.5q59 -30.5 92.5 -86.5t33.5 -129t-33.5 -129t-92.5 -86.5t-133 -30.5q-75 0 -134 30.5t-92.5 86.5t-33.5 129t33.5 129t92.5 86.5t134 30.5q74 0 133 -30.5zM207.5 309.5q-30.5 -29.5 -30.5 -78.5t30.5 -78.5t77.5 -29.5t77.5 29.5t30.5 78.5t-30.5 78.5
t-77.5 29.5t-77.5 -29.5zM481 703l-149 -150h-104l-1 4l112 150h141z" />
    <glyph glyph-name="obreve" unicode="&#x14f;" horiz-adv-x="570" 
d="M418 446.5q59 -30.5 92.5 -86.5t33.5 -129t-33.5 -129t-92.5 -86.5t-133 -30.5q-75 0 -134 30.5t-92.5 86.5t-33.5 129t33.5 129t92.5 86.5t134 30.5q74 0 133 -30.5zM207.5 309.5q-30.5 -29.5 -30.5 -78.5t30.5 -78.5t77.5 -29.5t77.5 29.5t30.5 78.5t-30.5 78.5
t-77.5 29.5t-77.5 -29.5zM428.5 629.5q-21.5 -36.5 -59 -57t-84.5 -20.5q-46 0 -83.5 20.5t-59 57t-21.5 84.5h94q2 -30 18.5 -49.5t51.5 -19.5t51.5 19.5t18.5 49.5h95q0 -48 -21.5 -84.5z" />
    <glyph glyph-name="ocircumflex" unicode="&#xf4;" horiz-adv-x="570" 
d="M418 446.5q59 -30.5 92.5 -86.5t33.5 -129t-33.5 -129t-92.5 -86.5t-133 -30.5q-75 0 -134 30.5t-92.5 86.5t-33.5 129t33.5 129t92.5 86.5t134 30.5q74 0 133 -30.5zM207.5 309.5q-30.5 -29.5 -30.5 -78.5t30.5 -78.5t77.5 -29.5t77.5 29.5t30.5 78.5t-30.5 78.5
t-77.5 29.5t-77.5 -29.5zM473 558v-5h-121l-33 43q-17 22 -24 35.5t-9 32.5h-3q-2 -19 -8.5 -32.5t-23.5 -35.5l-34 -43h-120v5l116 149h144z" />
    <glyph glyph-name="odieresis" unicode="&#xf6;" horiz-adv-x="570" 
d="M418 446.5q59 -30.5 92.5 -86.5t33.5 -129t-33.5 -129t-92.5 -86.5t-133 -30.5q-75 0 -134 30.5t-92.5 86.5t-33.5 129t33.5 129t92.5 86.5t134 30.5q74 0 133 -30.5zM207.5 309.5q-30.5 -29.5 -30.5 -78.5t30.5 -78.5t77.5 -29.5t77.5 29.5t30.5 78.5t-30.5 78.5
t-77.5 29.5t-77.5 -29.5zM238.5 677q22.5 -23 22.5 -58q0 -34 -22.5 -57t-57.5 -23t-58 22.5t-23 57.5t23 58t58 23t57.5 -23zM447.5 677q22.5 -23 22.5 -58q0 -34 -22.5 -57t-57.5 -23t-58 22.5t-23 57.5t23 58t58 23t57.5 -23z" />
    <glyph glyph-name="oe" unicode="&#x153;" horiz-adv-x="894" 
d="M152.5 15.5q-58.5 30.5 -93 86.5t-34.5 129t34 129t93.5 86.5t131.5 30.5q60 0 106.5 -21.5t75.5 -61.5h4q31 38 77.5 60t106.5 22q100 0 159.5 -64t59.5 -179v-40h-275q-21 0 -32.5 2t-22.5 8l-2 -3l4 -9q20 -76 115 -76q37 0 72 10.5t62 26.5l52 -117q-91 -50 -189 -50
q-61 0 -110 21.5t-78 63.5h-4q-28 -42 -75 -63.5t-107 -21.5q-72 0 -130.5 30.5zM585 284h101q31 0 38 -8l2 2q-2 43 -25.5 65t-63.5 22q-39 0 -65.5 -24t-30.5 -63l2 -3q8 9 42 9zM365 154q31 29 31 77t-31 77t-77 29t-77 -29t-31 -77t31 -77t77 -29t77 29z" />
    <glyph glyph-name="ograve" unicode="&#xf2;" horiz-adv-x="570" 
d="M418 446.5q59 -30.5 92.5 -86.5t33.5 -129t-33.5 -129t-92.5 -86.5t-133 -30.5q-75 0 -134 30.5t-92.5 86.5t-33.5 129t33.5 129t92.5 86.5t134 30.5q74 0 133 -30.5zM207.5 309.5q-30.5 -29.5 -30.5 -78.5t30.5 -78.5t77.5 -29.5t77.5 29.5t30.5 78.5t-30.5 78.5
t-77.5 29.5t-77.5 -29.5zM89 703l1 4h141l112 -150l-1 -4h-104z" />
    <glyph glyph-name="ohungarumlaut" unicode="&#x151;" horiz-adv-x="570" 
d="M418 446.5q59 -30.5 92.5 -86.5t33.5 -129t-33.5 -129t-92.5 -86.5t-133 -30.5q-75 0 -134 30.5t-92.5 86.5t-33.5 129t33.5 129t92.5 86.5t134 30.5q74 0 133 -30.5zM207.5 309.5q-30.5 -29.5 -30.5 -78.5t30.5 -78.5t77.5 -29.5t77.5 29.5t30.5 78.5t-30.5 78.5
t-77.5 29.5t-77.5 -29.5zM135 555l117 152h115l1 -2l-128 -152h-104zM311 555l117 152h115l1 -2l-128 -152h-104z" />
    <glyph glyph-name="omacron" unicode="&#x14d;" horiz-adv-x="570" 
d="M418 446.5q59 -30.5 92.5 -86.5t33.5 -129t-33.5 -129t-92.5 -86.5t-133 -30.5q-75 0 -134 30.5t-92.5 86.5t-33.5 129t33.5 129t92.5 86.5t134 30.5q74 0 133 -30.5zM207.5 309.5q-30.5 -29.5 -30.5 -78.5t30.5 -78.5t77.5 -29.5t77.5 29.5t30.5 78.5t-30.5 78.5
t-77.5 29.5t-77.5 -29.5zM439 579h-308v97h308v-97z" />
    <glyph glyph-name="ordfeminine" unicode="&#xaa;" horiz-adv-x="378" 
d="M61 365.5q-30 27.5 -30 75.5t31.5 75.5t84.5 27.5q65 0 99 -46l3 1q-3 12 -3 29q0 27 -15 38.5t-51 11.5q-26 0 -89 -11l-16 84q72 13 124 13q78 0 113.5 -30.5t35.5 -97.5v-188h-110q0 27 13 49l-4 2q-21 -32 -46 -46.5t-60 -14.5q-50 0 -80 27.5zM224.5 424.5
q10.5 9.5 10.5 24.5t-11 25t-27 10t-27 -10t-11 -25t10.5 -24.5t27.5 -9.5t27.5 9.5z" />
    <glyph glyph-name="ordmasculine" unicode="&#xba;" horiz-adv-x="408" 
d="M293 643.5q39 -20.5 61.5 -58t22.5 -84.5t-22.5 -84.5t-61.5 -58t-89 -20.5t-89.5 20.5t-62 58t-22.5 84.5t22.5 84.5t62 58t89.5 20.5t89 -20.5zM158.5 545.5q-17.5 -16.5 -17.5 -44.5t17.5 -44.5t45.5 -16.5q27 0 44.5 16.5t17.5 44.5t-17.5 44.5t-44.5 16.5
q-28 0 -45.5 -16.5z" />
    <glyph glyph-name="oslash" unicode="&#xf8;" horiz-adv-x="570" 
d="M523.5 333.5q20.5 -46.5 20.5 -102.5q0 -73 -33.5 -129t-92.5 -86.5t-133 -30.5q-92 0 -157 45l-39 -44l-29 23l39 44q-36 33 -55 78t-19 100q0 73 33.5 129t92.5 86.5t134 30.5q85 0 151 -41l36 41l29 -24l-35 -40q37 -33 57.5 -79.5zM197 165l142 161q-23 13 -54 13
q-47 0 -77.5 -29.5t-30.5 -78.5q0 -40 20 -66zM362.5 152.5q30.5 29.5 30.5 78.5q0 44 -25 72l-144 -163q28 -17 61 -17q47 0 77.5 29.5z" />
    <glyph glyph-name="oslashacute" unicode="&#x1ff;" horiz-adv-x="570" 
d="M523.5 333.5q20.5 -46.5 20.5 -102.5q0 -73 -33.5 -129t-92.5 -86.5t-133 -30.5q-92 0 -157 45l-39 -44l-29 23l39 44q-36 33 -55 78t-19 100q0 73 33.5 129t92.5 86.5t134 30.5q85 0 151 -41l36 41l29 -24l-35 -40q37 -33 57.5 -79.5zM197 165l142 161q-23 13 -54 13
q-47 0 -77.5 -29.5t-30.5 -78.5q0 -40 20 -66zM362.5 152.5q30.5 29.5 30.5 78.5q0 44 -25 72l-144 -163q28 -17 61 -17q47 0 77.5 29.5zM477 703l-149 -150h-104l-1 4l112 150h141z" />
    <glyph glyph-name="otilde" unicode="&#xf5;" horiz-adv-x="570" 
d="M418 446.5q59 -30.5 92.5 -86.5t33.5 -129t-33.5 -129t-92.5 -86.5t-133 -30.5q-75 0 -134 30.5t-92.5 86.5t-33.5 129t33.5 129t92.5 86.5t134 30.5q74 0 133 -30.5zM207.5 309.5q-30.5 -29.5 -30.5 -78.5t30.5 -78.5t77.5 -29.5t77.5 29.5t30.5 78.5t-30.5 78.5
t-77.5 29.5t-77.5 -29.5zM262.5 699q23.5 -7 56.5 -20q4 -1 27 -9.5t37 -8.5q17 0 30 11.5t24 34.5l57 -19q-16 -63 -42.5 -98t-72.5 -35q-23 0 -46.5 7t-56.5 20q-47 19 -64 19t-30 -11.5t-24 -35.5l-57 20q16 63 42.5 97.5t72.5 34.5q23 0 46.5 -7z" />
    <glyph glyph-name="racute" unicode="&#x155;" horiz-adv-x="373" 
d="M367 474v-148q-23 2 -45 2q-59 0 -89.5 -33t-30.5 -107v-188h-151v462h143q0 -76 -14 -152l4 -1q35 167 147 167q16 0 36 -2zM401 703l-149 -150h-104l-1 4l112 150h141z" />
    <glyph glyph-name="rcaron" unicode="&#x159;" horiz-adv-x="373" 
d="M367 474v-148q-23 2 -45 2q-59 0 -89.5 -33t-30.5 -107v-188h-151v462h143q0 -76 -14 -152l4 -1q35 167 147 167q16 0 36 -2zM24 702v5h121l33 -43q18 -22 24.5 -35.5t8.5 -32.5h3q2 19 8.5 32.5t23.5 35.5l34 43h120v-5l-116 -149h-144z" />
    <glyph glyph-name="rcommaaccent" unicode="&#x157;" horiz-adv-x="373" 
d="M367 474v-148q-23 2 -45 2q-59 0 -89.5 -33t-30.5 -107v-188h-151v462h143q0 -76 -14 -152l4 -1q35 167 147 167q16 0 36 -2zM100 -215h-73l27 164h146z" />
    <glyph glyph-name="sacute" unicode="&#x15b;" horiz-adv-x="428" 
d="M6 33l56 119q76 -49 159 -49q24 0 34.5 5t10.5 17q0 9 -6 13.5t-25 13.5l-83 34q-109 43 -109 143q0 70 50.5 109t142.5 39q76 0 167 -30l-43 -117q-33 15 -68.5 23.5t-63.5 8.5q-40 0 -40 -20q0 -10 7.5 -16t31.5 -16l77 -30q57 -23 82.5 -55.5t25.5 -83.5
q0 -74 -52.5 -115t-148.5 -41q-112 0 -205 48zM419 703l-149 -150h-104l-1 4l112 150h141z" />
    <glyph glyph-name="scaron" unicode="&#x161;" horiz-adv-x="428" 
d="M6 33l56 119q76 -49 159 -49q24 0 34.5 5t10.5 17q0 9 -6 13.5t-25 13.5l-83 34q-109 43 -109 143q0 70 50.5 109t142.5 39q76 0 167 -30l-43 -117q-33 15 -68.5 23.5t-63.5 8.5q-40 0 -40 -20q0 -10 7.5 -16t31.5 -16l77 -30q57 -23 82.5 -55.5t25.5 -83.5
q0 -74 -52.5 -115t-148.5 -41q-112 0 -205 48zM42 702v5h121l33 -43q18 -22 24.5 -35.5t8.5 -32.5h3q2 19 8.5 32.5t23.5 35.5l34 43h120v-5l-116 -149h-144z" />
    <glyph glyph-name="scedilla" unicode="&#x15f;" horiz-adv-x="428" 
d="M6 33l56 119q76 -49 159 -49q24 0 34.5 5t10.5 17q0 9 -6 13.5t-25 13.5l-83 34q-109 43 -109 143q0 70 50.5 109t142.5 39q76 0 167 -30l-43 -117q-33 15 -68.5 23.5t-63.5 8.5q-40 0 -40 -20q0 -10 7.5 -16t31.5 -16l77 -30q57 -23 82.5 -55.5t25.5 -83.5
q0 -74 -52.5 -115t-148.5 -41q-112 0 -205 48zM230 -35q92 -14 92 -71q0 -39 -38.5 -63.5t-115.5 -53.5l-28 -11l-21 47q47 24 64.5 36.5t17.5 23.5q0 22 -49 31l47 130h58z" />
    <glyph glyph-name="scircumflex" unicode="&#x15d;" horiz-adv-x="428" 
d="M6 33l56 119q76 -49 159 -49q24 0 34.5 5t10.5 17q0 9 -6 13.5t-25 13.5l-83 34q-109 43 -109 143q0 70 50.5 109t142.5 39q76 0 167 -30l-43 -117q-33 15 -68.5 23.5t-63.5 8.5q-40 0 -40 -20q0 -10 7.5 -16t31.5 -16l77 -30q57 -23 82.5 -55.5t25.5 -83.5
q0 -74 -52.5 -115t-148.5 -41q-112 0 -205 48zM411 558v-5h-121l-33 43q-17 22 -24 35.5t-9 32.5h-3q-2 -19 -8.5 -32.5t-23.5 -35.5l-34 -43h-120v5l116 149h144z" />
    <glyph glyph-name="scommaaccent" unicode="&#x219;" horiz-adv-x="428" 
d="M6 33l56 119q76 -49 159 -49q24 0 34.5 5t10.5 17q0 9 -6 13.5t-25 13.5l-83 34q-109 43 -109 143q0 70 50.5 109t142.5 39q76 0 167 -30l-43 -117q-33 15 -68.5 23.5t-63.5 8.5q-40 0 -40 -20q0 -10 7.5 -16t31.5 -16l77 -30q57 -23 82.5 -55.5t25.5 -83.5
q0 -74 -52.5 -115t-148.5 -41q-112 0 -205 48zM187 -215h-73l27 164h146z" />
    <glyph glyph-name="tbar" unicode="&#x167;" horiz-adv-x="347" 
d="M93 150q0 14 1 26t4 18l-2 2q-6 -3 -16.5 -4t-24.5 -1h-41v87h41q31 0 41 -5l2 2q-5 10 -5 27v11q0 10 1.5 15.5t7.5 13.5l-2 2q-9 -6 -18 -7.5t-29 -1.5h-42v127h42q18 0 28 -1.5t19 -7.5l2 2q-6 9 -7.5 19.5t-1.5 24.5v118l136 92h15v-210q0 -28 -9 -44l3 -2
q9 6 18.5 7.5t27.5 1.5h51v-127h-51q-20 0 -29 1.5t-17 7.5l-3 -2q6 -8 7.5 -13.5t1.5 -15.5v-12q0 -16 -5 -26l2 -2q7 3 17.5 4t23.5 1h47v-87h-47q-14 0 -24.5 1t-16.5 4l-2 -2q3 -6 4 -18t1 -26v-150h-151v150z" />
    <glyph glyph-name="tcaron" unicode="&#x165;" horiz-adv-x="497" 
d="M501 730l-106 -216h-95l46 216h155zM244 497q0 -10 -1 -21t-6 -19l2 -2q8 5 17.5 6t27.5 1h51v-127h-51q-20 0 -28.5 1t-16.5 6l-2 -2q5 -8 6 -19.5t1 -37.5v-283h-151v283q0 26 1 37.5t6 19.5l-2 2q-8 -5 -16.5 -6t-28.5 -1h-42v127h42q18 0 27.5 -1t17.5 -6l2 2
q-7 12 -7 40v120l136 92h15v-212z" />
    <glyph glyph-name="uni0163" unicode="&#x163;" horiz-adv-x="347" 
d="M244 497q0 -10 -1 -21t-6 -19l2 -2q8 5 17.5 6t27.5 1h51v-127h-51q-20 0 -28.5 1t-16.5 6l-2 -2q5 -8 6 -19.5t1 -37.5v-283h-151v283q0 26 1 37.5t6 19.5l-2 2q-8 -5 -16.5 -6t-28.5 -1h-42v127h42q18 0 27.5 -1t17.5 -6l2 2q-7 12 -7 40v120l136 92h15v-212zM185 -35
q92 -14 92 -71q0 -39 -38.5 -63.5t-115.5 -53.5l-28 -11l-21 47q47 24 64.5 36.5t17.5 23.5q0 22 -49 31l47 130h58z" />
    <glyph glyph-name="uni021B" unicode="&#x21b;" horiz-adv-x="347" 
d="M244 497q0 -10 -1 -21t-6 -19l2 -2q8 5 17.5 6t27.5 1h51v-127h-51q-20 0 -28.5 1t-16.5 6l-2 -2q5 -8 6 -19.5t1 -37.5v-283h-151v283q0 26 1 37.5t6 19.5l-2 2q-8 -5 -16.5 -6t-28.5 -1h-42v127h42q18 0 27.5 -1t17.5 -6l2 2q-7 12 -7 40v120l136 92h15v-212zM142 -215
h-73l27 164h146z" />
    <glyph glyph-name="thorn" unicode="&#xfe;" horiz-adv-x="601" 
d="M51 700h151v-238q0 -57 -13 -103l4 -2q53 120 170 120q62 0 110.5 -30t75.5 -86t27 -131q0 -74 -27 -129.5t-75 -85.5t-110 -30q-59 0 -103 30t-67 90l-4 -2q9 -48 9 -92v-211h-148v900zM390.5 152.5q30.5 29.5 30.5 78.5t-30.5 78.5t-76.5 29.5q-47 0 -77.5 -29.5
t-30.5 -78.5t30.5 -78.5t77.5 -29.5q46 0 76.5 29.5z" />
    <glyph glyph-name="uacute" unicode="&#xfa;" horiz-adv-x="566" 
d="M515 0h-147q0 53 15 116l-4 1q-24 -66 -63 -99t-100 -33q-76 0 -123 49t-47 142v286h155v-241q0 -51 20.5 -75t56.5 -24q38 0 62 27.5t24 84.5v228h151v-462zM479 703l-149 -150h-104l-1 4l112 150h141z" />
    <glyph glyph-name="ubreve" unicode="&#x16d;" horiz-adv-x="566" 
d="M515 0h-147q0 53 15 116l-4 1q-24 -66 -63 -99t-100 -33q-76 0 -123 49t-47 142v286h155v-241q0 -51 20.5 -75t56.5 -24q38 0 62 27.5t24 84.5v228h151v-462zM426.5 629.5q-21.5 -36.5 -59 -57t-84.5 -20.5q-46 0 -83.5 20.5t-59 57t-21.5 84.5h94q2 -30 18.5 -49.5
t51.5 -19.5t51.5 19.5t18.5 49.5h95q0 -48 -21.5 -84.5z" />
    <glyph glyph-name="ucircumflex" unicode="&#xfb;" horiz-adv-x="566" 
d="M515 0h-147q0 53 15 116l-4 1q-24 -66 -63 -99t-100 -33q-76 0 -123 49t-47 142v286h155v-241q0 -51 20.5 -75t56.5 -24q38 0 62 27.5t24 84.5v228h151v-462zM471 558v-5h-121l-33 43q-17 22 -24 35.5t-9 32.5h-3q-2 -19 -8.5 -32.5t-23.5 -35.5l-34 -43h-120v5l116 149
h144z" />
    <glyph glyph-name="udieresis" unicode="&#xfc;" horiz-adv-x="566" 
d="M515 0h-147q0 53 15 116l-4 1q-24 -66 -63 -99t-100 -33q-76 0 -123 49t-47 142v286h155v-241q0 -51 20.5 -75t56.5 -24q38 0 62 27.5t24 84.5v228h151v-462zM236.5 677q22.5 -23 22.5 -58q0 -34 -22.5 -57t-57.5 -23t-58 22.5t-23 57.5t23 58t58 23t57.5 -23zM445.5 677
q22.5 -23 22.5 -58q0 -34 -22.5 -57t-57.5 -23t-58 22.5t-23 57.5t23 58t58 23t57.5 -23z" />
    <glyph glyph-name="ugrave" unicode="&#xf9;" horiz-adv-x="566" 
d="M515 0h-147q0 53 15 116l-4 1q-24 -66 -63 -99t-100 -33q-76 0 -123 49t-47 142v286h155v-241q0 -51 20.5 -75t56.5 -24q38 0 62 27.5t24 84.5v228h151v-462zM87 703l1 4h141l112 -150l-1 -4h-104z" />
    <glyph glyph-name="uhungarumlaut" unicode="&#x171;" horiz-adv-x="566" 
d="M515 0h-147q0 53 15 116l-4 1q-24 -66 -63 -99t-100 -33q-76 0 -123 49t-47 142v286h155v-241q0 -51 20.5 -75t56.5 -24q38 0 62 27.5t24 84.5v228h151v-462zM133 555l117 152h115l1 -2l-128 -152h-104zM309 555l117 152h115l1 -2l-128 -152h-104z" />
    <glyph glyph-name="umacron" unicode="&#x16b;" horiz-adv-x="566" 
d="M515 0h-147q0 53 15 116l-4 1q-24 -66 -63 -99t-100 -33q-76 0 -123 49t-47 142v286h155v-241q0 -51 20.5 -75t56.5 -24q38 0 62 27.5t24 84.5v228h151v-462zM437 579h-308v97h308v-97z" />
    <glyph glyph-name="uogonek" unicode="&#x173;" horiz-adv-x="566" 
d="M515 0h-147q0 53 15 116l-4 1q-24 -66 -63 -99t-100 -33q-76 0 -123 49t-47 142v286h155v-241q0 -51 20.5 -75t56.5 -24q38 0 62 27.5t24 84.5v228h151v-462zM445 10q-84 -76 -84 -104q0 -10 7.5 -16t19.5 -6q16 0 39 5l13 -93q-16 -2 -25 -4q-32 -5 -46 -5
q-52 0 -81.5 21t-29.5 65q0 34 27 68.5t84 82.5z" />
    <glyph glyph-name="uring" unicode="&#x16f;" horiz-adv-x="566" 
d="M515 0h-147q0 53 15 116l-4 1q-24 -66 -63 -99t-100 -33q-76 0 -123 49t-47 142v286h155v-241q0 -51 20.5 -75t56.5 -24q38 0 62 27.5t24 84.5v228h151v-462zM370 714q34 -33 34 -84t-34 -84t-86 -33t-86 33t-34 84t34 84t86 33t86 -33zM243.5 669.5
q-15.5 -15.5 -15.5 -39.5t15.5 -39.5t40.5 -15.5t40.5 15.5t15.5 39.5t-15.5 39.5t-40.5 15.5t-40.5 -15.5z" />
    <glyph glyph-name="utilde" unicode="&#x169;" horiz-adv-x="566" 
d="M515 0h-147q0 53 15 116l-4 1q-24 -66 -63 -99t-100 -33q-76 0 -123 49t-47 142v286h155v-241q0 -51 20.5 -75t56.5 -24q38 0 62 27.5t24 84.5v228h151v-462zM260.5 699q23.5 -7 56.5 -20q4 -1 27 -9.5t37 -8.5q17 0 30 11.5t24 34.5l57 -19q-16 -63 -42.5 -98t-72.5 -35
q-23 0 -46.5 7t-56.5 20q-47 19 -64 19t-30 -11.5t-24 -35.5l-57 20q16 63 42.5 97.5t72.5 34.5q23 0 46.5 -7z" />
    <glyph glyph-name="wacute" unicode="&#x1e83;" horiz-adv-x="773" 
d="M1 462h165l56 -140q16 -39 21.5 -55.5t8.5 -36.5h4q4 21 10.5 37t26.5 56l75 149h37l75 -149q20 -40 26.5 -56t10.5 -37h4q3 20 10.5 41t19.5 51l57 140h165l-221 -472h-41l-82 162q-4 7 -15.5 30.5t-16.5 37t-8 27.5h-4q-5 -20 -12 -36.5t-28 -58.5l-83 -162h-41z
M583 703l-149 -150h-104l-1 4l112 150h141z" />
    <glyph glyph-name="wcircumflex" unicode="&#x175;" horiz-adv-x="773" 
d="M1 462h165l56 -140q16 -39 21.5 -55.5t8.5 -36.5h4q4 21 10.5 37t26.5 56l75 149h37l75 -149q20 -40 26.5 -56t10.5 -37h4q3 20 10.5 41t19.5 51l57 140h165l-221 -472h-41l-82 162q-4 7 -15.5 30.5t-16.5 37t-8 27.5h-4q-5 -20 -12 -36.5t-28 -58.5l-83 -162h-41z
M575 558v-5h-121l-33 43q-17 22 -24 35.5t-9 32.5h-3q-2 -19 -8.5 -32.5t-23.5 -35.5l-34 -43h-120v5l116 149h144z" />
    <glyph glyph-name="wdieresis" unicode="&#x1e85;" horiz-adv-x="773" 
d="M1 462h165l56 -140q16 -39 21.5 -55.5t8.5 -36.5h4q4 21 10.5 37t26.5 56l75 149h37l75 -149q20 -40 26.5 -56t10.5 -37h4q3 20 10.5 41t19.5 51l57 140h165l-221 -472h-41l-82 162q-4 7 -15.5 30.5t-16.5 37t-8 27.5h-4q-5 -20 -12 -36.5t-28 -58.5l-83 -162h-41z
M340.5 677q22.5 -23 22.5 -58q0 -34 -22.5 -57t-57.5 -23t-58 22.5t-23 57.5t23 58t58 23t57.5 -23zM549.5 677q22.5 -23 22.5 -58q0 -34 -22.5 -57t-57.5 -23t-58 22.5t-23 57.5t23 58t58 23t57.5 -23z" />
    <glyph glyph-name="wgrave" unicode="&#x1e81;" horiz-adv-x="773" 
d="M1 462h165l56 -140q16 -39 21.5 -55.5t8.5 -36.5h4q4 21 10.5 37t26.5 56l75 149h37l75 -149q20 -40 26.5 -56t10.5 -37h4q3 20 10.5 41t19.5 51l57 140h165l-221 -472h-41l-82 162q-4 7 -15.5 30.5t-16.5 37t-8 27.5h-4q-5 -20 -12 -36.5t-28 -58.5l-83 -162h-41z
M191 703l1 4h141l112 -150l-1 -4h-104z" />
    <glyph glyph-name="yacute" unicode="&#xfd;" horiz-adv-x="537" 
d="M241 -200h-151l108 236l-197 426h162l77 -181q13 -31 18.5 -54.5t7.5 -59.5l4 1q3 45 21 88l83 206h162zM465 703l-149 -150h-104l-1 4l112 150h141z" />
    <glyph glyph-name="ycircumflex" unicode="&#x177;" horiz-adv-x="537" 
d="M241 -200h-151l108 236l-197 426h162l77 -181q13 -31 18.5 -54.5t7.5 -59.5l4 1q3 45 21 88l83 206h162zM457 558v-5h-121l-33 43q-17 22 -24 35.5t-9 32.5h-3q-2 -19 -8.5 -32.5t-23.5 -35.5l-34 -43h-120v5l116 149h144z" />
    <glyph glyph-name="ydieresis" unicode="&#xff;" horiz-adv-x="537" 
d="M241 -200h-151l108 236l-197 426h162l77 -181q13 -31 18.5 -54.5t7.5 -59.5l4 1q3 45 21 88l83 206h162zM222.5 677q22.5 -23 22.5 -58q0 -34 -22.5 -57t-57.5 -23t-58 22.5t-23 57.5t23 58t58 23t57.5 -23zM431.5 677q22.5 -23 22.5 -58q0 -34 -22.5 -57t-57.5 -23
t-58 22.5t-23 57.5t23 58t58 23t57.5 -23z" />
    <glyph glyph-name="ygrave" unicode="&#x1ef3;" horiz-adv-x="537" 
d="M241 -200h-151l108 236l-197 426h162l77 -181q13 -31 18.5 -54.5t7.5 -59.5l4 1q3 45 21 88l83 206h162zM73 703l1 4h141l112 -150l-1 -4h-104z" />
    <glyph glyph-name="zacute" unicode="&#x17a;" horiz-adv-x="500" 
d="M-4 5l272 349l-3 3q-19 -11 -36.5 -15t-50.5 -4h-140l71 124h389l2 -5l-266 -348l4 -3q17 11 35.5 14.5t58.5 3.5h163l-76 -124h-421zM475 703l-149 -150h-104l-1 4l112 150h141z" />
    <glyph glyph-name="zcaron" unicode="&#x17e;" horiz-adv-x="500" 
d="M-4 5l272 349l-3 3q-19 -11 -36.5 -15t-50.5 -4h-140l71 124h389l2 -5l-266 -348l4 -3q17 11 35.5 14.5t58.5 3.5h163l-76 -124h-421zM98 702v5h121l33 -43q18 -22 24.5 -35.5t8.5 -32.5h3q2 19 8.5 32.5t23.5 35.5l34 43h120v-5l-116 -149h-144z" />
    <glyph glyph-name="zdotaccent" unicode="&#x17c;" horiz-adv-x="500" 
d="M-4 5l272 349l-3 3q-19 -11 -36.5 -15t-50.5 -4h-140l71 124h389l2 -5l-266 -348l4 -3q17 11 35.5 14.5t58.5 3.5h163l-76 -124h-421zM346.5 683.5q26.5 -26.5 26.5 -67.5q0 -42 -26.5 -68t-67.5 -26q-42 0 -68 26t-26 68q0 41 26 67.5t68 26.5q41 0 67.5 -26.5z" />
    <glyph glyph-name="germandbls" unicode="&#xdf;" horiz-adv-x="603" 
d="M525.5 350.5q51.5 -44.5 51.5 -135.5q0 -109 -74 -164.5t-209 -55.5h-49v131h40q76 0 108 23.5t32 74.5q0 62 -40.5 87t-120.5 25v113q52 0 79 19t27 56q0 34 -22 51t-57 17q-42 0 -65.5 -24.5t-23.5 -74.5v-623h-151v610q0 109 62.5 172t187.5 63q103 0 159 -43.5
t56 -125.5q0 -126 -137 -145v-4q95 -2 146.5 -46.5z" />
    <glyph glyph-name="eth" unicode="&#xf0;" horiz-adv-x="581" 
d="M545 311q0 -114 -37 -187t-98 -106t-137 -33q-78 0 -135 32.5t-87 88.5t-30 126t29.5 123.5t81.5 83t117 29.5q133 0 173 -124h4q-6 63 -29 112q-32 65 -95 100l-77 -69l-47 47l55 49q-50 13 -119 16l13 116q118 -6 206 -42l59 52l47 -48l-42 -38q148 -98 148 -328z
M353.5 151.5q31.5 30.5 31.5 81.5q0 50 -31.5 80t-80.5 30q-51 0 -81 -30t-30 -80t31.5 -81t80.5 -31q48 0 79.5 30.5z" />
    <glyph glyph-name="grave" unicode="`" horiz-adv-x="354" 
d="M50 703l1 4h141l112 -150l-1 -4h-104z" />
    <glyph glyph-name="acute" unicode="&#xb4;" horiz-adv-x="354" 
d="M304 703l-149 -150h-104l-1 4l112 150h141z" />
    <glyph glyph-name="circumflex" unicode="&#x2c6;" horiz-adv-x="476" 
d="M426 558v-5h-121l-33 43q-17 22 -24 35.5t-9 32.5h-3q-2 -19 -8.5 -32.5t-23.5 -35.5l-34 -43h-120v5l116 149h144z" />
    <glyph glyph-name="tilde" unicode="&#x2dc;" horiz-adv-x="493" 
d="M211.5 699q23.5 -7 56.5 -20q4 -1 27 -9.5t37 -8.5q17 0 30 11.5t24 34.5l57 -19q-16 -63 -42.5 -98t-72.5 -35q-23 0 -46.5 7t-56.5 20q-47 19 -64 19t-30 -11.5t-24 -35.5l-57 20q16 63 42.5 97.5t72.5 34.5q23 0 46.5 -7z" />
    <glyph glyph-name="caron" unicode="&#x2c7;" horiz-adv-x="476" 
d="M50 702v5h121l33 -43q18 -22 24.5 -35.5t8.5 -32.5h3q2 19 8.5 32.5t23.5 35.5l34 43h120v-5l-116 -149h-144z" />
    <glyph glyph-name="dieresis" unicode="&#xa8;" horiz-adv-x="410" 
d="M188.5 677q22.5 -23 22.5 -58q0 -34 -22.5 -57t-57.5 -23t-58 22.5t-23 57.5t23 58t58 23t57.5 -23zM397.5 677q22.5 -23 22.5 -58q0 -34 -22.5 -57t-57.5 -23t-58 22.5t-23 57.5t23 58t58 23t57.5 -23z" />
    <glyph glyph-name="macron" unicode="&#xaf;" horiz-adv-x="408" 
d="M358 579h-308v97h308v-97z" />
    <glyph glyph-name="breve" unicode="&#x2d8;" horiz-adv-x="429" 
d="M357.5 629.5q-21.5 -36.5 -59 -57t-84.5 -20.5q-46 0 -83.5 20.5t-59 57t-21.5 84.5h94q2 -30 18.5 -49.5t51.5 -19.5t51.5 19.5t18.5 49.5h95q0 -48 -21.5 -84.5z" />
    <glyph glyph-name="ring" unicode="&#x2da;" horiz-adv-x="340" 
d="M256 714q34 -33 34 -84t-34 -84t-86 -33t-86 33t-34 84t34 84t86 33t86 -33zM129.5 669.5q-15.5 -15.5 -15.5 -39.5t15.5 -39.5t40.5 -15.5t40.5 15.5t15.5 39.5t-15.5 39.5t-40.5 15.5t-40.5 -15.5z" />
    <glyph glyph-name="hungarumlaut" unicode="&#x2dd;" horiz-adv-x="509" 
d="M50 555l117 152h115l1 -2l-128 -152h-104zM226 555l117 152h115l1 -2l-128 -152h-104z" />
    <glyph glyph-name="dotaccent" unicode="&#x2d9;" horiz-adv-x="263" 
d="M211.5 683.5q26.5 -26.5 26.5 -67.5q0 -42 -26.5 -68t-67.5 -26q-42 0 -68 26t-26 68q0 41 26 67.5t68 26.5q41 0 67.5 -26.5z" />
    <glyph glyph-name="cedilla" unicode="&#xb8;" horiz-adv-x="303" 
d="M161 -35q92 -14 92 -71q0 -39 -38.5 -63.5t-115.5 -53.5l-28 -11l-21 47q47 24 64.5 36.5t17.5 23.5q0 22 -49 31l47 130h58z" />
    <glyph glyph-name="ogonek" unicode="&#x2db;" horiz-adv-x="287" 
d="M237 10q-84 -76 -84 -104q0 -10 7.5 -16t19.5 -6q16 0 39 5l13 -93q-16 -2 -25 -4q-32 -5 -46 -5q-52 0 -81.5 21t-29.5 65q0 34 27 68.5t84 82.5z" />
    <glyph glyph-name="comma" unicode="," horiz-adv-x="278" 
d="M69 143h164l-112 -310h-86z" />
    <glyph glyph-name="semicolon" unicode=";" horiz-adv-x="279" 
d="M69 143h164l-112 -310h-86zM217.5 450.5q26.5 -26.5 26.5 -67.5q0 -40 -26.5 -67t-67.5 -27q-40 0 -67 27t-27 67q0 41 27 67.5t67 26.5q41 0 67.5 -26.5z" />
    <glyph glyph-name="colon" unicode=":" horiz-adv-x="259" 
d="M196.5 148.5q26.5 -26.5 26.5 -67.5q0 -40 -26.5 -67t-67.5 -27q-40 0 -67 27t-27 67q0 41 27 67.5t67 26.5q41 0 67.5 -26.5zM196.5 450.5q26.5 -26.5 26.5 -67.5q0 -40 -26.5 -67t-67.5 -27q-40 0 -67 27t-27 67q0 41 27 67.5t67 26.5q41 0 67.5 -26.5z" />
    <glyph glyph-name="period" unicode="." horiz-adv-x="259" 
d="M196.5 148.5q26.5 -26.5 26.5 -67.5q0 -40 -26.5 -67t-67.5 -27q-40 0 -67 27t-27 67q0 41 27 67.5t67 26.5q41 0 67.5 -26.5z" />
    <glyph glyph-name="ellipsis" unicode="&#x2026;" horiz-adv-x="804" 
d="M215.5 148.5q26.5 -26.5 26.5 -67.5q0 -40 -26.5 -67t-67.5 -27q-40 0 -67 27t-27 67q0 41 27 67.5t67 26.5q41 0 67.5 -26.5zM723.5 148.5q26.5 -26.5 26.5 -67.5q0 -40 -26.5 -67t-67.5 -27q-40 0 -67 27t-27 67q0 41 27 67.5t67 26.5q41 0 67.5 -26.5zM469.5 148.5
q26.5 -26.5 26.5 -67.5q0 -40 -26.5 -67t-67.5 -27q-40 0 -67 27t-27 67q0 41 27 67.5t67 26.5q41 0 67.5 -26.5z" />
    <glyph glyph-name="hyphen" unicode="-" horiz-adv-x="370" 
d="M334 198h-298v135h298v-135z" />
    <glyph glyph-name="exclam" unicode="!" horiz-adv-x="371" 
d="M240 229h-108l-33 471h173zM252.5 148.5q26.5 -26.5 26.5 -67.5q0 -40 -26.5 -67t-67.5 -27q-40 0 -67 27t-27 67q0 41 27 67.5t67 26.5q41 0 67.5 -26.5z" />
    <glyph glyph-name="exclamdown" unicode="&#xa1;" horiz-adv-x="371" 
d="M131 270h108l33 -471h-173zM118.5 350.5q-26.5 26.5 -26.5 67.5q0 40 26.5 67t67.5 27q40 0 67 -27t27 -67q0 -41 -27 -67.5t-67 -26.5q-41 0 -67.5 26.5z" />
    <glyph glyph-name="question" unicode="?" horiz-adv-x="392" 
d="M327.5 681q43.5 -34 43.5 -93q0 -62 -55 -112l-56 -58q-11 -12 -17 -22t-6 -21q0 -15 12 -27.5t38 -26.5l-50 -104q-74 26 -113.5 58t-39.5 93q0 28 11 52t39 51l36 36q37 36 37 56q0 11 -9 18t-28 7q-41 0 -106 -38l-59 110q93 55 197 55q82 0 125.5 -34zM267.5 148.5
q26.5 -26.5 26.5 -67.5q0 -40 -26.5 -67t-67.5 -27q-40 0 -67 27t-27 67q0 41 27 67.5t67 26.5q41 0 67.5 -26.5z" />
    <glyph glyph-name="questiondown" unicode="&#xbf;" horiz-adv-x="357" 
d="M39.5 -182q-43.5 34 -43.5 93q0 62 55 112l56 58q11 12 17 22t6 21q0 15 -12 27.5t-38 26.5l50 104q74 -26 113.5 -58t39.5 -93q0 -28 -11 -52t-39 -51l-36 -36q-37 -36 -37 -56q0 -11 9 -18t28 -7q41 0 106 38l59 -110q-93 -55 -197 -55q-82 0 -125.5 34zM99.5 350.5
q-26.5 26.5 -26.5 67.5q0 40 26.5 67t67.5 27q40 0 67 -27t27 -67q0 -41 -27 -67.5t-67 -26.5q-41 0 -67.5 26.5z" />
    <glyph glyph-name="quoteleft" unicode="&#x2018;" horiz-adv-x="238" 
d="M11 441l105 283h96l-46 -283h-155z" />
    <glyph glyph-name="quoteright" unicode="&#x2019;" horiz-adv-x="238" 
d="M227 730l-105 -283h-96l46 283h155z" />
    <glyph glyph-name="quotedblleft" unicode="&#x201c;" horiz-adv-x="424" 
d="M11 441l105 283h96l-46 -283h-155zM197 441l105 283h96l-46 -283h-155z" />
    <glyph glyph-name="quotedblright" unicode="&#x201d;" horiz-adv-x="424" 
d="M413 730l-105 -283h-96l46 283h155zM227 730l-105 -283h-96l46 283h155z" />
    <glyph glyph-name="quotesinglbase" unicode="&#x201a;" horiz-adv-x="238" 
d="M227 132l-105 -283h-96l46 283h155z" />
    <glyph glyph-name="quotedblbase" unicode="&#x201e;" horiz-adv-x="424" 
d="M227 132l-105 -283h-96l46 283h155zM413 132l-105 -283h-96l46 283h155z" />
    <glyph glyph-name="guilsinglleft" unicode="&#x2039;" horiz-adv-x="304" 
d="M303 415l-85 -114q-30 -41 -41.5 -55t-20.5 -20v-2q9 -6 20.5 -20t41.5 -55l85 -114v-4h-148l-144 194l144 194h148v-4z" />
    <glyph glyph-name="guilsinglright" unicode="&#x203a;" horiz-adv-x="313" 
d="M158 419l144 -194l-144 -194h-148v4l85 114q30 41 41.5 55t20.5 20v2q-9 6 -20.5 20t-41.5 55l-85 114v4h148z" />
    <glyph glyph-name="periodcentered" unicode="&#xb7;" horiz-adv-x="288" 
d="M211.5 450.5q26.5 -26.5 26.5 -67.5q0 -40 -26.5 -67t-67.5 -27q-40 0 -67 27t-27 67q0 41 27 67.5t67 26.5q41 0 67.5 -26.5z" />
    <glyph glyph-name="slash" unicode="/" horiz-adv-x="577" 
d="M21 -61l442 820l93 -53l-444 -819z" />
    <glyph glyph-name="bar" unicode="|" horiz-adv-x="328" 
d="M101 727h126v-942h-126v942z" />
    <glyph glyph-name="endash" unicode="&#x2013;" horiz-adv-x="734" 
d="M693 211h-652v117h652v-117z" />
    <glyph glyph-name="emdash" unicode="&#x2014;" horiz-adv-x="1136" 
d="M1095 215h-1054v113h1054v-113z" />
    <glyph glyph-name="bullet" unicode="&#x2022;" horiz-adv-x="373" 
d="M279.5 458q37.5 -37 37.5 -93t-37.5 -93t-93.5 -37t-93 37t-37 93t37 93t93 37t93.5 -37z" />
    <glyph glyph-name="parenleft" unicode="(" horiz-adv-x="299" 
d="M64.5 35q-37.5 126 -37.5 267q0 135 36 250.5t118 243.5l107 -64q-70 -109 -102.5 -213t-32.5 -217q0 -120 34.5 -237t100.5 -216l-107 -64q-79 124 -116.5 250z" />
    <glyph glyph-name="parenright" unicode=")" horiz-adv-x="299" 
d="M12 -151q66 99 100.5 216t34.5 237q0 113 -32.5 217t-102.5 213l107 64q82 -128 118 -243.5t36 -250.5q0 -141 -37.5 -267t-116.5 -250z" />
    <glyph glyph-name="bracketleft" unicode="[" horiz-adv-x="359" 
d="M349 656h-97q-28 0 -39 5l-1 -1q6 -13 6 -37v-698q0 -24 -6 -37l1 -1q11 5 39 5h97v-108h-258v980h258v-108z" />
    <glyph glyph-name="bracketright" unicode="]" horiz-adv-x="359" 
d="M268 764v-980h-258v108h97q28 0 39 -5l1 1q-6 13 -6 37v698q0 24 6 37l-1 1q-11 -5 -39 -5h-97v108h258z" />
    <glyph glyph-name="braceleft" unicode="{" horiz-adv-x="402" 
d="M237.5 235.5q38.5 -32.5 38.5 -95.5v-147q0 -42 22 -63t61 -21h37v-125h-39q-95 0 -149 49t-54 154v121q0 96 -128 102v130q128 6 128 102v119q0 105 54 154t149 49h39v-124h-26q-46 0 -70 -20t-24 -65v-144q0 -63 -38.5 -96t-119.5 -38v-4q81 -5 119.5 -37.5z" />
    <glyph glyph-name="braceright" unicode="}" horiz-adv-x="402" 
d="M284 277q-81 5 -119.5 38t-38.5 96v144q0 45 -24 65t-70 20h-26v124h39q95 0 149 -49t54 -154v-119q0 -96 128 -102v-130q-128 -6 -128 -102v-121q0 -105 -54 -154t-149 -49h-39v125h37q39 0 61 21t22 63v147q0 63 38.5 95.5t119.5 37.5v4z" />
    <glyph glyph-name="uni00AD" unicode="&#xad;" horiz-adv-x="370" 
d="M334 198h-298v135h298v-135z" />
    <glyph glyph-name="guillemotleft" unicode="&#xab;" horiz-adv-x="514" 
d="M303 415l-85 -114q-30 -41 -41.5 -55t-20.5 -20v-2q9 -6 20.5 -20t41.5 -55l85 -114v-4h-148l-144 194l144 194h148v-4zM514 415l-85 -114q-30 -41 -41.5 -55t-20.5 -20v-2q9 -6 20.5 -20t41.5 -55l85 -114v-4h-148l-144 194l144 194h148v-4z" />
    <glyph glyph-name="guillemotright" unicode="&#xbb;" horiz-adv-x="524" 
d="M221 415l85 -114q30 -41 41.5 -55t20.5 -20v-2q-9 -6 -20.5 -20t-41.5 -55l-85 -114v-4h148l144 194l-144 194h-148v-4zM10 415l85 -114q30 -41 41.5 -55t20.5 -20v-2q-9 -6 -20.5 -20t-41.5 -55l-85 -114v-4h148l144 194l-144 194h-148v-4z" />
    <glyph glyph-name="zero" unicode="0" horiz-adv-x="613" 
d="M506.5 598q70.5 -92 70.5 -260t-70.5 -260.5t-200.5 -92.5q-129 0 -199.5 92.5t-70.5 260.5t70.5 260t199.5 92q130 0 200.5 -92zM217 494q-31 -54 -31 -156t31 -156.5t89 -54.5t89.5 54.5t31.5 156.5t-31 156t-90 54q-58 0 -89 -54z" />
    <glyph glyph-name="one" unicode="1" horiz-adv-x="396" 
d="M306 0h-146v374q0 25 1.5 40t7.5 29l-4 2q-7 -9 -13.5 -14.5t-18.5 -11.5l-93 -45v145l128 89l21 67h117v-675z" />
    <glyph glyph-name="two" unicode="2" horiz-adv-x="565" 
d="M446 643.5q53 -46.5 53 -132.5q0 -52 -22 -100.5t-78 -119.5l-86 -109q-29 -36 -52 -55l2 -3q36 12 114 12h162l1 -2l-78 -134h-457l-5 10l281 356q34 43 48 70.5t14 51.5q0 29 -18 45t-50 16t-72.5 -16t-80.5 -45l-73 119q64 43 124 63t122 20q98 0 151 -46.5z" />
    <glyph glyph-name="three" unicode="3" horiz-adv-x="520" 
d="M406 646.5q54 -42.5 54 -121.5q0 -48 -22 -85.5t-60 -54.5q-28 -12 -67 -15v-4q37 0 67 -9q55 -15 85.5 -58t30.5 -104q0 -100 -67 -154.5t-189 -54.5q-52 0 -111 13t-102 33l54 137q79 -41 156 -41q53 0 82.5 21.5t29.5 58.5q0 45 -41 63t-142 18v132q147 0 147 71
q0 29 -21.5 44.5t-62.5 15.5q-68 0 -140 -45l-62 120q49 30 107 46t119 16q101 0 155 -42.5z" />
    <glyph glyph-name="four" unicode="4" horiz-adv-x="591" 
d="M479 277q0 -22 -5 -30l2 -2q7 4 28 4h77l-43 -135h-34q-18 0 -28 4l-2 -2q5 -7 5 -30v-86h-140v86q0 25 4 30l-2 2q-10 -4 -27 -4h-304v111l325 450h144v-398zM291 419l-92 -128q-22 -30 -42 -48l2 -2q18 8 65 8h90q20 0 27 -4l2 2q-5 8 -5 30v157q0 36 8 72l-3 1
q-12 -35 -52 -88z" />
    <glyph glyph-name="five" unicode="5" horiz-adv-x="510" 
d="M452 534h-155q-19 0 -30 7l-2 -1v-7q0 -9 -3 -24l-13 -48q-3 -12 -17 -26l1 -2q17 9 52 9q89 0 142 -57t53 -154q0 -119 -71 -182.5t-205 -63.5q-56 0 -105.5 11.5t-98.5 35.5l53 133q81 -39 151 -39q58 0 91 28t33 77t-35 75t-103 26q-66 0 -111 -17l-4 4l105 356h325z
" />
    <glyph glyph-name="six" unicode="6" horiz-adv-x="553" 
d="M251 464q-47 -51 -69 -103l6 -2q26 51 59 75t76 24q62 0 109.5 -29.5t74 -82.5t26.5 -122t-32 -123.5t-89.5 -85t-131.5 -30.5q-76 0 -134 31.5t-89.5 89t-31.5 133.5q0 78 24.5 140.5t83.5 137.5l128 158h184zM202.5 297.5q-28.5 -27.5 -28.5 -72.5q0 -44 29 -71.5
t75 -27.5t74.5 27.5t28.5 72.5q0 44 -28.5 71.5t-74.5 27.5q-47 0 -75.5 -27.5z" />
    <glyph glyph-name="seven" unicode="7" horiz-adv-x="491" 
d="M491 671l-304 -671h-165l210 438q12 26 18 37q26 56 39 72l-2 2q-30 -15 -89 -15h-198l57 141h432z" />
    <glyph glyph-name="eight" unicode="8" horiz-adv-x="583" 
d="M106.5 37.5q-66.5 52.5 -66.5 146.5q0 70 38 116t104 55v4q-56 8 -89.5 49t-33.5 101q0 84 62.5 132.5t169.5 48.5q108 0 170 -48.5t62 -132.5q0 -60 -33.5 -101t-88.5 -49v-4q66 -9 104 -55t38 -116q0 -94 -66.5 -146.5t-185.5 -52.5q-118 0 -184.5 52.5zM347.5 439.5
q21.5 19.5 21.5 51.5t-21.5 52t-56.5 20t-56.5 -20t-21.5 -52q0 -31 21.5 -51t56.5 -20t56.5 19.5zM360.5 149q26.5 24 26.5 63t-26.5 63t-69.5 24t-69.5 -24t-26.5 -63t26.5 -63t69.5 -24t69.5 24z" />
    <glyph glyph-name="nine" unicode="9" horiz-adv-x="531" 
d="M390.5 657.5q57.5 -31.5 89 -89.5t31.5 -134q0 -74 -23 -134.5t-82 -139.5l-120 -160h-179l180 215q24 28 36 47.5t21 42.5l-5 2q-18 -40 -51 -62t-73 -22q-59 0 -105.5 29t-73 81t-26.5 117q0 69 31.5 123.5t88 85t127.5 30.5q76 0 133.5 -31.5zM189.5 522.5
q-28.5 -27.5 -28.5 -70.5t28.5 -70t72.5 -27t72.5 27t28.5 70t-28.5 70.5t-72.5 27.5t-72.5 -27.5z" />
    <glyph glyph-name="zero.zero" horiz-adv-x="613" 
d="M550.5 514.5q26.5 -74.5 26.5 -176.5q0 -168 -70.5 -260.5t-200.5 -92.5q-81 0 -140 38l-27 -54l-26 11l30 59q-52 44 -79.5 120t-27.5 179q0 168 70.5 260t199.5 92q83 0 144 -39l23 45l26 -11l-26 -52q51 -44 77.5 -118.5zM216 184l166 330q-30 34 -76 34
q-58 0 -89 -54t-31 -156q0 -100 30 -154zM395.5 181.5q31.5 54.5 31.5 156.5q0 97 -27 149l-166 -329q29 -31 72 -31q58 0 89.5 54.5z" />
    <glyph glyph-name="asterisk" unicode="*" horiz-adv-x="417" 
d="M61 420l85 94l-125 28l32 97l116 -50l-12 126h103l-12 -126l116 50l33 -97l-125 -28l84 -94l-83 -62l-64 110l-65 -110z" />
    <glyph glyph-name="asciitilde" unicode="~" 
d="M259 393q27 -9 63 -26q29 -14 47.5 -20.5t39.5 -6.5q22 0 40.5 6.5t36.5 19.5l37 27l63 -99q-46 -39 -90.5 -58.5t-90.5 -19.5q-34 0 -60 8.5t-61 24.5q-30 14 -49 20.5t-42 6.5q-30 0 -51.5 -10t-40 -24t-24.5 -18l-63 97q48 41 92 61t91 20q35 0 62 -9z" />
    <glyph glyph-name="brokenbar" unicode="&#xa6;" horiz-adv-x="328" 
d="M101 727h126v-395h-126v395zM227 -215h-126v397h126v-397z" />
    <glyph glyph-name="backslash" unicode="\" horiz-adv-x="537" 
d="M516 -18l-85 -43l-410 776l87 43z" />
    <glyph glyph-name="underscore" unicode="_" horiz-adv-x="515" 
d="M514 -127h-513v112h513v-112z" />
    <glyph glyph-name="quotesingle" unicode="'" horiz-adv-x="203" 
d="M41 715h121l-23 -253h-75z" />
    <glyph glyph-name="quotedbl" unicode="&#x22;" horiz-adv-x="337" 
d="M41 715h111l-23 -253h-65zM184 715h112l-23 -253h-66z" />
    <glyph glyph-name="uni02BC" unicode="&#x2bc;" horiz-adv-x="238" 
d="M227 730l-105 -283h-96l46 283h155z" />
    <glyph glyph-name="ampersand" unicode="&#x26;" horiz-adv-x="712" 
d="M539 546l-1 -3h-188q-31 0 -44 9l-4 -1l209 -291h2q-1 10 1.5 18.5t11.5 21.5q32 50 36 57l18 28l127 -76q-34 -57 -49.5 -80.5t-40.5 -56.5q-1 -1 -6 -6.5t-23 -8.5v-2l110 -150v-4l-173 -1l-38 54h-2q-17 -30 -66 -49.5t-112 -19.5q-77 0 -138 29.5t-96 84t-35 127.5
q0 72 33.5 126t92.5 81q10 5 17 6.5t18 0.5l1 2l-163 228l2 5h414zM273 343q-1 -6 -4 -9t-12 -8q-64 -33 -64 -96q0 -45 30 -72t79 -27q19 0 33.5 4t24 8.5t13.5 5.5q15 6 26 6q6 0 9 -1l1 2l-134 187h-2z" />
    <glyph glyph-name="at" unicode="@" horiz-adv-x="934" 
d="M266 -104q-100 46 -162.5 139t-62.5 227q0 133 55 229.5t155 147.5t233 51q121 0 213.5 -47t144 -133t51.5 -200q0 -71 -20 -130.5t-62 -96.5t-105 -37q-55 0 -92.5 25t-43.5 75h-4q-20 -42 -57 -68.5t-92 -26.5q-68 0 -110 40t-42 106q0 67 42 106.5t111 39.5
q90 0 136 -67l3 1q-7 21 -7 49q0 25 -21.5 39.5t-64.5 14.5q-48 0 -123 -15l-18 108q87 14 158 14q103 0 151 -39.5t48 -125.5v-126q0 -24 9 -38t27 -14t35 15.5t28.5 49t11.5 84.5q0 101 -40.5 169t-109.5 100.5t-154 32.5q-102 0 -179.5 -37.5t-121.5 -112.5t-44 -182
q0 -103 46 -175t123.5 -107.5t169.5 -35.5q86 0 170 32l33 -90q-101 -37 -205 -37q-113 0 -213 46zM514.5 172q15.5 13 15.5 33q0 22 -15.5 35t-39.5 13t-38.5 -13t-14.5 -35q0 -20 14.5 -33t38.5 -13t39.5 13z" />
    <glyph glyph-name="copyright" unicode="&#xa9;" horiz-adv-x="810" 
d="M220 31.5q-83 46.5 -131 129.5t-48 189t48 189t131 129.5t185 46.5t185 -46.5t131 -129.5t48 -189t-48 -189t-131 -129.5t-185 -46.5t-185 46.5zM550.5 95q65.5 37 103.5 103.5t38 151.5t-38 151.5t-103.5 103.5t-145.5 37t-145.5 -37t-103.5 -103.5t-38 -151.5
t38 -151.5t103.5 -103.5t145.5 -37t145.5 37zM292.5 156.5q-53.5 29.5 -83.5 81.5t-30 116t30 116t83.5 81.5t120.5 29.5q81 0 151 -48l-49 -83q-24 15 -49 24t-56 9q-56 0 -90.5 -35.5t-34.5 -93.5t34.5 -93.5t90.5 -35.5q53 0 105 34l49 -84q-70 -48 -151 -48
q-67 0 -120.5 29.5z" />
    <glyph glyph-name="registered" unicode="&#xae;" horiz-adv-x="540" 
d="M392.5 684q54.5 -31 85.5 -86t31 -124t-31 -124t-85.5 -86t-122.5 -31t-122.5 31t-85.5 86t-31 124t31 124t85.5 86t122.5 31t122.5 -31zM177.5 632.5q-40.5 -23.5 -62.5 -64.5t-22 -94t22 -94.5t62.5 -65t92.5 -23.5t92.5 23.5t62.5 65t22 94.5t-22 94t-62.5 64.5
t-92.5 23.5t-92.5 -23.5zM342.5 592q21.5 -19 21.5 -54q0 -32 -17.5 -51.5t-48.5 -20.5v-2q9 -3 20 -18l62 -82v-5h-60l-72 104h-8v-104h-54v252h101q34 0 55.5 -19zM240 563v-55h40q17 0 24.5 7.5t7.5 19.5t-8.5 20t-24.5 8h-39z" />
    <glyph glyph-name="trademark" unicode="&#x2122;" horiz-adv-x="817" 
d="M433 457q-15 31 -19 61h-4q2 -38 -6 -64l-51 -173h-94l134 421h17l90 -201q10 -22 15 -39.5t6 -35.5h4q1 18 6 35.5t15 39.5l90 201h17l134 -421h-94l-51 173q-8 26 -6 64h-4q-4 -30 -19 -61l-82 -181h-16zM125 594q0 18 3 25l-2 2q-9 -4 -28 -4h-68v83h278v-83h-68
q-19 0 -28 4l-2 -2q3 -7 3 -25v-313h-88v313z" />
    <glyph glyph-name="paragraph" unicode="&#xb6;" horiz-adv-x="664" 
d="M614 589h-66v-695h-107v695h-90v-695h-107v416q-54 0 -98.5 25t-70 70.5t-25.5 103.5q0 56 27 99.5t73.5 67.5t103.5 24h360v-111z" />
    <glyph glyph-name="section" unicode="&#xa7;" horiz-adv-x="584" 
d="M510.5 179q-23.5 -41 -64.5 -71q36 -43 36 -98q0 -78 -53.5 -123.5t-149.5 -45.5q-108 0 -190 58l67 113q31 -20 67.5 -32t68.5 -12q27 0 40.5 10t13.5 26q0 20 -23 35t-75 38q-61 27 -100.5 50.5t-68.5 63t-29 95.5q0 50 23 91t64 71q-36 43 -36 98q0 78 53.5 123.5
t149.5 45.5q104 0 191 -54l-68 -117q-31 20 -67 32t-68 12q-27 0 -40.5 -10t-13.5 -26q0 -20 23 -35t75 -38q61 -27 100.5 -50.5t68.5 -63t29 -95.5q0 -50 -23.5 -91zM214.5 247q27.5 -20 86.5 -47l36 -17q59 35 59 78q0 29 -27 48t-87 47l-36 17q-26 -15 -42.5 -35
t-16.5 -42q0 -29 27.5 -49z" />
    <glyph glyph-name="asciicircum" unicode="^" 
d="M517 393h-106l-111 253l-111 -253h-105l144 322h145z" />
    <glyph glyph-name="dagger" unicode="&#x2020;" horiz-adv-x="526" 
d="M486 368h-161v-461h-124v461h-160v116h160v216h124v-216h161v-116z" />
    <glyph glyph-name="daggerdbl" unicode="&#x2021;" horiz-adv-x="544" 
d="M334 401v-176h160v-116h-160v-202h-124v202h-160v116h160v176h-160v116h160v183h124v-183h160v-116h-160z" />
    <glyph glyph-name="emptyset" unicode="&#x2205;" 
d="M522.5 409.5q15.5 -40.5 15.5 -86.5q0 -66 -31 -119t-85.5 -83t-121.5 -30q-92 0 -158 55l-56 -56l-19 20l55 55q-29 31 -44.5 71.5t-15.5 86.5q0 66 31 119t85.5 83t121.5 30q45 0 85.5 -14.5t71.5 -40.5l56 56l20 -20l-55 -55q29 -31 44.5 -71.5zM218 261l144 144
q-25 20 -62 20q-45 0 -73.5 -29t-28.5 -73q0 -36 20 -62zM373.5 250q28.5 29 28.5 73q0 35 -20 63l-145 -145q26 -20 63 -20q45 0 73.5 29z" />
    <glyph glyph-name="uni2206" unicode="&#x2206;" horiz-adv-x="628" 
d="M608 0h-588l249 700h90zM196 100h236l-118 373z" />
    <glyph glyph-name="uni00B5" unicode="&#xb5;" 
d="M534 462v-462h-147q0 53 15 116l-4 1q-24 -66 -63 -99t-100 -33q-18 0 -35 3v-188h-135v662h155v-241q0 -51 20.5 -75t56.5 -24q38 0 62 27.5t24 84.5v228h151z" />
    <glyph glyph-name="uniF8FF" unicode="&#xf8ff;" horiz-adv-x="865" 
d="M60.5 702q10.5 10 26.5 10q15 0 26 -10.5t11 -25.5q0 -10 -4.5 -19.5t-13.5 -14.5v-24q49 20 88.5 31t84.5 11t76 -21.5t31 -61.5v-25q55 12 104 12q57 0 96.5 -19t39.5 -64v-48q48 12 81 12q55 0 81.5 -21.5t26.5 -57.5v-240q-52 32 -107 32q-16 0 -34 -3.5t-33 -7.5
q-32 -9 -53 -9q-51 0 -51 46v86q-23 5 -47 5q-26 0 -76 -10q-46 -8 -64 -8q-54 0 -54 46v68h-14q-62 0 -176 -44v-327h-39v643q-8 5 -12.5 14t-4.5 19q0 16 10.5 26zM334.5 618.5q-22.5 13.5 -54.5 13.5q-43 0 -81.5 -11.5t-92.5 -33.5v-230q110 42 175 42q45 0 76 -14v192
q0 28 -22.5 41.5zM247 485v-68h-30v68l-65 95h38l42 -64l42 64h38zM578.5 517.5q-19.5 18.5 -86.5 18.5q-45 0 -106 -12v-171q0 -12 -8.5 -18t-25.5 -12q-15 -5 -22.5 -10t-7.5 -14q0 -7 6.5 -10.5t20.5 -3.5q16 0 60 8q56 9 81 9q28 0 57.5 -6.5t50.5 -18.5v197
q0 25 -19.5 43.5zM422.5 472q22.5 23 57.5 23t57.5 -23t22.5 -58t-22.5 -58t-57.5 -23t-57.5 23t-22.5 58t22.5 58zM516 451.5q-14 14.5 -36 14.5t-36 -14.5t-14 -37.5t14 -37.5t36 -14.5t36 14.5t14 37.5t-14 37.5zM767 404.5q-21 11.5 -59 11.5q-34 0 -82 -12v-167
q0 -13 -8.5 -19t-25.5 -14q-14 -5 -21 -9.5t-7 -13.5q0 -16 25 -16q17 0 48 9q44 12 70 12q39 0 81 -15v194q0 28 -21 39.5zM699 273h-16l-10 100h36zM347 361.5q-9 4.5 -23 6.5v-32q5 3 13.5 5.5t13.5 4.5t5 6q0 5 -9 9.5zM564 264v-47q6 4 15 7.5t14 7t5 8.5q0 13 -34 24z
M676.5 244.5q5.5 5.5 14.5 5.5t14.5 -5.5t5.5 -13.5q0 -9 -5.5 -14.5t-14.5 -5.5t-14.5 5.5t-5.5 14.5q0 8 5.5 13.5z" />
    <glyph glyph-name="uni2113" unicode="&#x2113;" horiz-adv-x="532" 
d="M501 31q-54 -23 -94 -33t-79 -10q-93 0 -141 55t-58 179l-69 -17l-29 110l94 27q5 190 62 269t153 79q76 0 118 -43t42 -118q0 -93 -63.5 -156.5t-179.5 -108.5q4 -83 25.5 -117t66.5 -34q39 0 109 30zM258 390q57 27 88 60t31 75q0 24 -10 36t-28 12q-70 0 -81 -183z
" />
    <glyph glyph-name="estimated" unicode="&#x212e;" horiz-adv-x="755" 
d="M73 462.5q47 72.5 128 115t176 42.5q96 0 177 -42.5t128 -115t47 -158.5v-9h-574v-140q0 -33 13.5 -60.5t38.5 -43.5q68 -45 172 -45q73 0 138.5 27.5t109.5 77.5h29q-50 -58 -123.5 -90.5t-155.5 -32.5q-95 0 -176 42.5t-128 115t-47 158.5t47 158.5zM379 602
q-106 0 -172 -46q-52 -35 -52 -85v-158h445v152q0 53 -44 87q-65 50 -177 50z" />
    <glyph glyph-name="dollar" unicode="$" horiz-adv-x="542" 
d="M284 -42q0 17 4 34l-1 1q-5 -5 -11.5 -6.5t-18.5 -1.5q-61 1 -124 19.5t-112 49.5l65 129q62 -30 94 -40.5t82 -16.5q2 0 9.5 -1t15.5 -7l1 1q-4 15 -4 33v116l-89 54q-62 36 -93.5 84t-31.5 106q0 74 52.5 123t137.5 54h6q15 0 20 -5l2 1q-4 11 -4 31v41h30v-41
q0 -19 -3 -33l1 -1q6 6 21 6q29 0 82 -14t90 -32l-61 -129q-65 25 -109 33q-14 2 -22 11l-2 -1q3 -10 3 -24v-110l73 -42q73 -43 104 -87.5t31 -107.5q0 -81 -48.5 -132t-136.5 -63q-3 -1 -8 -1q-10 0 -18 5l-1 -1q4 -16 4 -34v-41h-30v40zM288 434q-4 15 -4 29v69
q0 16 4 25l-1 1q-4 -5 -12 -6t-10 -1q-22 -4 -34.5 -15.5t-12.5 -27.5t12 -30t40 -30q6 -3 10 -6.5t7 -8.5zM323 128q6 2 8 3q22 7 32 18t10 28q0 18 -8.5 31t-31.5 29q-2 1 -9 6t-11 15l-1 -1q2 -13 2 -32v-73q0 -16 -4 -31l1 -1q6 6 12 8z" />
    <glyph glyph-name="cent" unicode="&#xa2;" horiz-adv-x="484" 
d="M282 -45q0 14 0.5 21.5t3.5 14.5l-1 1q-7 -6 -21 -6q-7 0 -10 1q-98 13 -158 79.5t-60 164.5q0 97 59 163t157 80l16 1q11 0 16 -4l1 1q-3 14 -3 30v30h30v-30q0 -19 -4 -30h1q4 4 14 4q6 0 10 -1q75 -7 130 -43l-61 -121q-31 20 -67 26q-19 3 -25 8l-1 -1q2 -7 2.5 -15
t0.5 -23v-148q0 -18 -1 -26t-5 -14l1 -1q6 4 17.5 6t15.5 3q31 5 62 25l61 -121q-54 -34 -124 -43q-4 -1 -10 -1q-14 0 -20 6l-1 -1q3 -6 3.5 -13.5t0.5 -22.5v-19h-30v19zM285 120q-2 5 -2.5 13.5t-0.5 24.5v148q0 25 4 36l-1 1q-6 -7 -27 -12q-32 -12 -49.5 -38.5
t-17.5 -61.5t17.5 -61.5t48.5 -38.5q21 -7 27 -13z" />
    <glyph glyph-name="sterling" unicode="&#xa3;" horiz-adv-x="556" 
d="M306.5 -8q-21.5 6 -50.5 18q-18 8 -30.5 12t-25.5 4q-17 0 -38 -8t-55 -26l-66 118q112 67 112 138q0 19 -8 37t-38 70h-76v30h30q24 0 34 -7l1 2q-12 15 -19 31q-17 43 -17 84q0 58 29.5 102.5t83 68.5t123.5 24q109 0 201 -61l-73 -125q-64 44 -128 44
q-40 0 -62.5 -18.5t-22.5 -51.5q0 -20 8 -40t30 -53h167v-30h-117q-30 0 -41 8l-1 -2q16 -19 22.5 -37.5t6.5 -41.5q0 -45 -27 -79t-87 -66l2 -4q33 15 68 15q26 0 62 -12q34 -10 53 -10q25 0 48.5 11t51.5 36l78 -119q-41 -32 -87 -50t-91 -18q-29 0 -50.5 6z" />
    <glyph glyph-name="florin" unicode="&#x192;" horiz-adv-x="387" 
d="M376 682v-131q-30 2 -36 2q-79 0 -79 -66v-4q0 -16 -2 -23l1 -1q9 3 28 3h88v-30h-88q-14 0 -20 1.5t-8 1.5l-1 -1q2 -18 2 -50v-368q0 -119 -57 -168t-131 -49q-30 0 -59 4v131q16 -2 41 -2q28 0 45.5 18t17.5 56v378q0 32 2 50l-1 1q-15 -3 -30 -3h-77v30h77
q23 0 30 -3l1 1q-2 7 -2 22v4q0 109 64.5 154t146.5 45q20 0 47 -3z" />
    <glyph glyph-name="yen" unicode="&#xa5;" horiz-adv-x="642" 
d="M253 209h-179v30h134q29 0 41 -5l1 1q-10 10 -14 17.5t-5 9.5l-18 33h-139v30h93q25 0 37 -5l1 2q-7 8 -20 29l-169 324h171l99 -224q17 -37 24 -59t9 -49h4q2 26 9 47.5t24 60.5l99 224h171l-169 -324q-8 -16 -20 -29l1 -2q12 5 37 5h93v-30h-139l-18 -33q-1 -2 -5 -9.5
t-14 -17.5l1 -1q13 5 41 5h134v-30h-179v-209h-136v209z" />
    <glyph glyph-name="Euro" unicode="&#x20ac;" horiz-adv-x="672" 
d="M211 63.5q-89 78.5 -105 219.5h-101l15 30h60q20 0 27 -3l1 1q-5 12 -5 28q0 25 6 34l-1 2q-4 -2 -10 -2.5t-15 -0.5h-73l15 30h82q20 135 109.5 212t226.5 77q113 0 209 -51l-60 -128q-77 41 -151 41q-67 0 -111.5 -34t-60.5 -98q-5 -16 -10 -21l1 -1q11 3 29 3h235
l-15 -30h-219q-15 0 -22 0.5t-13 3.5l-1 -1q5 -7 5 -37q0 -20 -4 -29l1 -1q7 3 14 4t20 1h196l-15 -30h-181q-13 0 -20 0.5t-11 2.5l-1 -1q6 -4 8 -14.5t3 -12.5q15 -65 60 -100t112 -35q74 0 151 41l59 -125q-96 -54 -209 -54q-142 0 -231 78.5z" />
    <glyph glyph-name="currency" unicode="&#xa4;" 
d="M533 323q0 -46 -14.5 -85.5t-41.5 -70.5l56 -57l-20 -19l-56 56q-66 -56 -157 -56q-46 0 -86.5 15t-70.5 42l-57 -57l-19 20l56 56q-27 31 -41.5 70.5t-14.5 85.5q0 92 57 157l-57 57l20 20l57 -57q64 55 156 55t156 -55l57 57l20 -20l-57 -57q57 -65 57 -157zM372 250
q28 29 28 73q0 45 -27.5 73.5t-72.5 28.5t-72.5 -28.5t-27.5 -73.5q0 -44 28 -73t72 -29t72 29z" />
    <glyph glyph-name="fraction" unicode="&#x2044;" horiz-adv-x="115" 
d="M217 675h77l-396 -675h-77z" />
    <glyph glyph-name="onequarter" unicode="&#xbc;" horiz-adv-x="751" 
d="M135 517q0 14 0.5 24.5t3.5 20.5l-2 1q-7 -11 -21 -16l-54 -21v66l78 46l11 37h53v-386h-69v228zM524 675h77l-396 -675h-77zM588 56l1 15v2q-3 -3 -13 -3h-178v56l193 260h65v-236q0 -11 -3 -14l1 -2q6 3 14 3h57l-21 -67h-36q-8 0 -14 3l-1 -2q3 -3 3 -14v-57h-68v56z
M509 137h67q9 0 12 -3l1 2q-1 2 -1 14v95q0 30 3 52h-1q-4 -11 -12 -22t-12 -17l-73 -98l-10.5 -13.5t-14.5 -14.5l1 -1q11 6 40 6z" />
    <glyph glyph-name="onehalf" unicode="&#xbd;" horiz-adv-x="777" 
d="M135 517q0 14 0.5 24.5t3.5 20.5l-2 1q-7 -11 -21 -16l-54 -21v66l78 46l11 37h53v-386h-69v228zM524 675h77l-396 -675h-77zM447 3l165 207q18 22 27 38t9 34q0 22 -14.5 35t-38.5 13q-41 0 -98 -31l-30 57q68 39 137 39q53 0 84.5 -28.5t31.5 -77.5q0 -30 -13 -56
t-39 -57l-62 -77q-22 -27 -37 -37l1 -2q33 6 62 6h108l1 -1l-38 -65h-254z" />
    <glyph glyph-name="threequarters" unicode="&#xbe;" horiz-adv-x="804" 
d="M41 306l24 64q25 -12 47 -17.5t49 -5.5q38 0 59 15t21 45q0 31 -26.5 44.5t-89.5 13.5v62q43 0 68 12.5t25 37.5q0 19 -15 30t-39 11q-43 0 -90 -26l-28 59q61 33 128 33q56 0 86 -26t30 -68q0 -34 -22 -56.5t-63 -29.5v-2q47 0 77 -28t30 -74q0 -53 -38 -86.5
t-110 -33.5q-69 0 -123 26zM575 675h77l-396 -675h-77zM640 56l1 15v2q-3 -3 -13 -3h-178v56l193 260h65v-236q0 -11 -3 -14l1 -2q6 3 14 3h57l-21 -67h-36q-8 0 -14 3l-1 -2q3 -3 3 -14v-57h-68v56zM561 137h67q9 0 12 -3l1 2q-1 2 -1 14v95q0 30 3 52h-1q-4 -11 -12 -22
t-12 -17l-73 -98l-10.5 -13.5t-14.5 -14.5l1 -1q11 6 40 6z" />
    <glyph glyph-name="uni2153" unicode="&#x2153;" horiz-adv-x="769" 
d="M135 517q0 14 0.5 24.5t3.5 20.5l-2 1q-7 -11 -21 -16l-54 -21v66l78 46l11 37h53v-386h-69v228zM524 675h77l-396 -675h-77zM472 17l24 64q25 -12 47 -17.5t49 -5.5q38 0 59 15t21 45q0 31 -26.5 44.5t-89.5 13.5v62q43 0 68 12.5t25 37.5q0 19 -15 30t-39 11
q-43 0 -90 -26l-28 59q60 33 128 33q56 0 86 -26t30 -68q0 -34 -22 -56.5t-63 -29.5v-2q47 0 77 -28t30 -74q0 -53 -38 -86.5t-110 -33.5q-69 0 -123 26z" />
    <glyph glyph-name="uni2154" unicode="&#x2154;" horiz-adv-x="826" 
d="M15 292l165 207q18 22 27 38t9 34q0 22 -14.5 35t-38.5 13q-41 0 -98 -31l-30 57q68 39 137 39q53 0 84.5 -28.5t31.5 -77.5q0 -30 -13 -56t-39 -57l-62 -77q-22 -27 -37 -37l1 -2q33 6 62 6h108l1 -1l-38 -65h-254zM581 675h77l-396 -675h-77zM529 17l24 64
q25 -12 47 -17.5t49 -5.5q38 0 59 15t21 45q0 31 -26.5 44.5t-89.5 13.5v62q43 0 68 12.5t25 37.5q0 19 -15 30t-39 11q-43 0 -90 -26l-28 59q60 33 128 33q56 0 86 -26t30 -68q0 -34 -22 -56.5t-63 -29.5v-2q47 0 77 -28t30 -74q0 -53 -38 -86.5t-110 -33.5q-69 0 -123 26z
" />
    <glyph glyph-name="oneeighth" unicode="&#x215b;" horiz-adv-x="780" 
d="M135 517q0 14 0.5 24.5t3.5 20.5l-2 1q-7 -11 -21 -16l-54 -21v66l78 46l11 37h53v-386h-69v228zM524 675h77l-396 -675h-77zM491 22q-38 31 -38 84q0 43 23.5 68.5t61.5 30.5v1q-34 6 -53.5 29.5t-19.5 58.5q0 44 36 72.5t95 28.5q60 0 96 -28.5t36 -72.5
q0 -35 -19.5 -58.5t-53.5 -29.5v-1q38 -5 61.5 -30.5t23.5 -68.5q0 -53 -38 -84t-106 -31q-67 0 -105 31zM639.5 250q16.5 13 16.5 34q0 22 -16.5 34t-43.5 12t-43 -12.5t-16 -33.5t16.5 -34t42.5 -13q27 0 43.5 13zM647.5 72q19.5 16 19.5 43t-19.5 42.5t-51.5 15.5
q-31 0 -50.5 -15.5t-19.5 -42.5t19 -43t51 -16t51.5 16z" />
    <glyph glyph-name="threeeighths" unicode="&#x215c;" horiz-adv-x="831" 
d="M41 306l24 64q25 -12 47 -17.5t49 -5.5q38 0 59 15t21 45q0 31 -26.5 44.5t-89.5 13.5v62q43 0 68 12.5t25 37.5q0 19 -15 30t-39 11q-43 0 -90 -26l-28 59q61 33 128 33q56 0 86 -26t30 -68q0 -34 -22 -56.5t-63 -29.5v-2q47 0 77 -28t30 -74q0 -53 -38 -86.5
t-110 -33.5q-69 0 -123 26zM575 675h77l-396 -675h-77zM542 22q-38 31 -38 84q0 43 23.5 68.5t61.5 30.5v1q-34 6 -53.5 29.5t-19.5 58.5q0 44 36 72.5t95 28.5q60 0 96 -28.5t36 -72.5q0 -35 -19.5 -58.5t-53.5 -29.5v-1q38 -5 61.5 -30.5t23.5 -68.5q0 -53 -38 -84
t-106 -31q-67 0 -105 31zM690.5 250q16.5 13 16.5 34q0 22 -16.5 34t-43.5 12t-43 -12.5t-16 -33.5t16.5 -34t42.5 -13q27 0 43.5 13zM698.5 72q19.5 16 19.5 43t-19.5 42.5t-51.5 15.5q-31 0 -50.5 -15.5t-19.5 -42.5t19 -43t51 -16t51.5 16z" />
    <glyph glyph-name="fiveeighths" unicode="&#x215d;" horiz-adv-x="816" 
d="M25 306l25 64q46 -23 92 -23q38 0 58.5 18.5t20.5 51.5q0 66 -94 66q-38 0 -63 -7l-2 2l59 197h182l-26 -69h-96q-13 0 -16 3l-1 -1q0 -9 -3 -24l-8 -27q-2 -10 -12 -20l1 -2q3 1 17 1q62 0 98 -31t36 -89q0 -62 -41.5 -99t-107.5 -37q-58 0 -119 26zM560 675h77
l-396 -675h-77zM527 22q-38 31 -38 84q0 43 23.5 68.5t61.5 30.5v1q-34 6 -53.5 29.5t-19.5 58.5q0 44 36 72.5t95 28.5q60 0 96 -28.5t36 -72.5q0 -35 -19.5 -58.5t-53.5 -29.5v-1q38 -5 61.5 -30.5t23.5 -68.5q0 -53 -38 -84t-106 -31q-67 0 -105 31zM675.5 250
q16.5 13 16.5 34q0 22 -16.5 34t-43.5 12t-43 -12.5t-16 -33.5t16.5 -34t42.5 -13q27 0 43.5 13zM683.5 72q19.5 16 19.5 43t-19.5 42.5t-51.5 15.5q-31 0 -50.5 -15.5t-19.5 -42.5t19 -43t51 -16t51.5 16z" />
    <glyph glyph-name="seveneighths" unicode="&#x215e;" horiz-adv-x="689" 
d="M149 549l9.5 20.5l8.5 17.5q11 23 13 26l-1 1q-15 -6 -56 -6h-117l28 67h241v-2l-171 -384h-77zM450 675h77l-396 -675h-77zM426 22q-38 31 -38 84q0 43 23.5 68.5t61.5 30.5v1q-34 6 -53.5 29.5t-19.5 58.5q0 44 36 72.5t95 28.5q60 0 96 -28.5t36 -72.5
q0 -35 -19.5 -58.5t-53.5 -29.5v-1q38 -5 61.5 -30.5t23.5 -68.5q0 -53 -38 -84t-106 -31q-67 0 -105 31zM574.5 250q16.5 13 16.5 34q0 22 -16.5 34t-43.5 12t-43 -12.5t-16 -33.5t16.5 -34t42.5 -13q27 0 43.5 13zM582.5 72q19.5 16 19.5 43t-19.5 42.5t-51.5 15.5
q-31 0 -50.5 -15.5t-19.5 -42.5t19 -43t51 -16t51.5 16z" />
    <glyph glyph-name="percent" unicode="%" horiz-adv-x="800" 
d="M132 381.5q-38 20.5 -60 58t-22 85.5q0 49 22 86.5t60 58t85 20.5q48 0 86 -20.5t60 -58t22 -86.5q0 -48 -22 -85.5t-60 -58t-86 -20.5q-47 0 -85 20.5zM554 675h77l-396 -675h-77zM285.5 458q26.5 27 26.5 67q0 41 -26.5 68t-67.5 27t-68 -27t-27 -68t27 -67.5t68 -26.5
t67.5 27zM462 40.5q-47 45.5 -47 119.5q0 73 47 118.5t120 45.5q48 0 86 -20.5t60 -58t22 -85.5q0 -49 -22 -86.5t-60 -58t-86 -20.5q-73 0 -120 45.5zM650 92q27 27 27 68q0 40 -27 67t-68 27t-68 -27t-27 -67q0 -41 27 -68t68 -27t68 27z" />
    <glyph glyph-name="perthousand" unicode="&#x2030;" horiz-adv-x="1150" 
d="M132 381.5q-38 20.5 -60 58t-22 85.5q0 49 22 86.5t60 58t85 20.5q48 0 86 -20.5t60 -58t22 -86.5q0 -48 -22 -85.5t-60 -58t-86 -20.5q-47 0 -85 20.5zM554 675h77l-396 -675h-77zM285.5 458q26.5 27 26.5 67q0 41 -26.5 68t-67.5 27t-68 -27t-27 -68t27 -67.5t68 -26.5
t67.5 27zM462 40.5q-47 45.5 -47 119.5q0 73 47 118.5t120 45.5q48 0 86 -20.5t60 -58t22 -85.5q0 -49 -22 -86.5t-60 -58t-86 -20.5q-73 0 -120 45.5zM1019 302.5q38 -21.5 59.5 -59t21.5 -83.5t-21.5 -84t-59.5 -59.5t-84 -21.5t-83.5 21.5t-59 59.5t-21.5 84t21.5 83.5
t59 59t83.5 21.5t84 -21.5zM650 92q27 27 27 68q0 40 -27 67t-68 27t-68 -27t-27 -67q0 -41 27 -68t68 -27t68 27zM867 227q-27 -27 -27 -67q0 -41 27 -68t68 -27t68 27t27 68q0 40 -27 67t-68 27t-68 -27z" />
    <glyph glyph-name="uni03BC" unicode="&#x3bc;" horiz-adv-x="566" 
d="M515 462v-462h-147q0 53 15 116l-4 1q-24 -66 -63 -99t-100 -33q-19 0 -35 3v-188h-135v662h155v-241q0 -51 20.5 -75t56.5 -24q38 0 62 27.5t24 84.5v228h151z" />
    <glyph glyph-name="numbersign" unicode="#" horiz-adv-x="626" 
d="M467 441l-30 -164h107v-68h-119l-38 -209h-73l38 209h-131l-38 -209h-73l38 209h-107v68h119l30 164h-109v68h121l35 191h73l-35 -191h131l35 191h73l-35 -191h106v-68h-118zM394 441h-131l-30 -164h131z" />
    <glyph glyph-name="uni2116" unicode="&#x2116;" horiz-adv-x="1173" 
d="M464 345q18 -18 27.5 -31t18.5 -31l4 1q-11 36 -11 122v294h153v-710h-34l-365 365q-18 18 -27 30.5t-19 32.5l-4 -1q12 -34 12 -123v-294h-153v710h33zM810.5 200q-48.5 26 -76 73.5t-27.5 108.5q0 62 27.5 109t76 73t109.5 26t109.5 -26t75.5 -73t27 -109
q0 -61 -27 -108.5t-75.5 -73.5t-109.5 -26t-109.5 26zM982 320.5q24 23.5 24 61.5t-24 61.5t-62 23.5t-62.5 -23.5t-24.5 -61.5t24.5 -61.5t62.5 -23.5t62 23.5zM721 120h397v-120h-397v120z" />
    <glyph glyph-name="uni0394" unicode="&#x394;" horiz-adv-x="628" 
d="M608 0h-588l249 700h90zM196 100h236l-118 373z" />
    <glyph glyph-name="uni03A9" unicode="&#x3a9;" horiz-adv-x="746" 
d="M553 674.5q78 -40.5 120.5 -111t42.5 -159.5q0 -76 -32.5 -134t-85 -93.5t-113.5 -49.5v-3q54 7 84 7h135v-131h-291v218q67 10 109.5 58.5t42.5 118.5q0 77 -52 126t-140 49t-139.5 -49t-51.5 -126q0 -70 42 -118.5t109 -58.5v-218h-290v131h135q29 0 83 -7v3
q-61 14 -113.5 49.5t-85 93.5t-32.5 134q0 89 42.5 159.5t120.5 111t180 40.5t180 -40.5z" />
    <glyph glyph-name="pi" unicode="&#x3c0;" horiz-adv-x="640" 
d="M610 346h-91v-346h-136v346h-97l-78 -346h-138l78 345q-66 -3 -118 -19v131q60 20 156 20h424v-131z" />
    <glyph glyph-name="plus" unicode="+" 
d="M334 329h211v-63h-211v-212h-68v212h-211v63h211v212h68v-212z" />
    <glyph glyph-name="minus" unicode="&#x2212;" 
d="M539 264h-478v68h478v-68z" />
    <glyph glyph-name="plusminus" unicode="&#xb1;" 
d="M334 391h205v-63h-205v-128h-68v128h-205v63h205v128h68v-128zM539 90h-478v66h478v-66z" />
    <glyph glyph-name="multiply" unicode="&#xd7;" 
d="M522 473l-174 -175l174 -175l-47 -47l-175 174l-175 -174l-47 47l174 175l-174 175l47 47l175 -174l175 174z" />
    <glyph glyph-name="divide" unicode="&#xf7;" 
d="M262 418q-15 15 -15 38t15 38t38 15t38 -15t15 -38t-15 -38t-38 -15t-38 15zM41 330h518v-63h-518v63zM262 103q-15 15 -15 38t15 38t38 15t38 -15t15 -38t-15 -38t-38 -15t-38 15z" />
    <glyph glyph-name="equal" unicode="=" 
d="M553 374h-506v66h506v-66zM553 161h-506v66h506v-66z" />
    <glyph glyph-name="less" unicode="&#x3c;" 
d="M534 468l-391 -168l391 -168v-76l-468 208v72l468 208v-76z" />
    <glyph glyph-name="greater" unicode="&#x3e;" 
d="M534 336v-72l-468 -208v76l391 168l-391 168v76z" />
    <glyph glyph-name="degree" unicode="&#xb0;" horiz-adv-x="352" 
d="M280 649.5q41 -40.5 41 -104.5q0 -65 -40.5 -105t-104.5 -40q-63 0 -104 40t-41 105q0 64 41 104.5t104 40.5t104 -40.5zM120 602q-22 -22 -22 -57t22 -57t56 -22t56 22t22 57t-22 57t-56 22t-56 -22z" />
    <glyph glyph-name="approxequal" unicode="&#x2248;" 
d="M236.5 465.5q32.5 -12.5 78.5 -36.5q39 -20 64.5 -30.5t46.5 -10.5q31 0 51 17.5t34 56.5h62q-19 -75 -58 -108.5t-88 -33.5q-31 0 -63.5 12.5t-78.5 36.5q-39 20 -64.5 30.5t-46.5 10.5q-31 0 -51 -18t-34 -57h-62q19 76 58 109.5t88 33.5q31 0 63.5 -12.5zM236.5 283.5
q32.5 -12.5 78.5 -36.5q39 -20 64.5 -30.5t46.5 -10.5q31 0 51 18t34 57h62q-19 -76 -58 -109.5t-88 -33.5q-31 0 -63.5 12.5t-78.5 36.5q-39 20 -64.5 30.5t-46.5 10.5q-31 0 -51 -18t-34 -57h-62q19 76 58 109.5t88 33.5q31 0 63.5 -12.5z" />
    <glyph glyph-name="greaterequal" unicode="&#x2265;" 
d="M66 419l376 -83l-376 -81v-70l468 116v71l-468 117v-70zM62 90h476v63h-476v-63z" />
    <glyph glyph-name="infinity" unicode="&#x221e;" horiz-adv-x="760" 
d="M695.5 407.5q44.5 -42.5 44.5 -110.5t-44.5 -110.5t-117.5 -42.5q-60 0 -105.5 29t-92.5 82q-47 -53 -92.5 -82t-105.5 -29q-73 0 -117.5 42.5t-44.5 110.5t44.5 110.5t117.5 42.5q60 0 105.5 -29t92.5 -82q47 53 92.5 82t105.5 29q73 0 117.5 -42.5zM107 366
q-28 -27 -28 -69t28 -69t75 -27q45 0 81.5 24.5t78.5 71.5q-42 47 -78.5 71.5t-81.5 24.5q-47 0 -75 -27zM497 368q-37 -25 -79 -71q42 -46 79 -71t81 -25q47 0 75 27t28 69t-28 69t-75 27q-44 0 -81 -25z" />
    <glyph glyph-name="lessequal" unicode="&#x2264;" 
d="M534 419l-376 -83l376 -81v-70l-468 116v71l468 117v-70zM538 90h-476v63h476v-63z" />
    <glyph glyph-name="logicalnot" unicode="&#xac;" 
d="M529 432v-265h-68v199h-390v66h458z" />
    <glyph glyph-name="notequal" unicode="&#x2260;" 
d="M379 374l-90 -147h264v-66h-305l-53 -87h-66l53 87h-135v66h176l90 147h-266v66h307l51 83h66l-51 -83h133v-66h-174z" />
    <glyph glyph-name="integral" unicode="&#x222b;" horiz-adv-x="437" 
d="M397 589q-60 0 -86 -24.5t-26 -82.5v-494q0 -99 -61.5 -151t-183.5 -52v126q58 1 83.5 25t25.5 82v494q0 203 248 203v-126z" />
    <glyph glyph-name="partialdiff" unicode="&#x2202;" horiz-adv-x="581" 
d="M423 373q-11 103 -62.5 152.5t-132.5 49.5q-69 0 -131 -28l-43 132q92 36 180 36q91 0 162.5 -38.5t112.5 -119t41 -202.5q0 -164 -67.5 -267t-209.5 -103q-73 0 -127.5 28.5t-84.5 81t-30 121.5q0 72 30.5 125.5t81.5 81.5t112 28q129 0 171 -117l4 1q-5 20 -7 38z
M405 252q-27 28 -58 45t-73 17q-46 0 -71.5 -26.5t-25.5 -67.5q0 -43 28.5 -69t74.5 -26q95 0 125 127z" />
    <glyph glyph-name="product" unicode="&#x220f;" horiz-adv-x="710" 
d="M690 569h-102v-647h-136v647h-194v-647h-136v647h-102v131h670v-131z" />
    <glyph glyph-name="radical" unicode="&#x221a;" horiz-adv-x="669" 
d="M406 1l1 -1h-137l-139 330h-111v132h204l109 -274l175 527h141z" />
    <glyph glyph-name="summation" unicode="&#x2211;" horiz-adv-x="556" 
d="M525 560h-316l228 -265l-228 -265h316v-140h-494v140l232 265l-232 265v140h494v-140z" />
    <glyph glyph-name="lozenge" unicode="&#x25ca;" horiz-adv-x="621" 
d="M601 350l-236 -365h-110l-235 365l235 365h110zM180 350l130 -209l131 209l-131 209z" />
    <glyph glyph-name="zero.tf" 
d="M500.5 598q70.5 -92 70.5 -260t-70.5 -260.5t-200.5 -92.5q-129 0 -199.5 92.5t-70.5 260.5t70.5 260t199.5 92q130 0 200.5 -92zM211 494q-31 -54 -31 -156t31 -156.5t89 -54.5t89.5 54.5t31.5 156.5t-31 156t-90 54q-58 0 -89 -54z" />
    <glyph glyph-name="one.tf" 
d="M528 127v-127h-456v127h173v256q0 46 8 69l-3 2q-13 -18 -33 -26l-104 -45v136l140 89l20 67h112v-548h143z" />
    <glyph glyph-name="two.tf" 
d="M472.5 643q52.5 -47 52.5 -135q0 -54 -24 -103t-77 -114l-90 -109q-3 -3 -18 -21.5t-34 -33.5l2 -3q33 12 114 12h169l1 -2l-77 -134h-454l-5 10l281 356q29 37 44.5 65.5t15.5 55.5q0 29 -18.5 45.5t-52.5 16.5q-65 0 -162 -70l-73 124q124 87 255 87q98 0 150.5 -47z
" />
    <glyph glyph-name="three.tf" 
d="M166 -2.5q-63 11.5 -110 34.5l53 136q42 -18 87.5 -29t84.5 -11q54 0 85 21.5t31 62.5t-40 59t-144 18v132q147 0 147 71q0 28 -22 44t-59 16q-66 0 -153 -45l-61 125q53 27 114.5 42t121.5 15q102 0 155.5 -42t53.5 -119q0 -48 -21 -86.5t-62 -56.5q-27 -11 -67 -15v-4
q43 -1 67 -9q53 -14 85 -56t32 -108q0 -95 -66.5 -151t-191.5 -56q-57 0 -120 11.5z" />
    <glyph glyph-name="four.tf" 
d="M483 277q0 -22 -5 -30l2 -2q7 4 28 4h77l-43 -135h-34q-18 0 -28 4l-2 -2q5 -7 5 -30v-86h-140v86q0 25 4 30l-2 2q-10 -4 -27 -4h-304v111l325 450h144v-398zM295 419l-92 -128q-22 -30 -42 -48l2 -2q18 8 65 8h90q20 0 27 -4l2 2q-5 8 -5 30v157q0 36 8 72l-3 1
q-12 -35 -52 -88z" />
    <glyph glyph-name="five.tf" 
d="M501 534h-157q-20 0 -31 8l-2 -2q1 -3 1 -10q0 -10 -3 -21l-14 -48q-4 -14 -17 -26l1 -2q20 9 53 9q92 0 145.5 -58t53.5 -153q0 -117 -74 -181.5t-206 -64.5q-107 0 -204 47l52 133q81 -39 151 -39q60 0 92 29t32 76q0 48 -35 74.5t-103 26.5q-63 0 -111 -17l-4 4
l106 356h326z" />
    <glyph glyph-name="six.tf" 
d="M272 464q-47 -51 -69 -103l6 -2q26 51 59 75t76 24q62 0 109.5 -29.5t74 -82.5t26.5 -122t-32 -123.5t-89.5 -85t-131.5 -30.5q-76 0 -134 31.5t-89.5 89t-31.5 133.5q0 78 24.5 140.5t83.5 137.5l128 158h184zM223.5 297.5q-28.5 -27.5 -28.5 -72.5q0 -44 29 -71.5
t75 -27.5t74.5 27.5t28.5 72.5q0 44 -28.5 71.5t-74.5 27.5q-47 0 -75.5 -27.5z" />
    <glyph glyph-name="seven.tf" 
d="M557 671l-299 -671h-165l200 438q4 9 18 38.5t23 46t16 24.5l-2 2q-30 -15 -89 -15h-216l57 141h455z" />
    <glyph glyph-name="eight.tf" 
d="M115.5 37.5q-66.5 52.5 -66.5 146.5q0 70 38 116t104 55v4q-56 8 -89.5 49t-33.5 101q0 84 62.5 132.5t169.5 48.5q108 0 170 -48.5t62 -132.5q0 -60 -33.5 -101t-88.5 -49v-4q66 -9 104 -55t38 -116q0 -94 -66.5 -146.5t-185.5 -52.5q-118 0 -184.5 52.5zM356.5 439.5
q21.5 19.5 21.5 51.5t-21.5 52t-56.5 20t-56.5 -20t-21.5 -52q0 -31 21.5 -51t56.5 -20t56.5 19.5zM369.5 149q26.5 24 26.5 63t-26.5 63t-69.5 24t-69.5 -24t-26.5 -63t26.5 -63t69.5 -24t69.5 24z" />
    <glyph glyph-name="nine.tf" 
d="M429.5 657.5q57.5 -31.5 89 -89.5t31.5 -134q0 -74 -23 -134.5t-82 -139.5l-120 -160h-179l180 215q24 28 36 47.5t21 42.5l-5 2q-18 -40 -51 -62t-73 -22q-59 0 -105.5 29t-73 81t-26.5 117q0 69 31.5 123.5t88 85t127.5 30.5q76 0 133.5 -31.5zM228.5 522.5
q-28.5 -27.5 -28.5 -70.5t28.5 -70t72.5 -27t72.5 27t28.5 70t-28.5 70.5t-72.5 27.5t-72.5 -27.5z" />
    <glyph glyph-name="zero.tf.zero" 
d="M544.5 514.5q26.5 -74.5 26.5 -176.5q0 -168 -70.5 -260.5t-200.5 -92.5q-81 0 -140 38l-27 -54l-26 11l30 59q-52 44 -79.5 120t-27.5 179q0 168 70.5 260t199.5 92q83 0 144 -39l23 45l26 -11l-26 -52q51 -44 77.5 -118.5zM210 184l166 330q-30 34 -76 34
q-58 0 -89 -54t-31 -156q0 -100 30 -154zM389.5 181.5q31.5 54.5 31.5 156.5q0 97 -27 149l-166 -329q29 -31 72 -31q58 0 89.5 54.5z" />
    <glyph glyph-name="dollar.tf" 
d="M311 -42q0 17 4 34l-1 1q-5 -5 -11.5 -6.5t-18.5 -1.5q-61 1 -124 19.5t-112 49.5l65 129q62 -30 94 -40.5t82 -16.5q2 0 9.5 -1t15.5 -7l1 1q-4 15 -4 33v116l-89 54q-62 36 -93.5 84t-31.5 106q0 74 52.5 123t137.5 54h6q15 0 20 -5l2 1q-4 11 -4 31v41h30v-41
q0 -19 -3 -33l1 -1q6 6 21 6q29 0 82 -14t90 -32l-61 -129q-65 25 -109 33q-14 2 -22 11l-2 -1q3 -10 3 -24v-110l73 -42q73 -43 104 -87.5t31 -107.5q0 -81 -48.5 -132t-136.5 -63q-3 -1 -8 -1q-10 0 -18 5l-1 -1q4 -16 4 -34v-41h-30v40zM315 434q-4 15 -4 29v69
q0 16 4 25l-1 1q-4 -5 -12 -6t-10 -1q-22 -4 -34.5 -15.5t-12.5 -27.5t12 -30t40 -30q6 -3 10 -6.5t7 -8.5zM350 128q6 2 8 3q22 7 32 18t10 28q0 18 -8.5 31t-31.5 29q-2 1 -9 6t-11 15l-1 -1q2 -13 2 -32v-73q0 -16 -4 -31l1 -1q6 6 12 8z" />
    <glyph glyph-name="cent.tf" 
d="M332 -45q0 14 0.5 21.5t3.5 14.5l-1 1q-7 -6 -21 -6q-7 0 -10 1q-98 13 -158 79.5t-60 164.5q0 97 59 163t157 80l16 1q11 0 16 -4l1 1q-3 14 -3 30v30h30v-30q0 -19 -4 -30h1q4 4 14 4q6 0 10 -1q75 -7 130 -43l-61 -121q-31 20 -67 26q-19 3 -25 8l-1 -1q2 -7 2.5 -15
t0.5 -23v-148q0 -18 -1 -26t-5 -14l1 -1q6 4 17.5 6t15.5 3q31 5 62 25l61 -121q-54 -34 -124 -43q-4 -1 -10 -1q-14 0 -20 6l-1 -1q3 -6 3.5 -13.5t0.5 -22.5v-19h-30v19zM335 120q-2 5 -2.5 13.5t-0.5 24.5v148q0 25 4 36l-1 1q-6 -7 -27 -12q-32 -12 -49.5 -38.5
t-17.5 -61.5t17.5 -61.5t48.5 -38.5q21 -7 27 -13z" />
    <glyph glyph-name="sterling.tf" 
d="M323.5 -8q-21.5 6 -50.5 18q-18 8 -30.5 12t-25.5 4q-17 0 -38 -8t-55 -26l-66 118q112 67 112 138q0 19 -8 37t-38 70h-76v30h30q24 0 34 -7l1 2q-12 15 -19 31q-17 43 -17 84q0 58 29.5 102.5t83 68.5t123.5 24q109 0 201 -61l-73 -125q-64 44 -128 44
q-40 0 -62.5 -18.5t-22.5 -51.5q0 -20 8 -40t30 -53h167v-30h-117q-30 0 -41 8l-1 -2q16 -19 22.5 -37.5t6.5 -41.5q0 -45 -27 -79t-87 -66l2 -4q33 15 68 15q26 0 62 -12q34 -10 53 -10q25 0 48.5 11t51.5 36l78 -119q-41 -32 -87 -50t-91 -18q-29 0 -50.5 6z" />
    <glyph glyph-name="florin.tf" 
d="M482 682v-131q-30 2 -36 2q-79 0 -79 -66v-4q0 -16 -2 -23l1 -1q9 3 28 3h88v-30h-88q-14 0 -20 1.5t-8 1.5l-1 -1q2 -18 2 -50v-368q0 -119 -57 -168t-131 -49q-30 0 -59 4v131q16 -2 41 -2q28 0 45.5 18t17.5 56v378q0 32 2 50l-1 1q-15 -3 -30 -3h-77v30h77
q23 0 30 -3l1 1q-2 7 -2 22v4q0 109 64.5 154t146.5 45q20 0 47 -3z" />
    <glyph glyph-name="yen.tf" 
d="M232 209h-179v30h134q29 0 41 -5l1 1q-13 13 -19 27l-16 33h-139v30h93q25 0 37 -5l1 2q-15 17 -20 29l-162 324h171l90 -224q19 -46 25 -64.5t8 -43.5h4q2 25 8 43.5t25 64.5l90 224h171l-161 -324q-7 -14 -21 -29l1 -2q12 5 37 5h93v-30h-139l-16 -33q-6 -14 -19 -27
l1 -1q12 5 41 5h134v-30h-179v-209h-136v209z" />
    <glyph glyph-name="Euro.tf" 
d="M247.5 25.5q-68.5 40.5 -106.5 108t-48 149.5h-91l15 30h49q20 0 28 -3l1 1q-5 8 -5 28q0 25 6 34l-1 2q-9 -3 -26 -3h-62l15 30h72q12 80 50.5 145.5t106.5 104.5t163 39q52 0 99 -13.5t85 -37.5l-60 -128q-66 41 -126 41q-62 0 -102 -34t-54 -98q-5 -15 -10 -21l1 -1
q6 3 28 3h236l-15 -30h-219q-14 0 -21.5 0.5t-13.5 3.5l-1 -1q5 -8 5 -37q0 -19 -4 -29l1 -1q6 4 14 4.5t20 0.5h196l-15 -30h-181q-23 0 -31 3l-1 -1q5 -4 7 -14t3 -13q14 -64 54 -99.5t103 -35.5q60 0 126 41l59 -125q-39 -25 -86 -39.5t-99 -14.5q-96 0 -164.5 40.5z" />
    <glyph glyph-name="perthousand.tf" 
d="M59.5 423q-37.5 43 -37.5 112t37.5 112t94.5 43t94.5 -43t37.5 -112t-37.5 -112t-94.5 -43t-94.5 43zM109.5 600q-18.5 -23 -18.5 -65t18.5 -65t44.5 -23q25 0 44 23t19 65t-19 65t-44 23q-26 0 -44.5 -23zM546 479l-500 -232l-12 25l500 232zM540.5 252
q37.5 -43 37.5 -112t-37.5 -112t-94.5 -43q-29 0 -54.5 12t-42.5 35q-18 -23 -43.5 -35t-54.5 -12q-57 0 -94.5 43t-37.5 112t37.5 112t94.5 43q29 0 54.5 -12t43.5 -35q17 23 42.5 35t54.5 12q57 0 94.5 -43zM295.5 75q18.5 23 18.5 65t-18.5 65t-44.5 23q-25 0 -44 -23
t-19 -65t19 -65t44 -23q26 0 44.5 23zM490.5 75q18.5 23 18.5 65t-18.5 65t-44.5 23q-25 0 -44 -23t-19 -65t19 -65t44 -23q26 0 44.5 23z" />
    <glyph glyph-name="uni0308" unicode="&#x308;" horiz-adv-x="0" 
d="M-281.5 677q22.5 -23 22.5 -58q0 -34 -22.5 -57t-57.5 -23t-58 22.5t-23 57.5t23 58t58 23t57.5 -23zM-72.5 677q22.5 -23 22.5 -58q0 -34 -22.5 -57t-57.5 -23t-58 22.5t-23 57.5t23 58t58 23t57.5 -23z" />
    <glyph glyph-name="uni0307" unicode="&#x307;" horiz-adv-x="0" 
d="M-76.5 683.5q26.5 -26.5 26.5 -67.5q0 -42 -26.5 -68t-67.5 -26q-42 0 -68 26t-26 68q0 41 26 67.5t68 26.5q41 0 67.5 -26.5z" />
    <glyph glyph-name="gravecomb" unicode="&#x300;" horiz-adv-x="0" 
d="M-304 703l1 4h141l112 -150l-1 -4h-104z" />
    <glyph glyph-name="acutecomb" unicode="&#x301;" horiz-adv-x="0" 
d="M-50 703l-149 -150h-104l-1 4l112 150h141z" />
    <glyph glyph-name="uni030B" unicode="&#x30b;" horiz-adv-x="0" 
d="M-459 555l117 152h115l1 -2l-128 -152h-104zM-283 555l117 152h115l1 -2l-128 -152h-104z" />
    <glyph glyph-name="uni0302" unicode="&#x302;" horiz-adv-x="0" 
d="M-50 558v-5h-121l-33 43q-17 22 -24 35.5t-9 32.5h-3q-2 -19 -8.5 -32.5t-23.5 -35.5l-34 -43h-120v5l116 149h144z" />
    <glyph glyph-name="uni030C" unicode="&#x30c;" horiz-adv-x="0" 
d="M-426 702v5h121l33 -43q18 -22 24.5 -35.5t8.5 -32.5h3q2 19 8.5 32.5t23.5 35.5l34 43h120v-5l-116 -149h-144z" />
    <glyph glyph-name="uni0306" unicode="&#x306;" horiz-adv-x="0" 
d="M-71.5 629.5q-21.5 -36.5 -59 -57t-84.5 -20.5q-46 0 -83.5 20.5t-59 57t-21.5 84.5h94q2 -30 18.5 -49.5t51.5 -19.5t51.5 19.5t18.5 49.5h95q0 -48 -21.5 -84.5z" />
    <glyph glyph-name="uni030A" unicode="&#x30a;" horiz-adv-x="0" 
d="M-84 714q34 -33 34 -84t-34 -84t-86 -33t-86 33t-34 84t34 84t86 33t86 -33zM-210.5 669.5q-15.5 -15.5 -15.5 -39.5t15.5 -39.5t40.5 -15.5t40.5 15.5t15.5 39.5t-15.5 39.5t-40.5 15.5t-40.5 -15.5z" />
    <glyph glyph-name="tildecomb" unicode="&#x303;" horiz-adv-x="0" 
d="M-281.5 699q23.5 -7 56.5 -20q4 -1 27 -9.5t37 -8.5q17 0 30 11.5t24 34.5l57 -19q-16 -63 -42.5 -98t-72.5 -35q-23 0 -46.5 7t-56.5 20q-47 19 -64 19t-30 -11.5t-24 -35.5l-57 20q16 63 42.5 97.5t72.5 34.5q23 0 46.5 -7z" />
    <glyph glyph-name="uni0304" unicode="&#x304;" horiz-adv-x="0" 
d="M-50 579h-308v97h308v-97z" />
    <glyph glyph-name="uni0312" unicode="&#x312;" horiz-adv-x="0" 
d="M-248 553l121 183h77l-36 -183h-162z" />
    <glyph glyph-name="uni0326" unicode="&#x326;" horiz-adv-x="0" 
d="M-150 -215h-73l27 164h146z" />
    <glyph glyph-name="uni0327" unicode="&#x327;" horiz-adv-x="0" 
d="M-142 -35q92 -14 92 -71q0 -39 -38.5 -63.5t-115.5 -53.5l-28 -11l-21 47q47 24 64.5 36.5t17.5 23.5q0 22 -49 31l47 130h58z" />
    <glyph glyph-name="uni0328" unicode="&#x328;" horiz-adv-x="0" 
d="M-50 10q-84 -76 -84 -104q0 -10 7.5 -16t19.5 -6q16 0 39 5l13 -93q-16 -2 -25 -4q-32 -5 -46 -5q-52 0 -81.5 21t-29.5 65q0 34 27 68.5t84 82.5z" />
    <glyph glyph-name="uni018F" unicode="&#x18f;" horiz-adv-x="766" 
d="M558.5 674.5q84.5 -40.5 133 -122t48.5 -198.5q0 -110 -43 -193.5t-124.5 -129.5t-193.5 -46q-111 0 -190.5 45.5t-121 128t-41.5 191.5v65h507q16 0 26 -1.5t21 -6.5l3 3q-7 11 -10.5 23t-5.5 16q-21 57 -70 86.5t-137 29.5q-67 0 -113.5 -15.5t-104.5 -47.5l-69 134
q63 38 138 58.5t154 20.5q109 0 193.5 -40.5zM535 285h-300q-22 0 -30.5 1t-15.5 6l-4 -2q7 -8 10 -24q10 -51 52.5 -94t133.5 -43q85 0 130 36t57 96q2 11 4.5 17.5t5.5 11.5l-3 2q-13 -7 -40 -7z" />
    <glyph glyph-name="uni0232" unicode="&#x232;" horiz-adv-x="671" 
d="M413 248v-248h-155v248l-253 452h184l108 -227q4 -9 15 -31t15.5 -34.5t7.5 -28.5h2q4 20 9 33.5t14.5 33l13.5 27.5l108 227h184zM498 843v-94h-324v94h324z" />
    <glyph glyph-name="Adieresis.ss01" horiz-adv-x="732" 
d="M350 713h32l345 -713h-170l-65 146h-251l-66 -146h-170zM321 261h90q31 0 45 -5l1 1q-13 15 -27 47l-40 95q-21 50 -22 72h-4q-2 -25 -21 -72l-40 -95q-16 -34 -28 -47l1 -1q14 5 45 5zM324 867v-124h-116v124h116zM525 867v-124h-116v124h116z" />
    <glyph glyph-name="Cdotaccent.ss01" horiz-adv-x="680" 
d="M208.5 31.5q-86.5 46.5 -134.5 130t-48 188.5t48 188.5t134.5 130t196.5 46.5q70 0 135 -20t120 -58l-79 -126q-84 54 -173 54q-64 0 -114 -27t-77.5 -76t-27.5 -112t27.5 -112t77.5 -76t114 -27q89 0 173 54l79 -126q-55 -38 -120 -58t-135 -20q-110 0 -196.5 46.5z
M463 743h-144v133h144v-133z" />
    <glyph glyph-name="Edieresis.ss01" horiz-adv-x="544" 
d="M500 562h-254q-20 0 -28 5l-2 -2q5 -8 5 -30v-70q0 -23 -5 -31l2 -2q8 5 28 5h227v-136h-227q-20 0 -28 5l-2 -2q5 -8 5 -30v-109q0 -22 -5 -30l2 -2q8 5 28 5h258v-138h-438v700h434v-138zM253 867v-124h-116v124h116zM454 867v-124h-116v124h116z" />
    <glyph glyph-name="Edotaccent.ss01" horiz-adv-x="544" 
d="M500 562h-254q-20 0 -28 5l-2 -2q5 -8 5 -30v-70q0 -23 -5 -31l2 -2q8 5 28 5h227v-136h-227q-20 0 -28 5l-2 -2q5 -8 5 -30v-109q0 -22 -5 -30l2 -2q8 5 28 5h258v-138h-438v700h434v-138zM367 743h-144v133h144v-133z" />
    <glyph glyph-name="Gdotaccent.ss01" horiz-adv-x="765" 
d="M674 628l-88 -126q-40 30 -89.5 46.5t-98.5 16.5q-63 0 -111.5 -26.5t-75 -75t-26.5 -110.5q0 -65 26 -114.5t73.5 -76.5t109.5 -27q91 0 137.5 42t54.5 105l-2 2q-15 -11 -64 -11h-128v130h348v-32q0 -112 -38 -199.5t-115 -137t-189 -49.5q-109 0 -193.5 46t-131.5 129
t-47 191q0 107 47 190t132.5 128.5t197.5 45.5q152 0 271 -87zM454 743h-144v133h144v-133z" />
    <glyph glyph-name="Idieresis.ss01" horiz-adv-x="287" 
d="M221 0h-155v700h155v-700zM101 867v-124h-116v124h116zM302 867v-124h-116v124h116z" />
    <glyph glyph-name="Idotaccent.ss01" horiz-adv-x="287" 
d="M221 0h-155v700h155v-700zM215 743h-144v133h144v-133z" />
    <glyph glyph-name="Ldot.ss01" horiz-adv-x="507" 
d="M221 168q0 -22 -5 -30l2 -2q8 5 28 5h256v-141h-436v700h155v-532zM306 476h167v-177h-167v177z" />
    <glyph glyph-name="Odieresis.ss01" horiz-adv-x="789" 
d="M584.5 668q83.5 -47 131 -130t47.5 -188t-47.5 -188t-131 -130t-189.5 -47t-190 47t-131.5 130t-47.5 188t47.5 188t131.5 130t190 47t189.5 -47zM285.5 538q-47.5 -27 -74 -76t-26.5 -112t26.5 -112t74 -76t109.5 -27q61 0 108.5 27t74 76t26.5 112t-26.5 112t-74 76
t-108.5 27q-62 0 -109.5 -27zM352 867v-124h-116v124h116zM553 867v-124h-116v124h116z" />
    <glyph glyph-name="Udieresis.ss01" horiz-adv-x="711" 
d="M651 280q0 -139 -77.5 -216t-217.5 -77t-218 77t-78 216v420h158v-412q0 -70 37 -110t101 -40q63 0 100.5 40.5t37.5 109.5v412h157v-420zM314 867v-124h-116v124h116zM515 867v-124h-116v124h116z" />
    <glyph glyph-name="Wdieresis.ss01" horiz-adv-x="999" 
d="M656 385q12 -28 17 -44.5t9 -43.5h4q4 29 8 47.5t13 43.5l110 312h177l-287 -707h-32l-150 332q-18 41 -23 77h-4q-5 -33 -24 -77l-150 -332h-32l-287 707h178l109 -312q9 -27 14 -45t8 -46h4q4 27 9 43.5t17 44.5l145 325h21zM458 867v-124h-116v124h116zM659 867v-124
h-116v124h116z" />
    <glyph glyph-name="Ydieresis.ss01" horiz-adv-x="671" 
d="M413 248v-248h-155v248l-253 452h184l108 -227q4 -9 15 -31t15.5 -34.5t7.5 -28.5h2q4 20 9 33.5t14.5 33l13.5 27.5l108 227h184zM294 867v-124h-116v124h116zM495 867v-124h-116v124h116z" />
    <glyph glyph-name="Zdotaccent.ss01" horiz-adv-x="659" 
d="M647 695l-387 -567l4 -2q19 11 41 15t60 4h288l-77 -145h-568l-3 5l391 568l-3 2q-17 -10 -41 -14.5t-61 -4.5h-241l74 144h521zM427 743h-144v133h144v-133z" />
    <glyph glyph-name="Adieresis.ss02" horiz-adv-x="732" 
d="M149 670q-23 23 -23 57q0 35 23 58t57 23q35 0 58 -23t23 -58q0 -34 -23 -57t-58 -23q-34 0 -57 23zM467 670q-23 23 -23 57q0 35 23.5 58t57.5 23t57 -23t23 -58q0 -34 -22.5 -57t-57.5 -23t-58 23zM350 713h32l345 -713h-170l-65 146h-251l-66 -146h-170zM321 261h90
q31 0 45 -5l1 1q-13 15 -27 47l-40 95q-21 50 -22 72h-4q-2 -25 -21 -72l-40 -95q-16 -34 -28 -47l1 -1q14 5 45 5z" />
    <glyph glyph-name="Idieresis.ss02" horiz-adv-x="287" 
d="M-90 670q-23 23 -23 58t22.5 57.5t57.5 22.5t58 -23t23 -57t-23 -57.5t-58 -23.5q-34 0 -57 23zM262 670q-23 23 -23 58t23 57.5t57 22.5q35 0 58 -23t23 -57t-23 -57.5t-58 -23.5q-34 0 -57 23zM221 0h-155v700h155v-700z" />
    <glyph glyph-name="Odieresis.ss02" horiz-adv-x="789" 
d="M33 670q-23 23 -23 58t23 57.5t57 22.5q35 0 58 -23t23 -57t-23 -57.5t-58 -23.5q-34 0 -57 23zM641.5 670.5q-23.5 23.5 -23.5 57.5t23 57t58 23t57.5 -22.5t22.5 -57.5t-23 -58t-57 -23t-57.5 23.5zM584.5 668q83.5 -47 131 -130t47.5 -188t-47.5 -188t-131 -130
t-189.5 -47t-190 47t-131.5 130t-47.5 188t47.5 188t131.5 130t190 47t189.5 -47zM285.5 538q-47.5 -27 -74 -76t-26.5 -112t26.5 -112t74 -76t109.5 -27q61 0 108.5 27t74 76t26.5 112t-26.5 112t-74 76t-108.5 27q-62 0 -109.5 -27z" />
    <glyph glyph-name="Udieresis.ss02" horiz-adv-x="711" 
d="M413.5 783.5q22.5 -22.5 22.5 -57.5q0 -34 -22.5 -57t-57.5 -23t-58 23t-23 57t23 57t58 23t57.5 -22.5zM651 280q0 -139 -77.5 -216t-217.5 -77t-218 77t-78 216v420h158v-412q0 -70 37 -110.5t101 -40.5q63 0 100.5 40.5t37.5 110.5v412h157v-420zM413.5 589.5
q22.5 -22.5 22.5 -57.5t-23 -58t-57 -23t-57.5 23.5t-23.5 57.5t23 57t58 23t57.5 -22.5z" />
    <glyph glyph-name="Wdieresis.ss02" horiz-adv-x="999" 
d="M287 670q-23 23 -23 58t23 57.5t57 22.5q35 0 58 -23t23 -57t-23 -57.5t-58 -23.5q-34 0 -57 23zM597.5 670.5q-23.5 23.5 -23.5 57.5t23 57t58 23t57.5 -22.5t22.5 -57.5t-23 -58t-57 -23t-57.5 23.5zM656 385q12 -28 17 -44.5t9 -43.5h4q4 29 8 47.5t13 43.5l110 312
h177l-287 -707h-32l-150 332q-18 41 -23 77h-4q-5 -33 -24 -77l-150 -332h-32l-287 707h178l109 -312q9 -27 14 -45t8 -46h4q4 27 9 43.5t17 44.5l145 325h21z" />
    <glyph glyph-name="Ydieresis.ss02" horiz-adv-x="671" 
d="M186 716q-23 23 -23 57q0 35 23 58t57 23q35 0 58 -23t23 -58q0 -34 -23 -57t-58 -23q-34 0 -57 23zM370 716q-23 23 -23 57q0 35 23.5 58t57.5 23t57 -23t23 -58q0 -34 -22.5 -57t-57.5 -23t-58 23zM413 248v-248h-155v248l-253 452h184l108 -227q4 -9 15 -31
t15.5 -34.5t7.5 -28.5h2q4 20 9 33.5t14.5 33l13.5 27.5l108 227h184z" />
    <glyph glyph-name="Adieresis.ss01.ss02" horiz-adv-x="732" 
d="M350 713h32l345 -713h-170l-65 146h-251l-66 -146h-170zM321 261h90q31 0 45 -5l1 1q-13 15 -27 47l-40 95q-21 50 -22 72h-4q-2 -25 -21 -72l-40 -95q-16 -34 -28 -47l1 -1q14 5 45 5z" />
    <glyph glyph-name="Idieresis.ss01.ss02" horiz-adv-x="287" 
d="M221 0h-155v700h155v-700z" />
    <glyph glyph-name="Odieresis.ss01.ss02" horiz-adv-x="789" 
d="M584.5 668q83.5 -47 131 -130t47.5 -188t-47.5 -188t-131 -130t-189.5 -47t-190 47t-131.5 130t-47.5 188t47.5 188t131.5 130t190 47t189.5 -47zM285.5 538q-47.5 -27 -74 -76t-26.5 -112t26.5 -112t74 -76t109.5 -27q61 0 108.5 27t74 76t26.5 112t-26.5 112t-74 76
t-108.5 27q-62 0 -109.5 -27z" />
    <glyph glyph-name="Udieresis.ss01.ss02" horiz-adv-x="711" 
d="M651 280q0 -139 -77.5 -216t-217.5 -77t-218 77t-78 216v420h158v-412q0 -70 37 -110t101 -40q63 0 100.5 40.5t37.5 109.5v412h157v-420z" />
    <glyph glyph-name="Wdieresis.ss01.ss02" horiz-adv-x="999" 
d="M656 385q12 -28 17 -44.5t9 -43.5h4q4 29 8 47.5t13 43.5l110 312h177l-287 -707h-32l-150 332q-18 41 -23 77h-4q-5 -33 -24 -77l-150 -332h-32l-287 707h178l109 -312q9 -27 14 -45t8 -46h4q4 27 9 43.5t17 44.5l145 325h21z" />
    <glyph glyph-name="Ydieresis.ss01.ss02" horiz-adv-x="671" 
d="M413 248v-248h-155v248l-253 452h184l108 -227q4 -9 15 -31t15.5 -34.5t7.5 -28.5h2q4 20 9 33.5t14.5 33l13.5 27.5l108 227h184z" />
    <glyph glyph-name="uni0259" unicode="&#x259;" horiz-adv-x="520" 
d="M82 49.5q-61 63.5 -61 179.5v40h274q21 0 32 -2t22 -10l2 3l-4 11q-10 40 -39 61t-76 21q-37 0 -72 -11.5t-62 -29.5l-50 115q85 50 183 50q121 0 192.5 -66t71.5 -181q0 -75 -31 -130t-86.5 -84.5t-127.5 -29.5q-107 0 -168 63.5zM322 121q26 23 31 63l-2 3
q-8 -9 -42 -9h-101q-31 0 -38 8l-2 -2q2 -42 25.5 -64t62.5 -22q40 0 66 23z" />
    <glyph glyph-name="uni0292" unicode="&#x292;" horiz-adv-x="466" 
d="M78 -202q-61 13 -112 36l50 130q92 -46 177 -46q62 0 91 23t29 62q0 85 -119 85h-105v112l168 145l-1 4q-16 -10 -33.5 -13t-39.5 -3h-176v129h425v-126l-207 -162l1 -3q19 9 29.5 12t28.5 3q52 0 93 -22.5t65 -65t24 -100.5q0 -95 -64.5 -154t-200.5 -59q-62 0 -123 13z
" />
    <glyph glyph-name="uni01E5" unicode="&#x1e5;" horiz-adv-x="601" 
d="M586 -48h-46q-41 -168 -255 -168q-134 0 -236 59l64 123q41 -21 78.5 -32t82.5 -11q67 0 99 29h-130v21h147q13 22 13 54v9q0 23 9 68l-4 1q-30 -57 -71.5 -84t-99.5 -27q-63 0 -111 28.5t-74.5 82t-26.5 125.5q0 75 27 131t75.5 86t110.5 30q118 0 170 -120l4 1
q-13 47 -13 104h151v-422q0 -34 -5 -67h41v-21zM365 152.5q31 29.5 31 78.5t-31 78.5t-78 29.5q-46 0 -76.5 -29.5t-30.5 -78.5t30.5 -78.5t76.5 -29.5q47 0 78 29.5z" />
    <glyph glyph-name="uni01E9" unicode="&#x1e9;" horiz-adv-x="554" 
d="M202 372q0 -73 -17 -113l3 -1l173 204h181l-159 -172q-32 -34 -50 -38v-4q9 -2 18 -9.5t23 -23.5l180 -215h-191l-175 228l-3 -2q17 -36 17 -104v-122h-151v715h151v-343zM441 860l-116 -117h-146l-117 117v3h131l29 -29q14 -14 20 -23t8 -19h4q3 10 8.5 19t19.5 23
l28 29h131v-3z" />
    <glyph glyph-name="uni0233" unicode="&#x233;" horiz-adv-x="537" 
d="M241 -200h-151l108 236l-197 426h162l77 -181q13 -31 18.5 -54.5t7.5 -59.5l4 1q3 45 21 88l83 206h162zM423 579h-308v97h308v-97z" />
    <glyph glyph-name="adieresis.ss01" horiz-adv-x="529" 
d="M431 434q52 -43 52 -141v-293h-151q0 51 16 92l-5 3q-24 -54 -65 -82t-97 -28q-74 0 -119.5 44.5t-45.5 117.5q0 72 45.5 115t121.5 43q108 0 158 -86l4 2q-8 24 -8 74q0 28 -26 44t-70 16q-32 0 -62 -3t-79 -12l-21 120q93 17 181 17q119 0 171 -43zM196 199.5
q-18 -16.5 -18 -42.5t18 -42.5t46 -16.5t46.5 16.5t18.5 42.5t-18.5 42.5t-46.5 16.5t-46 -16.5zM221 555h-116v145h116v-145zM415 555h-116v145h116v-145z" />
    <glyph glyph-name="cdotaccent.ss01" horiz-adv-x="461" 
d="M148.5 16q-58.5 31 -91 87t-32.5 128t32.5 128t91 87t133.5 31q92 0 167 -45l-61 -121q-24 15 -47 21.5t-52 6.5q-50 0 -81 -30t-31 -78q0 -47 31.5 -77.5t80.5 -30.5q29 0 52 6.5t47 21.5l61 -121q-75 -45 -167 -45q-75 0 -133.5 31zM352 532h-163v168h163v-168z" />
    <glyph glyph-name="edieresis.ss01" horiz-adv-x="520" 
d="M438 412.5q61 -63.5 61 -179.5v-40h-274q-21 0 -32 2t-22 10l-2 -3l4 -11q10 -40 39 -61t76 -21q37 0 72 11.5t62 29.5l50 -115q-85 -50 -183 -50q-121 0 -192.5 66t-71.5 181q0 75 31 130t86.5 84.5t127.5 29.5q107 0 168 -63.5zM198 341q-26 -23 -31 -63l2 -3q8 9 42 9
h101q31 0 38 -8l2 2q-2 42 -25.5 64t-62.5 22q-40 0 -66 -23zM232 555h-116v145h116v-145zM426 555h-116v145h116v-145z" />
    <glyph glyph-name="edotaccent.ss01" horiz-adv-x="520" 
d="M438 412.5q61 -63.5 61 -179.5v-40h-274q-21 0 -32 2t-22 10l-2 -3l4 -11q10 -40 39 -61t76 -21q37 0 72 11.5t62 29.5l50 -115q-85 -50 -183 -50q-121 0 -192.5 66t-71.5 181q0 75 31 130t86.5 84.5t127.5 29.5q107 0 168 -63.5zM198 341q-26 -23 -31 -63l2 -3q8 9 42 9
h101q31 0 38 -8l2 2q-2 42 -25.5 64t-62.5 22q-40 0 -66 -23zM353 532h-163v168h163v-168z" />
    <glyph glyph-name="gdotaccent.ss01" horiz-adv-x="601" 
d="M408 357l4 1q-13 47 -13 104h151v-422q0 -134 -70.5 -195t-194.5 -61q-134 0 -236 59l64 123q41 -21 78.5 -32t82.5 -11q61 0 95 25.5t34 78.5v9q0 23 9 68l-4 1q-30 -57 -71.5 -84t-99.5 -27q-63 0 -111 28.5t-74.5 82t-26.5 125.5q0 75 27 131t75.5 86t110.5 30
q118 0 170 -120zM210.5 309.5q-30.5 -29.5 -30.5 -78.5t30.5 -78.5t76.5 -29.5q47 0 78 29.5t31 78.5t-31 78.5t-78 29.5q-46 0 -76.5 -29.5zM381 532h-163v168h163v-168z" />
    <glyph glyph-name="i.ss01" horiz-adv-x="254" 
d="M202 0h-151v462h151v-462zM209 532h-163v168h163v-168z" />
    <glyph glyph-name="idieresis.ss01" horiz-adv-x="254" 
d="M202 0h-151v462h151v-462zM108 555h-116v145h116v-145zM262 555h-116v145h116v-145z" />
    <glyph glyph-name="i.loclTRK.ss01" horiz-adv-x="254" 
d="M202 0h-151v462h151v-462zM209 532h-163v168h163v-168z" />
    <glyph glyph-name="ij.ss01" horiz-adv-x="508" 
d="M202 0h-151v462h151v-462zM209 532h-163v168h163v-168zM456 -14q0 -201 -211 -201h-14v139h9q65 0 65 71v467h151v-476zM463 532h-163v168h163v-168z" />
    <glyph glyph-name="iogonek.ss01" horiz-adv-x="254" 
d="M202 0h-151v462h151v-462zM209 532h-163v168h163v-168zM157 10q-84 -76 -84 -104q0 -10 7.5 -16t19.5 -6q16 0 39 5l13 -93q-16 -2 -25 -4q-32 -5 -46 -5q-52 0 -81.5 21t-29.5 65q0 34 27 68.5t84 82.5z" />
    <glyph glyph-name="j.ss01" horiz-adv-x="254" 
d="M202 -14q0 -201 -211 -201h-14v139h9q65 0 65 71v467h151v-476zM209 532h-163v168h163v-168z" />
    <glyph glyph-name="ldot.ss01" horiz-adv-x="410" 
d="M202 0h-151v715h151v-715zM243 462h167v-177h-167v177z" />
    <glyph glyph-name="odieresis.ss01" horiz-adv-x="570" 
d="M418 446.5q59 -30.5 92.5 -86.5t33.5 -129t-33.5 -129t-92.5 -86.5t-133 -30.5q-75 0 -134 30.5t-92.5 86.5t-33.5 129t33.5 129t92.5 86.5t134 30.5q74 0 133 -30.5zM207.5 309.5q-30.5 -29.5 -30.5 -78.5t30.5 -78.5t77.5 -29.5t77.5 29.5t30.5 78.5t-30.5 78.5
t-77.5 29.5t-77.5 -29.5zM246 555h-116v145h116v-145zM440 555h-116v145h116v-145z" />
    <glyph glyph-name="udieresis.ss01" horiz-adv-x="566" 
d="M515 0h-147q0 53 15 116l-4 1q-24 -66 -63 -99t-100 -33q-76 0 -123 49t-47 142v286h155v-241q0 -51 20.5 -75t56.5 -24q38 0 62 27.5t24 84.5v228h151v-462zM244 555h-116v145h116v-145zM438 555h-116v145h116v-145z" />
    <glyph glyph-name="wdieresis.ss01" horiz-adv-x="773" 
d="M1 462h165l56 -140q16 -39 21.5 -55.5t8.5 -36.5h4q4 21 10.5 37t26.5 56l75 149h37l75 -149q20 -40 26.5 -56t10.5 -37h4q3 20 10.5 41t19.5 51l57 140h165l-221 -472h-41l-82 162q-4 7 -15.5 30.5t-16.5 37t-8 27.5h-4q-5 -20 -12 -36.5t-28 -58.5l-83 -162h-41z
M348 555h-116v145h116v-145zM542 555h-116v145h116v-145z" />
    <glyph glyph-name="ydieresis.ss01" horiz-adv-x="537" 
d="M241 -200h-151l108 236l-197 426h162l77 -181q13 -31 18.5 -54.5t7.5 -59.5l4 1q3 45 21 88l83 206h162zM230 555h-116v145h116v-145zM424 555h-116v145h116v-145z" />
    <glyph glyph-name="zdotaccent.ss01" horiz-adv-x="500" 
d="M-4 5l272 349l-3 3q-19 -11 -36.5 -15t-50.5 -4h-140l71 124h389l2 -5l-266 -348l4 -3q17 11 35.5 14.5t58.5 3.5h163l-76 -124h-421zM361 532h-163v168h163v-168z" />
    <glyph glyph-name="germandbls.ss03" horiz-adv-x="578" 
d="M321 573h-14q-58 0 -81.5 -16.5t-23.5 -58.5v-59q0 -38 -6 -71l2 -1l64 95h298l1 -2l-86 -146q-15 -25 -34 -38v-3q52 -24 81 -60.5t29 -99.5q0 -73 -37 -135.5t-79 -101t-110 -91.5l-87 110q84 67 124.5 111.5t40.5 90.5q0 30 -24.5 53.5t-78.5 44.5l-26 11v3l61 97
q15 24 29 35l-1 2q-24 -8 -56 -8h-84q-15 0 -23 6l-2 -2q4 -20 4 -38v-301h-151v498q0 110 57 161t170 51h43v-137z" />
    <glyph glyph-name="wdieresis.ss01.ss04" horiz-adv-x="810" 
d="M641 0h-139l-76 228q-9 27 -13.5 48t-5.5 57h-4q-1 -35 -5.5 -55t-13.5 -50l-76 -228h-139l-168 462h159l59 -217q9 -30 13.5 -54t6.5 -65h4q2 46 6 70.5t12 50.5l71 215h146l71 -215q8 -26 12 -50.5t6 -70.5h4q2 41 6.5 65t13.5 54l59 217h159zM366 555h-116v145h116
v-145zM560 555h-116v145h116v-145z" />
    <glyph glyph-name="v.ss04" horiz-adv-x="537" 
d="M345 0h-152l-192 462h167l73 -214q12 -35 17.5 -65t8.5 -71h4q3 43 8.5 72.5t17.5 63.5l73 214h167z" />
    <glyph glyph-name="w.ss04" horiz-adv-x="810" 
d="M641 0h-139l-76 228q-9 27 -13.5 48t-5.5 57h-4q-1 -35 -5.5 -55t-13.5 -50l-76 -228h-139l-168 462h159l59 -217q9 -30 13.5 -54t6.5 -65h4q2 46 6 70.5t12 50.5l71 215h146l71 -215q8 -26 12 -50.5t6 -70.5h4q2 41 6.5 65t13.5 54l59 217h159z" />
    <glyph glyph-name="wacute.ss04" horiz-adv-x="810" 
d="M641 0h-139l-76 228q-9 27 -13.5 48t-5.5 57h-4q-1 -35 -5.5 -55t-13.5 -50l-76 -228h-139l-168 462h159l59 -217q9 -30 13.5 -54t6.5 -65h4q2 46 6 70.5t12 50.5l71 215h146l71 -215q8 -26 12 -50.5t6 -70.5h4q2 41 6.5 65t13.5 54l59 217h159zM601 703l-149 -150h-104
l-1 4l112 150h141z" />
    <glyph glyph-name="wcircumflex.ss04" horiz-adv-x="810" 
d="M641 0h-139l-76 228q-9 27 -13.5 48t-5.5 57h-4q-1 -35 -5.5 -55t-13.5 -50l-76 -228h-139l-168 462h159l59 -217q9 -30 13.5 -54t6.5 -65h4q2 46 6 70.5t12 50.5l71 215h146l71 -215q8 -26 12 -50.5t6 -70.5h4q2 41 6.5 65t13.5 54l59 217h159zM593 558v-5h-121l-33 43
q-17 22 -24 35.5t-9 32.5h-3q-2 -19 -8.5 -32.5t-23.5 -35.5l-34 -43h-120v5l116 149h144z" />
    <glyph glyph-name="wdieresis.ss04" horiz-adv-x="810" 
d="M641 0h-139l-76 228q-9 27 -13.5 48t-5.5 57h-4q-1 -35 -5.5 -55t-13.5 -50l-76 -228h-139l-168 462h159l59 -217q9 -30 13.5 -54t6.5 -65h4q2 46 6 70.5t12 50.5l71 215h146l71 -215q8 -26 12 -50.5t6 -70.5h4q2 41 6.5 65t13.5 54l59 217h159zM358.5 677
q22.5 -23 22.5 -58q0 -34 -22.5 -57t-57.5 -23t-58 22.5t-23 57.5t23 58t58 23t57.5 -23zM567.5 677q22.5 -23 22.5 -58q0 -34 -22.5 -57t-57.5 -23t-58 22.5t-23 57.5t23 58t58 23t57.5 -23z" />
    <glyph glyph-name="wgrave.ss04" horiz-adv-x="810" 
d="M641 0h-139l-76 228q-9 27 -13.5 48t-5.5 57h-4q-1 -35 -5.5 -55t-13.5 -50l-76 -228h-139l-168 462h159l59 -217q9 -30 13.5 -54t6.5 -65h4q2 46 6 70.5t12 50.5l71 215h146l71 -215q8 -26 12 -50.5t6 -70.5h4q2 41 6.5 65t13.5 54l59 217h159zM208 703l1 4h141
l112 -150l-1 -4h-104z" />
    <glyph glyph-name="t_z" horiz-adv-x="630" 
d="M573.5 211.5q29.5 -36.5 29.5 -98.5q0 -73 -37 -135.5t-79 -101t-110 -91.5l-88 110q84 67 125 111.5t41 90.5q0 30 -24.5 53.5t-78.5 44.5l-27 11v3l62 97q7 11 13.5 19.5t15.5 15.5l-1 2q-26 -8 -57 -8h-74q-20 0 -28.5 1t-16.5 6l-2 -2q5 -8 6 -19.5t1 -37.5v-283
h-151v283q0 26 1 37.5t6 19.5l-2 2q-8 -5 -16.5 -6t-28.5 -1h-42v127h42q18 0 27.5 -1t17.5 -6l2 2q-7 12 -7 40v120l136 92h15v-212q0 -10 -1 -21t-6 -19l2 -2q8 5 17.5 6t27.5 1h327l2 -2l-87 -146q-13 -25 -34 -38v-3q52 -25 81.5 -61.5z" />
    <glyph glyph-name="f_f_i.ss01" horiz-adv-x="978" 
d="M351 573h-12q-52 0 -73.5 -16.5t-21.5 -58.5v-7q0 -21 -7 -34l2 -2q8 5 17.5 6t27.5 1h67v-127h-67q-20 0 -28.5 1t-16.5 6l-2 -2q5 -8 6 -19.5t1 -37.5v-283h-151v283q0 26 1 37.5t6 19.5l-2 2q-8 -5 -16.5 -6t-28.5 -1h-42v127h42q18 0 27.5 -1t17.5 -6l2 2
q-7 13 -7 34v7q0 110 57 161t170 51h31v-137zM713 573h-12q-52 0 -73.5 -16.5t-21.5 -58.5v-7q0 -21 -7 -34l2 -2q8 5 17.5 6t27.5 1h67v-127h-67q-20 0 -28.5 1t-16.5 6l-2 -2q5 -8 6 -19.5t1 -37.5v-283h-151v283q0 26 1 37.5t6 19.5l-2 2q-8 -5 -16.5 -6t-28.5 -1h-42
v127h42q18 0 27.5 -1t17.5 -6l2 2q-7 13 -7 34v7q0 110 57 161t170 51h31v-137zM926 0h-151v462h151v-462zM933 532h-163v168h163v-168z" />
    <glyph glyph-name="fi.ss01" horiz-adv-x="616" 
d="M351 573h-12q-52 0 -73.5 -16.5t-21.5 -58.5v-7q0 -21 -7 -34l2 -2q8 5 17.5 6t27.5 1h67v-127h-67q-20 0 -28.5 1t-16.5 6l-2 -2q5 -8 6 -19.5t1 -37.5v-283h-151v283q0 26 1 37.5t6 19.5l-2 2q-8 -5 -16.5 -6t-28.5 -1h-42v127h42q18 0 27.5 -1t17.5 -6l2 2
q-7 13 -7 34v7q0 110 57 161t170 51h31v-137zM564 0h-151v462h151v-462zM571 532h-163v168h163v-168z" />
    <glyph glyph-name="a.subs" horiz-adv-x="364" 
d="M41 -92.5q-30 27.5 -30 75.5t31.5 75.5t84.5 27.5q65 0 99 -46l3 1q-3 12 -3 29q0 27 -15 38.5t-51 11.5q-26 0 -89 -11l-16 84q72 13 124 13q78 0 113.5 -30.5t35.5 -97.5v-188h-110q0 27 13 49l-4 2q-21 -32 -46 -46.5t-60 -14.5q-50 0 -80 27.5zM204.5 -33.5
q10.5 9.5 10.5 24.5t-11 25t-27 10t-27 -10t-11 -25t10.5 -24.5t27.5 -9.5t27.5 9.5z" />
    <glyph glyph-name="b.subs" horiz-adv-x="410" 
d="M352 162.5q37 -43.5 37 -119.5t-37 -119.5t-96 -43.5q-82 0 -116 77l-3 -1q9 -29 9 -66h-110v472h110v-166q0 -37 -9 -66l3 -1q34 77 116 77q59 0 96 -43.5zM257.5 -2q18.5 17 18.5 45t-18.5 45t-47.5 17q-28 0 -46 -17t-18 -45t18 -45t46 -17q29 0 47.5 17z" />
    <glyph glyph-name="c.subs" horiz-adv-x="326" 
d="M253.5 198.5q29.5 -7.5 52.5 -20.5l-40 -89q-34 16 -63 16q-30 0 -49.5 -16t-19.5 -46t19.5 -46t49.5 -16q29 0 63 16l40 -89q-23 -13 -52.5 -20.5t-60.5 -7.5q-77 0 -125 44t-48 119t48 119t125 44q31 0 60.5 -7.5z" />
    <glyph glyph-name="d.subs" horiz-adv-x="410" 
d="M373 362v-472h-109q0 37 9 66l-3 1q-34 -77 -116 -77q-59 0 -96.5 43.5t-37.5 119.5t37.5 119.5t96.5 43.5q82 0 116 -77l3 1q-9 29 -9 66v166h109zM246 -2q18 17 18 45t-18 45t-47 17t-47 -17t-18 -45t18 -45t47 -17t47 17z" />
    <glyph glyph-name="e.subs" horiz-adv-x="360" 
d="M299 167.5q41 -38.5 41 -109.5v-38h-189q-8 0 -14 1t-13 5l-2 -2l4 -9q4 -20 25 -32.5t55 -12.5q24 0 43.5 6t43.5 17l35 -86q-61 -27 -127 -27q-83 0 -132 44.5t-49 115.5q0 79 46 122.5t124 43.5q68 0 109 -38.5zM143 116q-16 -15 -18 -39l2 -2q4 3 8 4t12 1h71
q11 0 18 -4l2 2q-2 26 -16.5 39.5t-37.5 13.5q-25 0 -41 -15z" />
    <glyph glyph-name="f.subs" horiz-adv-x="235" 
d="M166 216q0 -16 -4 -25l3 -2q5 4 12.5 5.5t22.5 1.5h29v-90h-29q-16 0 -23.5 1t-11.5 5l-3 -2q4 -11 4 -28v-21v-171h-110v171q0 33 5 49l-2 2q-5 -4 -12.5 -5t-24.5 -1h-16v90h16q16 0 24 -1.5t13 -5.5l2 2q-5 9 -5 23q1 76 42.5 110t111.5 34h19v-103h-7q-31 0 -43.5 -9
t-12.5 -29v-1zM56 215v-1v-3v4z" />
    <glyph glyph-name="g.subs" horiz-adv-x="408" 
d="M372 196v-252q0 -106 -46.5 -151t-142.5 -45q-44 0 -77.5 8t-68.5 23l38 91q26 -13 55.5 -20.5t55.5 -7.5q37 0 58 16.5t21 47.5q0 28 8 50l-3 1q-16 -32 -44.5 -50.5t-68.5 -18.5q-61 0 -99 41t-38 114q0 74 39 118.5t103 44.5q43 0 68 -20t40 -57l3 1q-9 29 -9 66h108z
M237 -2q18 17 18 45t-18 45t-47 17t-47 -17t-18 -45t18 -45t47 -17t47 17z" />
    <glyph glyph-name="h.subs" horiz-adv-x="392" 
d="M146 216q0 -26 -1.5 -43t-6.5 -40l3 -1q17 36 42.5 55t68.5 19q47 0 75.5 -30.5t28.5 -89.5v-196h-110v165q0 27 -11.5 40.5t-35.5 13.5q-53 0 -53 -70v-149h-110v472h110v-146z" />
    <glyph glyph-name="i.subs" horiz-adv-x="192" 
d="M156 246h-120v106h120v-106zM151 -110h-110v306h110v-306z" />
    <glyph glyph-name="j.subs" horiz-adv-x="192" 
d="M36 352h119v-106h-119v106zM-14 -153h5q50 0 50 55v294h109v-290q0 -82 -40 -120t-116 -38h-8v99z" />
    <glyph glyph-name="k.subs" horiz-adv-x="390" 
d="M36 362h110v-240q0 -42 -10 -61h3l105 135h132l-101 -115q-12 -13 -18 -17.5t-13 -7.5v-3q6 -2 11 -6t12 -12l123 -145h-140l-111 147l-3 -1q10 -16 10 -54v-92h-110v472z" />
    <glyph glyph-name="l.subs" horiz-adv-x="182" 
d="M146 -110h-110v472h110v-472z" />
    <glyph glyph-name="m.subs" horiz-adv-x="586" 
d="M41 196h109q0 -22 -9 -66l3 -1q16 40 41 58.5t64 18.5q79 0 95 -78h3q12 35 38 56.5t68 21.5q47 0 72 -29.5t25 -87.5v-199h-110v166q0 54 -43 54q-48 0 -48 -64v-156h-106v166q0 28 -12 41t-32 13q-48 0 -48 -64v-156h-110v306z" />
    <glyph glyph-name="n.subs" horiz-adv-x="397" 
d="M41 196h109q0 -36 -7 -64l3 -1q17 37 42 56t67 19q50 0 78 -30.5t28 -89.5v-196h-110v165q0 54 -46 54q-54 0 -54 -70v-149h-110v306z" />
    <glyph glyph-name="o.subs" horiz-adv-x="387" 
d="M283 185.5q39 -20.5 61.5 -58t22.5 -84.5t-22.5 -84.5t-61.5 -58t-89 -20.5t-89.5 20.5t-62 58t-22.5 84.5t22.5 84.5t62 58t89.5 20.5t89 -20.5zM148.5 87.5q-17.5 -16.5 -17.5 -44.5t17.5 -44.5t45.5 -16.5q27 0 44.5 16.5t17.5 44.5t-17.5 44.5t-44.5 16.5
q-28 0 -45.5 -16.5z" />
    <glyph glyph-name="p.subs" horiz-adv-x="410" 
d="M352 162.5q37 -43.5 37 -119.5t-37 -119.5t-96 -43.5q-82 0 -116 77l-3 -1q9 -29 9 -66v-132h-110v438h110q0 -37 -9 -66l3 -1q34 77 116 77q59 0 96 -43.5zM257.5 -2q18.5 17 18.5 45t-18.5 45t-47.5 17q-28 0 -46 -17t-18 -45t18 -45t46 -17q29 0 47.5 17z" />
    <glyph glyph-name="q.subs" horiz-adv-x="410" 
d="M373 196v-438h-109v132q0 37 9 66l-3 1q-34 -77 -116 -77q-59 0 -96.5 43.5t-37.5 119.5t37.5 119.5t96.5 43.5q82 0 116 -77l3 1q-9 29 -9 66h109zM246 -2q18 17 18 45t-18 45t-47 17t-47 -17t-18 -45t18 -45t47 -17t47 17z" />
    <glyph glyph-name="r.subs" horiz-adv-x="270" 
d="M260 206v-115q-15 2 -32 2q-82 0 -82 -84v-119h-110v306h104q0 -29 -2.5 -49t-9.5 -45l4 -1q11 51 40.5 78t74.5 27h13z" />
    <glyph glyph-name="s.subs" horiz-adv-x="308" 
d="M15 -90l39 86q30 -15 56.5 -23t54.5 -8q22 0 22 10q0 6 -18 14l-51 22q-40 17 -57 40t-17 55q0 50 33.5 75t96.5 25q60 0 118 -18l-34 -88q-51 23 -90 23q-19 0 -19 -10q0 -7 16 -14l59 -24q36 -15 52.5 -38t16.5 -59q0 -48 -36 -73t-98 -25q-79 0 -144 30z" />
    <glyph glyph-name="t.subs" horiz-adv-x="260" 
d="M181 230q0 -21 -5 -39l3 -2q5 4 13 5.5t23 1.5h25v-90h-25q-16 0 -23 1.5t-13 5.5l-3 -2q5 -16 5 -60v-161h-110v161q0 22 0.5 36.5t3.5 23.5l-3 2q-8 -7 -35 -7h-17v90h17q15 0 23 -1.5t12 -5.5l3 2q-4 14 -4 39v57l100 71h10v-128z" />
    <glyph glyph-name="u.subs" horiz-adv-x="390" 
d="M353 -110h-112q0 30 13 69l-4 1q-14 -36 -38.5 -58t-68.5 -22q-50 0 -78.5 30.5t-28.5 90.5v195h111v-166q0 -30 11 -42t33 -12q53 0 53 61v159h109v-306z" />
    <glyph glyph-name="v.subs" horiz-adv-x="377" 
d="M209 -111h-41l-163 307h124l37 -88q19 -44 21 -67h4q2 23 21 67l37 88h123z" />
    <glyph glyph-name="w.subs" horiz-adv-x="533" 
d="M5 196h121l33 -78q15 -33 19 -52h4q6 23 22 53l43 81h39l42 -81q17 -28 22 -53h4q6 26 20 52l33 78h121l-148 -307h-38l-49 95q-12 21 -18 34.5t-7 27.5h-4q-1 -13 -6.5 -26.5t-17.5 -35.5l-49 -95h-39z" />
    <glyph glyph-name="x.subs" horiz-adv-x="401" 
d="M284 65q-10 -13 -17 -15v-2q7 -1 13 -8.5t7 -9.5l108 -140h-129l-50 74q-6 9 -10 16.5t-5 14.5h-2q-1 -7 -5 -14.5t-10 -16.5l-49 -74h-130l109 140q1 2 7 9.5t13 8.5v2q-7 2 -17 15l-99 131h131l33 -53q13 -22 17 -35h2q4 13 17 35l33 53h131z" />
    <glyph glyph-name="y.subs" horiz-adv-x="386" 
d="M180 -243h-111l74 158l-138 281h123l47 -112q15 -32 15 -76h3q1 13 3 24t7 21l58 143h120z" />
    <glyph glyph-name="z.subs" horiz-adv-x="366" 
d="M5 -107l180 218l-2 2q-16 -9 -28 -12t-33 -3h-99l64 98h272l2 -3l-175 -217l2 -2q12 9 29 11.5t51 2.5h90l-59 -98h-292z" />
    <glyph glyph-name="a.sups" horiz-adv-x="364" 
d="M41 365.5q-30 27.5 -30 75.5t31.5 75.5t84.5 27.5q65 0 99 -46l3 1q-3 12 -3 29q0 27 -15 38.5t-51 11.5q-26 0 -89 -11l-16 84q72 13 124 13q78 0 113.5 -30.5t35.5 -97.5v-188h-110q0 27 13 49l-4 2q-21 -32 -46 -46.5t-60 -14.5q-50 0 -80 27.5zM204.5 424.5
q10.5 9.5 10.5 24.5t-11 25t-27 10t-27 -10t-11 -25t10.5 -24.5t27.5 -9.5t27.5 9.5z" />
    <glyph glyph-name="b.sups" horiz-adv-x="410" 
d="M352 620.5q37 -43.5 37 -119.5t-37 -119.5t-96 -43.5q-82 0 -116 77l-3 -1q9 -29 9 -66h-110v472h110v-166q0 -37 -9 -66l3 -1q34 77 116 77q59 0 96 -43.5zM257.5 456q18.5 17 18.5 45t-18.5 45t-47.5 17q-28 0 -46 -17t-18 -45t18 -45t46 -17q29 0 47.5 17z" />
    <glyph glyph-name="c.sups" horiz-adv-x="326" 
d="M253.5 656.5q29.5 -7.5 52.5 -20.5l-40 -89q-34 16 -63 16q-30 0 -49.5 -16t-19.5 -46t19.5 -46t49.5 -16q29 0 63 16l40 -89q-23 -13 -52.5 -20.5t-60.5 -7.5q-77 0 -125 44t-48 119t48 119t125 44q31 0 60.5 -7.5z" />
    <glyph glyph-name="d.sups" horiz-adv-x="410" 
d="M373 820v-472h-109q0 37 9 66l-3 1q-34 -77 -116 -77q-59 0 -96.5 43.5t-37.5 119.5t37.5 119.5t96.5 43.5q82 0 116 -77l3 1q-9 29 -9 66v166h109zM246 456q18 17 18 45t-18 45t-47 17t-47 -17t-18 -45t18 -45t47 -17t47 17z" />
    <glyph glyph-name="e.sups" horiz-adv-x="360" 
d="M299 625.5q41 -38.5 41 -109.5v-38h-189q-8 0 -14 1t-13 5l-2 -2l4 -9q4 -20 25 -32.5t55 -12.5q24 0 43.5 6t43.5 17l35 -86q-61 -27 -127 -27q-83 0 -132 44.5t-49 115.5q0 79 46 122.5t124 43.5q68 0 109 -38.5zM143 574q-16 -15 -18 -39l2 -2q4 3 8 4t12 1h71
q11 0 18 -4l2 2q-2 26 -16.5 39.5t-37.5 13.5q-25 0 -41 -15z" />
    <glyph glyph-name="f.sups" horiz-adv-x="225" 
d="M161 674q0 -16 -4 -25l3 -2q5 4 12.5 5.5t22.5 1.5h29v-90h-29q-16 0 -23.5 1t-11.5 5l-3 -2q4 -11 4 -28v-21v-171h-110v171q0 33 5 49l-2 2q-5 -4 -12.5 -5t-24.5 -1h-16v90h16q16 0 24 -1.5t13 -5.5l2 2q-5 9 -5 23q1 76 42.5 110t111.5 34h19v-103h-7q-31 0 -43.5 -9
t-12.5 -29v-1zM51 673v-1v-3v4z" />
    <glyph glyph-name="g.sups" horiz-adv-x="408" 
d="M372 654v-252q0 -106 -46.5 -151t-142.5 -45q-44 0 -77.5 8t-68.5 23l38 91q26 -13 55.5 -20.5t55.5 -7.5q37 0 58 16.5t21 47.5q0 28 8 50l-3 1q-16 -32 -44.5 -50.5t-68.5 -18.5q-61 0 -99 41t-38 114q0 74 39 118.5t103 44.5q43 0 68 -20t40 -57l3 1q-9 29 -9 66h108z
M237 456q18 17 18 45t-18 45t-47 17t-47 -17t-18 -45t18 -45t47 -17t47 17z" />
    <glyph glyph-name="h.sups" horiz-adv-x="392" 
d="M146 674q0 -26 -1.5 -43t-6.5 -40l3 -1q17 36 42.5 55t68.5 19q47 0 75.5 -30.5t28.5 -89.5v-196h-110v165q0 27 -11.5 40.5t-35.5 13.5q-53 0 -53 -70v-149h-110v472h110v-146z" />
    <glyph glyph-name="i.sups" horiz-adv-x="192" 
d="M156 704h-120v106h120v-106zM151 348h-110v306h110v-306z" />
    <glyph glyph-name="j.sups" horiz-adv-x="192" 
d="M36 810h119v-106h-119v106zM-14 305h5q50 0 50 55v294h109v-290q0 -82 -40 -120t-116 -38h-8v99z" />
    <glyph glyph-name="k.sups" horiz-adv-x="390" 
d="M36 820h110v-240q0 -42 -10 -61h3l105 135h132l-101 -115q-12 -13 -18 -17.5t-13 -7.5v-3q6 -2 11 -6t12 -12l123 -145h-140l-111 147l-3 -1q10 -16 10 -54v-92h-110v472z" />
    <glyph glyph-name="l.sups" horiz-adv-x="182" 
d="M146 348h-110v472h110v-472z" />
    <glyph glyph-name="m.sups" horiz-adv-x="586" 
d="M41 654h109q0 -22 -9 -66l3 -1q16 40 41 58.5t64 18.5q79 0 95 -78h3q12 35 38 56.5t68 21.5q47 0 72 -29.5t25 -87.5v-199h-110v166q0 54 -43 54q-48 0 -48 -64v-156h-106v166q0 28 -12 41t-32 13q-48 0 -48 -64v-156h-110v306z" />
    <glyph glyph-name="n.sups" horiz-adv-x="397" 
d="M41 654h109q0 -36 -7 -64l3 -1q17 37 42 56t67 19q50 0 78 -30.5t28 -89.5v-196h-110v165q0 54 -46 54q-54 0 -54 -70v-149h-110v306z" />
    <glyph glyph-name="o.sups" horiz-adv-x="387" 
d="M283 643.5q39 -20.5 61.5 -58t22.5 -84.5t-22.5 -84.5t-61.5 -58t-89 -20.5t-89.5 20.5t-62 58t-22.5 84.5t22.5 84.5t62 58t89.5 20.5t89 -20.5zM148.5 545.5q-17.5 -16.5 -17.5 -44.5t17.5 -44.5t45.5 -16.5q27 0 44.5 16.5t17.5 44.5t-17.5 44.5t-44.5 16.5
q-28 0 -45.5 -16.5z" />
    <glyph glyph-name="p.sups" horiz-adv-x="410" 
d="M352 620.5q37 -43.5 37 -119.5t-37 -119.5t-96 -43.5q-82 0 -116 77l-3 -1q9 -29 9 -66v-132h-110v438h110q0 -37 -9 -66l3 -1q34 77 116 77q59 0 96 -43.5zM257.5 456q18.5 17 18.5 45t-18.5 45t-47.5 17q-28 0 -46 -17t-18 -45t18 -45t46 -17q29 0 47.5 17z" />
    <glyph glyph-name="q.sups" horiz-adv-x="410" 
d="M373 654v-438h-109v132q0 37 9 66l-3 1q-34 -77 -116 -77q-59 0 -96.5 43.5t-37.5 119.5t37.5 119.5t96.5 43.5q82 0 116 -77l3 1q-9 29 -9 66h109zM246 456q18 17 18 45t-18 45t-47 17t-47 -17t-18 -45t18 -45t47 -17t47 17z" />
    <glyph glyph-name="r.sups" horiz-adv-x="270" 
d="M260 664v-115q-15 2 -32 2q-82 0 -82 -84v-119h-110v306h104q0 -29 -2.5 -49t-9.5 -45l4 -1q11 51 40.5 78t74.5 27h13z" />
    <glyph glyph-name="s.sups" horiz-adv-x="308" 
d="M15 368l39 86q30 -15 56.5 -23t54.5 -8q22 0 22 10q0 6 -18 14l-51 22q-40 17 -57 40t-17 55q0 50 33.5 75t96.5 25q60 0 118 -18l-34 -88q-51 23 -90 23q-19 0 -19 -10q0 -7 16 -14l59 -24q36 -15 52.5 -38t16.5 -59q0 -48 -36 -73t-98 -25q-79 0 -144 30z" />
    <glyph glyph-name="t.sups" horiz-adv-x="260" 
d="M181 688q0 -21 -5 -39l3 -2q5 4 13 5.5t23 1.5h25v-90h-25q-16 0 -23 1.5t-13 5.5l-3 -2q5 -16 5 -60v-161h-110v161q0 22 0.5 36.5t3.5 23.5l-3 2q-8 -7 -35 -7h-17v90h17q15 0 23 -1.5t12 -5.5l3 2q-4 14 -4 39v57l100 71h10v-128z" />
    <glyph glyph-name="u.sups" horiz-adv-x="390" 
d="M353 348h-112q0 30 13 69l-4 1q-14 -36 -38.5 -58t-68.5 -22q-50 0 -78.5 30.5t-28.5 90.5v195h111v-166q0 -30 11 -42t33 -12q53 0 53 61v159h109v-306z" />
    <glyph glyph-name="v.sups" horiz-adv-x="377" 
d="M209 347h-41l-163 307h124l37 -88q19 -44 21 -67h4q2 23 21 67l37 88h123z" />
    <glyph glyph-name="w.sups" horiz-adv-x="533" 
d="M5 654h121l33 -78q15 -33 19 -52h4q6 23 22 53l43 81h39l42 -81q17 -28 22 -53h4q6 26 20 52l33 78h121l-148 -307h-38l-49 95q-12 21 -18 34.5t-7 27.5h-4q-1 -13 -6.5 -26.5t-17.5 -35.5l-49 -95h-39z" />
    <glyph glyph-name="x.sups" horiz-adv-x="401" 
d="M284 523q-10 -13 -17 -15v-2q7 -1 13 -8.5t7 -9.5l108 -140h-129l-50 74q-6 9 -10 16.5t-5 14.5h-2q-1 -7 -5 -14.5t-10 -16.5l-49 -74h-130l109 140q1 2 7 9.5t13 8.5v2q-7 2 -17 15l-99 131h131l33 -53q13 -22 17 -35h2q4 13 17 35l33 53h131z" />
    <glyph glyph-name="y.sups" horiz-adv-x="386" 
d="M180 215h-111l74 158l-138 281h123l47 -112q15 -32 15 -76h3q1 13 3 24t7 21l58 143h120z" />
    <glyph glyph-name="z.sups" horiz-adv-x="366" 
d="M5 351l180 218l-2 2q-16 -9 -28 -12t-33 -3h-99l64 98h272l2 -3l-175 -217l2 -2q12 9 29 11.5t51 2.5h90l-59 -98h-292z" />
    <glyph glyph-name="uni048A" unicode="&#x48a;" horiz-adv-x="745" 
d="M271.5 761q-41.5 37 -46.5 103h103q1 -27 16.5 -43.5t44.5 -16.5t44.5 16.5t16.5 43.5h103q-4 -66 -46 -103t-118 -37t-117.5 37zM739 113l-91 -253h-121l45 140h-69v304q0 86 11 122l-4 1q-9 -18 -18 -30.5t-28 -31.5l-365 -375h-33v710h153v-304q0 -87 -12 -122l4 -1
q10 19 19 31.5t27 30.5l365 375h34v-597h83z" />
    <glyph glyph-name="uni04F6" unicode="&#x4f6;" horiz-adv-x="498" 
d="M218 564l-2 -2q5 -8 5 -30v-421h67v-251h-145v140h-77v700h427v-141h-247q-20 0 -28 5z" />
    <glyph glyph-name="uni048B" unicode="&#x48b;" horiz-adv-x="614" 
d="M223.5 522.5q-37.5 20.5 -59 57t-21.5 84.5h94q2 -30 18.5 -49.5t51.5 -19.5t51.5 19.5t18.5 49.5h95q0 -48 -21.5 -84.5t-59 -57t-84.5 -20.5q-46 0 -83.5 20.5zM609 113l-91 -253h-121l45 140h-81v131q0 47 1 63t8 37l-4 1q-8 -13 -22 -25.5l-33 -28.5l-220 -184h-40
v468h151v-131q0 -47 -1 -63t-8 -37l4 -1q7 11 16 20t21.5 19.5l17.5 14.5l220 184h39v-355h98z" />
    <glyph glyph-name="uni04F7" unicode="&#x4f7;" horiz-adv-x="388" 
d="M198 335l-1 -1q5 -10 5 -26v-234h67v-214h-135v140h-83v462h332v-131h-157q-20 0 -28 4z" />
    <glyph glyph-name="uni048B.ss04" horiz-adv-x="616" 
d="M223.5 522.5q-37.5 20.5 -59 57t-21.5 84.5h94q2 -30 18.5 -49.5t51.5 -19.5t51.5 19.5t18.5 49.5h95q0 -48 -21.5 -84.5t-59 -57t-84.5 -20.5q-46 0 -83.5 20.5zM611 113l-91 -253h-121l45 140h-62v141q0 48 1.5 75t8.5 54l-2 1q-9 -19 -25 -40.5l-33 -42.5l-148 -188
h-133v462h151v-141q0 -53 -1 -77.5t-8 -51.5l2 -1q9 19 24.5 40.5t32.5 42.5l148 188h133v-349h78z" />
    <glyph glyph-name="uni24FF" unicode="&#x24ff;" horiz-adv-x="830" 
d="M228.5 32.5q-83.5 47.5 -131 131t-47.5 186.5t47.5 186.5t131 131t186.5 47.5t186.5 -47.5t131 -131t47.5 -186.5t-47.5 -186.5t-131 -131t-186.5 -47.5t-186.5 47.5zM533 204.5q43 51.5 43 151.5q0 99 -43 150t-118 51t-118 -51t-43 -150q0 -100 43 -151.5t118 -51.5
t118 51.5zM350.5 255q-23.5 34 -23.5 101t23.5 100.5t64.5 33.5t64.5 -33.5t23.5 -100.5t-23.5 -101t-64.5 -34t-64.5 34z" />
    <glyph glyph-name="uni2776" unicode="&#x2776;" horiz-adv-x="830" 
d="M228.5 32.5q-83.5 47.5 -131 131t-47.5 186.5t47.5 186.5t131 131t186.5 47.5t186.5 -47.5t131 -131t47.5 -186.5t-47.5 -186.5t-131 -131t-186.5 -47.5t-186.5 47.5zM460 163v386h-54l-11 -37l-77 -46v-66l54 21q14 5 21 16l2 -1q-3 -10 -3.5 -20.5t-0.5 -24.5v-228h69z
" />
    <glyph glyph-name="uni2777" unicode="&#x2777;" horiz-adv-x="830" 
d="M228.5 32.5q-83.5 47.5 -131 131t-47.5 186.5t47.5 186.5t131 131t186.5 47.5t186.5 -47.5t131 -131t47.5 -186.5t-47.5 -186.5t-131 -131t-186.5 -47.5t-186.5 47.5zM535 172l38 65l-1 1h-110q-29 0 -62 -6l-1 2q16 13 37 37l63 77q28 33 40 59.5t12 53.5
q0 49 -31.5 77.5t-84.5 28.5q-67 0 -137 -39l30 -57q25 14 51 22.5t47 8.5q24 0 39 -13t15 -35q0 -15 -8.5 -31t-27.5 -41l-166 -207l3 -3h254z" />
    <glyph glyph-name="uni2778" unicode="&#x2778;" horiz-adv-x="830" 
d="M228.5 32.5q-83.5 47.5 -131 131t-47.5 186.5t47.5 186.5t131 131t186.5 47.5t186.5 -47.5t131 -131t47.5 -186.5t-47.5 -186.5t-131 -131t-186.5 -47.5t-186.5 47.5zM515.5 188q39.5 32 39.5 88q0 45 -30 73.5t-77 28.5v2q41 7 63 29.5t22 56.5q0 43 -31.5 68.5
t-84.5 25.5q-33 0 -67 -8.5t-61 -24.5l28 -59q46 26 90 26q25 0 39 -11t14 -30q0 -24 -23.5 -37t-68.5 -13v-62q63 0 89.5 -13.5t26.5 -44.5q0 -29 -21 -44.5t-59 -15.5q-25 0 -47 5.5t-49 17.5l-24 -64q52 -26 123 -26q69 0 108.5 32z" />
    <glyph glyph-name="uni2779" unicode="&#x2779;" horiz-adv-x="830" 
d="M228.5 32.5q-83.5 47.5 -131 131t-47.5 186.5t47.5 186.5t131 131t186.5 47.5t186.5 -47.5t131 -131t47.5 -186.5t-47.5 -186.5t-131 -131t-186.5 -47.5t-186.5 47.5zM490 170v57q0 12 -2 14l1 2q5 -3 13 -3h36l21 67h-57q-8 0 -13 -3l-1 2q2 2 2 14v236h-65l-193 -260
v-56h178q10 0 13 3v-2l-1 -15v-56h68zM302 302q11 8 25 28l73 100q18 23 24 40h1q-3 -21 -3 -53v-97q0 -12 2 -14l-1 -2q-4 3 -13 3h-67q-29 0 -40 -6z" />
    <glyph glyph-name="uni277A" unicode="&#x277a;" horiz-adv-x="830" 
d="M228.5 32.5q-83.5 47.5 -131 131t-47.5 186.5t47.5 186.5t131 131t186.5 47.5t186.5 -47.5t131 -131t47.5 -186.5t-47.5 -186.5t-131 -131t-186.5 -47.5t-186.5 47.5zM497.5 189.5q40.5 37.5 40.5 98.5q0 57 -35.5 88.5t-98.5 31.5q-13 0 -17 -1l-1 2q12 12 13 20l7 27
q4 11 4 24l1 1q3 -3 16 -3h96l26 69h-183l-59 -197l3 -2q21 7 62 7q47 0 70.5 -16t23.5 -50t-20.5 -52t-57.5 -18q-46 0 -93 23l-25 -64q58 -26 120 -26q67 0 107.5 37.5z" />
    <glyph glyph-name="uni277B" unicode="&#x277b;" horiz-adv-x="830" 
d="M228.5 32.5q-83.5 47.5 -131 131t-47.5 186.5t47.5 186.5t131 131t186.5 47.5t186.5 -47.5t131 -131t47.5 -186.5t-47.5 -186.5t-131 -131t-186.5 -47.5t-186.5 47.5zM508 195q41 38 41 98q0 58 -35 94t-89 36q-52 0 -79 -47l-2 1q8 19 39 57l107 127h-88l-67 -83
q-42 -52 -60 -93t-18 -84q0 -64 40.5 -104t104.5 -40q65 0 106 38zM349 243.5q-20 18.5 -20 49.5t20 49t54 18q35 0 54.5 -18t19.5 -49t-20 -49.5t-54 -18.5t-54 18.5z" />
    <glyph glyph-name="uni277C" unicode="&#x277c;" horiz-adv-x="830" 
d="M228.5 32.5q-83.5 47.5 -131 131t-47.5 186.5t47.5 186.5t131 131t186.5 47.5t186.5 -47.5t131 -131t47.5 -186.5t-47.5 -186.5t-131 -131t-186.5 -47.5t-186.5 47.5zM387 153l171 384l-1 2h-241l-28 -67h117q39 0 56 6l1 -1q-2 -3 -13 -26l-8.5 -17.5l-9.5 -20.5
l-122 -260h78z" />
    <glyph glyph-name="uni277D" unicode="&#x277d;" horiz-adv-x="830" 
d="M228.5 32.5q-83.5 47.5 -131 131t-47.5 186.5t47.5 186.5t131 131t186.5 47.5t186.5 -47.5t131 -131t47.5 -186.5t-47.5 -186.5t-131 -131t-186.5 -47.5t-186.5 47.5zM520 184.5q38 30.5 38 84.5q0 41 -22.5 67.5t-62.5 31.5v1q34 6 53.5 29.5t19.5 58.5q0 45 -36.5 73
t-94.5 28t-94.5 -28t-36.5 -73q0 -35 19.5 -58.5t53.5 -29.5v-1q-40 -5 -62.5 -31.5t-22.5 -67.5q0 -54 38 -84.5t105 -30.5t105 30.5zM372 413q-16 13 -16 34q0 22 15.5 34t43.5 12t43.5 -12t15.5 -34q0 -21 -16 -34t-43 -13t-43 13zM364 235q-19 16 -19 43q0 26 19 42
t51 16t51 -16t19 -42q0 -27 -19 -43t-51 -16t-51 16z" />
    <glyph glyph-name="uni277E" unicode="&#x277e;" horiz-adv-x="830" 
d="M228.5 32.5q-83.5 47.5 -131 131t-47.5 186.5t47.5 186.5t131 131t186.5 47.5t186.5 -47.5t131 -131t47.5 -186.5t-47.5 -186.5t-131 -131t-186.5 -47.5t-186.5 47.5zM421 154l77 91q37 43 52.5 78.5t15.5 78.5q0 66 -40 106.5t-105 40.5q-63 0 -104 -38t-41 -97
q0 -55 35 -91.5t88 -36.5q54 0 84 50l3 -1q-7 -13 -16 -24.5t-21 -25.5l-112 -131h84zM368 368.5q-20 17.5 -20 46.5q0 30 20.5 48.5t52.5 18.5q33 0 53 -18.5t20 -48.5t-19.5 -47t-53.5 -17q-33 0 -53 17.5z" />
    <glyph glyph-name="uni24EA" unicode="&#x24ea;" horiz-adv-x="830" 
d="M226 32q-83 47 -129.5 130.5t-46.5 187.5t46.5 187.5t129.5 130.5t189 47t189 -47t129.5 -130.5t46.5 -187.5t-46.5 -187.5t-129.5 -130.5t-189 -47t-189 47zM562 97q65 38 102 104t37 149t-37 149t-102 104t-147 38t-147 -38t-102 -104t-37 -149t37 -149t102 -104
t147 -38t147 38zM297 205.5q-43 51.5 -43 151.5q0 99 43 150t118 51t118 -51t43 -150q0 -100 -43 -151.5t-118 -51.5t-118 51.5zM479.5 256q23.5 34 23.5 101t-23.5 100.5t-64.5 33.5t-64.5 -33.5t-23.5 -100.5t23.5 -101t64.5 -34t64.5 34z" />
    <glyph glyph-name="uni2460" unicode="&#x2460;" horiz-adv-x="830" 
d="M226 32q-83 47 -129.5 130.5t-46.5 187.5t46.5 187.5t129.5 130.5t189 47t189 -47t129.5 -130.5t46.5 -187.5t-46.5 -187.5t-129.5 -130.5t-189 -47t-189 47zM562.5 96q65.5 38 102.5 104.5t37 149.5t-37 149.5t-102.5 104.5t-147.5 38t-147.5 -38t-102.5 -104.5
t-37 -149.5t37 -149.5t102.5 -104.5t147.5 -38t147.5 38zM393 390q0 14 0.5 24.5t3.5 20.5l-2 1q-7 -11 -21 -16l-54 -21v66l78 46l11 37h53v-386h-69v228z" />
    <glyph glyph-name="uni2461" unicode="&#x2461;" horiz-adv-x="830" 
d="M227 32q-83 47 -130 130t-47 188t47 188t130 130t188 47t188 -47t130 -130t47 -188t-47 -188t-130 -130t-188 -47t-188 47zM561.5 96q65.5 38 103 104.5t37.5 149.5t-37.5 149.5t-103 104.5t-146.5 38t-146.5 -38t-103 -104.5t-37.5 -149.5t37.5 -149.5t103 -104.5
t146.5 -38t146.5 38zM281 178l165 207q19 24 27.5 40.5t8.5 31.5q0 22 -14.5 35t-39.5 13q-43 0 -97 -31l-30 57q69 39 137 39q53 0 84.5 -28.5t31.5 -77.5q0 -27 -12 -53.5t-40 -59.5l-62 -77q-19 -22 -37 -37l1 -2q22 6 64 6h106l1 -1l-38 -65h-254z" />
    <glyph glyph-name="uni2462" unicode="&#x2462;" horiz-adv-x="830" 
d="M227 32q-83 47 -130 130t-47 188t47 188t130 130t188 47t188 -47t130 -130t47 -188t-47 -188t-130 -130t-188 -47t-188 47zM561.5 96q65.5 38 103 104.5t37.5 149.5t-37.5 149.5t-103 104.5t-146.5 38t-146.5 -38t-103 -104.5t-37.5 -149.5t37.5 -149.5t103 -104.5
t146.5 -38t146.5 38zM300 183l24 65q26 -13 48 -18t48 -5q38 0 59 15.5t21 43.5q0 31 -26.5 44.5t-89.5 13.5v62q45 0 68.5 13t23.5 38q0 19 -14.5 30t-39.5 11q-43 0 -89 -26l-28 58q27 16 61 24.5t67 8.5q53 0 84.5 -25.5t31.5 -68.5q0 -34 -22.5 -56.5t-62.5 -29.5v-2
q47 0 77 -28t30 -73q0 -56 -40 -88.5t-109 -32.5q-70 0 -122 26z" />
    <glyph glyph-name="uni2463" unicode="&#x2463;" horiz-adv-x="830" 
d="M227 32q-83 47 -130 130t-47 188t47 188t130 130t188 47t188 -47t130 -130t47 -188t-47 -188t-130 -130t-188 -47t-188 47zM561.5 96q65.5 38 103 104.5t37.5 149.5t-37.5 149.5t-103 104.5t-146.5 38t-146.5 -38t-103 -104.5t-37.5 -149.5t37.5 -149.5t103 -104.5
t146.5 -38t146.5 38zM430 227l1 14v2q-3 -3 -13 -3h-178v57l193 259h64v-235q0 -12 -2 -15l1 -1q6 2 13 2h58l-21 -67h-36q-10 0 -14 3l-1 -2q2 -1 2 -4v-10v-57h-67v57zM351 307h67q9 0 12 -3l1 2q-1 3 -1 14v95q0 25 3 52h-1q-4 -11 -12 -22t-12 -16l-73 -98l-10.5 -14
t-14.5 -14l1 -1q8 5 40 5z" />
    <glyph glyph-name="uni2464" unicode="&#x2464;" horiz-adv-x="830" 
d="M227 32q-83 47 -130 130t-47 188t47 188t130 130t188 47t188 -47t130 -130t47 -188t-47 -188t-130 -130t-188 -47t-188 47zM561.5 96q65.5 38 103 104.5t37.5 149.5t-37.5 149.5t-103 104.5t-146.5 38t-146.5 -38t-103 -104.5t-37.5 -149.5t37.5 -149.5t103 -104.5
t146.5 -38t146.5 38zM279 179l24 64q47 -23 92 -23q38 0 58.5 17.5t20.5 51.5t-23.5 50t-70.5 16q-38 0 -62 -6l-2 1l59 197h182l-26 -68h-96q-13 0 -16 2l-1 -1q0 -12 -4 -23l-7 -28q-1 -8 -13 -20l1 -2q8 2 18 2q62 0 97.5 -31.5t35.5 -88.5q0 -62 -40.5 -99.5
t-107.5 -37.5q-62 0 -119 27z" />
    <glyph glyph-name="uni2465" unicode="&#x2465;" horiz-adv-x="830" 
d="M227 32q-83 47 -130 130t-47 188t47 188t130 130t188 47t188 -47t130 -130t47 -188t-47 -188t-130 -130t-188 -47t-188 47zM561.5 96q65.5 38 103 104.5t37.5 149.5t-37.5 149.5t-103 104.5t-146.5 38t-146.5 -38t-103 -104.5t-37.5 -149.5t37.5 -149.5t103 -104.5
t146.5 -38t146.5 38zM301.5 191.5q-40.5 40.5 -40.5 104.5q0 43 18 84t60 92l67 83h88l-107 -126q-20 -24 -28 -35t-12 -23h2q28 46 79 46q54 0 89 -36t35 -93q0 -60 -40.5 -98.5t-105.5 -38.5q-64 0 -104.5 40.5zM460 238q20 18 20 50q0 31 -20 48.5t-54 17.5
q-33 0 -53 -17.5t-20 -48.5t20 -49.5t53 -18.5q34 0 54 18z" />
    <glyph glyph-name="uni2466" unicode="&#x2466;" horiz-adv-x="830" 
d="M227 32q-83 47 -130 130t-47 188t47 188t130 130t188 47t188 -47t130 -130t47 -188t-47 -188t-130 -130t-188 -47t-188 47zM561.5 96q65.5 38 103 104.5t37.5 149.5t-37.5 149.5t-103 104.5t-146.5 38t-146.5 -38t-103 -104.5t-37.5 -149.5t37.5 -149.5t103 -104.5
t146.5 -38t146.5 38zM437 413l9.5 20.5l8.5 17.5q11 23 13 26l-1 1q-18 -6 -56 -6h-117l28 67h241v-2l-170 -384h-78z" />
    <glyph glyph-name="uni2467" unicode="&#x2467;" horiz-adv-x="830" 
d="M227 32q-83 47 -130 130t-47 188t47 188t130 130t188 47t188 -47t130 -130t47 -188t-47 -188t-130 -130t-188 -47t-188 47zM561.5 96q65.5 38 103 104.5t37.5 149.5t-37.5 149.5t-103 104.5t-146.5 38t-146.5 -38t-103 -104.5t-37.5 -149.5t37.5 -149.5t103 -104.5
t146.5 -38t146.5 38zM310 185q-38 31 -38 84q0 41 22.5 67.5t62.5 31.5v1q-34 6 -53.5 29.5t-19.5 58.5q0 45 36.5 73t94.5 28t94.5 -28t36.5 -73q0 -35 -19.5 -58.5t-53.5 -29.5v-1q40 -5 62.5 -31.5t22.5 -67.5q0 -53 -38 -84t-105 -31t-105 31zM458 413.5
q16 12.5 16 34.5t-15.5 34t-43.5 12t-43.5 -12t-15.5 -34t16 -34.5t43 -12.5t43 12.5zM466 235.5q19 15.5 19 42.5q0 26 -19 42t-51 16t-51 -16t-19 -42q0 -27 19 -42.5t51 -15.5t51 15.5z" />
    <glyph glyph-name="uni2468" unicode="&#x2468;" horiz-adv-x="830" 
d="M226 32q-83 47 -129.5 130.5t-46.5 187.5t46.5 187.5t129.5 130.5t189 47t189 -47t129.5 -130.5t46.5 -187.5t-46.5 -187.5t-129.5 -130.5t-189 -47t-189 47zM562.5 96q65.5 38 102.5 104.5t37 149.5t-37 149.5t-102.5 104.5t-147.5 38t-147.5 -38t-102.5 -104.5
t-37 -149.5t37 -149.5t102.5 -104.5t147.5 -38t147.5 38zM453 284q13 14 22 26t15 24l-2 1q-14 -23 -35.5 -36t-48.5 -13q-51 0 -87 35.5t-36 92.5q0 58 40 96.5t104 38.5q61 0 103 -37.5t42 -109.5q0 -43 -15 -78.5t-52 -78.5l-78 -91h-83zM479 368q20 17 20 47t-20.5 48.5
t-53.5 18.5q-32 0 -52.5 -18.5t-20.5 -48.5t20 -47t53 -17q34 0 54 17z" />
    <glyph glyph-name="zero.subs" horiz-adv-x="454" 
d="M82.5 -60.5q-51.5 59.5 -51.5 173.5t51.5 173t144.5 59t144.5 -59t51.5 -173t-51.5 -173.5t-144.5 -59.5t-144.5 59.5zM277 29.5q18 27.5 18 83.5q0 110 -68 110q-67 0 -67 -110q0 -111 67 -111q32 0 50 27.5z" />
    <glyph glyph-name="one.subs" horiz-adv-x="301" 
d="M111 108q0 28 6 44l-3 1q-5 -7 -9.5 -10t-13.5 -7l-60 -25v123l87 60l16 42h101v-446h-124v218z" />
    <glyph glyph-name="two.subs" horiz-adv-x="418" 
d="M5 -103l170 214q33 41 45.5 61t12.5 30q0 23 -33 23q-24 0 -53 -10t-54 -26l-55 104q91 53 177 53q71 0 109.5 -32t38.5 -93q0 -30 -13.5 -57t-56.5 -83l-39 -48q-12 -14 -19.5 -22t-13.5 -12l1 -3q30 9 82 9h92l1 -1l-67 -114h-321z" />
    <glyph glyph-name="three.subs" horiz-adv-x="405" 
d="M92 -111q-42 8 -69 22l44 117q53 -26 111 -26q66 0 66 36q0 20 -27.5 29t-92.5 9v93q96 0 96 35q0 26 -46 26q-23 0 -50 -7.5t-52 -20.5l-50 102q39 20 86 31t90 11q69 0 109.5 -30t40.5 -82q0 -30 -14.5 -53t-41.5 -35q-16 -8 -39 -11v-3q21 0 39 -6q37 -11 57.5 -38.5
t20.5 -67.5q0 -65 -51.5 -102t-141.5 -37q-43 0 -85 8z" />
    <glyph glyph-name="four.subs" horiz-adv-x="458" 
d="M239 -59q0 18 4 21l-2 1q-4 -4 -19 -4h-201v97l219 280h119v-243q0 -15 -4 -19l2 -2q6 4 20 4h65l-36 -117h-29q-14 0 -20 4l-2 -1q4 -6 4 -22v-50h-120v51zM153.5 75q14.5 1 29.5 1h42q11 0 15 -4l2 2q-3 5 -3 17v73v18t3 33h-2q-8 -25 -28 -50l-53 -67q-17 -20 -27 -26
l1 -2q6 4 20.5 5z" />
    <glyph glyph-name="five.subs" horiz-adv-x="403" 
d="M11 -90l44 111q61 -23 101 -23q35 0 53.5 13t18.5 37q0 27 -22 39.5t-67 12.5q-33 0 -70 -7l-3 2l71 241h235l-42 -118h-101q-11 0 -16 5l-1 -1v-3l-1 -8l-5 -18q-2 -7 -9 -11l1 -1q8 3 20 3q66 0 104.5 -37.5t38.5 -103.5q0 -77 -54 -120t-150 -43q-76 0 -146 30z" />
    <glyph glyph-name="six.subs" horiz-adv-x="419" 
d="M80 -72.5q-50 47.5 -50 131.5q0 52 21.5 99.5t71.5 107.5l65 78h158l-155 -164q-23 -24 -32 -52l3 -1q30 67 97 67q39 0 70.5 -19.5t50 -53.5t18.5 -76q0 -74 -49.5 -119.5t-131.5 -45.5q-87 0 -137 47.5zM253 6.5q15 14.5 15 37.5q0 22 -15 37t-39 15t-39 -15t-15 -37
q0 -23 15 -37.5t39 -14.5t39 14.5z" />
    <glyph glyph-name="seven.subs" horiz-adv-x="378" 
d="M146 124l23 50q20 42 28 51l-1 2q-27 -12 -81 -12h-104l51 121h309l2 -3l-206 -443h-144z" />
    <glyph glyph-name="eight.subs" horiz-adv-x="438" 
d="M84 -85q-48 35 -48 98q0 46 27.5 76.5t73.5 35.5v2q-39 4 -63 31t-24 65q0 56 46 89t123 33t123 -33t46 -89q0 -38 -24.5 -65t-62.5 -31v-2q46 -5 73.5 -35.5t27.5 -76.5q0 -63 -48 -98t-135 -35t-135 35zM248.5 184.5q11.5 9.5 11.5 25.5t-11.5 25.5t-29.5 9.5
q-19 0 -30 -9.5t-11 -25.5t11 -25.5t30 -9.5q18 0 29.5 9.5zM255 2q14 12 14 31t-13.5 31t-36.5 12t-36.5 -12t-13.5 -31t14 -31t36 -12t36 12z" />
    <glyph glyph-name="nine.subs" horiz-adv-x="409" 
d="M227 56q24 26 31 54l-3 1q-16 -37 -41.5 -56t-58.5 -19q-38 0 -69.5 19.5t-50.5 53t-19 73.5q0 72 49.5 117.5t129.5 45.5q85 0 134 -48.5t49 -133.5q0 -51 -19.5 -95.5t-63.5 -97.5l-68 -80h-152zM237 146q15 15 15 37q0 23 -15 37.5t-39 14.5t-39 -14.5t-15 -37.5
q0 -22 15 -37t39 -15t39 15z" />
    <glyph glyph-name="zero.dnom" horiz-adv-x="393" 
d="M79 42.5q-43 51.5 -43 151.5q0 99 43 150t118 51q74 0 117 -51t43 -150t-43 -151t-117 -52q-75 0 -118 51.5zM261.5 93q23.5 34 23.5 101t-23.5 100.5t-64.5 33.5t-65 -33.5t-24 -100.5t24 -101t65 -34t64.5 34z" />
    <glyph glyph-name="one.dnom" horiz-adv-x="292" 
d="M135 228q0 14 0.5 24.5t3.5 20.5l-2 1q-7 -11 -21 -16l-54 -21v66l78 46l11 37h53v-386h-69v228z" />
    <glyph glyph-name="two.dnom" horiz-adv-x="345" 
d="M15 3l165 207q18 22 27 38t9 34q0 22 -14.5 35t-38.5 13q-41 0 -98 -31l-30 57q68 39 137 39q53 0 84.5 -28.5t31.5 -77.5q0 -30 -13 -56t-39 -57l-62 -77q-22 -27 -37 -37l1 -2q33 6 62 6h108l1 -1l-38 -65h-254z" />
    <glyph glyph-name="three.dnom" horiz-adv-x="338" 
d="M41 17l24 64q25 -12 47 -17.5t49 -5.5q38 0 59 15t21 45q0 31 -26.5 44.5t-89.5 13.5v62q43 0 68 12.5t25 37.5q0 19 -15 30t-39 11q-43 0 -90 -26l-28 59q60 33 128 33q56 0 86 -26t30 -68q0 -34 -22 -56.5t-63 -29.5v-2q47 0 77 -28t30 -74q0 -53 -38 -86.5t-110 -33.5
q-69 0 -123 26z" />
    <glyph glyph-name="four.dnom" horiz-adv-x="364" 
d="M201 56l1 15v2q-3 -3 -13 -3h-178v56l193 260h65v-236q0 -11 -3 -14l1 -2q6 3 14 3h57l-21 -67h-36q-8 0 -14 3l-1 -2q3 -3 3 -14v-57h-68v56zM122 137h67q9 0 12 -3l1 2q-1 2 -1 14v95q0 30 3 52h-1q-4 -11 -12 -22t-12 -17l-73 -98l-10.5 -13.5t-14.5 -14.5l1 -1
q11 6 40 6z" />
    <glyph glyph-name="five.dnom" horiz-adv-x="334" 
d="M25 17l25 64q46 -23 92 -23q38 0 58.5 18.5t20.5 51.5q0 66 -94 66q-38 0 -63 -7l-2 2l59 197h182l-26 -69h-96q-13 0 -16 3l-1 -1q0 -9 -3 -24l-8 -27q-2 -10 -12 -20l1 -2q3 1 17 1q62 0 98 -31t36 -89q0 -62 -41.5 -99t-107.5 -37q-58 0 -119 26z" />
    <glyph glyph-name="six.dnom" horiz-adv-x="328" 
d="M68.5 29q-42.5 38 -42.5 106q0 44 18.5 85t59.5 92l67 83h88l-107 -127q-29 -34 -40 -57l3 -1q27 47 79 47q53 0 88.5 -35.5t35.5 -94.5t-40.5 -97.5t-106.5 -38.5q-60 0 -102.5 38zM225.5 77.5q19.5 18.5 19.5 49.5t-19.5 49t-53.5 18t-54 -18t-20 -49t20 -49.5
t54 -18.5t53.5 18.5z" />
    <glyph glyph-name="seven.dnom" horiz-adv-x="290" 
d="M149 260l9.5 20.5l8.5 17.5q11 23 13 26l-1 1q-15 -6 -56 -6h-117l28 67h241v-2l-171 -384h-77z" />
    <glyph glyph-name="eight.dnom" horiz-adv-x="367" 
d="M78 22q-38 31 -38 84q0 43 23.5 68.5t61.5 30.5v1q-34 6 -53.5 29.5t-19.5 58.5q0 44 36 72.5t95 28.5q60 0 96 -28.5t36 -72.5q0 -35 -19.5 -58.5t-53.5 -29.5v-1q38 -5 61.5 -30.5t23.5 -68.5q0 -53 -38 -84t-106 -31q-67 0 -105 31zM226.5 250q16.5 13 16.5 34
q0 22 -16.5 34t-43.5 12t-43 -12.5t-16 -33.5t16.5 -34t42.5 -13q27 0 43.5 13zM234.5 72q19.5 16 19.5 43t-19.5 42.5t-51.5 15.5q-31 0 -50.5 -15.5t-19.5 -42.5t19 -43t51 -16t51.5 16z" />
    <glyph glyph-name="nine.dnom" horiz-adv-x="326" 
d="M188 131q13 14 22 25.5t15 24.5l-2 1q-30 -50 -84 -50q-51 0 -87 35.5t-36 92.5q0 58 40 96.5t104 38.5q62 0 104 -37.5t42 -109.5q0 -42 -15.5 -78t-52.5 -79l-78 -91h-83zM214 214q20 17 20 47t-20 48.5t-54 18.5q-32 0 -52.5 -18.5t-20.5 -48.5t20 -47t53 -17
q34 0 54 17z" />
    <glyph glyph-name="zero.numr" horiz-adv-x="393" 
d="M79 331.5q-43 51.5 -43 151.5q0 99 43 150t118 51q74 0 117 -51t43 -150t-43 -151t-117 -52q-75 0 -118 51.5zM261.5 382q23.5 34 23.5 101t-23.5 100.5t-64.5 33.5t-65 -33.5t-24 -100.5t24 -101t65 -34t64.5 34z" />
    <glyph glyph-name="one.numr" horiz-adv-x="292" 
d="M135 517q0 14 0.5 24.5t3.5 20.5l-2 1q-7 -11 -21 -16l-54 -21v66l78 46l11 37h53v-386h-69v228z" />
    <glyph glyph-name="two.numr" horiz-adv-x="345" 
d="M15 292l165 207q18 22 27 38t9 34q0 22 -14.5 35t-38.5 13q-41 0 -98 -31l-30 57q68 39 137 39q53 0 84.5 -28.5t31.5 -77.5q0 -30 -13 -56t-39 -57l-62 -77q-22 -27 -37 -37l1 -2q33 6 62 6h108l1 -1l-38 -65h-254z" />
    <glyph glyph-name="three.numr" horiz-adv-x="338" 
d="M41 306l24 64q25 -12 47 -17.5t49 -5.5q38 0 59 15t21 45q0 31 -26.5 44.5t-89.5 13.5v62q43 0 68 12.5t25 37.5q0 19 -15 30t-39 11q-43 0 -90 -26l-28 59q61 33 128 33q56 0 86 -26t30 -68q0 -34 -22 -56.5t-63 -29.5v-2q47 0 77 -28t30 -74q0 -53 -38 -86.5
t-110 -33.5q-69 0 -123 26z" />
    <glyph glyph-name="four.numr" horiz-adv-x="364" 
d="M201 345l1 15v2q-3 -3 -13 -3h-178v56l193 260h65v-236q0 -11 -3 -14l1 -2q6 3 14 3h57l-21 -67h-36q-8 0 -14 3l-1 -2q3 -3 3 -14v-57h-68v56zM122 426h67q9 0 12 -3l1 2q-1 2 -1 14v95q0 30 3 52h-1q-4 -11 -12 -22t-12 -17l-73 -98l-10.5 -13.5t-14.5 -14.5l1 -1
q10 6 40 6z" />
    <glyph glyph-name="five.numr" horiz-adv-x="334" 
d="M25 306l25 64q46 -23 92 -23q38 0 58.5 18.5t20.5 51.5q0 66 -94 66q-38 0 -63 -7l-2 2l59 197h182l-26 -69h-96q-13 0 -16 3l-1 -1q0 -9 -3 -24l-8 -27q-2 -10 -12 -20l1 -2q3 1 17 1q62 0 98 -31t36 -89q0 -62 -41.5 -99t-107.5 -37q-58 0 -119 26z" />
    <glyph glyph-name="six.numr" horiz-adv-x="328" 
d="M68.5 318q-42.5 38 -42.5 106q0 44 18.5 85t59.5 92l67 83h88l-107 -127q-29 -34 -40 -57l3 -1q27 47 79 47q53 0 88.5 -35.5t35.5 -94.5t-40.5 -97.5t-106.5 -38.5q-60 0 -102.5 38zM225.5 366.5q19.5 18.5 19.5 49.5t-19.5 49t-53.5 18t-54 -18t-20 -49t20 -49.5
t54 -18.5t53.5 18.5z" />
    <glyph glyph-name="seven.numr" horiz-adv-x="290" 
d="M149 549l9.5 20.5l8.5 17.5q11 23 13 26l-1 1q-15 -6 -56 -6h-117l28 67h241v-2l-171 -384h-77z" />
    <glyph glyph-name="eight.numr" horiz-adv-x="367" 
d="M78 311q-38 31 -38 84q0 43 23.5 68.5t61.5 30.5v1q-34 6 -53.5 29.5t-19.5 58.5q0 44 36 72.5t95 28.5q60 0 96 -28.5t36 -72.5q0 -35 -19.5 -58.5t-53.5 -29.5v-1q38 -5 61.5 -30.5t23.5 -68.5q0 -53 -38 -84t-106 -31q-67 0 -105 31zM226.5 539q16.5 13 16.5 34
q0 22 -16.5 34t-43.5 12t-43 -12.5t-16 -33.5t16.5 -34t42.5 -13q27 0 43.5 13zM234.5 361q19.5 16 19.5 43t-19.5 42.5t-51.5 15.5q-31 0 -50.5 -15.5t-19.5 -42.5t19 -43t51 -16t51.5 16z" />
    <glyph glyph-name="nine.numr" horiz-adv-x="326" 
d="M188 420q13 14 22 25.5t15 24.5l-2 1q-30 -50 -84 -50q-51 0 -87 35.5t-36 92.5q0 58 40 96.5t104 38.5q62 0 104 -37.5t42 -109.5q0 -42 -15.5 -78t-52.5 -79l-78 -91h-83zM214 503q20 17 20 47t-20 48.5t-54 18.5q-32 0 -52.5 -18.5t-20.5 -48.5t20 -47t53 -17
q34 0 54 17z" />
    <glyph glyph-name="zero.sups" horiz-adv-x="454" 
d="M82.5 397.5q-51.5 59.5 -51.5 173.5t51.5 173t144.5 59t144.5 -59t51.5 -173t-51.5 -173.5t-144.5 -59.5t-144.5 59.5zM277 487.5q18 27.5 18 83.5q0 110 -68 110q-67 0 -67 -110q0 -111 67 -111q32 0 50 27.5z" />
    <glyph glyph-name="one.sups" horiz-adv-x="301" 
d="M111 566q0 28 6 44l-3 1q-5 -7 -9.5 -10t-13.5 -7l-60 -25v123l87 60l16 42h101v-446h-124v218z" />
    <glyph glyph-name="two.sups" horiz-adv-x="418" 
d="M5 355l170 214q33 41 45.5 61t12.5 30q0 23 -33 23q-24 0 -53 -10t-54 -26l-55 104q91 53 177 53q71 0 109.5 -32t38.5 -93q0 -30 -13.5 -57t-56.5 -83l-39 -48q-12 -14 -19.5 -22t-13.5 -12l1 -3q30 9 82 9h92l1 -1l-67 -114h-321z" />
    <glyph glyph-name="three.sups" horiz-adv-x="405" 
d="M92 347q-42 8 -69 22l44 117q53 -26 111 -26q66 0 66 36q0 20 -27.5 29t-92.5 9v93q96 0 96 35q0 26 -46 26q-23 0 -50 -7.5t-52 -20.5l-50 102q39 20 86 31t90 11q69 0 109.5 -30t40.5 -82q0 -30 -14.5 -53t-41.5 -35q-16 -8 -39 -11v-3q21 0 39 -6q37 -11 57.5 -38.5
t20.5 -67.5q0 -65 -51.5 -102t-141.5 -37q-43 0 -85 8z" />
    <glyph glyph-name="four.sups" horiz-adv-x="458" 
d="M239 399q0 18 4 21l-2 1q-4 -4 -19 -4h-201v97l219 280h119v-243q0 -15 -4 -19l2 -2q6 4 20 4h65l-36 -117h-29q-14 0 -20 4l-2 -1q4 -6 4 -22v-50h-120v51zM153.5 533q14.5 1 29.5 1h42q11 0 15 -4l2 2q-3 5 -3 17v73v18t3 33h-2q-8 -25 -28 -50l-53 -67
q-17 -20 -27 -26l1 -2q6 4 20.5 5z" />
    <glyph glyph-name="five.sups" horiz-adv-x="403" 
d="M11 368l44 111q61 -23 101 -23q35 0 53.5 13t18.5 37q0 27 -22 39.5t-67 12.5q-33 0 -70 -7l-3 2l71 241h235l-42 -118h-101q-11 0 -16 5l-1 -1v-3l-1 -8l-5 -18q-2 -7 -9 -11l1 -1q8 3 20 3q66 0 104.5 -37.5t38.5 -103.5q0 -77 -54 -120t-150 -43q-76 0 -146 30z" />
    <glyph glyph-name="six.sups" horiz-adv-x="419" 
d="M80 385.5q-50 47.5 -50 131.5q0 52 21.5 99.5t71.5 107.5l65 78h158l-155 -164q-23 -24 -32 -52l3 -1q30 67 97 67q39 0 70.5 -19.5t50 -53.5t18.5 -76q0 -74 -49.5 -119.5t-131.5 -45.5q-87 0 -137 47.5zM253 464.5q15 14.5 15 37.5q0 22 -15 37t-39 15t-39 -15t-15 -37
q0 -23 15 -37.5t39 -14.5t39 14.5z" />
    <glyph glyph-name="seven.sups" horiz-adv-x="378" 
d="M146 582l23 50q20 42 28 51l-1 2q-27 -12 -81 -12h-104l51 121h309l2 -3l-206 -443h-144z" />
    <glyph glyph-name="eight.sups" horiz-adv-x="438" 
d="M84 373q-48 35 -48 98q0 46 27.5 76.5t73.5 35.5v2q-39 4 -63 31t-24 65q0 56 46 89t123 33t123 -33t46 -89q0 -38 -24.5 -65t-62.5 -31v-2q46 -5 73.5 -35.5t27.5 -76.5q0 -63 -48 -98t-135 -35t-135 35zM248.5 642.5q11.5 9.5 11.5 25.5t-11.5 25.5t-29.5 9.5
q-19 0 -30 -9.5t-11 -25.5t11 -25.5t30 -9.5q18 0 29.5 9.5zM255 460q14 12 14 31t-13.5 31t-36.5 12t-36.5 -12t-13.5 -31t14 -31t36 -12t36 12z" />
    <glyph glyph-name="nine.sups" horiz-adv-x="409" 
d="M227 514q24 26 31 54l-3 1q-16 -37 -41.5 -56t-58.5 -19q-38 0 -69.5 19.5t-50.5 53t-19 73.5q0 72 49.5 117.5t129.5 45.5q85 0 134 -48.5t49 -133.5q0 -51 -19.5 -95.5t-63.5 -97.5l-68 -80h-152zM237 604q15 15 15 37q0 23 -15 37.5t-39 14.5t-39 -14.5t-15 -37.5
q0 -22 15 -37t39 -15t39 15z" />
    <glyph glyph-name="colon.case" horiz-adv-x="259" 
d="M196.5 148.5q26.5 -26.5 26.5 -67.5q0 -40 -26.5 -67t-67.5 -27q-40 0 -67 27t-27 67q0 41 27 67.5t67 26.5q41 0 67.5 -26.5zM196.5 515.5q26.5 -26.5 26.5 -67.5q0 -40 -26.5 -67t-67.5 -27q-40 0 -67 27t-27 67q0 41 27 67.5t67 26.5q41 0 67.5 -26.5z" />
    <glyph glyph-name="exclamdown.case" horiz-adv-x="371" 
d="M132 471h108l33 -471h-173zM119.5 551.5q-26.5 26.5 -26.5 67.5q0 40 26.5 67t67.5 27q40 0 67 -27t27 -67q0 -41 -27 -67.5t-67 -26.5q-41 0 -67.5 26.5z" />
    </font>
</defs>
</svg>
